<?xml version="1.0" encoding="UTF-8"?>
<svg width="268px" height="345px" viewBox="0 0 268 345" version="1.1" xmlns="http://www.w3.org/2000/svg" xmlns:xlink="http://www.w3.org/1999/xlink">
    <!-- Generator: Sketch 63.1 (92452) - https://sketch.com -->
    <title>illustration_sit</title>
    <desc>Created with Sketch.</desc>
    <g id="Azzurro" stroke="none" stroke-width="1" fill="none" fill-rule="evenodd">
        <g id="Step_3" transform="translate(-87.000000, -386.000000)">
            <g id="illustration_sit" transform="translate(87.000000, 386.000000)">
                <g id="Group-2">
                    <path d="M199.779775,335.001651 L194.237095,322.598546 L170.93635,332.831756 L178.8527,351.064061 L180.338405,350.521896 C186.92466,348.055601 213.655,337.516111 217.37976,334.324871 C221.535535,330.765601 199.779775,335.001651 199.779775,335.001651" id="Fill-118-Copy" fill="#5198D8" transform="translate(194.421893, 336.831304) rotate(24.000000) translate(-194.421893, -336.831304) "></path>
                    <path d="M173.24827,343.053851 C173.24827,343.064966 173.39894,343.082256 173.68546,343.106956 C174.062135,343.132891 174.474625,343.162531 174.941455,343.195876 C176.19745,343.263801 177.7412,343.346546 179.56406,343.445346 C183.467895,343.626891 188.867315,343.808436 194.832365,343.877596 C200.79865,343.945521 206.20054,343.889946 210.10808,343.797321 C211.932175,343.741746 213.47716,343.693581 214.735625,343.655296 C215.202455,343.633066 215.614945,343.613306 215.99162,343.594781 C216.28061,343.577491 216.43128,343.563906 216.430053,343.552791 C216.430053,343.542911 216.279375,343.535501 215.990385,343.533031 C215.61371,343.533031 215.199985,343.534266 214.73192,343.535501 C213.47469,343.547851 211.92847,343.562671 210.104375,343.578726 C206.196835,343.615776 200.79865,343.636771 194.83607,343.570081 C188.87349,343.499686 183.477775,343.353956 179.572705,343.226751 C177.74861,343.167471 176.203625,343.116836 174.946395,343.076081 C174.479565,343.063731 174.06584,343.053851 173.68793,343.043971 C173.400175,343.040266 173.24827,343.043971 173.24827,343.053851" id="Fill-103" fill="#132529"></path>
                    <path d="M207.523225,344.124596 C207.617085,344.136946 207.701065,343.034091 208.41119,341.926296 C209.101555,340.806151 210.059915,340.251636 210.008045,340.172596 C209.98952,340.094791 208.89284,340.562856 208.150605,341.762041 C207.392315,342.951346 207.446655,344.141886 207.523225,344.124596" id="Fill-104" fill="#132529"></path>
                    <path d="M200.056415,340.233111 C200.128045,340.280041 200.49237,339.846556 200.869045,339.266106 C201.246955,338.685656 201.49519,338.176836 201.422325,338.129906 C201.35193,338.084211 200.987605,338.516461 200.609695,339.098146 C200.23302,339.678596 199.984785,340.187416 200.056415,340.233111" id="Fill-105" fill="#132529"></path>
                    <path d="M198.00755,339.121611 C198.06436,339.185831 198.468205,338.921541 198.910335,338.532516 C199.3537,338.144726 199.66739,337.776696 199.61058,337.712476 C199.555005,337.648256 199.149925,337.912546 198.70656,338.301571 C198.26443,338.690596 197.951975,339.057391 198.00755,339.121611" id="Fill-106" fill="#132529"></path>
                    <path d="M196.731787,336.705951 C196.729325,336.791166 197.322125,336.873911 198.05695,336.889966 C198.791775,336.906021 199.387045,336.850446 199.389517,336.763996 C199.39075,336.678781 198.79795,336.597271 198.06436,336.581216 C197.329535,336.565161 196.73303,336.620736 196.731787,336.705951" id="Fill-107" fill="#132529"></path>
                    <path d="M196.302015,335.006591 C196.27361,335.083161 196.917045,335.382031 197.77784,335.454896 C198.641105,335.531466 199.32653,335.346216 199.31171,335.267176 C199.298125,335.179491 198.623815,335.220246 197.806245,335.147381 C196.98744,335.079456 196.329185,334.922611 196.302015,335.006591" id="Fill-108" fill="#132529"></path>
                    <path d="M200.943138,338.022461 C200.940675,338.058276 201.568055,338.141021 202.578285,338.031106 C203.082165,337.975531 203.68114,337.863146 204.32334,337.665546 C204.64444,337.555631 204.97789,337.474121 205.324925,337.265406 C205.487945,337.159196 205.66949,337.009761 205.734945,336.761526 C205.80534,336.518231 205.6769,336.241591 205.49412,336.105741 C203.94049,335.279526 202.36463,336.141556 201.77677,336.943071 C201.451965,337.351856 201.30253,337.751996 201.2309,338.028636 C201.162975,338.306511 201.165445,338.467061 201.18397,338.469531 C201.242015,338.490526 201.301295,337.827331 201.943495,337.082626 C202.26089,336.718301 202.738835,336.365091 203.35016,336.189721 C203.93061,336.025466 204.75312,335.987181 205.297755,336.344096 C205.55587,336.539226 205.450895,336.843036 205.16067,337.012231 C204.88897,337.182661 204.5407,337.285166 204.23689,337.395081 C203.615685,337.601326 203.037705,337.733471 202.548645,337.814981 C201.568055,337.978001 200.943138,337.973061 200.943138,338.022461" id="Fill-109" fill="#132529"></path>
                    <path d="M201.36675,338.108911 C201.38898,338.126201 201.634745,337.711241 201.56682,336.975181 C201.531005,336.614561 201.4038,336.184781 201.133335,335.775996 C200.849285,335.410436 200.48249,334.905321 199.78101,334.927551 C199.401865,334.972011 199.211675,335.401791 199.268485,335.677196 C199.295655,335.963716 199.421625,336.211951 199.53895,336.410786 C199.777305,336.822041 200.049005,337.155491 200.29971,337.408666 C200.807295,337.915016 201.21114,338.111381 201.22843,338.080506 C201.25807,338.040986 200.90733,337.784106 200.461495,337.261701 C200.239195,336.999881 199.999605,336.668901 199.787185,336.272466 C199.567355,335.924196 199.419155,335.301756 199.83041,335.232596 C200.239195,335.196781 200.65292,335.609271 200.89992,335.937781 C201.153095,336.294696 201.291415,336.677546 201.350695,337.006056 C201.469255,337.672956 201.31241,338.095326 201.36675,338.108911" id="Fill-110" fill="#132529"></path>
                    <path d="M173.842299,336.097096 C173.847245,336.155141 174.57219,336.035346 175.72074,336.183546 C176.85941,336.321866 178.438975,336.807221 179.804885,337.918721 C181.16956,339.032691 181.963665,340.482581 182.329225,341.568146 C182.7059,342.663591 182.73554,343.395946 182.793585,343.391031 C182.81211,343.389771 182.823225,343.206991 182.798525,342.877246 C182.776295,342.547501 182.70343,342.072026 182.536705,341.501456 C182.215605,340.368961 181.422735,338.840031 180.000015,337.679131 C178.574825,336.520701 176.91869,336.052636 175.744205,335.966186 C175.15264,335.919256 174.672225,335.942721 174.34495,335.987181 C174.017675,336.030406 173.84107,336.078571 173.842299,336.097096" id="Fill-111" fill="#132529"></path>
                    <path d="M176.593885,325.535376 C176.509905,325.534141 176.386405,327.873231 176.317245,330.760661 C176.250555,333.648091 176.26414,335.989651 176.349355,335.992122 C176.43457,335.993356 176.55807,333.655501 176.625995,330.766836 C176.69392,327.879406 176.680335,325.537846 176.593885,325.535376" id="Fill-112" fill="#132529"></path>
                    <path d="M186.058856,341.090201 C186.046575,341.169241 187.70271,341.459466 189.7701,341.498986 C191.83749,341.543446 193.50227,341.321146 193.494885,341.240871 C193.48745,341.151951 191.82514,341.234696 189.776275,341.190236 C187.728645,341.151951 186.07004,341.001281 186.058856,341.090201" id="Fill-113" fill="#132529"></path>
                    <path d="M181.071995,341.028451 C181.00901,341.090201 181.20414,341.382896 181.36963,341.765746 C181.54006,342.147361 181.62404,342.488221 181.711725,342.483281 C181.79447,342.483281 181.847575,342.081906 181.65121,341.641011 C181.45855,341.198881 181.126335,340.967936 181.071995,341.028451" id="Fill-114" fill="#132529"></path>
                    <path d="M179.217025,338.669601 C179.15651,338.728881 179.31706,338.994406 179.577645,339.264871 C179.83823,339.535336 180.098815,339.705766 180.160565,339.646486 C180.22108,339.587206 180.06053,339.320446 179.799945,339.049981 C179.53936,338.780751 179.278775,338.610321 179.217025,338.669601" id="Fill-115" fill="#132529"></path>
                    <path d="M176.539545,337.571686 C176.556835,337.658136 176.89399,337.658136 177.26696,337.793986 C177.6424,337.921191 177.905455,338.132376 177.97338,338.074331 C178.04254,338.028636 177.83259,337.664311 177.36823,337.502526 C176.90634,337.339506 176.514845,337.492646 176.539545,337.571686" id="Fill-116" fill="#132529"></path>
                    <path d="M174.630235,337.046811 C174.598125,337.125851 174.74262,337.257996 174.953805,337.341976 C175.163755,337.425956 175.36012,337.429661 175.390995,337.350621 C175.423105,337.271581 175.27861,337.140671 175.06866,337.055456 C174.857475,336.971476 174.662345,336.967771 174.630235,337.046811" id="Fill-117" fill="#132529"></path>
                    <path d="M249.384785,323.892826 L243.842105,311.489721 L220.54136,321.722931 L228.45771,339.955236 L229.943415,339.413071 C236.52967,336.946776 263.26001,326.407286 266.98477,323.216046 C271.140545,319.656776 249.384785,323.892826 249.384785,323.892826" id="Fill-118" fill="#5198D8"></path>
                    <path d="M227.894476,339.564976 C227.89949,339.574856 228.04275,339.529161 228.31445,339.431596 C228.668895,339.301921 229.056685,339.158661 229.496345,338.996876 C230.66836,338.542396 232.11084,337.982941 233.811435,337.322216 C237.44604,335.882206 242.44038,333.825931 247.905255,331.434971 C253.371365,329.042776 258.27308,326.769141 261.7953,325.077191 C263.43538,324.275676 264.824755,323.596426 265.95478,323.043146 C266.370975,322.830726 266.739005,322.643006 267.07616,322.471341 C267.331805,322.337961 267.462715,322.262626 267.45791,322.252746 C267.452835,322.244101 267.312045,322.299676 267.04899,322.415766 C266.704425,322.571376 266.32775,322.741806 265.90291,322.935701 C264.76177,323.463046 263.35881,324.113891 261.702675,324.879591 C258.15699,326.520906 253.24416,328.761196 247.78299,331.152156 C242.320585,333.541881 237.341065,335.629031 233.729925,337.119676 C232.042915,337.816216 230.61402,338.405311 229.451885,338.885726 C229.02087,339.067271 228.64049,339.227821 228.290985,339.374786 C228.026695,339.489641 227.890845,339.555096 227.894476,339.564976" id="Fill-121" fill="#132529"></path>
                    <path d="M259.57477,326.438161 C259.66616,326.410991 259.28825,325.369886 259.479675,324.069431 C259.647635,322.764036 260.292305,321.864956 260.21203,321.814321 C260.1651,321.751336 259.358645,322.629421 259.173395,324.026206 C258.973325,325.422991 259.51302,326.486326 259.57477,326.438161" id="Fill-122" fill="#132529"></path>
                    <path d="M251.168125,325.963921 C251.252105,325.976271 251.405245,325.432871 251.51022,324.747446 C251.61643,324.063256 251.63372,323.497626 251.548505,323.484041 C251.464525,323.471691 251.311385,324.016326 251.20641,324.700516 C251.101435,325.385941 251.08291,325.951571 251.168125,325.963921" id="Fill-123" fill="#132529"></path>
                    <path d="M248.843855,325.794726 C248.920425,325.829306 249.18101,325.421756 249.42554,324.885766 C249.6676,324.348541 249.802215,323.885416 249.725645,323.849601 C249.646605,323.815021 249.387255,324.221336 249.14396,324.758561 C248.900665,325.294551 248.76605,325.758911 248.843855,325.794726" id="Fill-124" fill="#132529"></path>
                    <path d="M246.68631,324.117596 C246.71842,324.196636 247.29393,324.026206 247.969475,323.738451 C248.646255,323.451931 249.167425,323.155531 249.132845,323.076491 C249.0995,322.998686 248.525225,323.167881 247.848445,323.454401 C247.1729,323.742156 246.652965,324.038556 246.68631,324.117596" id="Fill-125" fill="#132529"></path>
                    <path d="M245.595805,322.745511 C245.600745,322.827021 246.31087,322.834431 247.12597,322.545441 C247.942305,322.260156 248.493115,321.809381 248.446185,321.743926 C248.39802,321.669826 247.80028,321.984751 247.023465,322.253981 C246.24912,322.529386 245.58716,322.656591 245.595805,322.745511" id="Fill-126" fill="#132529"></path>
                    <path d="M251.06809,323.584076 C251.079205,323.617421 251.68559,323.434641 252.561205,322.918411 C252.99716,322.660296 253.4961,322.312026 254.001215,321.867426 C254.248215,321.635246 254.51868,321.424061 254.74839,321.091846 C254.853365,320.927591 254.957105,320.716406 254.91635,320.463231 C254.8793,320.212526 254.648355,320.012456 254.426055,319.964291 C252.669885,319.850671 251.58926,321.284506 251.383015,322.257686 C251.254575,322.762801 251.28298,323.190111 251.33238,323.470456 C251.38425,323.753271 251.452175,323.897766 251.4707,323.891591 C251.53245,323.889121 251.31262,323.258036 251.592965,322.315731 C251.731285,321.852606 252.020275,321.333906 252.506865,320.923886 C252.96752,320.534861 253.702345,320.161891 254.34578,320.261926 C254.660705,320.333556 254.690345,320.654656 254.495215,320.927591 C254.31861,321.194351 254.04197,321.431471 253.80979,321.656241 C253.329375,322.100841 252.857605,322.457756 252.445115,322.734396 C251.617665,323.286441 251.047095,323.538381 251.06809,323.584076" id="Fill-127" fill="#132529"></path>
                    <path d="M251.48799,323.488981 C251.516395,323.495156 251.5695,323.017211 251.20394,322.373776 C251.02363,322.058851 250.7297,321.719226 250.315975,321.458641 C249.905955,321.241281 249.365025,320.932531 248.73394,321.241281 C248.406665,321.437646 248.41037,321.908181 248.57586,322.135421 C248.717885,322.386126 248.935245,322.559026 249.1242,322.692406 C249.510755,322.969046 249.896075,323.161706 250.22829,323.288911 C250.898895,323.542086 251.3472,323.555671 251.350905,323.519856 C251.36202,323.471691 250.93471,323.381536 250.313505,323.088841 C250.004755,322.940641 249.65031,322.738101 249.293395,322.465166 C248.94883,322.237926 248.55857,321.731576 248.90437,321.499396 C249.263755,321.298091 249.809625,321.503101 250.170245,321.701936 C250.548155,321.923001 250.83097,322.214461 251.02116,322.489866 C251.40154,323.049321 251.43365,323.500096 251.48799,323.488981" id="Fill-128" fill="#132529"></path>
                    <path d="M225.573985,332.978721 C225.603625,333.029356 226.21495,332.623041 227.32151,332.284651 C228.41572,331.943791 230.0558,331.735076 231.75763,332.185851 C233.460695,332.639096 234.779675,333.634506 235.560195,334.474306 C236.3543,335.316576 236.68281,335.973596 236.73221,335.943956 C236.7495,335.935311 236.684045,335.763646 236.525965,335.473421 C236.370355,335.183196 236.1073,334.779351 235.72198,334.328576 C234.96369,333.428261 233.6126,332.361221 231.83667,331.888216 C230.061975,331.417681 228.360145,331.673326 227.25482,332.077171 C226.69413,332.278476 226.26682,332.497071 225.986475,332.672441 C225.70613,332.846576 225.564105,332.962666 225.573985,332.978721" id="Fill-129" fill="#132529"></path>
                    <path d="M223.73754,322.220636 C223.6585,322.253981 224.50818,324.437461 225.6345,327.096416 C226.76082,329.756606 227.73647,331.885746 227.816745,331.852401 C227.893315,331.819056 227.04487,329.635576 225.917315,326.976621 C224.79223,324.316431 223.815345,322.187291 223.73754,322.220636" id="Fill-130" fill="#132529"></path>
                    <path d="M238.76255,332.504481 C238.78478,332.581051 240.413745,332.164856 242.313175,331.349756 C244.21631,330.539596 245.642735,329.651631 245.60198,329.582471 C245.558755,329.503431 244.07799,330.264191 242.192145,331.066941 C240.310005,331.873396 238.73538,332.418031 238.76255,332.504481" id="Fill-131" fill="#132529"></path>
                    <path d="M234.19305,334.500241 C234.159705,334.581751 234.458575,334.768236 234.767325,335.048581 C235.078545,335.326456 235.295905,335.601861 235.37371,335.562341 C235.449045,335.527761 235.332955,335.141206 234.97357,334.820106 C234.614185,334.496536 234.21775,334.421201 234.19305,334.500241" id="Fill-132" fill="#132529"></path>
                    <path d="M231.53039,333.112101 C231.499515,333.191141 231.756395,333.367746 232.104665,333.507301 C232.452935,333.645621 232.76045,333.693786 232.79256,333.614746 C232.823435,333.535706 232.566555,333.359101 232.218285,333.220781 C231.87125,333.081226 231.5625,333.033061 231.53039,333.112101" id="Fill-133" fill="#132529"></path>
                    <path d="M228.639255,333.213371 C228.68989,333.285001 228.99864,333.146681 229.392605,333.117041 C229.787805,333.078756 230.11508,333.161501 230.153365,333.082461 C230.19659,333.012066 229.85573,332.766301 229.365435,332.810761 C228.87761,332.850281 228.58368,333.151621 228.639255,333.213371" id="Fill-134" fill="#132529"></path>
                    <path d="M226.683015,333.520886 C226.68672,333.606101 226.873205,333.666616 227.09921,333.656736 C227.325215,333.646856 227.505525,333.570286 227.50182,333.485071 C227.498115,333.399856 227.31163,333.339341 227.085625,333.349221 C226.85962,333.359101 226.67931,333.435671 226.683015,333.520886" id="Fill-135" fill="#132529"></path>
                    <path d="M19.662435,233.115386 L1.288105,95.7907961 C0.796575,92.1191411 3.8285,88.9353111 7.52115,89.2465311 L51.809485,92.9873461 C55.89116,93.3319111 59.125625,96.5725511 59.46525,100.654226 L70.24927,230.671321 L19.662435,233.115386" id="Fill-136" fill="#2271B5"></path>
                    <path d="M61.16214,44.8816261 C60.79164,39.6538711 59.419555,34.5533211 58.658795,29.3675561 C57.898035,24.1817911 57.786885,18.7132111 59.83328,13.8880661 C62.148905,8.43307109 67.07779,4.34892609 72.60071,2.20373109 C78.124865,0.057301088 84.206005,-0.304553912 90.11054,0.204266088 C91.17264,0.295656088 92.260675,0.424096088 93.20792,0.910686088 C94.157635,1.39851109 94.94927,2.32476109 94.982615,3.39056609 C95.01596,4.45637109 94.06501,5.53576109 93.009085,5.39003109 C95.254315,5.70125109 97.52054,6.01741109 99.643505,6.81151609 C100.488245,7.12767609 101.36139,7.56610109 101.789935,8.36020609 C102.27776,9.26175609 102.05299,10.4140111 101.493535,11.2723361 C100.935315,12.1318961 100.093045,12.7592761 99.268065,13.3668961 C100.305465,13.0383861 101.434255,13.9288211 101.67014,14.9896861 C101.90479,16.0517861 101.456485,17.1558761 100.82293,18.0389011 C100.189375,18.9219261 99.371805,19.6592211 98.71849,20.5286611 C96.04842,24.0805211 96.57206,29.0094061 97.2192,33.4072411" id="Fill-138" fill="#132529"></path>
                    <path d="M61.649965,75.5652011 L86.60808,75.1144261 C86.94153,72.2245261 87.426885,60.9934361 87.426885,60.9934361 C87.426885,60.9934361 97.85893,60.0239611 98.623395,49.7005961 C99.389095,39.3772311 99.06182,15.5429661 99.06182,15.5429661 C87.419475,9.66560109 73.5072,10.5486261 62.702185,17.8524161 L61.099155,18.9367461 L61.649965,75.5652011" id="Fill-139" fill="#B67E6D"></path>
                    <path d="M95.589,33.4566411 C95.00855,32.8613711 95.0209,31.9104211 95.61617,31.3299711 C96.210205,30.7507561 97.16239,30.7631061 97.741605,31.3571411 C98.32082,31.9524111 98.30847,32.9033611 97.714435,33.4838111 C97.119165,34.0630261 96.168215,34.0506761 95.589,33.4566411" id="Fill-140" fill="#132529"></path>
                    <path d="M98.23931,30.9483561 C98.06641,31.1175511 97.099405,30.2740461 95.676685,30.1789511 C94.256435,30.0640961 93.177045,30.7569311 93.03008,30.5642711 C92.95845,30.4778211 93.139995,30.1653661 93.611765,29.8504411 C94.07489,29.5367511 94.854175,29.2551711 95.740905,29.3206261 C96.627635,29.3860811 97.356285,29.7788111 97.768775,30.1567211 C98.18991,30.5383361 98.322055,30.8742561 98.23931,30.9483561" id="Fill-141" fill="#132529"></path>
                    <path d="M81.768115,31.1768311 C82.447365,31.6547761 82.610385,32.5921411 82.133675,33.2713911 C81.65573,33.9506411 80.718365,34.1136611 80.039115,33.6369511 C79.359865,33.1590061 79.196845,32.2216411 79.673555,31.5423911 C80.1515,30.8631411 81.088865,30.7001211 81.768115,31.1768311" id="Fill-142" fill="#132529"></path>
                    <path d="M82.706715,31.2484611 C82.53258,31.4164211 81.56681,30.5741511 80.14409,30.4790561 C78.722605,30.3629661 77.643215,31.0558011 77.497485,30.8631411 C77.425855,30.7766911 77.6074,30.4642361 78.077935,30.1493111 C78.542295,29.8368561 79.32158,29.5540411 80.20831,29.6207311 C81.093805,29.6861861 81.82369,30.0789161 82.234945,30.4568261 C82.65608,30.8372061 82.78946,31.1731261 82.706715,31.2484611" id="Fill-143" fill="#132529"></path>
                    <path d="M87.68747,43.3391111 C87.685,43.2267261 88.575435,43.1032261 90.017915,42.9933111 C90.393355,42.9760211 90.689755,42.9093311 90.729275,42.7117311 C90.810785,42.4906661 90.69099,42.0831161 90.529205,41.6286361 C90.220455,40.6653361 89.909235,39.6896861 89.58196,38.6683411 C88.281505,34.4532861 87.40095,30.9829361 87.61584,30.9174811 C87.829495,30.8507911 89.057085,34.2136961 90.356305,38.4287511 C90.662585,39.4575061 90.95528,40.4380961 91.243035,41.4088061 C91.35295,41.8472311 91.581425,42.3659311 91.351715,42.9686111 C91.22945,43.2687161 90.921935,43.4737261 90.672465,43.5231261 C90.42176,43.5824061 90.21181,43.5699768 90.032735,43.5663511 C88.58655,43.5293011 87.68994,43.4502611 87.68747,43.3391111" id="Fill-144" fill="#132529"></path>
                    <path d="M82.9673,44.6259811 C81.53964,43.6515661 86.915595,47.0465811 89.820315,47.0836311 C89.820315,47.0836311 87.994985,49.6363761 85.08409,48.3618561 C82.062045,47.0404061 82.9673,44.6259811 82.9673,44.6259811" id="Fill-145" fill="#FFFFFE"></path>
                    <path d="M87.45282,60.8452361 C87.45282,60.8452361 80.89003,60.9736761 74.219795,56.1868161 C74.219795,56.1868161 76.944205,63.8191161 87.31203,63.5239511 L87.45282,60.8452361" id="Fill-146" fill="#A16354"></path>
                    <path d="M60.765705,26.7666461 L61.3054,40.1663961 C61.3054,40.1663961 66.004575,38.7375011 66.3195,38.6016511 C66.636895,38.4645661 66.231815,22.1909711 66.231815,22.1909711 C66.231815,22.1909711 65.57356,16.0530211 69.57743,14.5969561 C73.78384,13.0667911 75.61905,16.1221811 81.58163,17.1262361 C101.25765,20.4409761 99.900385,14.4042961 99.900385,14.4042961 C99.900385,14.4042961 102.382735,11.7527511 97.33035,8.83444609 C92.11124,5.81857609 79.638975,4.93308109 72.71927,7.31539609 C59.09969,12.0034561 58.31917,16.6519961 58.31917,20.7657811 C58.31917,26.5184111 60.765705,26.7666461 60.765705,26.7666461" id="Fill-147" fill="#132529"></path>
                    <path d="M63.082565,28.1029161 C62.857795,28.0177011 55.41692,27.0506961 56.119635,35.8364861 C56.82235,44.6235111 65.46488,41.0074311 65.4599421,40.7542561 C65.455,40.5023161 63.082565,28.1029161 63.082565,28.1029161" id="Fill-148" fill="#B67E6D"></path>
                    <path d="M62.52064,37.8865861 C62.479885,37.8618861 62.376145,38.0063811 62.126675,38.1447011 C61.884615,38.2805511 61.45607,38.3954061 60.985535,38.2607911 C60.029645,37.9940311 59.130565,36.5824261 58.960135,35.0028611 C58.87492,34.2050511 58.98113,33.4294711 59.214545,32.7761561 C59.43067,32.1117261 59.809815,31.6300761 60.27047,31.5090461 C60.72742,31.3645511 61.08063,31.6177261 61.207835,31.8573161 C61.346155,32.0932011 61.304165,32.2735111 61.351095,32.2833911 C61.37703,32.3043861 61.528935,32.1228411 61.4289,31.7646911 C61.378265,31.5930261 61.25847,31.3941911 61.03864,31.2422861 C60.81387,31.0879111 60.49771,31.0249261 60.17414,31.0854411 C59.501065,31.1867111 58.940375,31.8597861 58.68473,32.5760861 C58.3908,33.2997961 58.25248,34.1717061 58.350045,35.0670811 C58.547645,36.8331311 59.58628,38.4176361 60.886735,38.6843961 C61.516585,38.7955461 62.017995,38.5683061 62.267465,38.3385961 C62.521875,38.1002411 62.55275,37.9001711 62.52064,37.8865861" id="Fill-149" fill="#A16354"></path>
                    <path d="M161.1675,146.553001 C161.1675,146.553001 173.46316,145.965141 176.025785,147.081581 C180.30753,148.948901 193.02062,168.889211 192.379655,168.892916 C190.4617,168.902796 186.49735,168.875626 186.49735,168.875626 L166.706475,161.384116 L162.055465,162.561071 L161.1675,146.553001" id="Fill-150" fill="#B67E6D"></path>
                    <path d="M214.263855,190.201606 C214.263855,190.201606 251.252105,318.204416 251.305277,317.547396 C251.35955,316.890376 218.18498,333.514711 218.18498,333.514711 L195.780845,240.961341 L214.263855,190.201606" id="Fill-151" fill="#132529"></path>
                    <polyline id="Fill-152" fill="#334F55" points="217.452625 334.297701 252.459935 317.215181 250.93965 312.540706 215.661875 329.642986 217.452625 334.297701"></polyline>
                    <path d="M212.858425,287.212091 C212.67935,287.266431 212.28662,286.469856 211.98281,285.434926 C211.677765,284.398761 211.57773,283.518206 211.75804,283.465101 C211.937115,283.413231 212.33108,284.209806 212.633655,285.243501 C212.937465,286.277196 213.038735,287.158986 212.858425,287.212091" id="Fill-153" fill="#334F55"></path>
                    <path d="M215.13947,294.683841 C214.960395,294.740651 214.55655,293.949016 214.23792,292.919026 C213.920525,291.886566 213.806905,291.007246 213.984745,290.952906 C214.165055,290.897331 214.5689,291.687731 214.88753,292.717721 C215.20616,293.747711 215.31731,294.628266 215.13947,294.683841" id="Fill-154" fill="#334F55"></path>
                    <path d="M217.526725,302.124716 C217.34765,302.182761 216.933925,301.398536 216.600475,300.371016 C216.267025,299.344731 216.13982,298.465411 216.32013,298.408601 C216.49797,298.350556 216.911695,299.136016 217.245145,300.162301 C217.578595,301.187351 217.704565,302.066671 217.526725,302.124716" id="Fill-155" fill="#334F55"></path>
                    <path d="M220.01772,309.532246 C219.841115,309.592761 219.41504,308.814711 219.068005,307.792131 C218.7185,306.769551 218.581415,305.892701 218.759255,305.832186 C218.93586,305.772906 219.361935,306.552191 219.710205,307.573536 C220.05724,308.593646 220.19556,309.470496 220.01772,309.532246" id="Fill-156" fill="#334F55"></path>
                    <path d="M222.614925,316.905196 C222.43832,316.969416 222.002365,316.195071 221.639275,315.177431 C221.27742,314.161026 221.12675,313.285411 221.303355,313.222426 C221.47996,313.160676 221.915915,313.933786 222.279005,314.950191 C222.64086,315.966596 222.790295,316.842211 222.614925,316.905196" id="Fill-157" fill="#334F55"></path>
                    <path d="M225.314635,324.242331 C225.1405,324.307786 224.692195,323.540851 224.31552,322.528151 C223.938845,321.516686 223.775825,320.643541 223.95243,320.578086 C224.1278,320.513866 224.576105,321.280801 224.951545,322.292266 C225.32822,323.302496 225.49124,324.175641 225.314635,324.242331" id="Fill-158" fill="#334F55"></path>
                    <path d="M223.343575,327.319951 C223.30035,327.339711 223.039765,326.861766 222.60381,325.979976 C222.170325,325.096951 221.57629,323.803906 220.898275,322.181116 C219.524955,318.944181 217.83177,314.390736 216.131175,309.307476 C214.426875,304.224216 213.00045,299.589261 211.979105,296.230061 C211.514745,294.654201 211.12325,293.321636 210.80462,292.242246 C210.539095,291.296236 210.41436,290.766421 210.45882,290.752517 C210.50328,290.738016 210.71323,291.240661 211.055325,292.160736 C211.39989,293.082046 211.86919,294.422021 212.436055,296.083096 C213.59572,299.558386 215.10489,304.084661 216.773375,309.092586 C218.4715,314.165966 220.088115,318.730526 221.342875,322.003276 C221.93691,323.532206 222.439555,324.826486 222.84587,325.873766 C223.20649,326.786431 223.3868,327.301426 223.343575,327.319951" id="Fill-159" fill="#334F55"></path>
                    <path d="M41.8750475,181.305901 C42.186365,174.520811 38.32946,218.511511 72.142525,219.681056 C105.991405,220.849366 175.045195,220.331901 175.045195,220.331901 L166.95471,331.886981 L207.51952,331.886981 L215.995325,213.257821 C215.995325,213.257821 220.31412,178.876656 196.79231,174.487466 C182.06864,171.739591 90.519325,170.855331 90.519325,170.855331 L41.8750475,181.305901" id="Fill-160" fill="#132529"></path>
                    <polyline id="Fill-161" fill="#334F55" points="166.02846 332.126571 208.745875 332.126571 208.745875 325.483506 166.02846 325.535376 166.02846 332.126571"></polyline>
                    <path d="M99.196435,214.406371 C99.196435,214.395256 99.3434,214.379201 99.631155,214.360676 C99.949785,214.342151 100.37339,214.317451 100.910615,214.286576 C102.073985,214.235941 103.728885,214.161841 105.85185,214.067981 C110.190405,213.902491 116.42839,213.665371 124.185425,213.368971 C139.78718,212.834216 161.4886,212.088276 186.04781,211.244771 L186.44054,211.231186 L186.392375,211.622681 C185.834155,216.172421 185.367325,220.969161 184.972125,225.854821 C184.4349,232.823926 183.910025,239.628776 183.403675,246.200211 C182.87139,252.775351 182.15756,259.096081 181.54253,265.119176 C180.279125,277.157956 179.140455,288.001256 178.18333,297.122966 C177.20521,306.202686 176.413575,313.562051 175.860295,318.692241 C175.57501,321.207936 175.351475,323.175291 175.19463,324.552316 C175.114355,325.195751 175.05137,325.699631 175.00444,326.075071 C174.95751,326.417166 174.92787,326.592536 174.916755,326.591308 C174.904405,326.590066 174.911815,326.413461 174.93528,326.067661 C174.966155,325.690986 175.00691,325.184636 175.05878,324.538731 C175.18475,323.159236 175.366295,321.186941 175.59724,318.665071 C176.09865,313.529941 176.818655,306.163166 177.705385,297.073566 C178.621755,287.948151 179.711025,277.099911 180.92009,265.054956 C181.51783,259.026921 182.21931,252.709896 182.741715,246.144636 C183.243125,239.573201 183.76306,232.768351 184.295345,225.799246 C184.69178,220.907411 185.16108,216.102026 185.725475,211.538701 L186.07004,211.916611 C161.507125,212.669961 139.803235,213.336861 124.200245,213.816041 C116.44074,214.024756 110.200285,214.192716 105.85926,214.311276 C103.736295,214.354501 102.078925,214.387846 100.91432,214.412546 C100.37586,214.416251 99.952255,214.419956 99.633625,214.423661 C99.344635,214.422426 99.196435,214.416251 99.196435,214.406371" id="Fill-162" fill="#334F55"></path>
                    <path d="M103.105231,209.612101 C103.11015,209.799821 102.237005,209.971486 101.15885,209.997421 C100.07946,210.023356 99.20014,209.891211 99.1964232,209.704726 C99.19273,209.517006 100.063405,209.344106 101.142795,209.319406 C102.222185,209.293471 103.10027,209.424381 103.105231,209.612101" id="Fill-163" fill="#334F55"></path>
                    <path d="M110.922772,209.428086 C110.926465,209.615806 110.05579,209.788706 108.9764,209.813406 C107.89701,209.839341 107.01769,209.707196 107.013964,209.520711 C107.009045,209.332991 107.880955,209.161326 108.960345,209.135391 C110.0385,209.109456 110.91782,209.241601 110.922772,209.428086" id="Fill-164" fill="#334F55"></path>
                    <path d="M118.739096,209.244071 C118.744015,209.431791 117.872105,209.604691 116.792715,209.629391 C115.713325,209.655326 114.83524,209.524416 114.830288,209.336696 C114.826595,209.148976 115.69727,208.977311 116.77666,208.951376 C117.85605,208.926676 118.734135,209.057586 118.739096,209.244071" id="Fill-165" fill="#334F55"></path>
                    <path d="M126.556637,209.061291 C126.56033,209.247776 125.689655,209.420676 124.610265,209.446611 C123.530875,209.471311 122.651555,209.340401 122.647829,209.152681 C122.64291,208.964961 123.51482,208.793296 124.59421,208.767361 C125.6736,208.742661 126.551685,208.873571 126.556637,209.061291" id="Fill-166" fill="#334F55"></path>
                    <path d="M134.372961,208.877276 C134.37788,209.063761 133.50597,209.236661 132.42658,209.262596 C131.34719,209.288531 130.469105,209.156386 130.464153,208.968666 C130.46046,208.780946 131.33237,208.609281 132.41176,208.583346 C133.49115,208.558646 134.369235,208.689556 134.372961,208.877276" id="Fill-167" fill="#334F55"></path>
                    <path d="M142.190502,208.693261 C142.194195,208.880981 141.32352,209.053881 140.24413,209.078581 C139.16474,209.104516 138.286655,208.972371 138.281703,208.784651 C138.27801,208.598166 139.148685,208.425266 140.228075,208.399331 C141.307465,208.374631 142.186785,208.505541 142.190502,208.693261" id="Fill-168" fill="#334F55"></path>
                    <path d="M150.008052,208.509246 C150.011745,208.696966 149.14107,208.869866 148.06168,208.894566 C146.981055,208.920501 146.104205,208.788356 146.099244,208.600636 C146.094325,208.414151 146.966235,208.241251 148.045625,208.216551 C149.125015,208.190616 150.0031,208.321526 150.008052,208.509246" id="Fill-169" fill="#334F55"></path>
                    <path d="M157.824376,208.325231 C157.829295,208.512951 156.957385,208.685851 155.87923,208.710551 C154.79984,208.736486 153.92052,208.604341 153.916794,208.417856 C153.911875,208.230136 154.78255,208.058471 155.86194,208.032536 C156.94133,208.007836 157.82065,208.138746 157.824376,208.325231" id="Fill-170" fill="#334F55"></path>
                    <path d="M165.641926,208.142451 C165.646845,208.328936 164.774935,208.501836 163.695545,208.526536 C162.616155,208.552471 161.73807,208.421561 161.733109,208.233841 C161.72819,208.046121 162.6001,207.874456 163.67949,207.848521 C164.75888,207.823821 165.636965,207.954731 165.641926,208.142451" id="Fill-171" fill="#334F55"></path>
                    <path d="M173.458241,207.958436 C173.46316,208.146156 172.59125,208.317821 171.513095,208.342521 C170.433705,208.368456 169.554385,208.237546 169.550659,208.049826 C169.54574,207.863341 170.41765,207.690441 171.49704,207.664506 C172.57643,207.639806 173.454515,207.770716 173.458241,207.958436" id="Fill-172" fill="#334F55"></path>
                    <path d="M181.275791,207.774421 C181.28071,207.962141 180.4088,208.135041 179.32941,208.159741 C178.25002,208.185676 177.371935,208.053531 177.366983,207.867046 C177.36329,207.679326 178.233965,207.506426 179.31459,207.481726 C180.392745,207.455791 181.272065,207.586701 181.275791,207.774421" id="Fill-173" fill="#334F55"></path>
                    <path d="M189.093341,207.590406 C189.09826,207.778126 188.22635,207.951026 187.14696,207.975726 C186.06757,208.001661 185.18825,207.870751 185.184533,207.683031 C185.18084,207.495311 186.051515,207.322411 187.130905,207.297711 C188.210295,207.271776 189.08838,207.403921 189.093341,207.590406" id="Fill-174" fill="#334F55"></path>
                    <path d="M189.079735,214.675601 C188.89325,214.657076 188.827795,213.771581 188.93277,212.697131 C189.03898,211.622681 189.274865,210.766826 189.46135,210.785351 C189.647835,210.803876 189.714525,211.689371 189.608315,212.763821 C189.50334,213.838271 189.26622,214.694126 189.079735,214.675601" id="Fill-175" fill="#334F55"></path>
                    <path d="M188.316505,222.458571 C188.13002,222.440046 188.064565,221.553316 188.16954,220.480101 C188.274515,219.405651 188.511635,218.548561 188.69812,218.567086 C188.884605,218.585611 188.95006,219.471106 188.845085,220.545556 C188.738875,221.620006 188.50299,222.475861 188.316505,222.458571" id="Fill-176" fill="#334F55"></path>
                    <path d="M187.553275,230.239071 C187.36679,230.221781 187.3001,229.336286 187.40631,228.260601 C187.511285,227.186151 187.748405,226.330296 187.93489,226.348821 C188.121375,226.367346 188.18683,227.252841 188.081855,228.327291 C187.975645,229.401741 187.73976,230.258831 187.553275,230.239071" id="Fill-177" fill="#334F55"></path>
                    <path d="M186.78881,238.022041 C186.602325,238.003516 186.53687,237.118021 186.64308,236.043571 C186.748055,234.969121 186.985175,234.112031 187.17166,234.130556 C187.358145,234.149081 187.4236,235.034576 187.318625,236.109026 C187.212415,237.183476 186.97653,238.039331 186.78881,238.022041" id="Fill-178" fill="#334F55"></path>
                    <path d="M186.02558,245.803776 C185.839095,245.785251 185.77364,244.899756 185.87985,243.825306 C185.984825,242.750856 186.22071,241.893766 186.407195,241.912291 C186.59368,241.930816 186.66037,242.817546 186.55416,243.891996 C186.449185,244.965211 186.212065,245.822301 186.02558,245.803776" id="Fill-179" fill="#334F55"></path>
                    <path d="M185.26235,253.585511 C185.075865,253.566986 185.01041,252.681491 185.115385,251.607041 C185.22036,250.532591 185.45748,249.676736 185.643965,249.694026 C185.83045,249.713786 185.895905,250.598046 185.79093,251.673731 C185.685955,252.748181 185.448835,253.604036 185.26235,253.585511" id="Fill-180" fill="#334F55"></path>
                    <path d="M184.49912,261.367246 C184.312635,261.348721 184.24718,260.463226 184.352155,259.388776 C184.45713,258.314326 184.69425,257.458471 184.880735,257.476996 C185.06722,257.494286 185.132675,258.381016 185.0277,259.455466 C184.922725,260.529916 184.685605,261.385771 184.49912,261.367246" id="Fill-181" fill="#334F55"></path>
                    <path d="M183.73589,269.148981 C183.549405,269.130456 183.48395,268.244961 183.588925,267.170511 C183.6939,266.096061 183.93102,265.240206 184.117505,265.258731 C184.30399,265.277256 184.369445,266.162751 184.26447,267.237201 C184.15826,268.311651 183.922375,269.167506 183.73589,269.148981" id="Fill-182" fill="#334F55"></path>
                    <path d="M182.97266,276.931951 C182.78494,276.912191 182.719485,276.026696 182.82446,274.953481 C182.93067,273.877796 183.166555,273.021941 183.354275,273.040466 C183.54076,273.058991 183.606215,273.944486 183.500005,275.018936 C183.39503,276.093386 183.15791,276.949241 182.97266,276.931951" id="Fill-183" fill="#334F55"></path>
                    <path d="M182.208195,284.712451 C182.02171,284.695161 181.956255,283.808431 182.06123,282.735216 C182.16744,281.659531 182.403325,280.803676 182.58981,280.822201 C182.776295,280.840726 182.842985,281.726221 182.736775,282.800671 C182.6318,283.875121 182.39468,284.732211 182.208195,284.712451" id="Fill-184" fill="#334F55"></path>
                    <path d="M181.444965,292.495421 C181.25848,292.476896 181.193025,291.591401 181.298,290.516951 C181.40421,289.441266 181.640095,288.585411 181.82658,288.603936 C182.013065,288.622461 182.07852,289.507956 181.973545,290.582406 C181.86857,291.656856 181.63145,292.512711 181.444965,292.495421" id="Fill-185" fill="#334F55"></path>
                    <path d="M180.681735,300.277156 C180.49525,300.258631 180.42856,299.371901 180.53477,298.298686 C180.639745,297.224236 180.876865,296.367146 181.06335,296.385671 C181.249835,296.404196 181.31529,297.289691 181.210315,298.365376 C181.104105,299.438591 180.86822,300.295681 180.681735,300.277156" id="Fill-186" fill="#334F55"></path>
                    <path d="M179.91727,308.058891 C179.73202,308.040366 179.66533,307.154871 179.77154,306.080421 C179.876515,305.005971 180.113635,304.150116 180.298885,304.167406 C180.48537,304.185931 180.55206,305.071426 180.447085,306.147111 C180.340875,307.220326 180.10499,308.077416 179.91727,308.058891" id="Fill-187" fill="#334F55"></path>
                    <path d="M179.15404,315.840626 C178.967555,315.822101 178.9021,314.936606 179.00831,313.862156 C179.113285,312.787706 179.34917,311.930616 179.535655,311.950376 C179.72214,311.967666 179.78883,312.854396 179.68262,313.928846 C179.577645,315.003296 179.340525,315.859151 179.15404,315.840626" id="Fill-188" fill="#334F55"></path>
                    <path d="M178.39081,323.622361 C178.204325,323.603836 178.13887,322.718341 178.243845,321.643891 C178.34882,320.569441 178.58594,319.713586 178.772425,319.732111 C178.95891,319.749401 179.024365,320.636131 178.91939,321.710581 C178.814415,322.785031 178.577295,323.640886 178.39081,323.622361" id="Fill-189" fill="#334F55"></path>
                    <path d="M177.98573,327.746026 C177.80048,327.727501 177.653515,327.660811 177.65969,327.596591 C177.665865,327.532371 177.82271,327.495321 178.009195,327.513846 C178.19568,327.532371 178.342645,327.597826 178.335235,327.663281 C178.32906,327.726266 178.172215,327.764551 177.98573,327.746026" id="Fill-190" fill="#334F55"></path>
                    <path d="M180.580465,215.135021 C180.701495,215.278281 179.50972,216.575031 177.91904,218.029861 C176.32836,219.485926 174.93281,220.557906 174.79943,220.424526 C174.66852,220.292381 175.85906,218.995631 177.460855,217.528451 C179.06265,216.062506 180.459435,214.990526 180.580465,215.135021" id="Fill-191" fill="#132529"></path>
                    <path d="M183.38268,216.636781 C183.45925,216.807211 181.50548,217.850786 179.019425,218.967226 C176.53337,220.083666 174.4561,220.849366 174.37953,220.678936 C174.30296,220.508506 176.255495,219.464931 178.74155,218.348491 C181.227605,217.232051 183.304875,216.466351 183.38268,216.636781" id="Fill-192" fill="#132529"></path>
                    <path d="M100.88221,141.696981 C100.88221,141.696981 96.746195,97.3728311 89.395475,77.9685111 L90.860185,76.8668911 L88.67053,69.2296511 L61.17943,65.8951511 L61.6018,71.8589661 C57.48184,73.8547261 54.02631,76.9138211 52.199745,80.7954261 C42.35309,101.721266 47.20664,126.143391 41.95542,171.414786 C41.95542,171.414786 35.81006,192.645671 42.1629,199.287501 L102.13944,185.308536 L99.277945,171.623501 C125.459945,171.123326 168.51081,166.310531 168.51081,166.310531 L167.31039,141.541371 C167.31039,141.541371 102.98665,141.926691 100.88221,141.696981" id="Fill-193" fill="#157082"></path>
                    <path d="M88.62113,69.1926011 C88.79897,69.1345561 89.68817,71.3587911 90.60701,74.1610061 C90.810785,74.8736011 91.107185,75.4836911 91.15288,76.2506261 C91.17017,76.6273011 91.02938,77.0274411 90.80214,77.2843211 C90.578605,77.5461411 90.309375,77.7042211 90.05867,77.8042561 C89.02127,78.1241211 88.43094,77.8956461 88.427235,77.8474811 C88.40377,77.7215111 89.074375,77.7363311 89.8586,77.3683011 C90.235275,77.1620561 90.58725,76.7903211 90.529205,76.2753261 C90.482275,75.7590961 90.16982,75.0699661 89.96234,74.3721911 C89.0435,71.5699761 88.44329,69.2506461 88.62113,69.1926011" id="Fill-194" fill="#D4D5CF"></path>
                    <path d="M95.17898,102.196741 C95.17898,102.384461 84.12326,102.536366 70.490095,102.536366 C56.85199,102.536366 45.799975,102.384461 45.799975,102.196741 C45.799975,102.009021 56.85199,101.857116 70.490095,101.857116 C84.12326,101.857116 95.17898,102.009021 95.17898,102.196741" id="Fill-195" fill="#132529"></path>
                    <path d="M92.591655,89.7059511 C92.591655,89.8936711 82.793165,90.0455761 70.70869,90.0455761 C58.619275,90.0455761 48.82202,89.8936711 48.82202,89.7059511 C48.82202,89.5194661 58.619275,89.3675611 70.70869,89.3675611 C82.793165,89.3675611 92.591655,89.5194661 92.591655,89.7059511" id="Fill-196" fill="#132529"></path>
                    <path d="M88.98916,78.7193911 C88.98916,78.9071111 80.883855,79.0590161 70.887765,79.0590161 C60.88797,79.0590161 52.785135,78.9071111 52.785135,78.7193911 C52.785135,78.5329061 60.88797,78.3810011 70.887765,78.3810011 C80.883855,78.3810011 88.98916,78.5329061 88.98916,78.7193911" id="Fill-197" fill="#132529"></path>
                    <path d="M88.62854,70.9747061 C88.62854,71.1624261 82.41896,71.3130961 74.760725,71.3130961 C67.098785,71.3130961 60.89044,71.1624261 60.89044,70.9747061 C60.89044,70.7869861 67.098785,70.6350811 74.760725,70.6350811 C82.41896,70.6350811 88.62854,70.7869861 88.62854,70.9747061" id="Fill-198" fill="#132529"></path>
                    <path d="M96.914155,114.202176 C96.914155,114.389896 85.21994,114.541801 70.798845,114.541801 C56.371575,114.541801 44.67983,114.389896 44.67983,114.202176 C44.67983,114.015691 56.371575,113.863786 70.798845,113.863786 C85.21994,113.863786 96.914155,114.015691 96.914155,114.202176" id="Fill-199" fill="#132529"></path>
                    <path d="M99.040825,126.270596 C99.040825,126.458316 86.871135,126.610221 71.86218,126.610221 C56.84705,126.610221 44.67983,126.458316 44.67983,126.270596 C44.67983,126.084111 56.84705,125.930971 71.86218,125.930971 C86.871135,125.930971 99.040825,126.084111 99.040825,126.270596" id="Fill-200" fill="#132529"></path>
                    <path d="M100.37586,137.393006 C100.37586,137.580726 87.906065,137.732631 72.52908,137.732631 C57.14592,137.732631 44.67983,137.580726 44.67983,137.393006 C44.67983,137.206521 57.14592,137.054616 72.52908,137.054616 C87.906065,137.054616 100.37586,137.206521 100.37586,137.393006" id="Fill-201" fill="#132529"></path>
                    <path d="M161.1675,149.549111 C161.1675,149.736831 134.85953,149.888736 102.41361,149.888736 C69.95781,149.888736 43.65478,149.736831 43.65478,149.549111 C43.65478,149.361391 69.95781,149.209486 102.41361,149.209486 C134.85953,149.209486 161.1675,149.361391 161.1675,149.549111" id="Fill-202" fill="#132529"></path>
                    <path d="M161.618275,159.289556 C161.618275,159.477276 135.11147,159.629181 102.419785,159.629181 C69.716985,159.629181 43.21512,159.477276 43.21512,159.289556 C43.21512,159.101836 69.716985,158.949931 102.419785,158.949931 C135.11147,158.949931 161.618275,159.101836 161.618275,159.289556" id="Fill-203" fill="#132529"></path>
                    <path d="M98.37763,178.703756 C98.37763,178.891476 85.71147,179.043381 70.09119,179.043381 C54.464735,179.043381 41.801045,178.891476 41.801045,178.703756 C41.801045,178.517271 54.464735,178.365366 70.09119,178.365366 C85.71147,178.365366 98.37763,178.517271 98.37763,178.703756" id="Fill-204" fill="#132529"></path>
                    <path d="M101.25518,168.843516 C101.25518,169.031236 87.486165,169.183141 70.504915,169.183141 C53.51749,169.183141 39.750945,169.031236 39.750945,168.843516 C39.750945,168.657031 53.51749,168.505126 70.504915,168.505126 C87.486165,168.505126 101.25518,168.657031 101.25518,168.843516" id="Fill-205" fill="#132529"></path>
                    <path d="M48.88377,185.381401 C48.69605,185.381401 48.544145,163.782486 48.544145,137.146006 C48.544145,110.498411 48.69605,88.9044361 48.88377,88.9044361 C49.070255,88.9044361 49.223395,110.498411 49.223395,137.146006 C49.223395,163.782486 49.070255,185.381401 48.88377,185.381401" id="Fill-206" fill="#132529"></path>
                    <path d="M63.726,184.189626 C63.53828,184.189626 63.386375,157.785326 63.386375,125.223316 C63.386375,92.6477211 63.53828,66.2495961 63.726,66.2495961 C63.91372,66.2495961 64.065625,92.6477211 64.065625,125.223316 C64.065625,157.785326 63.91372,184.189626 63.726,184.189626" id="Fill-207" fill="#132529"></path>
                    <path d="M80.11445,182.428516 C79.927965,182.428516 79.774825,156.973931 79.774825,125.580231 C79.774825,94.1766511 79.927965,68.7270061 80.11445,68.7270061 C80.30217,68.7270061 80.454075,94.1766511 80.454075,125.580231 C80.454075,156.973931 80.30217,182.428516 80.11445,182.428516" id="Fill-208" fill="#132529"></path>
                    <path d="M93.87976,185.341881 C93.693275,185.341881 93.540135,165.362051 93.540135,140.720096 C93.540135,116.069496 93.693275,96.0933711 93.87976,96.0933711 C94.06748,96.0933711 94.219385,116.069496 94.219385,140.720096 C94.219385,165.362051 94.06748,185.341881 93.87976,185.341881" id="Fill-209" fill="#132529"></path>
                    <path d="M108.463875,141.641395 C108.55897,141.645111 108.60343,143.303716 108.60096,145.981196 C108.59849,148.658676 108.547855,152.353796 108.45029,156.433001 C108.352725,160.513441 108.226755,164.207326 108.10202,166.881101 C107.97605,169.556111 107.851315,171.209777 107.757455,171.209777 C107.66483,171.211011 107.619135,169.556111 107.621605,166.878631 C107.624075,164.201151 107.67471,160.502326 107.772275,156.416946 C107.86984,152.331566 107.99581,148.635211 108.12178,145.961436 C108.246515,143.287661 108.37125,141.636466 108.463875,141.641395" id="Fill-210" fill="#132529"></path>
                    <path d="M123.96189,142.158859 C124.05575,142.163811 124.103915,143.717441 124.10515,146.225726 C124.106385,148.732776 124.061925,152.194481 123.970535,156.015571 C123.879145,159.839131 123.758115,163.298366 123.637085,165.802946 C123.51482,168.307526 123.39379,169.857452 123.29993,169.857452 C123.20607,169.858686 123.15914,168.307526 123.15667,165.800476 C123.155435,163.292191 123.20113,159.826781 123.291285,155.999516 C123.38391,152.173486 123.503705,148.709311 123.62597,146.205966 C123.747,143.700151 123.869265,142.153931 123.96189,142.158859" id="Fill-211" fill="#132529"></path>
                    <path d="M139.47843,141.885924 C139.57229,141.889641 139.620455,143.397576 139.62416,145.828056 C139.627865,148.259771 139.585875,151.614031 139.496955,155.319031 C139.40927,159.025266 139.289475,162.378291 139.170915,164.807536 C139.05112,167.235546 138.93009,168.737307 138.83623,168.737307 C138.743605,168.738541 138.694205,167.235546 138.6905,164.803831 C138.68803,162.373351 138.73002,159.014151 138.81894,155.302976 C138.906625,151.593036 139.025185,148.236306 139.14498,145.808296 C139.26354,143.380286 139.38457,141.880996 139.47843,141.885924" id="Fill-212" fill="#132529"></path>
                    <path d="M154.998675,141.446264 C155.092535,141.449981 155.141935,142.912221 155.14811,145.271071 C155.15305,147.629921 155.112295,150.885381 155.02708,154.480466 C154.94063,158.075551 154.825775,161.329776 154.707215,163.686156 C154.58989,166.041301 154.470095,167.499836 154.376235,167.499836 C154.282375,167.499836 154.232975,166.041301 154.228035,163.682451 C154.223095,161.323601 154.262615,158.064436 154.34783,154.464411 C154.43428,150.864386 154.55037,147.606456 154.667695,145.251311 C154.786255,142.894931 154.904815,141.441336 154.998675,141.446264" id="Fill-213" fill="#132529"></path>
                    <path d="M95.50008,147.219901 C95.342,147.137156 96.18674,145.324176 97.82188,143.505021 C99.44714,141.675986 101.155145,140.634881 101.25518,140.781846 C101.372505,140.939926 99.89668,142.189746 98.326995,143.957031 C96.74743,145.713201 95.67051,147.319936 95.50008,147.219901" id="Fill-214" fill="#132529"></path>
                    <path d="M99.045765,147.520006 C98.8741,147.553351 98.57276,145.797181 99.31623,143.797716 C100.04241,141.789606 101.407085,140.644761 101.515765,140.781846 C101.6652,140.916461 100.61792,142.177396 99.952255,144.031131 C99.263125,145.873751 99.24707,147.513831 99.045765,147.520006" id="Fill-215" fill="#132529"></path>
                    <path d="M162.240715,166.179663 C162.05423,166.196911 161.42191,160.888881 160.82911,154.326091 C160.23631,147.762066 159.906565,142.426866 160.094285,142.410769 C160.28077,142.393521 160.911855,147.700316 161.504655,154.265576 C162.097455,160.828366 162.4272,166.163566 162.240715,166.179663" id="Fill-216" fill="#132529"></path>
                    <path d="M163.078045,147.086521 C163.13115,147.174206 162.732245,147.416266 162.68655,148.036236 C162.665555,148.328931 162.742125,148.703136 162.984185,148.937786 C163.21266,149.177376 163.63256,149.232951 164.024055,149.066226 C164.41555,148.893326 164.661315,148.548761 164.64279,148.219016 C164.63785,147.881861 164.416785,147.569406 164.18831,147.385391 C163.70419,146.995131 163.25465,147.121101 163.22748,147.021066 C163.159555,146.965491 163.680725,146.578936 164.448895,146.982781 C164.797165,147.177911 165.19607,147.565701 165.266465,148.175791 C165.34921,148.798231 164.895965,149.442901 164.29452,149.688666 C163.70419,149.959131 162.924905,149.849216 162.526,149.363861 C162.129565,148.895796 162.11845,148.340046 162.213545,147.952256 C162.44449,147.114926 163.082985,146.997601 163.078045,147.086521" id="Fill-217" fill="#132529"></path>
                    <path d="M100.801935,141.574716 C100.80317,141.568541 100.908145,141.571011 101.11192,141.584596 C101.340395,141.601886 101.63803,141.625351 102.02088,141.654991 C102.82116,141.742676 104.0117,141.816776 105.5678,141.868646 C108.67753,142.000791 113.245795,142.060071 119.05894,142.011906 C130.683995,141.931631 147.289805,141.505556 167.198005,140.716391 L167.48823,140.705276 L167.50305,140.996736 C167.88837,148.690786 168.309505,157.098666 168.751635,165.916566 L168.766455,166.196911 L168.50834,166.246311 C165.34427,166.845286 162.1555,167.088581 158.88028,167.423266 C155.608765,167.707316 152.276735,167.997541 148.892835,168.290236 C142.125035,168.842281 135.14605,169.359746 128.036155,169.864861 C119.094755,170.467541 110.363305,171.057871 101.935665,171.625971 L101.91467,171.627206 L101.89244,171.625971 C94.32683,171.138146 86.972405,168.423616 81.839745,163.436686 C79.246245,161.000031 77.30606,158.003921 76.015485,154.876901 C74.6928,151.753586 73.859175,148.556171 73.091005,145.462496 C70.040555,133.061861 68.12013,121.865351 66.614665,112.528751 C65.86996,107.859216 65.24258,103.649101 64.702885,99.9626261 C64.189125,96.2786211 63.611779,93.1207261 63.613615,90.4938811 C63.57533,87.8732111 64.14096,85.8527511 64.826385,84.6659161 C65.505635,83.4692011 66.08485,83.0184261 66.08485,83.0184261 C66.123135,83.0480661 65.567385,83.5260111 64.932595,84.7227261 C64.29163,85.9095611 63.774165,87.8991461 63.84703,90.4914111 C63.88161,93.0836761 64.48923,96.2292211 65.03757,99.9119911 C65.626665,103.594761 66.29727,107.794996 67.041975,112.459591 C68.60425,121.780136 70.57284,132.956886 73.654165,145.321706 C74.43098,148.406736 75.26831,151.574511 76.576175,154.638546 C77.8544,157.708756 79.740245,160.602361 82.276935,162.979736 C87.2898,167.833286 94.49232,170.489771 101.935665,170.961541 L101.893675,170.961541 C110.318845,170.389736 119.04906,169.795701 127.98799,169.186846 C135.09418,168.654561 142.06946,168.130921 148.838495,167.622101 C152.219925,167.331876 155.549485,167.046591 158.817295,166.765011 C162.06905,166.440206 165.318335,166.188266 168.351495,165.620166 L168.106965,165.948676 C167.68583,157.129541 167.28322,148.720426 166.916425,141.025141 L167.22147,141.304251 C147.304625,142.035371 130.69264,142.376231 119.05894,142.356471 C113.243325,142.354001 108.67012,142.239146 105.55792,142.050191 C104.000585,141.968681 102.810045,141.866176 102.011,141.747616 C101.629385,141.698216 101.332985,141.659931 101.105745,141.630291 C100.903205,141.601886 100.8007,141.583361 100.801935,141.574716" id="Fill-218" fill="#132529"></path>
                    <path d="M100.801935,141.574879 C100.757475,141.587066 100.53394,140.896701 100.169615,139.637001 C99.801585,138.378536 99.307585,136.547031 98.722195,134.278336 C97.546475,129.739711 96.064475,123.436271 94.488615,116.465931 C92.91152,109.491886 91.455455,103.189681 90.36989,98.6350011 C89.85119,96.4465811 89.42141,94.6298961 89.09043,93.2368161 C88.7965,91.9610611 88.654475,91.2484661 88.70017,91.2371543 C88.745865,91.2237661 88.973105,91.9141311 89.346075,93.1701261 C89.723985,94.4261211 90.230335,96.2539211 90.835485,98.5176761 C92.040845,103.047656 93.572245,109.341216 95.14934,116.315261 C96.714085,123.227556 98.12816,129.481596 99.18779,134.164716 C99.6892,136.356841 100.105395,138.177231 100.42526,139.571546 C100.710545,140.851006 100.84763,141.563601 100.801935,141.574879" id="Fill-219" fill="#132529"></path>
                    <path d="M88.70017,69.7075961 C88.745865,69.7162411 88.698935,70.2015961 88.572965,71.0722711 C88.446995,71.9429461 88.244455,73.1977061 87.97893,74.7463961 C87.81838,75.5256811 87.76404,76.3506611 87.458995,77.3077861 C87.300915,77.7672061 86.952645,78.3130761 86.3512,78.5069711 C85.764575,78.6922211 85.19771,78.5563711 84.697535,78.4563361 C82.65608,78.0376711 80.43061,77.4942711 78.114985,76.8607161 C73.481265,75.5874311 69.353895,74.2499261 66.352845,73.3273811 C64.969645,72.8951311 63.786515,72.5233961 62.80469,72.2171161 C61.96736,71.9515911 61.509175,71.7823961 61.5212817,71.7379361 C61.53264,71.6922411 62.01429,71.7737511 62.87385,71.9614711 C63.732175,72.1528961 64.96841,72.4579411 66.486225,72.8667261 C69.526795,73.6731811 73.6801,74.9378211 78.292825,76.2061661 C80.599805,76.8372511 82.807985,77.3967061 84.82721,77.8450111 C85.32862,77.9611011 85.80039,78.0537261 86.16842,77.9388711 C86.532745,77.8314261 86.782215,77.5016811 86.932885,77.1077161 C87.214465,76.3111411 87.32438,75.4058861 87.50716,74.6550061 C87.8332,73.1186661 88.108605,71.8774911 88.313615,71.0228711 C88.518625,70.1670161 88.654475,69.6989511 88.70017,69.7075961" id="Fill-220" fill="#132529"></path>
                    <polyline id="Fill-221" fill="#132529" points="67.09014 227.097231 75.719085 344.265386 79.33146 343.423116 77.99025 229.569701 67.09014 227.097231"></polyline>
                    <polyline id="Fill-222" fill="#132529" points="30.508205 231.171496 4.291625 344.124596 9.03279 344.124596 46.563205 231.171496 30.508205 231.171496"></polyline>
                    <polyline id="Fill-223" fill="#132529" points="99.858395 231.171496 135.623995 344.124596 139.4562 344.124596 111.035145 231.171496 99.858395 231.171496"></polyline>
                    <polyline id="Fill-224" fill="#132529" points="104.64896 238.759336 24.496225 291.129511 24.496225 294.003356 106.88431 238.759336 104.64896 238.759336"></polyline>
                    <polyline id="Fill-225" fill="#132529" points="36.6301 238.759336 123.488885 297.197066 123.488885 292.726366 39.185315 236.205356 36.6301 238.759336"></polyline>
                    <path d="M18.53241,233.115386 L121.804345,231.243126 C125.706945,231.171496 128.69688,227.748076 128.241165,223.872646 C127.845965,220.506036 124.96718,217.986636 121.57834,218.039741 L16.841695,219.724281 L18.53241,233.115386" id="Fill-226" fill="#E0565F"></path>
                    <path d="M18.53241,233.115386 L18.53241,233.110446 L16.841695,219.724281 L121.57834,218.039741 C121.614155,218.039741 121.64997,218.039741 121.685785,218.039741 C125.027695,218.039741 127.850905,220.541851 128.241165,223.872646 C128.27204,224.136936 128.28686,224.399991 128.28686,224.659341 C128.28439,227.959261 125.815625,230.767651 122.5367,231.190021 C122.29711,231.220896 122.05258,231.238186 121.804345,231.243126 L117.34723,231.323401 L111.101835,231.437021 L100.006595,231.638326 L67.46805,232.228656 L46.084025,232.616446 L30.105595,232.905436 L18.53241,233.115386" id="Fill-227" fill="#2271B5"></path>
                    <path d="M18.427435,234.350386 L99.858395,232.406496 L99.64968,183.921631 C99.76083,175.857081 92.868295,169.469661 84.83462,170.193371 L22.73882,175.794096 L14.8973414,90.3240686 L6.40815112,89.2254731 C2.70685612,88.9130181 -0.42237,93.3726661 0.08645,97.0517311 L8.01268,154.519986 L18.427435,234.350386 Z" id="Fill-228" fill="#5198D8"></path>
                </g>
            </g>
        </g>
    </g>
</svg>