<?xml version="1.0" encoding="UTF-8"?>
<svg width="380px" height="316px" viewBox="0 0 380 316" version="1.1" xmlns="http://www.w3.org/2000/svg" xmlns:xlink="http://www.w3.org/1999/xlink">
    <!-- Generator: Sketch 63.1 (92452) - https://sketch.com -->
    <title>Illustration_time</title>
    <desc>Created with Sketch.</desc>
    <defs>
        <polygon id="path-1" points="0 0.41668 379.664472 0.41668 379.664472 1.29668 0 1.29668"></polygon>
        <polygon id="path-3" points="0.7510209 0.60368 155.990373 0.60368 155.990373 12.562792 0.7510209 12.562792"></polygon>
    </defs>
    <g id="Azzurro" stroke="none" stroke-width="1" fill="none" fill-rule="evenodd">
        <g id="Step_3-Copy" transform="translate(-17.000000, -417.000000)">
            <g id="Illustration_time" transform="translate(17.000000, 417.000000)">
                <g id="Group-3" transform="translate(0.000000, 313.556320)">
                    <mask id="mask-2" fill="white">
                        <use xlink:href="#path-1"></use>
                    </mask>
                    <g id="Clip-2"></g>
                    <path d="M379.664472,0.85624 C379.664472,0.98296 294.667032,1.08592 189.841432,1.08592 C84.978872,1.08592 -8.8e-05,0.98296 -8.8e-05,0.85624 C-8.8e-05,0.72952 84.978872,0.62744 189.841432,0.62744 C294.667032,0.62744 379.664472,0.72952 379.664472,0.85624" id="Fill-1" fill="#263238" mask="url(#mask-2)"></path>
                </g>
                <g id="Group-35" transform="translate(86.240000, 0.276320)">
                    <path d="M16.553592,11.608344 C2.431352,33.822184 3.356232,64.618664 18.786152,85.944584 C29.071592,100.160984 44.501512,109.689624 56.752872,122.250744 C69.005112,134.812744 78.310232,153.325304 71.844872,169.637864 C65.262472,186.243464 45.982552,192.998344 31.545272,203.517864 C15.818792,214.975464 4.773032,232.672264 1.389432,251.834264 C-1.995048,270.994504 2.321352,291.405224 13.171752,307.555864 L163.143112,307.555864 C163.143112,307.555864 189.488552,257.348344 155.616472,219.085944 C121.744392,180.823544 103.554792,180.196984 104.808792,155.106424 C106.063672,130.015864 123.626712,121.861784 133.662232,112.452824 C143.698632,103.043864 192.623992,81.090504 163.770552,11.608344 L16.553592,11.608344 Z" id="Fill-4" fill="#FAFAFA"></path>
                    <path d="M16.553592,11.608784 C16.553592,11.608784 17.424792,11.594704 19.135512,11.587664 C20.852392,11.583264 23.399112,11.576224 26.737832,11.567424 C33.431112,11.557744 43.295912,11.543664 56.003112,11.525184 C81.443032,11.506704 118.256072,11.480304 163.770552,11.445984 L163.881432,11.445984 L163.921032,11.546304 C165.969672,16.750624 168.041192,22.108064 169.508152,27.785824 C171.019112,33.438944 172.257272,39.328784 172.695512,45.432464 C173.154872,51.523824 172.956872,57.814064 171.744232,64.060304 C170.491992,70.290704 168.260312,76.461264 164.964712,82.168944 C163.326152,85.028944 161.398952,87.744624 159.315992,90.365264 C157.210152,92.970064 154.877272,95.419104 152.407992,97.756384 C149.934312,100.091024 147.300472,102.290144 144.566312,104.394224 C141.836552,106.506224 138.988872,108.501184 136.207192,110.607904 C134.814152,111.658624 133.541672,112.836944 132.214632,114.017904 C130.880552,115.175984 129.506872,116.293584 128.119992,117.400624 C125.349752,119.617344 122.549592,121.833184 119.907832,124.259344 C114.574152,129.031584 110.069432,134.990944 107.590472,141.926224 C106.388392,145.387264 105.525992,149.013744 105.245272,152.724704 C105.170472,153.652224 105.046392,154.577104 105.012072,155.509024 C104.993592,156.440944 104.939912,157.375504 104.984792,158.309184 C104.997112,160.178304 105.207432,162.046544 105.547992,163.888384 C106.251992,167.572064 107.799032,171.101744 110.049192,174.162384 C112.265912,177.250304 114.998312,179.968624 117.827512,182.583104 C123.521992,187.789184 129.560552,192.758544 135.345672,198.123904 C141.158952,203.460224 146.804152,209.092224 152.240792,215.012864 C154.938872,217.982864 157.681832,220.971344 160.041112,224.286304 C162.479592,227.538784 164.527352,231.092224 166.327832,234.768864 C169.875112,242.157344 172.068072,250.263024 172.786152,258.551744 C173.558792,266.840464 172.968312,275.286704 171.325352,283.551664 C170.513112,287.689424 169.433352,291.786704 168.108072,295.817104 C166.781912,299.848384 165.251592,303.823344 163.347272,307.662784 L163.285672,307.785104 L163.143112,307.785104 L159.281672,307.785104 C108.087672,307.785104 58.690632,307.778944 13.171752,307.775424 L13.054712,307.775424 L12.989592,307.677744 C5.844872,296.950544 1.601512,284.627904 0.431992,272.277984 C-0.811448,259.927184 1.089352,247.539424 5.620472,236.544704 C10.092632,225.511264 17.044632,215.834784 25.445112,208.228944 C29.632152,204.395664 34.301432,201.259344 38.978632,198.357104 C43.661112,195.449584 48.383192,192.761184 52.848312,189.820224 C57.293192,186.872224 61.577032,183.732384 65.054792,179.890304 C68.544872,176.080784 71.212152,171.605104 72.608712,166.795904 C74.011432,161.981424 74.024632,156.932864 73.204472,152.179104 C72.372872,147.408624 70.693832,142.897744 68.569512,138.743264 C66.439032,134.582624 63.855352,130.762544 61.020872,127.275984 C58.193432,123.778864 55.050072,120.675104 51.886472,117.745584 C45.537272,111.901504 39.041112,106.789584 33.192632,101.536864 C30.263112,98.916224 27.487592,96.270944 24.933832,93.552624 C22.397672,90.819344 20.078872,88.017424 18.087432,85.113424 C14.071112,79.321264 11.316712,73.218464 9.507432,67.327744 C7.694632,61.429984 6.793512,55.728464 6.586712,50.482784 C6.463512,49.174224 6.511912,47.889424 6.514552,46.635424 C6.530392,45.381424 6.493432,44.155584 6.622792,42.965824 C6.714312,41.775184 6.804072,40.614464 6.891192,39.484544 C7.026712,38.359024 7.212392,37.270464 7.363752,36.209184 C8.683752,27.712784 11.247192,21.506144 13.245672,17.532064 C13.723512,16.522704 14.145912,15.635664 14.601752,14.916704 C15.030312,14.187184 15.389352,13.573824 15.678872,13.081024 C16.256152,12.099824 16.553592,11.608784 16.553592,11.608784 C16.492872,11.717024 16.247352,12.149104 15.703512,13.110944 C15.420152,13.604624 15.068152,14.217984 14.648392,14.949264 C14.202232,15.664704 13.785992,16.554384 13.313432,17.566384 C11.339592,21.545744 8.803432,27.750624 7.508952,36.231184 C7.361112,37.291584 7.178072,38.378384 7.046072,39.501264 C6.962472,40.629424 6.875352,41.787504 6.787352,42.975504 C6.660632,44.161744 6.701112,45.384944 6.687032,46.636304 C6.687912,47.886784 6.642152,49.168064 6.767992,50.473984 C6.985352,55.705584 7.894392,61.389504 9.711592,67.265264 C11.526152,73.133984 14.280552,79.210384 18.288952,84.973504 C20.276872,87.862544 22.591272,90.653024 25.123912,93.374864 C27.674152,96.082624 30.447912,98.719104 33.375672,101.331824 C39.221512,106.570464 45.723832,111.674464 52.091512,117.522944 C55.263032,120.454224 58.422232,123.565904 61.265512,127.077104 C64.115832,130.575104 66.715352,134.410144 68.861672,138.592784 C71.001832,142.770144 72.696712,147.309184 73.539752,152.121024 C74.371352,156.914384 74.363432,162.019264 72.947512,166.892704 C71.538632,171.760864 68.841432,176.290224 65.323192,180.135824 C61.816392,184.014864 57.510552,187.173184 53.054232,190.132624 C48.577672,193.086784 43.853832,195.778704 39.181912,198.683584 C34.512632,201.584944 29.871512,204.707184 25.708232,208.521984 C17.357032,216.091744 10.444632,225.723344 6.001512,236.700464 C1.499432,247.638864 -0.385528,259.952704 0.856152,272.237504 C2.023912,284.518784 6.247912,296.772784 13.353912,307.433984 L13.171752,307.337184 C58.690632,307.334544 108.087672,307.331024 159.281672,307.327504 L163.143112,307.327504 L162.940712,307.449824 C164.822152,303.656144 166.355112,299.682944 167.673352,295.674544 C168.992472,291.660864 170.066952,287.581184 170.876552,283.463664 C172.512472,275.234784 173.100312,266.831664 172.332072,258.593104 C171.619272,250.354544 169.441272,242.303424 165.919512,234.964224 C164.132232,231.313104 162.100312,227.782544 159.676792,224.551184 C157.335112,221.259984 154.608872,218.287344 151.910792,215.315584 C146.482072,209.404624 140.849192,203.779664 135.045592,198.450384 C129.269272,193.090304 123.240392,188.127984 117.530072,182.904304 C114.693832,180.280144 111.942072,177.543344 109.696312,174.414944 C107.417992,171.314704 105.838392,167.712864 105.124712,163.971104 C104.780632,162.100224 104.569432,160.206464 104.557112,158.317984 C104.512232,157.373744 104.565912,156.432144 104.585272,155.491424 C104.620472,154.551584 104.745432,153.618784 104.821112,152.683344 C105.106232,148.942464 105.977432,145.279024 107.193592,141.782784 C109.699832,134.773584 114.263512,128.749984 119.628872,123.955744 C122.286472,121.517264 125.096312,119.296144 127.865672,117.082944 C129.251672,115.976784 130.621832,114.862704 131.947992,113.712544 C133.252152,112.552704 134.559832,111.344464 135.961672,110.288464 C138.757432,108.172944 141.600712,106.185024 144.323432,104.080064 C147.052312,101.983024 149.676472,99.793584 152.139592,97.471264 C154.598312,95.145424 156.920632,92.711344 159.016792,90.122384 C161.088312,87.517584 163.006712,84.819504 164.635592,81.978864 C167.913592,76.309024 170.133832,70.181584 171.383432,63.989904 C172.593432,57.782384 172.795832,51.524704 172.342632,45.459744 C171.911432,39.382464 170.682072,33.512864 169.180792,27.874704 C167.722632,22.212784 165.660792,16.865904 163.620952,11.671264 L163.770552,11.770704 C118.284232,11.737264 81.491432,11.710864 56.067352,11.691504 C43.350472,11.673904 33.477752,11.659824 26.780072,11.650144 C23.431672,11.641344 20.878792,11.633424 19.157512,11.629024 C17.439752,11.622864 16.553592,11.608784 16.553592,11.608784" id="Fill-6" fill="#263238"></path>
                    <path d="M157.785848,52.348296 C179.874728,55.979176 145.046968,95.100456 125.334088,110.537416 C113.918728,119.475576 101.660328,129.168776 96.239528,142.615176 C90.089208,157.870856 94.647608,175.017656 91.667048,190.364856 C91.172488,192.911576 87.406088,192.511176 87.443928,189.916056 C87.590888,179.843576 87.322488,169.774616 85.653128,159.857896 C83.285928,145.793736 77.878328,131.878296 68.020568,121.570856 C59.973848,113.156296 49.421768,107.565656 40.838248,99.699336 C28.307048,88.215336 15.433528,73.403176 14.178648,56.451736 C14.178648,56.451736 38.239608,37.070616 51.595368,39.516136 C67.203048,42.375256 82.569608,66.459976 106.755528,63.702056 C123.641848,61.776616 132.163768,48.136616 157.785848,52.348296" id="Fill-8" fill="#5198D8"></path>
                    <path d="M159.746928,261.74016 C159.188128,256.2164 157.715008,249.96488 152.813408,247.3592 C149.843408,245.78048 146.227488,245.9556 142.975008,246.81096 C139.722528,247.6672 136.665408,249.1456 133.441968,250.10304 C127.098048,251.98712 120.148688,251.76712 113.936768,249.48528 C107.943968,247.28352 102.799488,243.30416 97.234368,240.17488 C91.670128,237.04648 85.156368,234.71536 78.960288,236.25712 C68.277088,238.9156 62.718128,251.77768 52.155488,254.88232 C47.461568,256.26216 42.420048,255.48864 37.647808,254.40624 C32.875568,253.32472 28.084848,251.93784 23.195568,252.12 C19.364048,252.26344 15.377648,253.58784 12.691888,256.21376 L12.720048,256.17768 C12.692768,256.20408 12.669008,256.234 12.642608,256.26128 C12.199968,256.69864 11.795168,257.17208 11.431728,257.6816 C8.155488,262.04816 7.631888,267.9204 8.639488,273.2532 C9.767648,279.22488 12.557248,284.74424 15.551008,290.03128 C19.076288,296.26168 23.082048,302.46216 28.912048,306.61576 C36.103408,311.73824 45.148048,308.20328 53.950688,308.8976 C74.483728,310.51768 96.574368,311.62384 117.110048,310.03192 C127.956928,309.19152 138.124448,310.36632 146.731728,303.71176 C152.788768,299.03016 156.725008,291.97344 158.625808,284.55768 C160.524848,277.14192 160.516048,269.35568 159.746928,261.74016" id="Fill-10" fill="#5198D8"></path>
                    <path d="M120.99516,251.16036 C119.83532,252.93532 119.34164,255.31308 120.45924,257.11532 C121.57684,258.91668 123.0878,260.55524 123.57268,262.61884 C124.33388,265.86164 122.38204,269.03228 120.92652,272.0278 C118.3226,277.38612 117.13812,283.49772 118.01636,289.3902 C118.8946,295.28356 121.9174,300.91204 126.63332,304.55172 C128.71892,306.16212 131.42756,307.40996 133.94172,306.62148 C136.30804,305.87964 137.83836,303.47812 138.30828,301.04404 C138.7782,298.6082 138.391,296.1002 138.08124,293.63972 C136.64684,282.21996 136.94076,270.5846 138.9498,259.25196 C139.28596,257.35732 139.60628,255.19428 138.40596,253.69036 C137.63948,252.73028 136.41628,252.27884 135.25028,251.89076 C130.6734,250.36748 125.73484,252.05972 120.99516,251.16036" id="Fill-12" fill="#000000"></path>
                    <path d="M2.164624,314.365744 C2.164624,314.365744 1.751904,307.482384 10.728784,303.650864 L168.471424,303.650864 C168.471424,303.650864 176.697664,307.814144 177.708784,314.223184 L2.164624,314.365744 Z" id="Fill-14" fill="#263238"></path>
                    <g id="Group-18" transform="translate(12.320000, 0.000000)">
                        <mask id="mask-4" fill="white">
                            <use xlink:href="#path-3"></use>
                        </mask>
                        <g id="Clip-17"></g>
                        <path d="M152.808392,12.447512 C152.725672,12.486232 152.642952,12.524952 152.558472,12.562792 L4.233592,11.607992 C4.233592,11.607992 3.707352,11.271832 2.917992,10.654072 C-1.306888,7.349672 1.063832,0.560472 6.429192,0.603592 L150.389272,1.766072 C156.331912,1.814472 158.180792,9.907832 152.808392,12.447512" id="Fill-16" fill="#263238" mask="url(#mask-4)"></path>
                    </g>
                    <path d="M141.388984,69.027464 C141.688184,69.599464 140.574104,70.836744 138.448024,72.723464 C136.314024,74.612824 133.200584,77.204424 129.242344,80.395304 C125.262104,83.560664 120.439704,87.376344 114.298184,90.935944 C111.221704,92.714424 107.796744,94.327464 104.051464,95.639544 C102.168264,96.271384 100.216424,96.858344 98.163384,97.266664 C96.122664,97.704024 93.992184,97.994424 91.801864,98.095624 C87.433544,98.346424 82.990424,97.706664 79.013704,96.347944 C75.059864,94.976024 71.687704,93.043544 68.738824,91.103144 C65.782024,89.142504 63.233544,87.207384 60.831144,85.354984 C58.438424,83.498184 56.257784,81.709144 54.308584,80.025704 C46.517944,73.274344 42.420664,68.311144 43.210024,67.352824 C44.026664,66.356664 49.541624,69.514104 58.137464,74.795864 C60.285544,76.114984 62.635144,77.558184 65.157224,79.106984 C67.676664,80.641704 70.387064,82.334824 73.150264,83.901224 C75.922264,85.467624 78.814824,86.892344 81.814744,87.817224 C84.794424,88.707784 87.972104,89.130184 91.352184,88.940984 C98.107944,88.596024 104.664824,86.215624 110.344344,83.474424 C116.053784,80.680424 121.159544,77.519464 125.612344,75.026424 C130.059864,72.505224 133.864104,70.641384 136.633464,69.652264 C139.406344,68.656984 141.102984,68.477464 141.388984,69.027464" id="Fill-19" fill="#396C9A"></path>
                    <path d="M87.55428,208.749376 C89.18228,208.176496 91.12884,209.814176 90.84108,211.516976 C90.5542,213.218016 88.1782,214.127056 86.82916,213.052576 C85.47924,211.977216 85.83388,209.458656 87.42844,208.797776" id="Fill-21" fill="#5198D8"></path>
                    <path d="M34.502072,93.5747064 C34.490632,93.584832 34.310232,93.402672 33.978472,93.046272 C33.622072,92.655552 33.143352,92.131072 32.541432,91.471072 C31.935112,90.772352 31.135192,89.963632 30.318552,88.932272 C29.489592,87.900032 28.551512,86.733152 27.517512,85.446592 C26.560952,84.094032 25.475032,82.636752 24.382952,81.021952 C23.864632,80.195632 23.327832,79.342032 22.776072,78.462912 C22.504152,78.020272 22.209352,77.582912 21.946232,77.117392 C21.691032,76.648352 21.433192,76.172272 21.171832,75.690032 C19.007032,71.876992 17.078072,67.411872 15.707912,62.534032 C14.335992,57.653552 13.692712,52.828512 13.6336052,48.436432 C13.630232,47.339072 13.690952,46.268992 13.714712,45.229712 C13.739352,44.710512 13.730552,44.196592 13.781592,43.694992 C13.835272,43.194272 13.888072,42.699712 13.939992,42.214832 C14.050872,41.245952 14.128312,40.305232 14.258552,39.409392 C14.419592,38.519712 14.573592,37.664352 14.721432,36.847712 C14.973992,35.206512 15.406952,33.765952 15.718472,32.487312 C15.887432,31.851072 16.019432,31.252672 16.187512,30.714112 C16.361752,30.182592 16.521912,29.693312 16.667112,29.248912 C16.951352,28.401472 17.177512,27.728272 17.344712,27.226672 C17.504872,26.766432 17.596392,26.527952 17.610472,26.5322922 C17.625432,26.537632 17.563832,26.786672 17.432712,27.256592 C17.285752,27.763472 17.086872,28.444592 16.837832,29.300832 C16.704072,29.746992 16.557112,30.238912 16.397832,30.773952 C16.242952,31.314272 16.123272,31.913552 15.966632,32.550672 C15.680632,33.830192 15.270552,35.269872 15.040872,36.906672 C14.902712,37.720672 14.758392,38.573392 14.607912,39.459552 C14.488232,40.351872 14.420472,41.287312 14.317512,42.250912 C14.269992,42.733152 14.221592,43.224192 14.172312,43.722272 C14.125672,44.221232 14.137992,44.731632 14.117752,45.247312 C14.100152,46.278672 14.046472,47.341712 14.056152,48.430272 C14.137112,52.788912 14.788312,57.569072 16.148792,62.409952 C17.508392,67.248192 19.409192,71.685152 21.542312,75.486752 C21.799272,75.968112 22.053592,76.442432 22.304392,76.911472 C22.563112,77.375232 22.853512,77.812592 23.121032,78.254352 C23.663992,79.133472 24.191112,79.987072 24.701512,80.813392 C25.774232,82.429072 26.840792,83.891632 27.777112,85.252112 C28.788232,86.550992 29.706072,87.728432 30.516552,88.769472 C31.312072,89.814912 32.090872,90.637712 32.676072,91.354032 C33.250712,92.036912 33.707432,92.579872 34.047112,92.984672 C34.355992,93.360432 34.513512,93.563712 34.502072,93.5747064" id="Fill-23" fill="#263238"></path>
                    <path d="M26.150256,224.309283 C26.143216,224.304784 26.199536,224.207104 26.314816,224.019664 C26.445056,223.813744 26.618416,223.540064 26.838416,223.191584 C27.076896,222.822864 27.365536,222.376704 27.703456,221.853104 C27.875936,221.588224 28.061616,221.303984 28.258736,221.000384 C28.475216,220.709104 28.728656,220.416944 28.984736,220.098384 C29.505696,219.462144 30.082096,218.757264 30.712176,217.988144 C31.388896,217.258624 32.165936,216.503584 32.979056,215.671984 C34.650176,214.055424 36.670656,212.331504 39.020256,210.587344 C43.692176,207.047104 49.718416,203.528864 56.249776,199.423664 C59.491696,197.337184 62.904336,195.138944 66.129536,192.463744 C69.360016,189.807904 72.474336,186.746384 74.995536,183.094384 C79.968416,175.702384 81.987136,167.138224 82.164016,159.483104 C82.364656,151.769904 80.724336,144.901504 78.790976,139.425264 C76.834736,133.928784 74.590736,129.746144 72.960976,126.924864 C72.146096,125.510704 71.477296,124.433584 71.016176,123.708464 C70.797936,123.359104 70.627216,123.084544 70.497856,122.877744 C70.383456,122.689424 70.328016,122.590864 70.334176,122.58631 C70.341216,122.582064 70.408976,122.671824 70.536576,122.852224 C70.675616,123.052864 70.859536,123.318624 71.093616,123.657424 C71.580256,124.367584 72.274576,125.431504 73.114976,126.834224 C74.794896,129.633504 77.090816,133.807344 79.096336,139.316144 C81.077216,144.804704 82.764176,151.712704 82.585536,159.493664 C82.552976,161.432304 82.397216,163.418464 82.100656,165.428384 C81.821696,167.440064 81.397536,169.476384 80.812336,171.505664 C79.680656,175.575664 77.863456,179.617504 75.375696,183.350464 C72.821056,187.052624 69.670656,190.141424 66.412896,192.811344 C63.159536,195.501504 59.730176,197.698864 56.475936,199.780064 C49.919056,203.873824 43.890176,207.354224 39.213856,210.847824 C36.859856,212.568224 34.835856,214.266624 33.156816,215.856784 C32.339296,216.675184 31.556976,217.417904 30.873216,218.135104 C30.236096,218.891904 29.651776,219.583584 29.124656,220.208384 C28.864176,220.521664 28.606336,220.808544 28.385456,221.094544 C28.183056,221.391984 27.992096,221.670944 27.815216,221.931424 C27.464096,222.443584 27.164016,222.880064 26.916736,223.241744 C26.680896,223.578784 26.495216,223.844544 26.355296,224.043424 C26.226816,224.222064 26.157296,224.312704 26.150256,224.309283" id="Fill-25" fill="#263238"></path>
                    <path d="M17.966432,239.857904 C17.979632,239.866704 17.912752,240.007504 17.773712,240.266224 C17.604752,240.568944 17.397952,240.938544 17.147152,241.385584 C16.863792,241.865184 16.527632,242.456544 16.187952,243.171984 C15.841232,243.881264 15.402992,244.667984 15.032512,245.591104 C14.833632,246.047824 14.627712,246.525664 14.412112,247.021984 C14.200032,247.520064 14.026672,248.057744 13.820752,248.604224 C13.390432,249.691024 13.056912,250.893984 12.676752,252.150624 C11.999152,254.685024 11.433312,257.521264 11.139392,260.537024 C10.878912,263.557184 10.919392,266.448864 11.124432,269.065104 C11.270512,270.370144 11.379632,271.613584 11.604912,272.761104 C11.707872,273.334864 11.780032,273.895424 11.898832,274.424304 C12.019392,274.951424 12.136432,275.458304 12.247312,275.944064 C12.443552,276.919104 12.732192,277.772704 12.943392,278.533024 C13.147552,279.297744 13.370192,279.941024 13.562032,280.463744 C13.727472,280.949504 13.862992,281.350784 13.973872,281.678144 C14.063632,281.957984 14.104112,282.108464 14.089152,282.11477 C14.075072,282.119904 14.006432,281.981744 13.888512,281.713344 C13.755632,281.392144 13.591952,281.000544 13.394832,280.524464 C13.176592,280.009664 12.928432,279.371664 12.699632,278.610464 C12.462912,277.852784 12.151392,277.000064 11.933152,276.023264 C11.811712,275.535744 11.684992,275.027104 11.552992,274.498224 C11.424512,273.967584 11.342672,273.403504 11.230032,272.826224 C10.987152,271.671664 10.863072,270.419424 10.704672,269.102944 C10.473232,266.465584 10.419552,263.543984 10.683552,260.494784 C10.979232,257.449984 11.563552,254.587344 12.270192,252.036224 C12.665312,250.771664 13.015552,249.561664 13.464352,248.472224 C13.679952,247.923984 13.862992,247.385424 14.085632,246.886464 C14.311792,246.391024 14.529152,245.914064 14.737712,245.456464 C15.129312,244.535104 15.591312,243.753664 15.961792,243.051424 C16.325232,242.343904 16.685152,241.762224 16.994032,241.294944 C17.274752,240.863744 17.506192,240.507344 17.695392,240.216944 C17.859952,239.973184 17.953232,239.849104 17.966432,239.857904" id="Fill-27" fill="#263238"></path>
                    <path d="M126.766951,261.00712 C126.771128,261.01416 126.710408,261.05816 126.588088,261.13648 C126.441128,261.22888 126.261608,261.34152 126.038968,261.48056 C125.518888,261.79296 124.806088,262.22152 123.904088,262.7636 C123.435928,263.04168 122.918488,263.34704 122.354408,263.68144 C121.778008,263.99824 121.129448,264.30096 120.443048,264.64856 C119.058808,265.3156 117.522328,266.16568 115.709528,266.8512 C114.812808,267.21904 113.874728,267.6036 112.897048,268.004 C111.915848,268.39736 110.857208,268.70184 109.781848,269.07408 C107.639928,269.8564 105.268328,270.41344 102.790248,271.06024 C97.792728,272.17256 92.201208,272.98744 86.287608,273.17664 C80.370488,273.2972 74.742888,272.77448 69.693448,271.9244 C67.183688,271.40784 64.786568,270.97488 62.606808,270.3052 C61.512968,269.99016 60.439368,269.742 59.439688,269.40056 C58.442648,269.0512 57.485208,268.71592 56.570888,268.3956 C54.724648,267.806 53.145048,267.03776 51.728248,266.44288 C51.026008,266.13136 50.361608,265.86384 49.769368,265.57608 C49.189448,265.27336 48.657048,264.99352 48.173928,264.74096 C47.245528,264.24728 46.510728,263.85568 45.975688,263.57144 C45.746888,263.44472 45.561208,263.34088 45.409848,263.25728 C45.284008,263.18512 45.220648,263.14376 45.2248335,263.13672 C45.228568,263.12968 45.298968,263.15696 45.432728,263.2168 C45.589368,263.28984 45.782088,263.37872 46.019688,263.4896 C46.563528,263.75536 47.309768,264.11968 48.254008,264.58168 C48.740648,264.8228 49.277448,265.08944 49.862648,265.37896 C50.458408,265.65264 51.125448,265.90872 51.831208,266.20704 C53.252408,266.77816 54.833768,267.52264 56.680008,268.09024 C57.593448,268.4 58.550008,268.7256 59.545288,269.06264 C60.544088,269.39352 61.615048,269.63288 62.705368,269.93824 C64.879848,270.59032 67.268168,271.00568 69.765608,271.50904 C74.793048,272.33096 80.390728,272.83784 86.275288,272.71904 C92.156328,272.53072 97.718808,271.73256 102.695208,270.6484 C105.163608,270.01656 107.527288,269.47624 109.663048,268.7124 C110.736648,268.35072 111.793528,268.05592 112.773848,267.67312 C113.750648,267.28416 114.687848,266.90928 115.584568,266.552 C117.398248,265.88936 118.938248,265.06216 120.329528,264.41888 C121.017688,264.0836 121.670648,263.79408 122.251448,263.48872 C122.820808,263.1684 123.342648,262.87448 123.816088,262.60784 C124.734808,262.09832 125.461688,261.69528 125.990568,261.40136 C126.222888,261.27904 126.410328,261.17872 126.563448,261.09776 C126.693688,261.03088 126.762328,261.00008 126.766951,261.00712" id="Fill-29" fill="#263238"></path>
                    <path d="M135.945169,74.764272 C135.950144,74.770432 135.886784,74.829392 135.757424,74.938512 C135.607824,75.061712 135.417744,75.218352 135.181024,75.413712 C134.641584,75.844912 133.889184,76.445072 132.933504,77.207152 C130.976384,78.755072 128.146304,80.999952 124.568224,83.674272 C120.984864,86.333632 116.642064,89.431232 111.479104,92.327312 C108.872544,93.719472 106.097024,95.141552 103.046944,96.206352 C100.008304,97.278192 96.739984,98.100112 93.317664,98.371152 C86.442224,98.835792 79.924064,97.094272 74.622064,94.482432 C71.970624,93.153632 69.577904,91.664672 67.401664,90.188032 C65.252704,88.671792 63.290304,87.204832 61.554944,85.798592 C58.071024,83.002832 55.341264,80.636512 53.444864,79.014672 C52.520864,78.215632 51.793104,77.586432 51.270384,77.134992 C51.041584,76.930832 50.857664,76.767152 50.712464,76.637792 C50.588384,76.524272 50.527664,76.462672 50.531841,76.456512 C50.537344,76.450352 50.608624,76.499632 50.742384,76.601712 C50.895504,76.722272 51.088224,76.874512 51.330224,77.064592 C51.865264,77.499312 52.611504,78.106512 53.559264,78.878272 C55.491744,80.457872 58.253184,82.786352 61.756464,85.544272 C63.501504,86.932032 65.468304,88.378752 67.616384,89.873872 C69.791744,91.329392 72.174784,92.796352 74.807744,94.103152 C80.068384,96.668352 86.506464,98.371152 93.283344,97.913552 C96.656384,97.646912 99.884224,96.839952 102.895584,95.783952 C105.917504,94.735872 108.678944,93.331392 111.275824,91.956832 C116.421184,89.097712 120.773664,86.035312 124.376384,83.412912 C127.972944,80.776432 130.832944,78.570272 132.824384,77.066352 C133.802064,76.332432 134.571184,75.755152 135.123824,75.340672 C135.372864,75.160272 135.571744,75.015952 135.729264,74.901552 C135.866544,74.803872 135.939584,74.758112 135.945169,74.764272" id="Fill-31" fill="#263238"></path>
                    <path d="M56.579424,268.398592 C60.748864,265.179552 66.607904,265.960112 71.763824,267.043392 C76.918864,268.126672 82.112624,269.889312 87.329264,269.159792 C91.261984,268.608912 94.869104,266.674672 98.749024,265.834272 C102.629824,264.993872 107.336944,265.615152 109.488544,268.952112 C92.417424,274.503152 73.530864,274.306032 56.579424,268.398592" id="Fill-33" fill="#396C9A"></path>
                </g>
                <g id="Group-148" transform="translate(205.040000, 126.116320)">
                    <path d="M90.1644432,128.251988 L64.352992,97.459736 L64.160272,123.253416 L69.865312,139.798296 L13.174832,149.631416 L10.769792,104.901016 L6.689232,70.548456 C6.189392,66.338536 8.590912,62.321336 12.534192,60.768136 L28.135712,54.624856 L50.108432,58.655256 L58.948032,62.015096 C62.658992,63.425736 65.966912,65.726056 68.580512,68.715416 L113.168489,122.31049 L90.1644432,128.251988 Z" id="Fill-36" fill="#73A9DA"></path>
                    <path d="M63.0234578,92.384864 C63.027888,92.294224 64.270448,92.478144 66.224928,92.159584 C68.159168,91.857744 70.832608,90.911744 73.050208,88.871024 C75.264288,86.825024 76.424128,84.236064 76.880848,82.332624 C77.356048,80.411584 77.273328,79.157584 77.363968,79.1610965 C77.391248,79.159344 77.436128,79.468224 77.444048,80.031424 C77.453728,80.595504 77.399168,81.413904 77.195888,82.405664 C76.810448,84.373344 75.661168,87.082864 73.360848,89.208064 C71.057008,91.328864 68.264768,92.255504 66.270688,92.479904 C65.266608,92.602224 64.445568,92.590784 63.885008,92.535344 C63.324448,92.481664 63.019968,92.412144 63.0234578,92.384864" id="Fill-38" fill="#FFFFFF"></path>
                    <path d="M82.8234578,117.684864 C82.827888,117.594224 84.070448,117.778144 86.024928,117.459584 C87.959168,117.157744 90.632608,116.211744 92.850208,114.171024 C95.064288,112.125024 96.224128,109.536064 96.680848,107.632624 C97.156048,105.711584 97.073328,104.457584 97.163968,104.461097 C97.191248,104.459344 97.236128,104.768224 97.244048,105.331424 C97.253728,105.895504 97.199168,106.713904 96.995888,107.705664 C96.610448,109.673344 95.461168,112.382864 93.160848,114.508064 C90.857008,116.628864 88.064768,117.555504 86.070688,117.779904 C85.066608,117.902224 84.245568,117.890784 83.685008,117.835344 C83.124448,117.781664 82.819968,117.712144 82.8234578,117.684864" id="Fill-38" fill="#FFFFFF"></path>
                    <path d="M64.681144,122.155352 C64.813144,122.154472 64.847464,113.218952 64.757704,102.198712 C64.667064,91.175832 64.486664,82.243832 64.354664,82.244712 C64.222664,82.245592 64.187464,91.180232 64.278104,102.203112 C64.368744,113.222472 64.549144,122.156232 64.681144,122.155352" id="Fill-40" fill="#263238"></path>
                    <path d="M62.60496,128.71232 L28.35008,114.92272 C25.58776,113.8104 23.69488,111.22672 23.46872,108.2576 L20.96248,75.416 C20.96248,75.416 21.25904,61.44776 12.53472,60.7684 L7.57064,62.72288 C1.15632,66.12936 -0.43296,75.4688 0.44,82.67864 C1.68168,92.92448 2.19736,107.42424 3.58688,116.31664 C4.72296,123.59072 8.88888,129.98832 16.00808,131.86272 L58.1988,140.99624 L62.60496,128.71232 Z" id="Fill-42" fill="#98C4EC"></path>
                    <path d="M21.452904,80.4257431 C21.468744,80.423992 21.505704,80.683592 21.561144,81.177272 C21.615704,81.713192 21.688744,82.433912 21.781144,83.341192 C21.955384,85.266632 22.202664,87.976152 22.505384,91.306072 C22.794904,94.683512 23.138984,98.683992 23.520904,103.122712 C23.614184,104.235032 23.709224,105.374632 23.807784,106.537992 C23.909864,107.702232 23.980264,108.895512 24.245144,110.051832 C24.495944,111.213432 25.053864,112.301992 25.947064,113.130072 C26.835864,113.960792 27.948184,114.569752 29.108024,115.095992 C38.553944,119.183592 47.258904,122.558392 53.578184,124.924712 C56.714504,126.081032 59.267384,127.020872 61.080184,127.688792 C61.936424,128.003832 62.615784,128.255512 63.120904,128.441192 C63.585544,128.617192 63.826664,128.716632 63.8214689,128.732472 C63.816984,128.746552 63.564424,128.676152 63.090104,128.528312 C62.578824,128.362872 61.888904,128.139352 61.022104,127.856872 C59.228664,127.263752 56.644104,126.373192 53.466424,125.229192 C47.110184,122.937672 38.391144,119.613032 28.917944,115.513112 C27.740504,114.977192 26.583304,114.350632 25.634664,113.460952 C24.676344,112.576552 24.062104,111.366552 23.807784,110.153912 C23.534104,108.938632 23.469864,107.737432 23.372184,106.576712 C23.278904,105.412472 23.189144,104.271992 23.100264,103.158792 C22.755304,98.716552 22.444664,94.712552 22.182424,91.332472 C21.940424,87.997272 21.743304,85.283352 21.603384,83.355272 C21.546184,82.444472 21.502184,81.721992 21.468744,81.184312 C21.443224,80.687992 21.437064,80.426632 21.452904,80.4257431" id="Fill-44" fill="#263238"></path>
                    <path d="M1.82732,98.2792762 C1.84404,98.2784 1.86516,98.43064 1.89508,98.72016 C1.92588,99.06248 1.96284,99.48048 2.0086,99.98736 C2.1098,101.15776 2.24796,102.73384 2.41428,104.64784 C2.6026,106.61376 2.8402,108.9528 3.18252,111.53824 C3.53452,114.11928 3.94988,116.96696 4.72868,119.85776 C5.09828,121.31768 5.61572,122.66672 6.40068,123.82392 C7.18652,124.9908 8.05772,126.03976 8.95884,126.96816 C10.77076,128.82056 12.70412,130.1784 14.44124,131.0804 C17.9454,132.902 20.493,132.9284 20.4578,133.04984 C20.45604,133.06568 20.30292,133.06128 20.01164,133.03928 C19.72036,133.01992 19.29004,132.9856 18.74444,132.8756 C17.65236,132.68376 16.08156,132.25432 14.2934,131.36904 C12.50876,130.48992 10.51996,129.13472 8.65876,127.26472 C7.73212,126.32664 6.8354,125.2636 6.02844,124.07472 C5.20916,122.88232 4.653,121.44088 4.28692,119.9792 C3.49668,117.0444 3.09452,114.18704 2.76276,111.5928 C2.4442,108.99504 2.23828,106.6472 2.0922,104.67512 C1.94788,102.70216 1.87132,101.10408 1.83084,99.99792 C1.8194,99.48928 1.80972,99.06864 1.80349975,98.72456 C1.80268,98.43328 1.81148,98.28016 1.82732,98.2792762" id="Fill-46" fill="#263238"></path>
                    <path d="M16.47536,121.260656 C16.42784,121.247456 16.57392,120.514416 17.0984,119.435536 C17.6176,118.357536 18.57768,116.964496 19.97512,115.765936 C21.37696,114.572656 22.90376,113.843136 24.04776,113.499936 C25.19704,113.150576 25.94328,113.121536 25.94944,113.169936 C25.96264,113.246496 25.24368,113.389056 24.15512,113.805296 C23.06656,114.218016 21.62512,114.965136 20.27168,116.114416 C18.92528,117.270736 17.96168,118.577536 17.3844,119.588656 C16.80184,120.598016 16.5484,121.286176 16.47536,121.260656" id="Fill-48" fill="#263238"></path>
                    <path d="M23.212904,96.284672 C23.217304,96.277632 23.290344,96.310192 23.430264,96.380592 C23.592184,96.465072 23.792824,96.570672 24.042744,96.702672 C24.592744,96.961392 25.394424,97.367072 26.487384,97.738432 C28.640744,98.486432 32.015544,99.246752 36.088184,98.558592 C40.108024,97.901232 44.784344,95.532272 48.021864,91.143712 C49.625224,88.977152 50.865144,86.308112 51.147624,83.382992 C51.289304,81.930112 51.170504,80.416512 50.690904,78.992672 C50.220104,77.570592 49.360344,76.251472 48.220744,75.219232 C47.087304,74.183472 45.678424,73.453952 44.200024,73.264752 C42.741864,73.034192 41.180744,73.419632 40.169624,74.397312 C39.681224,74.888352 39.376744,75.544832 39.383784,76.220672 C39.381144,76.895632 39.640744,77.561792 40.045544,78.102992 C40.856024,79.210912 42.223544,79.727472 43.530344,79.920192 C46.198504,80.286272 48.821784,79.804032 51.017384,78.849232 C53.223544,77.887392 55.025784,76.458272 56.323784,74.881312 C57.624424,73.297312 58.426104,71.584832 58.905704,70.030752 C59.386184,68.471392 59.533144,67.057232 59.556904,65.908832 C59.573624,64.758672 59.453944,63.867232 59.364184,63.267072 C59.313144,62.989872 59.272664,62.766352 59.239224,62.586832 C59.211944,62.432832 59.202264,62.352752 59.209304,62.350992 C59.209304,62.350992 59.695064,63.572432 59.7347775,65.909712 C59.739064,67.072192 59.616744,68.510112 59.150344,70.103792 C58.687464,71.692192 57.891064,73.449552 56.575464,75.085472 C55.261624,76.714352 53.426824,78.195392 51.170504,79.196832 C48.921224,80.192112 46.237224,80.706032 43.467864,80.338192 C42.106504,80.141072 40.614024,79.606032 39.694424,78.364352 C39.242984,77.761552 38.940264,77.012672 38.939384,76.218912 C38.928824,75.424272 39.291384,74.640192 39.851064,74.080512 C40.999464,72.969072 42.696984,72.573072 44.260744,72.813312 C45.845624,73.014832 47.337224,73.790112 48.528744,74.879552 C49.728184,75.967232 50.627544,77.348832 51.122984,78.848352 C51.624584,80.344352 51.744264,81.920432 51.594664,83.426112 C51.294584,86.454192 50.008904,89.185712 48.361544,91.394512 C45.030744,95.867552 40.242664,98.248832 36.140984,98.878032 C31.990024,99.536272 28.581784,98.711712 26.426664,97.906512 C24.247784,97.074032 23.212904,96.284672 23.212904,96.284672" id="Fill-50" fill="#FFFFFF"></path>
                    <path d="M0.774576,87.525064 C0.753456,87.505704 0.944416,87.249624 1.336896,86.822824 C1.732016,86.401304 2.343616,85.820504 3.187536,85.213304 C4.850736,83.963704 7.604256,82.825864 10.766096,82.528424 C12.345696,82.360344 13.880416,82.436024 15.232096,82.715864 C16.585536,82.996584 17.749776,83.452424 18.672896,83.924984 C19.599536,84.394904 20.299136,84.859544 20.766416,85.199224 C21.230176,85.542424 21.470416,85.753624 21.452816,85.778264 C21.405296,85.850424 20.380976,85.076024 18.533856,84.217144 C16.706096,83.342424 13.907696,82.612904 10.813616,82.984264 C7.715136,83.279064 5.045216,84.328024 3.371456,85.480824 C1.675696,86.609864 0.837056,87.589304 0.774576,87.525064" id="Fill-52" fill="#FFFFFF"></path>
                    <path d="M6.253104,64.040944 C6.323504,63.963504 7.133104,65.085504 9.025104,66.057024 C9.961424,66.541904 11.170544,66.949344 12.554784,67.091904 C13.934624,67.237984 15.492224,67.080464 16.973264,66.481184 C18.444624,65.858144 19.658144,64.868144 20.531984,63.790144 C21.411104,62.711264 21.978704,61.568144 22.297264,60.564064 C22.950224,58.539184 22.730224,57.174304 22.834944,57.1786882 C22.858704,57.176064 22.927344,57.505184 22.949344,58.112384 C22.973104,58.717824 22.901824,59.606624 22.607024,60.658224 C22.317504,61.710704 21.759584,62.914544 20.861104,64.055024 C19.968784,65.194624 18.702464,66.247984 17.148384,66.905344 C15.584624,67.538064 13.944304,67.687664 12.508144,67.510784 C11.066704,67.339184 9.821504,66.882464 8.873744,66.343024 C7.921584,65.806224 7.243104,65.228944 6.832144,64.781904 C6.417664,64.337504 6.234624,64.056784 6.253104,64.040944" id="Fill-54" fill="#FFFFFF"></path>
                    <path d="M36.103496,118.04408 C36.087656,118.04144 36.112296,117.81968 36.174776,117.39552 C36.271576,116.98104 36.407096,116.35272 36.781976,115.62232 C37.473656,114.14656 39.194056,112.29856 41.909736,111.17128 C44.587576,109.96832 48.268616,109.73688 51.980456,110.81048 C53.791496,111.34992 55.870056,112.01344 57.228776,113.78224 C57.893176,114.65256 58.121976,115.94704 57.614216,117.00392 C57.129336,118.0652 56.175416,118.79648 55.173096,119.30776 C54.151416,119.80672 53.042616,120.0892 51.929416,120.1112 C50.826776,120.13232 49.677496,119.85864 48.815976,119.14496 C47.947416,118.44272 47.489816,117.35768 47.422056,116.3228 C47.341976,115.27824 47.554056,114.27064 47.888456,113.35544 C49.348376,109.69112 52.300776,107.36088 54.948696,106.20808 C57.641496,105.03064 60.078216,104.90656 61.686856,105.05088 C63.308696,105.21808 64.148216,105.5692 64.148216,105.5692 C64.135016,105.62904 63.277016,105.33864 61.673656,105.22864 C60.083496,105.14064 57.697816,105.314 55.081576,106.50376 C53.784456,107.09688 52.444216,107.94784 51.237736,109.11296 C50.037416,110.27192 48.956776,111.75648 48.285336,113.49888 C47.970296,114.3736 47.780216,115.33104 47.857656,116.28672 C47.928056,117.238 48.337256,118.18224 49.101976,118.79736 C49.856136,119.42128 50.892776,119.6756 51.923256,119.65448 C52.958136,119.63512 54.010616,119.36584 54.968056,118.89768 C55.912296,118.41984 56.784376,117.73256 57.198856,116.8156 C57.630936,115.90656 57.450536,114.82768 56.864456,114.04448 C56.284536,113.24544 55.437096,112.66904 54.572056,112.22552 C53.702616,111.7864 52.768936,111.4872 51.865176,111.21616 C48.230776,110.14344 44.662376,110.33704 42.032936,111.47048 C39.366536,112.53528 37.663736,114.28912 36.939496,115.70504 C36.190616,117.12624 36.167736,118.06256 36.103496,118.04408" id="Fill-56" fill="#FFFFFF"></path>
                    <path d="M13.2964244,130.411336 C13.282456,130.324216 14.602456,130.213336 16.580696,129.508456 C18.548376,128.818536 21.169016,127.407016 23.315336,125.034536 C25.460776,122.660296 26.601256,119.909416 27.089656,117.883656 C27.592136,115.843816 27.570136,114.519416 27.657256,114.52468 C27.685416,114.52468 27.717096,114.852936 27.706536,115.449576 C27.696856,116.045336 27.620296,116.908616 27.405576,117.956696 C26.990216,120.040536 25.866456,122.895256 23.655016,125.341656 C21.444456,127.787176 18.716456,129.191656 16.685416,129.814696 C15.664616,130.135016 14.813656,130.297816 14.221416,130.366456 C13.629176,130.436856 13.299176,130.438616 13.2964244,130.411336" id="Fill-58" fill="#FFFFFF"></path>
                    <path d="M2.19506056,104.882712 C2.19076,104.866872 2.33244,104.809672 2.60876,104.717272 C2.88508,104.625752 3.29516,104.499032 3.83108,104.363512 C4.90028,104.104792 6.49572,103.750152 8.49772,103.890072 C9.49388,103.968392 10.5842,104.195432 11.67012,104.674152 C12.749,105.152872 13.82876,105.903512 14.62956,106.996472 C15.41452,108.088552 15.89676,109.507992 15.7806,110.989912 C15.72516,111.728232 15.499,112.470072 15.10036,113.132712 C14.69908,113.784792 14.09716,114.376152 13.30516,114.633992 C12.52372,114.878632 11.60764,114.754552 10.99076,114.176392 C10.38268,113.586792 10.23044,112.759592 10.1926,112.042392 C10.13716,110.581592 10.45308,109.181512 11.00044,107.967112 C12.08988,105.510152 14.11652,103.897992 15.9962,103.226552 C17.88908,102.525192 19.56724,102.577992 20.65492,102.765432 C21.20404,102.859592 21.61852,102.981912 21.89396,103.078712 C22.16676,103.181672 22.30668,103.243272 22.3023807,103.258232 C22.2882,103.303112 21.71444,103.075192 20.6294,102.941432 C19.55668,102.811192 17.92428,102.813832 16.11236,103.528392 C14.31452,104.215672 12.40844,105.781192 11.38588,108.138712 C10.87284,109.301192 10.58332,110.641432 10.6414,112.018632 C10.67572,112.692712 10.83324,113.398472 11.30492,113.845512 C11.76868,114.285512 12.52284,114.401672 13.167,114.196632 C13.8182,113.987192 14.35148,113.479432 14.71228,112.894232 C15.07044,112.300232 15.279,111.628792 15.33268,110.952072 C15.44796,109.595112 15.00884,108.264552 14.28636,107.242872 C13.55068,106.219432 12.53868,105.490792 11.51348,105.019992 C10.48212,104.546552 9.43316,104.308952 8.46956,104.212152 C6.52828,104.035272 4.9434,104.333592 3.87068,104.537752 C2.79532,104.757752 2.20572,104.917032 2.19506056,104.882712" id="Fill-60" fill="#FFFFFF"></path>
                    <path d="M52.760752,124.797904 C49.098192,122.728144 45.514832,121.138864 41.684192,119.398224 C37.855312,117.657584 34.102992,115.424144 31.596752,112.045824 C26.869392,105.673744 27.407072,96.476864 22.568832,90.190144 C22.884752,94.418544 23.200672,98.646064 23.517472,102.874464 C23.806992,106.749104 23.212992,110.580624 25.708672,113.214464 C27.810992,115.432064 31.911792,117.133984 34.813152,118.091424 C40.646672,120.015104 46.927232,122.872464 52.760752,124.797904" id="Fill-62" fill="#396C9A"></path>
                    <path d="M112.281928,173.066432 C112.281928,173.066432 140.942648,180.999632 142.092808,181.404432 C143.820248,182.011632 143.529848,188.337952 140.843208,188.238512 C139.572488,188.191872 118.827368,189.011152 116.206728,188.848352 C113.585208,188.683792 105.678408,185.567712 105.678408,185.567712 L112.281928,173.066432 Z" id="Fill-64" fill="#5198D8"></path>
                    <path d="M124.22212,184.002808 C124.36556,184.022168 124.56004,182.506808 125.48492,180.925448 C126.3878,179.330008 127.60132,178.402488 127.51068,178.287208 C127.4614,178.176328 126.03756,178.984168 125.06956,180.686088 C124.08484,182.377448 124.10068,184.015128 124.22212,184.002808" id="Fill-66" fill="#263238"></path>
                    <path d="M121.2332,182.647608 C121.374,182.672248 121.66352,181.317048 122.42648,179.820168 C123.17536,178.314488 124.09144,177.275208 123.98848,177.176648 C123.90928,177.082488 122.78992,178.019688 121.9988,179.604568 C121.19712,181.182408 121.11088,182.639688 121.2332,182.647608" id="Fill-68" fill="#263238"></path>
                    <path d="M118.430752,181.896528 C118.575072,181.887728 118.464192,180.455968 119.101312,178.869328 C119.709392,177.270368 120.761872,176.293568 120.661552,176.188848 C120.604352,176.079728 119.319552,176.965008 118.654272,178.694208 C117.971392,180.414608 118.313712,181.937888 118.430752,181.896528" id="Fill-70" fill="#263238"></path>
                    <path d="M118.938688,178.19516 C118.990608,178.20836 119.244048,177.40668 119.246688,176.06204 C119.244928,175.39236 119.167488,174.5898 118.956288,173.72476 C118.850688,173.29268 118.709008,172.84564 118.529488,172.3942 C118.437088,172.16716 118.331488,171.9058 118.071008,171.69196 C117.803488,171.4526 117.316848,171.50188 117.086288,171.74124 C116.824048,171.97004 116.740448,172.293 116.704368,172.55172 C116.675328,172.81484 116.660368,173.06036 116.667408,173.30852 C116.674448,173.8022 116.737808,174.27476 116.843408,174.71124 C117.055488,175.58684 117.396928,176.32076 117.726048,176.90244 C118.393968,178.0658 118.973008,178.6598 119.013488,178.62812 C119.079488,178.58236 118.599008,177.91532 118.027008,176.7458 C117.745408,176.1606 117.451488,175.4434 117.274608,174.61532 C117.186608,174.20172 117.137328,173.76084 117.137328,173.305 C117.149648,172.865 117.143488,172.31412 117.401328,172.10292 C117.537728,171.9894 117.660928,171.98148 117.780608,172.07124 C117.906448,172.16716 118.012928,172.36428 118.093888,172.57108 C118.271648,173.00052 118.415968,173.42468 118.528608,173.83652 C118.753888,174.6602 118.863008,175.42668 118.907888,176.07436 C118.991488,177.37148 118.860368,178.18284 118.938688,178.19516" id="Fill-72" fill="#263238"></path>
                    <path d="M118.903488,177.903 C118.916688,177.8502 118.225008,177.61348 117.054608,177.604671 C116.472048,177.6038 115.773328,177.66452 115.020928,177.85372 C114.649568,177.95492 114.250928,178.05084 113.850528,178.2858 C113.458048,178.48468 113.047088,179.0294 113.201968,179.59524 C113.325168,180.12852 113.781888,180.50164 114.234208,180.61868 C114.690928,180.7454 115.133568,180.70052 115.519888,180.61516 C116.307488,180.43476 116.918208,180.04756 117.381968,179.69908 C118.300688,178.97924 118.749488,178.42748 118.715168,178.38788 C118.665008,178.32628 118.122048,178.79884 117.188368,179.42188 C116.719328,179.72108 116.130608,180.04668 115.431008,180.1822 C115.081648,180.24908 114.705888,180.26932 114.367968,180.16724 C114.030048,180.07484 113.750208,179.81788 113.670128,179.48612 C113.587408,179.16668 113.781888,178.87364 114.095168,178.68708 C114.402288,178.49612 114.781568,178.387 115.135328,178.2814 C115.843728,178.07812 116.507248,177.98572 117.066048,177.94436 C118.188928,177.86516 118.891168,177.98044 118.903488,177.903" id="Fill-74" fill="#263238"></path>
                    <path d="M128.625552,184.309576 C128.767232,184.292856 128.627312,183.068776 129.191392,181.724136 C129.727312,180.368936 130.684752,179.591896 130.594112,179.481016 C130.547472,179.363976 129.348032,180.042456 128.746992,181.542856 C128.128352,183.037096 128.510272,184.360616 128.625552,184.309576" id="Fill-76" fill="#263238"></path>
                    <path d="M108.627024,185.633096 C108.613824,185.663016 109.008944,185.846936 109.735824,186.154056 C110.472384,186.432136 111.549504,186.821976 112.924944,187.143176 C115.666144,187.833976 119.573344,188.225576 123.866864,188.179816 C128.162144,188.132296 132.033264,187.936936 134.839584,187.824296 C136.168384,187.753896 137.282464,187.695816 138.161584,187.648296 C138.944784,187.596376 139.377744,187.552376 139.376865,187.518936 C139.375984,187.485496 138.941264,187.467016 138.155424,187.461736 C137.275424,187.467896 136.159584,187.476696 134.829024,187.485496 C131.926784,187.542696 128.098784,187.617496 123.864224,187.700216 C119.590944,187.745096 115.729504,187.410696 112.999744,186.812296 C110.259424,186.249096 108.659584,185.543336 108.627024,185.633096" id="Fill-78" fill="#263238"></path>
                    <path d="M107.779672,186.286144 C107.818392,186.352144 108.602472,185.893664 109.925992,185.313744 C111.235432,184.751424 113.196072,184.078224 115.350312,184.411744 C117.510712,184.741744 119.041032,186.192864 120.038072,187.200464 C121.043032,188.244144 121.631752,188.936704 121.689832,188.887424 C121.732952,188.851344 121.244552,188.090144 120.287112,186.969904 C119.803112,186.415504 119.189752,185.773984 118.387192,185.193184 C117.592552,184.609744 116.569992,184.112544 115.425112,183.937424 C113.115112,183.584544 111.079672,184.356304 109.783432,185.005744 C108.468712,185.678944 107.750632,186.238624 107.779672,186.286144" id="Fill-80" fill="#263238"></path>
                    <path d="M81.859272,165.153296 C81.859272,165.153296 54.737672,182.911696 53.765272,183.646496 C52.304472,184.750016 53.979112,190.004496 56.509992,189.094576 C57.706792,188.664256 80.465352,182.332656 82.912632,181.380496 C85.360792,180.428336 91.947592,175.058576 91.947592,175.058576 L81.859272,165.153296 Z" id="Fill-82" fill="#5198D8"></path>
                    <path d="M73.80516,179.198888 C73.92396,179.174248 73.4426,177.608728 71.98972,176.296648 C70.55092,174.968728 68.94844,174.632568 68.93524,174.752248 C68.8842,174.889528 70.323,175.405208 71.66676,176.650408 C73.029,177.876248 73.67404,179.261368 73.80516,179.198888" id="Fill-84" fill="#263238"></path>
                    <path d="M76.240648,177.000648 C76.355048,176.955768 75.829688,175.592648 74.587128,174.333368 C73.352488,173.063528 72.001688,172.510888 71.955048,172.624408 C71.886408,172.749368 73.073528,173.462168 74.243928,174.669528 C75.425768,175.863688 76.113928,177.065768 76.240648,177.000648" id="Fill-86" fill="#263238"></path>
                    <path d="M78.683,175.433984 C78.80708,175.438384 78.67068,173.882544 77.49764,172.449904 C76.33868,171.005824 74.84532,170.551744 74.82332,170.673184 C74.75996,170.802544 76.05972,171.415024 77.12452,172.752624 C78.21308,174.071744 78.54308,175.469184 78.683,175.433984" id="Fill-88" fill="#263238"></path>
                    <path d="M77.074272,172.060944 C77.145552,172.026624 76.774192,171.293584 76.460912,170.030784 C76.306032,169.401584 76.176672,168.636864 76.141472,167.784144 C76.123872,167.357344 76.132672,166.909424 76.171392,166.447424 C76.186352,166.223904 76.227712,166.004784 76.319232,165.874544 C76.405472,165.753104 76.525152,165.724064 76.689712,165.790064 C76.999472,165.913264 77.160512,166.439504 77.306592,166.855744 C77.444752,167.289584 77.531872,167.724304 77.572352,168.144944 C77.655952,168.987984 77.594352,169.760624 77.502832,170.403024 C77.312752,171.691344 77.058432,172.472784 77.134992,172.496544 C77.183392,172.515024 77.553872,171.772304 77.837232,170.461984 C77.973632,169.807264 78.076592,169.003824 78.012352,168.106224 C77.980672,167.657424 77.898832,167.187504 77.754512,166.715824 C77.684992,166.476464 77.597872,166.248544 77.489632,166.005664 C77.376992,165.770704 77.200112,165.487344 76.878912,165.349184 C76.586752,165.191664 76.108912,165.292864 75.926752,165.601744 C75.742832,165.883344 75.722592,166.165824 75.702352,166.410464 C75.668032,166.894464 75.668912,167.363504 75.699712,167.807904 C75.762192,168.696704 75.932032,169.483424 76.133552,170.123184 C76.544512,171.403584 77.029392,172.089104 77.074272,172.060944" id="Fill-90" fill="#263238"></path>
                    <path d="M77.020064,171.772216 C77.054384,171.841736 77.689744,171.519656 78.782704,171.253016 C79.327424,171.123656 79.987424,171.011016 80.724864,170.988136 C81.092704,170.981976 81.488704,170.970536 81.838944,171.058536 C82.194464,171.140376 82.468144,171.361256 82.487504,171.691256 C82.511264,172.030936 82.322064,172.361816 82.029024,172.552776 C81.736864,172.752536 81.372544,172.847576 81.020544,172.889816 C80.312144,172.971656 79.653024,172.841416 79.115344,172.698856 C78.035584,172.387336 77.375584,172.103976 77.345664,172.177016 C77.325424,172.225416 77.920304,172.614376 79.015024,173.021816 C79.562384,173.212776 80.262864,173.395816 81.067184,173.328936 C81.461424,173.292856 81.896144,173.201336 82.292144,172.941736 C82.688144,172.692696 83.010224,172.198136 82.965344,171.653416 C82.941584,171.067336 82.385424,170.673096 81.951584,170.602696 C81.496624,170.500616 81.088304,170.529656 80.703744,170.546376 C79.930224,170.594776 79.244704,170.748776 78.690304,170.926536 C77.577984,171.289976 76.991904,171.726456 77.020064,171.772216" id="Fill-92" fill="#263238"></path>
                    <path d="M59.965752,188.103784 C59.996552,188.146024 60.422472,187.829224 60.629272,187.053064 C60.856312,186.294504 60.714632,185.130264 60.121512,184.109464 C59.838152,183.594664 59.512552,183.148504 59.213352,182.756024 C58.916792,182.361784 58.608792,182.005384 58.291992,181.767784 C57.978712,181.523144 57.650472,181.413144 57.425192,181.405224 C57.198152,181.395544 57.082872,181.450984 57.086392,181.479144 C57.087272,181.553944 57.570392,181.517864 58.072872,182.026504 C58.328072,182.268504 58.580632,182.609064 58.855192,183.015624 C59.133272,183.419544 59.435112,183.858664 59.700872,184.340024 C60.249992,185.296584 60.413672,186.285704 60.296632,186.985304 C60.198952,187.686664 59.902392,188.057144 59.965752,188.103784" id="Fill-94" fill="#263238"></path>
                    <path d="M69.702512,180.829176 C69.828352,180.842376 69.789632,179.464296 68.746832,178.230536 C67.718112,176.983576 66.369952,176.701096 66.360272,176.826056 C66.308352,176.959816 67.455872,177.409496 68.378992,178.537656 C69.323232,179.646456 69.562592,180.856456 69.702512,180.829176" id="Fill-96" fill="#263238"></path>
                    <path d="M89.158784,176.015752 C89.135024,175.987592 88.719664,176.292952 87.966384,176.834152 C87.203424,177.361272 86.083184,178.101352 84.622384,178.882792 C83.164224,179.665992 81.363744,180.479112 79.311584,181.247352 C77.257664,182.012952 74.953824,182.735432 72.517984,183.441192 C67.638384,184.846552 63.220784,186.130472 60.034304,187.089672 C58.505744,187.558712 57.237664,187.948552 56.265264,188.245992 C55.378224,188.530232 54.892464,188.701832 54.9011465,188.733512 C54.910944,188.765192 55.414304,188.654312 56.317184,188.426392 C57.299264,188.165912 58.582304,187.825352 60.127584,187.415272 C63.339584,186.539672 67.767744,185.308552 72.651744,183.902312 C75.093744,183.193912 77.407264,182.454712 79.467344,181.660072 C81.528304,180.863672 83.334064,180.009192 84.786064,179.180232 C86.241584,178.351272 87.343344,177.561912 88.077264,176.983752 C88.802384,176.393272 89.177264,176.037752 89.158784,176.015752" id="Fill-98" fill="#263238"></path>
                    <path d="M90.164272,176.38104 C90.178352,176.32648 89.322992,176.01144 87.865712,175.77032 C86.433952,175.54416 84.260352,175.42712 82.165952,176.4664 C81.128432,176.9812 80.305632,177.76352 79.726592,178.56168 C79.137872,179.35896 78.747152,180.15712 78.454112,180.83208 C77.882992,182.18904 77.648032,183.06288 77.700832,183.084 C77.771232,183.11216 78.121472,182.2744 78.762112,180.97552 C79.405392,179.71272 80.424432,177.8656 82.381552,176.89408 C84.332512,175.92256 86.405792,175.96832 87.823472,176.10648 C89.261392,176.25696 90.146672,176.45584 90.164272,176.38104" id="Fill-100" fill="#263238"></path>
                    <path d="M138.221336,121.845064 C138.221336,121.845064 146.357816,124.750824 146.392226,133.873784 C146.457256,151.348824 111.082136,170.612024 111.082136,170.612024 L64.007416,139.421304 L61.055896,138.226264 C61.055896,138.226264 124.604216,114.355384 138.221336,121.845064" id="Fill-102" fill="#263238"></path>
                    <path d="M87.853392,155.175064 C87.872752,155.201464 88.309232,154.904024 89.080112,154.343464 C89.851872,153.784664 90.951872,152.954824 92.299152,151.912024 C94.994592,149.829064 98.661552,146.875784 102.606592,143.490424 C106.551632,140.101544 110.024992,136.922984 112.491632,134.574264 C113.725392,133.399464 114.712752,132.436744 115.381552,131.759144 C116.052992,131.082424 116.412032,130.696984 116.390032,130.672344 C116.366272,130.648584 115.963232,130.989144 115.253952,131.623624 C114.484832,132.317944 113.477232,133.227864 112.261072,134.325224 C109.738112,136.607944 106.233952,139.742504 102.294192,143.126984 C98.355312,146.507064 94.727952,149.497304 92.087952,151.646264 C90.819872,152.682024 89.768272,153.540904 88.965712,154.196504 C88.230912,154.801064 87.833152,155.148664 87.853392,155.175064" id="Fill-104" fill="#455A64"></path>
                    <path d="M124.931928,128.377216 C124.950408,128.260176 122.849848,128.055136 120.396408,128.789056 C117.935928,129.504496 116.284168,130.817456 116.362488,130.906336 C116.440808,131.031296 118.156808,129.937456 120.531928,129.249296 C122.898248,128.538256 124.934568,128.524176 124.931928,128.377216" id="Fill-106" fill="#455A64"></path>
                    <path d="M120.877416,125.622904 C120.835176,125.509384 119.325976,126.172904 118.086056,127.722584 C116.832056,129.260824 116.501176,130.875624 116.621736,130.892344 C116.758136,130.939864 117.272936,129.473784 118.459176,128.023544 C119.626936,126.558344 120.952216,125.746984 120.877416,125.622904" id="Fill-108" fill="#455A64"></path>
                    <path d="M140.810648,180.956336 C140.835288,180.901776 140.248328,180.788256 139.596248,181.325056 C138.956488,181.836336 138.410888,182.861536 138.235768,184.056576 C138.058888,185.261296 138.327288,186.366576 138.665208,187.069696 C138.997848,187.785136 139.364808,188.121296 139.405288,188.086976 C139.471288,188.042096 139.213448,187.645216 138.980248,186.943856 C138.740008,186.250416 138.549048,185.227856 138.710968,184.124336 C138.872888,183.026976 139.322568,182.076576 139.824168,181.575856 C140.324008,181.053136 140.820328,181.032896 140.810648,180.956336" id="Fill-110" fill="#263238"></path>
                    <path d="M115.539864,172.735552 C115.539864,172.735552 49.027704,129.107792 46.304104,128.200512 C43.581384,127.291472 36.998984,122.980352 30.418344,124.794912 C23.835944,126.611232 17.935544,132.512512 14.984024,141.136512 C13.298824,146.062752 12.502424,154.470272 12.129304,160.774592 C11.682264,168.313552 14.016904,175.828752 18.946664,181.547872 C21.190664,184.150032 23.958264,186.414272 27.239784,187.435072 C27.932344,187.650672 28.652184,187.837232 29.390504,187.997392 C41.965704,190.723632 54.888504,185.078432 61.953144,174.324832 L63.505464,171.962032 C63.505464,171.962032 107.015304,187.947232 107.696424,187.720192 L115.539864,172.735552 Z" id="Fill-116" fill="#263238"></path>
                    <path d="M33.25388,160.726632 C33.25388,160.726632 33.37444,160.788232 33.6182,160.888552 C33.88132,160.992392 34.243,161.135832 34.70676,161.319752 C35.68884,161.698152 37.10476,162.243752 38.92372,162.944232 C42.62324,164.337272 47.96044,166.348072 54.59476,168.847272 C61.25108,171.330632 69.22476,174.283032 78.17084,177.539032 C87.1178,180.790632 97.03276,184.360792 107.62092,187.945912 L107.81276,188.011032 L107.90692,187.830632 C109.57012,184.655592 111.32396,181.306312 113.10332,177.906872 C114.01148,176.173272 114.91172,174.452872 115.75212,172.845992 L115.8542,172.651512 L115.6694,172.534472 C95.6978,159.856312 77.8294,148.513112 64.93476,140.327352 C58.49668,136.266152 53.30028,132.988152 49.69492,130.715112 C47.9094,129.600152 46.519,128.732472 45.5554,128.131432 C45.09428,127.848952 44.73524,127.629832 44.47564,127.470552 C44.231,127.324472 44.099,127.259352 44.099,127.259352 C44.099,127.259352 44.2134,127.350872 44.45012,127.511032 C44.70444,127.678232 45.05468,127.911432 45.50612,128.210632 C46.45916,128.828392 47.83372,129.720712 49.599,130.866472 C53.185,133.171192 58.35324,136.490552 64.75876,140.605432 C77.63228,148.822872 95.47076,160.208312 115.4098,172.935752 L115.32796,172.625112 C114.48756,174.231112 113.58644,175.951512 112.67828,177.685112 C110.8998,181.084552 109.14684,184.433832 107.4854,187.609752 L107.77228,187.494472 C97.18852,183.919032 87.27004,180.365592 78.31428,177.140392 C69.37436,173.886152 61.38748,170.979512 54.70476,168.548072 C48.04932,166.106072 42.6954,164.142792 38.98532,162.781432 C37.15316,162.114392 35.72756,161.595192 34.73844,161.236152 C34.26676,161.069832 33.90068,160.939592 33.63492,160.845432 C33.385,160.759192 33.25388,160.726632 33.25388,160.726632" id="Fill-118" fill="#455A64"></path>
                    <path d="M40.156336,5.799816 C41.289776,2.733896 43.796896,1.401576 46.974576,0.633336 C50.151376,-0.135784 53.686336,0.775016 56.095776,2.982936 C57.707936,4.460456 58.889776,6.500296 60.881216,7.403176 C64.159216,8.890376 68.361216,6.717656 71.468496,8.533976 C73.308576,9.610216 74.211456,12.057496 73.510976,14.070056 C72.810496,16.082616 70.584096,17.440456 68.474736,17.141256 C70.610496,18.151496 71.010016,21.366136 69.538656,23.215896 C68.068176,25.063896 65.347216,25.564616 63.074176,24.921336 C60.801136,24.278936 58.912656,22.691416 57.306656,20.958696 C55.700656,19.225096 54.294416,17.303176 52.556416,15.703336 C50.816656,14.103496 48.647456,12.815176 46.287296,12.728056 C43.090256,12.608376 40.141376,14.756456 38.463216,17.480056 C36.785936,20.202776 36.159376,23.431496 35.692096,26.595096 C35.224816,29.758696 34.871936,32.987416 33.651376,35.943336 C33.507936,36.290936 33.303776,36.675496 32.935936,36.752056 C32.404416,36.863816 32.016336,36.275096 31.803376,35.777016 C29.399216,30.143256 28.116176,24.033416 28.051056,17.907736 C28.013216,14.350776 28.411856,11.021736 30.620656,8.233016 C32.830336,5.444296 37.925536,3.707176 40.156336,5.799816" id="Fill-120" fill="#263238"></path>
                    <path d="M32.656536,19.99624 L27.767256,55.528 C26.935656,61.57008 31.329496,67.07888 37.405016,67.6104 C43.076616,68.1076 48.138376,64.0596 48.908376,58.41968 C49.274456,55.74536 49.583336,53.51544 49.639656,53.24264 C49.639656,53.24264 58.802216,53.63688 60.687176,44.77352 C61.597976,40.49056 62.756056,31.51632 63.709096,23.386 C64.733416,14.65376 58.868216,6.60088 50.246856,4.87872 L49.389736,4.70712 C40.038856,3.40032 33.703736,10.61192 32.656536,19.99624" id="Fill-122" fill="#FFBE9D"></path>
                    <path d="M49.67996,53.117416 C49.67996,53.117416 43.97404,52.452136 38.75476,47.510936 C38.75476,47.510936 40.21468,54.452376 49.24084,55.423896 L49.67996,53.117416 Z" id="Fill-124" fill="#EB996E"></path>
                    <path d="M59.932312,28.819472 C59.822312,29.494432 59.159672,29.957312 58.452152,29.855232 C57.748152,29.753152 57.263272,29.124832 57.374152,28.449872 C57.484152,27.774912 58.145912,27.311152 58.850792,27.412352 C59.558312,27.515312 60.042312,28.144512 59.932312,28.819472" id="Fill-126" fill="#263238"></path>
                    <path d="M60.929176,27.364568 C60.739096,27.498328 59.920696,26.595448 58.554056,26.325288 C57.193576,26.037528 56.050456,26.540008 55.936056,26.342888 C55.877976,26.254008 56.097976,25.988248 56.597816,25.757688 C57.090616,25.526248 57.884376,25.366088 58.734456,25.539448 C59.584536,25.713688 60.236616,26.170408 60.583336,26.572568 C60.939736,26.979128 61.021576,27.306488 60.929176,27.364568" id="Fill-128" fill="#263238"></path>
                    <path d="M46.448688,26.607416 C46.338688,27.282376 45.676048,27.745256 44.969408,27.643176 C44.264528,27.541096 43.779648,26.912776 43.890528,26.237816 C44.000528,25.562856 44.663168,25.099096 45.368048,25.201176 C46.074688,25.303256 46.558688,25.932456 46.448688,26.607416" id="Fill-130" fill="#263238"></path>
                    <path d="M47.457608,24.937704 C47.267528,25.071464 46.447368,24.168584 45.082488,23.899304 C43.721128,23.610664 42.578888,24.113144 42.463608,23.916024 C42.406408,23.827144 42.624648,23.561384 43.126248,23.330824 C43.619048,23.100264 44.412808,22.939224 45.262888,23.112584 C46.112088,23.286824 46.765048,23.743544 47.111768,24.145704 C47.466408,24.551384 47.549128,24.879624 47.457608,24.937704" id="Fill-132" fill="#263238"></path>
                    <path d="M50.389768,36.053688 C50.399448,35.974488 51.276808,35.997368 52.686568,36.096808 C53.042968,36.130248 53.387048,36.126728 53.492648,35.900568 C53.625528,35.665608 53.555128,35.259928 53.467128,34.820808 C53.306968,33.910888 53.141528,32.957848 52.966408,31.959928 C52.289688,27.894328 51.874328,24.578488 52.038008,24.552968 C52.202568,24.526568 52.883688,27.801928 53.560408,31.867528 C53.718808,32.868968 53.871048,33.822888 54.014488,34.735448 C54.067288,35.157848 54.204568,35.653288 53.922088,36.140808 C53.776008,36.381928 53.482088,36.520088 53.246248,36.535048 C53.009528,36.558808 52.812408,36.523608 52.638168,36.499848 C51.238968,36.296568 50.379208,36.132008 50.389768,36.053688" id="Fill-134" fill="#263238"></path>
                    <path d="M46.183104,36.194576 C46.407504,36.226256 46.114464,37.709056 47.172224,39.014096 C48.227344,40.321776 49.840384,40.471376 49.811344,40.681696 C49.813104,40.778496 49.401264,40.899056 48.731584,40.783776 C48.072464,40.675536 47.159024,40.274256 46.512224,39.476096 C45.867184,38.676176 45.706144,37.749536 45.777424,37.130896 C45.844304,36.499936 46.083664,36.166416 46.183104,36.194576" id="Fill-136" fill="#263238"></path>
                    <path d="M48.879864,19.657704 C48.670424,20.001784 47.342504,19.553864 45.702184,19.426264 C44.063624,19.266984 42.678504,19.477304 42.532424,19.102424 C42.469944,18.923784 42.764744,18.619304 43.359624,18.364104 C43.948344,18.108904 44.842424,17.932904 45.825384,18.018264 C46.808344,18.105384 47.657544,18.433624 48.194344,18.788264 C48.734664,19.142024 48.972264,19.493144 48.879864,19.657704" id="Fill-138" fill="#263238"></path>
                    <path d="M61.217024,23.312608 C60.914304,23.574848 60.038704,23.065328 58.910544,22.823328 C57.791184,22.543488 56.780064,22.614768 56.624304,22.246928 C56.559184,22.070048 56.772144,21.789328 57.249104,21.579008 C57.719904,21.369568 58.457344,21.268368 59.229984,21.447008 C60.002624,21.626528 60.619504,22.042768 60.949504,22.438768 C61.285664,22.837408 61.352544,23.183248 61.217024,23.312608" id="Fill-140" fill="#263238"></path>
                    <path d="M32.067024,26.719968 C31.928864,26.624928 26.324144,23.694528 25.303344,29.807888 C24.284304,35.920368 30.631744,35.683648 30.671344,35.509408 C30.710944,35.336048 32.067024,26.719968 32.067024,26.719968" id="Fill-142" fill="#FFBE9D"></path>
                    <path d="M29.190744,32.882608 C29.166984,32.858848 29.071064,32.938928 28.878344,32.991728 C28.689144,33.042768 28.377624,33.047168 28.079304,32.874688 C27.472984,32.530608 27.099864,31.414768 27.254744,30.307728 C27.331304,29.748928 27.536344,29.238528 27.806504,28.832848 C28.067864,28.416608 28.409304,28.152608 28.743704,28.149088 C29.079864,28.128848 29.277864,28.361168 29.323624,28.545968 C29.377304,28.729888 29.318344,28.846048 29.349144,28.861888 C29.363224,28.879488 29.496984,28.781808 29.489944,28.520448 C29.484664,28.394608 29.437144,28.238848 29.313064,28.098048 C29.186344,27.952848 28.981304,27.856928 28.749864,27.842848 C28.273784,27.797968 27.777464,28.160528 27.480024,28.605808 C27.156184,29.049328 26.913304,29.620448 26.826184,30.247888 C26.659864,31.486048 27.098104,32.744448 27.939384,33.147488 C28.351224,33.331408 28.731384,33.261008 28.940824,33.147488 C29.154664,33.027808 29.209224,32.897568 29.190744,32.882608" id="Fill-144" fill="#EB996E"></path>
                    <path d="M65.95908,21.916928 C61.83716,22.176528 57.63868,20.307408 55.0726,17.070768 C53.27828,14.806528 52.13692,11.839168 49.5946,10.463728 C47.88388,9.538848 45.77892,9.528288 43.92564,10.117008 C42.0706,10.705728 40.43644,11.844448 38.973,13.125728 C39.78788,17.984208 37.62748,22.793408 35.52164,27.247968 C35.28932,27.739008 35.02356,28.267008 34.53516,28.507248 C33.7062,28.916448 32.71708,28.269648 32.22076,27.489088 C31.42788,26.239488 31.3346,24.679248 31.36452,23.199088 C31.4314,19.828688 32.02364,16.438928 33.39204,13.358048 C34.76044,10.277168 36.9358,7.513088 39.7826,5.706448 C43.33956,3.448368 47.8214,2.803328 51.9398,3.693008 C56.0582,4.581808 59.7982,6.941968 62.59836,10.090608 C63.89636,11.551408 65.02716,13.228688 65.46892,15.133008" id="Fill-146" fill="#263238"></path>
                </g>
            </g>
        </g>
    </g>
</svg>