<?xml version="1.0" encoding="UTF-8"?>
<svg width="410px" height="259px" viewBox="0 0 410 259" version="1.1" xmlns="http://www.w3.org/2000/svg" xmlns:xlink="http://www.w3.org/1999/xlink">
    <!-- Generator: Sketch 63.1 (92452) - https://sketch.com -->
    <title>lotus</title>
    <desc>Created with Sketch.</desc>
    <g id="Azzurro" stroke="none" stroke-width="1" fill="none" fill-rule="evenodd">
        <g id="lotus" fill-rule="nonzero">
            <path d="M102.4,151.2384 C158.9544,151.2384 204.8,205.0792 204.8,205.0792 C204.8,205.0792 158.9544,258.92 102.4,258.92 C45.8456,258.92 0,205.0792 0,205.0792 C0,205.0792 45.8456,151.2384 102.4,151.2384 Z" id="Path" fill="#CCEAEE"></path>
            <path d="M170.4632,94.6008 C210.4536,134.5896 204.8,205.0792 204.8,205.0792 C204.8,205.0792 134.3104,210.7328 94.3208,170.7432 C54.3312,130.7536 59.984,60.2648 59.984,60.2648 C59.984,60.2648 130.4736,54.6112 170.4632,94.6008 Z" id="Path" fill="#92C8E0"></path>
            <path d="M307.2,151.2384 C250.6456,151.2384 204.8,205.0792 204.8,205.0792 C204.8,205.0792 250.6456,258.92 307.2,258.92 C363.7544,258.92 409.6,205.0792 409.6,205.0792 C409.6,205.0792 363.7544,151.2384 307.2,151.2384 Z" id="Path" fill="#445D66"></path>
            <path d="M239.136,94.6008 C199.1464,134.5896 204.8,205.0792 204.8,205.0792 C204.8,205.0792 275.2896,210.7328 315.2792,170.7432 C355.2688,130.7536 349.6152,60.264 349.6152,60.264 C349.6152,60.264 279.1264,54.6112 239.136,94.6008 Z" id="Path" fill="#2B6A85"></path>
            <path d="M258.6408,102.6792 C258.6408,159.2336 204.8,205.0792 204.8,205.0792 C204.8,205.0792 150.9592,159.2336 150.9592,102.6792 C150.9592,46.1248 204.8,0.2792 204.8,0.2792 C204.8,0.2792 258.6408,46.1256 258.6408,102.6792 Z" id="Path" fill="#6D9CB2"></path>
        </g>
    </g>
</svg>