<?xml version="1.0" encoding="UTF-8"?>
<svg width="332px" height="255px" viewBox="0 0 332 255" version="1.1" xmlns="http://www.w3.org/2000/svg" xmlns:xlink="http://www.w3.org/1999/xlink">
    <!-- Generator: Sketch 63.1 (92452) - https://sketch.com -->
    <title>Illustration_sound</title>
    <desc>Created with Sketch.</desc>
    <defs>
        <polygon id="path-1" points="0.785048 0.0945702217 115.49912 0.0945702217 115.49912 99.79464 0.785048 99.79464"></polygon>
        <polygon id="path-3" points="0 0.596024 61.344536 0.596024 61.344536 44.879384 0 44.879384"></polygon>
        <polygon id="path-5" points="0 0.596024 61.344536 0.596024 61.344536 44.879384 0 44.879384"></polygon>
    </defs>
    <g id="Azzurro" stroke="none" stroke-width="1" fill="none" fill-rule="evenodd">
        <g id="Step_5" transform="translate(-42.000000, -448.000000)">
            <g id="Illustration_sound" transform="translate(42.000000, 448.000000)">
                <g id="Group-3" transform="translate(215.600000, 129.869520)">
                    <mask id="mask-2" fill="white">
                        <use xlink:href="#path-1"></use>
                    </mask>
                    <g id="Clip-2"></g>
                    <path d="M11.594968,0.90024 C21.751048,-2.10232 36.557928,3.7092 43.887448,11.35464 C52.297608,20.12648 55.906488,32.27928 55.906488,41.61256 C71.761448,44.68992 82.013448,49.53696 94.923048,59.2416 C107.834408,68.94624 117.225768,83.7672 115.231688,99.79464 L0.785048,99.79464 L11.594968,0.90024 Z" id="Fill-1" fill="#308CDC" mask="url(#mask-2)"></path>
                </g>
                <path d="M271.661984,171.511824 C264.378224,175.456864 258.593984,182.875264 256.348224,190.849824 C255.781504,192.860624 255.424224,195.033344 256.077184,197.018624 C256.729264,199.003904 258.586944,199.819664 260.661984,199.572384 C263.328384,199.252064 265.709664,195.253344 266.235024,192.619504 C267.045504,188.553024 266.818464,185.992224 266.723424,182.114944 C266.622224,177.968384 268.913744,174.617344 271.661984,171.511824" id="Fill-4" fill="#2271B5"></path>
                <path d="M271.63664,172.043784 C271.66128,172.081624 271.21424,172.341224 270.54632,172.966904 C269.87752,173.586424 269.0336,174.635384 268.37272,176.130504 C267.69776,177.619464 267.256,179.536984 267.13192,181.704424 C266.98056,183.870104 267.1064,186.272504 266.9832,188.810424 C266.85472,191.342184 266.36808,193.792104 265.2936,195.759784 C264.76384,196.740104 264.09856,197.589304 263.34,198.242264 C262.58496,198.896104 261.75512,199.337864 260.96488,199.630024 C259.37032,200.211704 257.92976,200.124584 257.0436,199.828904 C256.81568,199.767304 256.62208,199.688104 256.46016,199.608024 C256.29296,199.538504 256.15832,199.468104 256.05624,199.397704 C255.84768,199.266584 255.74384,199.192664 255.75176,199.178584 C255.7764,199.132824 256.20672,199.432904 257.09024,199.657304 C257.96056,199.891384 259.33688,199.921304 260.8496,199.327304 C261.59848,199.028104 262.38432,198.588984 263.09096,197.955384 C263.79584,197.326184 264.42328,196.507784 264.92136,195.560024 C265.93336,193.660984 266.39976,191.279704 266.5256,188.785784 C266.64792,186.283944 266.5344,183.870984 266.71128,181.673624 C266.85912,179.477144 267.34664,177.504184 268.07792,175.994984 C268.79512,174.476984 269.70592,173.425384 270.42664,172.833144 C270.78216,172.530424 271.08664,172.328024 271.30048,172.208344 C271.51344,172.086904 271.62872,172.030584 271.63664,172.043784" id="Fill-6" fill="#263238"></path>
                <path d="M278.845072,195.90604 C278.729792,195.85324 279.397712,194.1522 280.334912,192.10708 C281.273872,190.06108 282.126592,188.4454 282.241872,188.49908 C282.357152,188.55188 281.690112,190.25204 280.752032,192.29804 C279.813952,194.34404 278.960352,195.95972 278.845072,195.90604" id="Fill-8" fill="#FAFAFA"></path>
                <path d="M273.572816,216.64016 C273.476016,216.72112 272.028416,215.12216 270.340576,213.07 C268.652736,211.01784 267.364416,209.28864 267.462096,209.20944 C267.559776,209.12848 269.007376,210.72656 270.694336,212.77872 C272.381296,214.83088 273.670496,216.56008 273.572816,216.64016" id="Fill-10" fill="#FAFAFA"></path>
                <path d="M294.300952,204.8178 C294.326472,204.80548 294.412712,204.93132 294.554392,205.18652 L294.596632,205.26308 L294.500712,205.29828 C293.634792,205.61596 291.340632,206.28476 288.632872,206.99932 C286.883432,207.46044 285.295032,207.8538 284.137832,208.11604 C282.981512,208.37828 282.258152,208.5094 282.242312,208.44868 C282.225592,208.38708 282.919912,208.1442 284.055112,207.80276 C285.190312,207.46044 286.766392,207.0178 288.515832,206.55668 C291.223592,205.84212 293.549432,205.29212 294.459352,205.14076 L294.405672,205.25252 C294.310632,204.97708 294.274552,204.82924 294.300952,204.8178" id="Fill-12" fill="#FAFAFA"></path>
                <path d="M299.63252,195.847608 C299.50756,195.870488 299.16964,194.583048 298.87572,192.970888 C298.58268,191.358728 298.44452,190.035208 298.56948,190.012328 C298.69444,189.989448 299.03236,191.277768 299.32628,192.889048 C299.61932,194.500328 299.75748,195.825608 299.63252,195.847608" id="Fill-14" fill="#FAFAFA"></path>
                <path d="M316.073208,209.909568 C315.949128,209.937728 315.373608,207.882048 314.785768,205.318608 C314.197928,202.755168 313.822168,200.653728 313.945368,200.625568 C314.069448,200.597408 314.644968,202.652208 315.232808,205.216528 C315.819768,207.779968 316.196408,209.881408 316.073208,209.909568" id="Fill-16" fill="#FAFAFA"></path>
                <path d="M302.588792,220.261624 C302.466472,220.229064 302.904712,218.183944 303.567352,215.695304 C304.229992,213.204024 304.867112,211.213464 304.989432,211.245144 C305.110872,211.277704 304.672632,213.321944 304.009992,215.812344 C303.347352,218.301864 302.711112,220.294184 302.588792,220.261624" id="Fill-18" fill="#FAFAFA"></path>
                <path d="M291.128112,226.10016 C291.018992,226.16352 289.927792,224.48888 288.691392,222.35928 C287.454992,220.22968 286.541552,218.45208 286.650672,218.38784 C286.760672,218.32448 287.850992,219.99912 289.088272,222.12872 C290.324672,224.25832 291.238112,226.0368 291.128112,226.10016" id="Fill-20" fill="#FAFAFA"></path>
                <path d="M322.185089,221.873784 C322.183312,222.008424 320.080992,222.046264 317.524592,222.400904 C314.965552,222.743224 312.929232,223.269464 312.891392,223.139224 C312.853552,223.028344 314.861712,222.295304 317.462992,221.946824 C320.061632,221.587784 322.192112,221.755864 322.185089,221.873784" id="Fill-22" fill="#FAFAFA"></path>
                <path d="M254.646832,213.390936 C254.527152,213.350456 254.945152,211.768216 255.581392,209.855976 C256.218512,207.943736 256.830992,206.425736 256.951552,206.466216 C257.071232,206.505816 256.653232,208.088936 256.016992,210.000296 C255.379872,211.912536 254.767392,213.430536 254.646832,213.390936" id="Fill-24" fill="#FAFAFA"></path>
                <path d="M246.323792,200.08516 C246.227872,200.16788 245.139312,199.04676 243.893232,197.58244 C242.646272,196.11812 241.714352,194.86412 241.811152,194.78316 C241.907072,194.70132 242.995632,195.82068 244.241712,197.285 C245.487792,198.74932 246.420592,200.00332 246.323792,200.08516" id="Fill-26" fill="#FAFAFA"></path>
                <path d="M261.156984,187.91212 C261.088344,188.0186 259.258824,186.96612 257.069384,185.56076 C254.879944,184.1554 253.161304,182.93132 253.229944,182.82396 C253.297704,182.71836 255.127224,183.76996 257.317544,185.1762 C259.506104,186.5798 261.225624,187.80564 261.156984,187.91212" id="Fill-28" fill="#FAFAFA"></path>
                <path d="M246.091736,173.846728 C246.207896,173.897768 245.418536,175.960488 244.329976,178.455288 C243.240536,180.950968 242.263736,182.931848 242.148456,182.881688 C242.032296,182.830648 242.820776,180.767928 243.910216,178.272248 C244.998776,175.777448 245.976456,173.795688 246.091736,173.846728" id="Fill-30" fill="#FAFAFA"></path>
                <path d="M262.17576,168.538392 C262.05256,168.568312 261.5228,166.875192 260.99216,164.755272 C260.46064,162.635352 260.13064,160.892952 260.25296,160.861272 C260.37616,160.830472 260.90592,162.523592 261.43656,164.644392 C261.9672,166.763432 262.29808,168.507592 262.17576,168.538392" id="Fill-32" fill="#FAFAFA"></path>
                <path d="M246.87036,162.323392 C246.84132,162.447472 244.43364,161.988992 241.49444,161.301712 C238.5526,160.613552 236.19244,159.956192 236.22148,159.832992 C236.25052,159.709792 238.65732,160.167392 241.59828,160.855552 C244.53836,161.542832 246.8994,162.200192 246.87036,162.323392" id="Fill-34" fill="#FAFAFA"></path>
                <path d="M246.210712,152.191336 C246.107752,152.117416 247.366152,150.198136 249.020552,147.906616 C250.675832,145.613336 252.100552,143.814616 252.203512,143.889416 C252.305592,143.963336 251.048072,145.881736 249.392792,148.175016 C247.737512,150.466536 246.313672,152.265256 246.210712,152.191336" id="Fill-36" fill="#FAFAFA"></path>
                <path d="M242.530904,149.715544 C242.412104,149.760424 241.302424,147.064984 240.051064,143.698104 C238.799704,140.330344 237.881864,137.564504 238.001544,137.521384 C238.119464,137.476504 239.230024,140.170184 240.480504,143.537944 C241.730984,146.906584 242.649704,149.671544 242.530904,149.715544" id="Fill-38" fill="#FAFAFA"></path>
                <g id="Group-42" transform="translate(0.000000, 209.949520)">
                    <mask id="mask-4" fill="white">
                        <use xlink:href="#path-3"></use>
                    </mask>
                    <g id="Clip-41"></g>
                    <path d="M43.673256,0.596024 L27.725896,19.372584 C27.725896,19.372584 3.284776,9.468184 -0.000264,12.651144 L35.294776,44.879384 L61.344536,16.643704 L43.673256,0.596024 Z" id="Fill-40" fill="#E8505B" mask="url(#mask-4)"></path>
                </g>
                <g id="Group-45" transform="translate(0.000000, 209.949520)">
                    <mask id="mask-6" fill="white">
                        <use xlink:href="#path-5"></use>
                    </mask>
                    <g id="Clip-44"></g>
                    <path d="M43.673256,0.596024 L27.725896,19.372584 C27.725896,19.372584 3.284776,9.468184 -0.000264,12.651144 L35.294776,44.879384 L61.344536,16.643704 L43.673256,0.596024 Z" id="Fill-43" fill="#000000" mask="url(#mask-6)"></path>
                </g>
                <path d="M40.036392,237.757608 C40.549432,238.568968 40.319752,239.767528 39.531272,240.312248 C38.741912,240.857848 37.521352,240.636088 36.994232,239.834408 C36.467992,239.032728 36.698552,237.585128 37.543352,237.131048 C38.388152,236.676968 39.808472,237.017528 40.127032,237.922168" id="Fill-46" fill="#E0E0E0"></path>
                <path d="M35.295216,254.82908 L37.809376,251.8802 L3.028256,222.08252 C3.028256,222.08252 0.832656,221.33276 0.000176,222.60084 L35.295216,254.82908 Z" id="Fill-48" fill="#E0E0E0"></path>
                <path d="M27.318016,228.619864 C27.165776,228.797624 27.956896,229.662664 28.298336,230.990584 C28.674976,232.310584 28.431216,233.456344 28.652096,233.532904 C28.841296,233.644664 29.525056,232.379224 29.082416,230.777624 C28.654736,229.173384 27.425376,228.427144 27.318016,228.619864" id="Fill-50" fill="#263238"></path>
                <path d="M22.217624,226.770544 C22.025784,226.901664 22.504504,227.876704 22.424424,229.139504 C22.381304,230.405824 21.809304,231.328944 21.987944,231.478544 C22.125224,231.652784 23.166264,230.751664 23.235784,229.179104 C23.319384,227.607424 22.371624,226.609504 22.217624,226.770544" id="Fill-52" fill="#263238"></path>
                <path d="M16.06924,229.281624 C16.19244,229.461144 17.21852,228.819624 17.63828,227.470584 C18.06684,226.125944 17.59428,225.010984 17.39012,225.088424 C17.16308,225.141224 17.2238,226.125064 16.863,227.226824 C16.52772,228.336504 15.91348,229.108264 16.06924,229.281624" id="Fill-54" fill="#263238"></path>
                <path d="M31.427176,224.74408 C31.355896,224.96672 32.363496,225.4516 33.277816,226.40728 C34.210616,227.3436 34.669976,228.36264 34.894376,228.29752 C35.108216,228.26408 34.950696,226.95024 33.858616,225.83968 C32.775336,224.7212 31.465896,224.53112 31.427176,224.74408" id="Fill-56" fill="#263238"></path>
                <path d="M34.71424,221.015256 C34.64736,221.084776 35.2308,221.812536 36.49008,222.620376 C37.11752,223.020776 37.91744,223.426456 38.85816,223.741496 C39.32896,223.897256 39.8332,224.031016 40.3656,224.128696 C40.62344,224.172696 40.91208,224.243976 41.27816,224.200856 C41.63368,224.195576 42.15992,223.837416 42.19512,223.356056 C42.262,222.919576 42.04904,222.510376 41.79912,222.272776 C41.54744,222.026376 41.28872,221.886456 41.05288,221.758856 C40.57328,221.494856 40.08576,221.289816 39.60968,221.132296 C38.65576,220.822536 37.75288,220.710776 37.00312,220.713416 C35.49128,220.724856 34.6236,221.112936 34.65264,221.200056 C34.67816,221.327656 35.5696,221.152536 36.97496,221.288056 C37.67456,221.355816 38.5,221.517736 39.3624,221.838936 C39.79272,222.001736 40.23184,222.204136 40.66304,222.452296 C41.1268,222.696056 41.44712,222.982936 41.3908,223.237256 C41.36792,223.333176 41.34944,223.362216 41.17168,223.400056 C40.99832,223.426456 40.7572,223.386856 40.502,223.344616 C40.00392,223.263656 39.52784,223.153656 39.0808,223.026056 C38.18584,222.769096 37.40704,222.439976 36.77344,222.120536 C35.50448,221.479016 34.79608,220.919336 34.71424,221.015256" id="Fill-58" fill="#263238"></path>
                <path d="M34.713008,221.467312 C34.749968,221.550032 35.655488,221.243792 36.737888,220.186032 C37.272928,219.658912 37.829088,218.935552 38.264688,218.030032 C38.479408,217.576832 38.663328,217.079632 38.794448,216.545472 C38.905328,216.008672 39.079568,215.310832 38.481168,214.624432 C38.144128,214.291792 37.605568,214.298832 37.293168,214.443152 C36.958768,214.575152 36.748448,214.758192 36.519648,214.924512 C36.078768,215.278272 35.717088,215.689232 35.431088,216.114272 C34.856448,216.967872 34.593328,217.873392 34.519408,218.629312 C34.374208,220.173712 34.904848,221.036992 34.972608,220.992112 C35.109008,220.957792 34.812448,220.076912 35.087008,218.715552 C35.222528,218.044992 35.512928,217.262672 36.044448,216.543712 C36.308448,216.185552 36.629648,215.843232 37.009808,215.551952 C37.407568,215.227232 37.824688,215.052992 37.930288,215.220192 C38.108048,215.377712 38.148528,215.932112 38.019168,216.363312 C37.911808,216.845552 37.760448,217.301392 37.582688,217.721152 C37.221008,218.560672 36.759888,219.260272 36.314608,219.798832 C35.417008,220.878592 34.643488,221.355552 34.713008,221.467312" id="Fill-60" fill="#263238"></path>
                <path d="M143.78144,140.127504 L143.78144,140.127504 L124.20496,123.442704 L113.498,126.028144 C113.498,126.028144 124.5376,149.208224 133.2584,158.390144 C141.98008,167.572064 146.6828,168.877104 149.974,169.021424 C154.49808,169.219424 156.56608,163.709744 156.56608,163.709744 L157.08088,145.593184 L143.78144,140.127504 Z" id="Fill-62" fill="#FFBE9D"></path>
                <path d="M122.3134,90.902504 L107.57692,90.902504 C105.347,90.902504 103.35732,93.487064 104.15812,95.599064 L118.97732,124.463944 C119.5502,125.581544 120.703,126.285544 121.96316,126.285544 L139.92836,126.247704 C141.98844,125.970504 142.73996,123.684264 141.88636,122.445224 L127.58724,94.184904 C126.60252,92.175864 124.55564,90.902504 122.3134,90.902504" id="Fill-64" fill="#455A64"></path>
                <path d="M121.318208,92.640152 L106.581728,92.640152 C104.734608,92.640152 103.540448,94.586712 104.380848,96.226152 L118.848048,124.463592 C119.420928,125.582072 120.573728,126.285192 121.833008,126.285192 L139.594048,126.285192 C140.676448,126.285192 141.378688,125.146472 140.891168,124.182872 L126.592048,95.923432 C125.607328,93.914392 123.560448,92.640152 121.318208,92.640152" id="Fill-66" fill="#263238"></path>
                <path d="M120.068256,104.46172 L111.100176,108.0442 L109.178256,115.26988 L113.498176,126.02788 L129.346096,128.3326 L124.704096,123.58852 L125.300736,119.45956 C125.300736,119.45956 129.722736,118.07268 129.831856,117.39596 C129.940976,116.72012 129.283616,114.45148 128.605136,114.34236 C127.926656,114.23324 123.289936,115.95892 123.289936,115.95892 C123.289936,115.95892 128.778496,111.61436 128.625376,110.91652 C128.471376,110.2178 127.881776,108.43404 126.787056,108.23516 C125.692336,108.03716 116.835136,112.21188 116.835136,112.21188 L115.397216,115.48988 L114.142336,110.24684 C114.142336,110.24684 122.013056,108.0398 120.068256,104.46172" id="Fill-68" fill="#FFBE9D"></path>
                <path d="M121.196592,121.404272 C121.142912,121.420992 120.975712,121.092752 120.892112,120.510192 C120.807632,119.932032 120.848992,119.096032 121.161392,118.246832 C121.477312,117.399392 121.990352,116.737632 122.431232,116.353952 C122.872992,115.964992 123.213552,115.825952 123.243472,115.872592 C123.331472,115.979952 122.163712,116.820352 121.596112,118.407872 C120.992432,119.982192 121.332992,121.380512 121.196592,121.404272" id="Fill-70" fill="#EB996E"></path>
                <path d="M116.934136,119.838488 C116.881336,119.812968 117.199896,118.964648 117.289656,117.488888 C117.359176,116.757608 117.400536,115.852088 117.741096,114.885848 C117.912696,114.408008 118.166136,113.912568 118.566536,113.497208 C118.966936,113.076568 119.496696,112.789688 120.031736,112.575848 C122.177176,111.797928 124.107016,111.167848 125.521176,110.712008 C126.932696,110.261448 127.816216,110.014168 127.837336,110.074008 C127.858456,110.134728 127.013656,110.492008 125.629416,111.020008 C124.252216,111.553288 122.309176,112.242328 120.205096,113.005288 C119.696456,113.209448 119.234456,113.461128 118.892136,113.813128 C118.545416,114.164248 118.309576,114.598088 118.140616,115.034568 C117.804456,115.915448 117.725256,116.793688 117.614376,117.526728 C117.441016,119.014808 116.994856,119.877208 116.934136,119.838488" id="Fill-72" fill="#EB996E"></path>
                <path d="M114.876784,118.217704 C114.750064,118.197464 114.776464,117.405464 114.933984,116.449784 C115.091504,115.493224 115.322064,114.736424 115.447904,114.756664 C115.573744,114.777784 115.548224,115.568904 115.390704,116.524584 C115.233184,117.480264 115.003504,118.237944 114.876784,118.217704" id="Fill-74" fill="#EB996E"></path>
                <path d="M114.635752,98.085944 C114.635752,99.123464 115.477032,99.963864 116.513672,99.963864 C117.550312,99.963864 118.391592,99.123464 118.391592,98.085944 C118.391592,97.049304 117.550312,96.208904 116.513672,96.208904 C115.477032,96.208904 114.635752,97.049304 114.635752,98.085944" id="Fill-76" fill="#FAFAFA"></path>
                <path d="M131.782376,128.88084 L117.199016,133.71292 C117.199016,133.71292 137.007816,169.84924 146.723016,169.67236 C156.437336,169.49548 159.080856,167.17932 159.080856,167.17932 L159.106376,140.63676 L135.004936,129.085 C133.998216,128.60276 132.842776,128.52972 131.782376,128.88084" id="Fill-78" fill="#E8505B"></path>
                <path d="M174.37772,80.8497662 C175.43636,80.638272 164.3554,138.074112 164.81564,143.962192 C165.27588,149.849392 179.27668,229.411952 179.27668,229.411952 L108.34076,229.411952 C109.23924,226.118992 130.43316,208.218912 130.43316,208.218912 L151.06124,169.419712 L152.79748,140.868112 L140.91044,133.712832 C140.91044,133.712832 152.34692,99.112112 157.19924,93.031312 C165.35508,82.809232 171.38396,81.448752 174.37772,80.8497662" id="Fill-80" fill="#E8505B"></path>
                <path d="M164.815464,143.962016 C164.355224,138.074816 175.436184,80.638096 174.377544,80.8495902 C171.383784,81.448576 165.354904,82.809056 157.199064,93.031136 C152.963624,98.339296 143.711304,125.377296 141.427704,132.163856 L135.005464,129.085616 C133.997864,128.602496 132.842424,128.529456 131.782024,128.880576 L117.198664,133.713536 C117.198664,133.713536 137.007464,169.848096 146.722664,169.672096 C148.370024,169.643056 149.799144,169.547136 151.061944,169.416016 L151.061064,169.420416 L130.432984,208.219616 C130.432984,208.219616 109.239064,226.118816 108.341464,229.412656 L179.277384,229.412656 C179.277384,229.412656 165.275704,149.849216 164.815464,143.962016" id="Fill-82" fill="#000000"></path>
                <path d="M129.872864,200.183192 L143.744304,214.984792 C150.117264,222.800072 156.616944,229.258392 166.474704,229.664072 C178.092464,230.143672 197.777184,229.664072 197.777184,229.664072 L178.661824,178.540472 L132.503184,140.286872 C127.490704,136.497592 121.449504,134.455992 115.247264,134.455992 C106.818624,134.455992 98.797424,138.222392 93.234064,144.794232 L36.514544,215.712552 L58.781184,234.903592 L116.507424,182.899992 L129.872864,200.183192 Z" id="Fill-84" fill="#263238"></path>
                <path d="M201.87816,13.960936 C199.33936,9.796776 201.33344,3.791656 205.56624,1.367256 C209.79816,-1.055384 215.468,-0.104984 219.21152,3.020776 C222.95504,6.147416 223.78928,11.298936 222.93216,15.632936 C222.2924,18.865176 216.88216,25.222296 212.1768,22.071896" id="Fill-86" fill="#263238"></path>
                <path d="M171.302472,40.052408 C161.577592,18.663128 184.710152,7.917448 197.332872,11.482328 C209.195272,14.832488 214.254392,20.736408 216.206232,28.669608 C218.158952,36.607208 218.065672,45.203928 214.954872,52.763128 C213.421032,56.490808 210.658712,60.278328 206.654712,60.743848" id="Fill-88" fill="#263238"></path>
                <path d="M204.897176,23.374912 C206.978376,23.594912 208.545656,25.371632 208.504296,27.463392 L206.218936,81.908992 C206.132696,88.340032 196.742216,91.973552 189.858856,91.828352 C182.905976,91.682272 182.674536,88.273152 182.574216,82.155392 C182.406136,71.936832 182.409656,68.100912 182.406136,68.158112 C182.406136,68.158112 173.621976,66.699952 171.802136,55.238832 C170.896616,49.539072 171.183496,40.194352 171.664856,32.555072 C172.097816,25.679632 176.653576,17.243072 183.504376,17.967312 L204.897176,23.374912 Z" id="Fill-90" fill="#FFBE9D"></path>
                <path d="M173.691936,38.51672 C173.874096,38.70856 174.987296,37.884 176.569536,37.8884 C178.149136,37.86992 179.309856,38.68304 179.482336,38.49032 C179.565936,38.40408 179.380256,38.05824 178.875136,37.6904 C178.377936,37.32432 177.528736,36.96704 176.543136,36.97144 C175.558416,36.97672 174.729456,37.34016 174.253376,37.71064 C173.766736,38.08376 173.602176,38.43048 173.691936,38.51672" id="Fill-94" fill="#263238"></path>
                <path d="M189.238896,38.811872 C189.421936,39.003712 190.536896,38.179152 192.117376,38.183552 C193.696976,38.165072 194.857696,38.978192 195.029296,38.785472 C195.113776,38.699232 194.929856,38.353392 194.422976,37.985552 C193.924896,37.619472 193.076576,37.262192 192.090976,37.266592 C191.106256,37.271872 190.277296,37.635312 189.801216,38.005792 C189.315456,38.378912 189.150016,38.725632 189.238896,38.811872" id="Fill-98" fill="#263238"></path>
                <path d="M183.499184,49.44148 C183.506224,49.35172 182.523264,49.18188 180.930464,48.97772 C180.526544,48.93636 180.143744,48.85628 180.075984,48.58084 C179.980064,48.28868 180.149904,47.85308 180.345264,47.38316 C180.725424,46.40636 181.122304,45.38204 181.539424,44.30844 C183.198224,39.92956 184.399424,36.3286 184.222544,36.26348 C184.045664,36.19836 182.557584,39.6946 180.898784,44.07348 C180.499264,45.15236 180.117344,46.18196 179.754784,47.16756 C179.601664,47.62604 179.338544,48.147 179.544464,48.75244 C179.653584,49.05428 179.950144,49.2734 180.208864,49.34292 C180.467584,49.42212 180.694624,49.42564 180.895264,49.43796 C182.498624,49.5242 183.493024,49.53212 183.499184,49.44148" id="Fill-100" fill="#263238"></path>
                <path d="M182.406488,68.158288 C182.406488,68.158288 190.117048,68.655488 197.755448,64.064528 C197.755448,64.064528 194.031288,71.937008 182.561368,70.864288 L182.406488,68.158288 Z" id="Fill-102" fill="#EB996E"></path>
                <path d="M184.16772,53.25364 C184.7362,52.50124 185.73324,52.08852 186.72236,52.195 C187.40964,52.26892 188.10308,52.5998 188.51932,53.15948 C188.93644,53.7174 189.02444,54.51116 188.64516,55.04444 C188.21836,55.6446 187.32604,55.78276 186.571,55.56804 C185.81684,55.3542 185.16652,54.857 184.54964,54.36156 C184.37892,54.22516 184.20468,54.08172 184.0982,53.89428 C183.99172,53.70684 183.96884,53.46132 184.10084,53.30556" id="Fill-104" fill="#EB996E"></path>
                <path d="M188.153944,50.535936 C187.896984,50.520976 187.893464,52.237856 186.423864,53.455776 C184.956904,54.678976 183.126504,54.486256 183.113304,54.726496 C183.089544,54.833856 183.520744,55.060016 184.293384,55.080256 C185.051064,55.106656 186.157224,54.862896 187.056584,54.117536 C187.953304,53.370416 188.338744,52.373376 188.396824,51.669376 C188.462824,50.951296 188.270984,50.526256 188.153944,50.535936" id="Fill-106" fill="#263238"></path>
                <path d="M188.527768,34.942512 C188.683528,35.371952 190.263128,35.168672 192.118168,35.392192 C193.978488,35.578752 195.475368,36.121712 195.720888,35.736272 C195.830888,35.551472 195.570408,35.146672 194.964968,34.730432 C194.365688,34.315072 193.408248,33.919952 192.294168,33.795872 C191.180968,33.674432 190.160168,33.851312 189.484328,34.125872 C188.803208,34.400432 188.460888,34.738352 188.527768,34.942512" id="Fill-108" fill="#263238"></path>
                <path d="M174.273352,32.838784 C174.551432,33.197824 175.640872,32.825584 176.951192,32.807984 C178.260632,32.744624 179.371192,33.049104 179.626392,32.673344 C179.738152,32.490304 179.563912,32.131264 179.079032,31.791584 C178.601192,31.451904 177.802152,31.174704 176.901912,31.202864 C176.001672,31.231024 175.221112,31.556624 174.766152,31.924464 C174.302392,32.293184 174.151032,32.663664 174.273352,32.838784" id="Fill-110" fill="#263238"></path>
                <path d="M182.760512,77.903584 L171.707712,81.337344 C166.593152,85.365104 164.702032,93.477824 164.876272,99.975744 L160.998992,153.932944 L160.668112,172.578384 C160.668112,172.578384 190.462272,188.760704 223.757952,167.807024 L218.218352,153.102224 L228.299632,118.019264 C229.022992,112.902944 229.465632,102.298064 228.130672,97.263584 C224.705712,84.351344 216.836752,79.563264 206.462432,77.244464 C206.462432,77.244464 196.734032,85.798064 187.555632,84.134864 C187.555632,84.134864 183.332512,83.328784 182.760512,77.903584" id="Fill-112" fill="#E8505B"></path>
                <path d="M182.760512,77.903584 L171.707712,81.337344 C166.593152,85.365104 164.702032,93.477824 164.876272,99.975744 L160.998992,153.932944 L160.668112,172.578384 C160.668112,172.578384 190.462272,188.760704 223.757952,167.807024 L218.218352,153.102224 L228.299632,118.019264 C229.022992,112.902944 229.465632,102.298064 228.130672,97.263584 C224.705712,84.351344 216.836752,79.563264 206.462432,77.244464 C206.462432,77.244464 196.734032,85.798064 187.555632,84.134864 C187.555632,84.134864 183.332512,83.328784 182.760512,77.903584" id="Fill-114" fill="#FFFFFF"></path>
                <path d="M61.742472,210.545544 L45.795112,229.322104 C45.795112,229.322104 21.353992,219.417704 18.068952,222.600664 L53.363992,254.828904 L79.412872,226.593224 L61.742472,210.545544 Z" id="Fill-116" fill="#308CDC"></path>
                <path d="M58.105608,237.757608 C58.617768,238.568968 58.388968,239.767528 57.599608,240.312248 C56.811128,240.857848 55.589688,240.636088 55.062568,239.834408 C54.536328,239.032728 54.767768,237.585128 55.612568,237.131048 C56.457368,236.676968 57.876808,237.017528 58.196248,237.922168" id="Fill-118" fill="#E0E0E0"></path>
                <path d="M53.364432,254.82908 L55.878592,251.8802 L21.097472,222.08252 C21.097472,222.08252 18.901872,221.33276 18.069392,222.60084 L53.364432,254.82908 Z" id="Fill-120" fill="#E0E0E0"></path>
                <path d="M45.38688,228.619864 C45.23552,228.797624 46.02576,229.662664 46.3672,230.990584 C46.74472,232.310584 46.50008,233.456344 46.72096,233.532904 C46.91016,233.644664 47.59392,232.379224 47.15128,230.777624 C46.7236,229.173384 45.49424,228.427144 45.38688,228.619864" id="Fill-122" fill="#263238"></path>
                <path d="M40.28684,226.770544 C40.095,226.901664 40.57372,227.876704 40.49276,229.139504 C40.45052,230.405824 39.87852,231.328944 40.05628,231.478544 C40.19444,231.652784 41.2346,230.751664 41.305,229.179104 C41.3886,227.607424 40.44084,226.609504 40.28684,226.770544" id="Fill-124" fill="#263238"></path>
                <path d="M34.138456,229.281624 C34.261656,229.461144 35.287736,228.819624 35.706616,227.470584 C36.136056,226.125944 35.663496,225.010984 35.459336,225.088424 C35.232296,225.141224 35.293016,226.125064 34.932216,227.226824 C34.596936,228.336504 33.982696,229.108264 34.138456,229.281624" id="Fill-126" fill="#263238"></path>
                <path d="M49.495952,224.74408 C49.424672,224.96672 50.432272,225.4516 51.346592,226.40728 C52.279392,227.3436 52.739632,228.36264 52.964032,228.29752 C53.176992,228.26408 53.019472,226.95024 51.927392,225.83968 C50.844992,224.7212 49.534672,224.53112 49.495952,224.74408" id="Fill-128" fill="#263238"></path>
                <path d="M52.783456,221.015256 C52.715696,221.084776 53.300016,221.812536 54.559296,222.620376 C55.186736,223.020776 55.986656,223.426456 56.927376,223.741496 C57.397296,223.897256 57.902416,224.031016 58.433936,224.128696 C58.692656,224.172696 58.981296,224.243976 59.347376,224.200856 C59.702896,224.195576 60.228256,223.837416 60.263456,223.356056 C60.330336,222.919576 60.118256,222.510376 59.868336,222.272776 C59.615776,222.026376 59.357056,221.886456 59.122096,221.758856 C58.641616,221.494856 58.154096,221.289816 57.678016,221.132296 C56.724096,220.822536 55.822096,220.710776 55.071456,220.713416 C53.560496,220.724856 52.692816,221.112936 52.721856,221.200056 C52.747376,221.327656 53.638816,221.152536 55.043296,221.288056 C55.743776,221.355816 56.568336,221.517736 57.431616,221.838936 C57.861936,222.001736 58.301056,222.204136 58.732256,222.452296 C59.196016,222.696056 59.516336,222.982936 59.460016,223.237256 C59.437136,223.333176 59.418656,223.362216 59.240016,223.400056 C59.067536,223.426456 58.825536,223.386856 58.571216,223.344616 C58.073136,223.263656 57.597056,223.153656 57.149136,223.026056 C56.255056,222.769096 55.476256,222.439976 54.842656,222.120536 C53.573696,221.479016 52.865296,220.919336 52.783456,221.015256" id="Fill-130" fill="#263238"></path>
                <path d="M52.782224,221.467312 C52.819184,221.550032 53.724704,221.243792 54.807104,220.186032 C55.342144,219.658912 55.897424,218.935552 56.333024,218.030032 C56.548624,217.576832 56.731664,217.079632 56.862784,216.545472 C56.974544,216.008672 57.148784,215.310832 56.550384,214.624432 C56.212464,214.291792 55.673904,214.298832 55.362384,214.443152 C55.027104,214.575152 54.816784,214.758192 54.588864,214.924512 C54.147104,215.278272 53.786304,215.689232 53.500304,216.114272 C52.925664,216.967872 52.662544,217.873392 52.587744,218.629312 C52.442544,220.173712 52.974064,221.036992 53.041824,220.992112 C53.178224,220.957792 52.880784,220.076912 53.156224,218.715552 C53.291744,218.044992 53.582144,217.262672 54.113664,216.543712 C54.376784,216.185552 54.698864,215.843232 55.079024,215.551952 C55.476784,215.227232 55.893904,215.052992 55.998624,215.220192 C56.176384,215.377712 56.216864,215.932112 56.088384,216.363312 C55.981024,216.845552 55.828784,217.301392 55.651904,217.721152 C55.290224,218.560672 54.829104,219.260272 54.382944,219.798832 C53.485344,220.878592 52.711824,221.355552 52.782224,221.467312" id="Fill-132" fill="#263238"></path>
                <path d="M143.894432,182.900501 C143.884752,182.894976 143.920832,182.805216 143.998272,182.635376 C144.095952,182.434736 144.213872,182.190976 144.357312,181.895296 C144.707552,181.207136 145.180112,180.277856 145.767952,179.121536 C147.033392,176.698016 148.791632,173.329376 150.882512,169.325376 L150.859632,169.411616 C151.023312,165.466576 151.260912,160.886176 151.560992,156.025936 C152.048512,148.120896 152.629312,140.972656 153.147632,135.808816 C153.405472,133.227776 153.636032,131.140416 153.822592,129.700736 C153.914112,129.018736 153.988032,128.469616 154.045232,128.044576 C154.101552,127.666176 154.138512,127.469056 154.153472,127.470804 C154.169312,127.472576 154.163152,127.673216 154.137632,128.055136 C154.102432,128.481936 154.056672,129.034576 154.000352,129.719216 C153.870112,131.219616 153.690592,133.296416 153.469712,135.838736 C153.034992,141.006976 152.505232,148.152576 152.018592,156.054096 C151.718512,160.912576 151.461552,165.490336 151.263552,169.428336 L151.260912,169.475856 L151.239792,169.515456 C149.089072,173.487776 147.280672,176.830016 145.979152,179.233296 C145.349072,180.367616 144.843952,181.279296 144.468192,181.955136 C144.303632,182.238496 144.168112,182.472576 144.055472,182.665296 C143.958672,182.825456 143.904112,182.905536 143.894432,182.900501" id="Fill-134" fill="#263238"></path>
                <path d="M143.894432,200.183192 L157.765872,214.984792 C164.138832,222.800072 170.101712,229.234632 179.959472,229.641192 C180.204992,230.045112 208.311312,229.979992 208.311312,229.979992 L192.683392,178.540472 L146.524752,140.286872 C141.512272,136.497592 135.471072,134.455992 129.269712,134.455992 C120.840192,134.455992 112.818992,138.222392 107.256512,144.794232 L46.312112,214.777112 L72.534352,237.547112 L129.337472,183.571432 L143.894432,200.183192 Z" id="Fill-136" fill="#263238"></path>
                <path d="M195.819536,229.411336 C195.819536,229.420136 195.732416,229.428056 195.562576,229.435096 C195.367216,229.440376 195.119936,229.448296 194.811056,229.457096 C194.115856,229.465016 193.146976,229.475576 191.916736,229.489656 C189.403456,229.485256 185.762896,229.505496 181.272256,229.205416 C179.029136,229.039976 176.566016,228.817336 173.963856,228.275256 C172.665856,227.992776 171.329136,227.631096 170.022336,227.044136 C168.717296,226.427256 167.530176,225.591256 166.323696,224.704216 C161.518896,221.094456 157.436576,215.903336 152.885216,210.803736 C143.551056,200.103816 135.135616,190.456376 129.219376,183.675096 L129.448176,183.683016 C126.423616,186.631896 123.986016,189.008776 122.277056,190.672856 C121.446336,191.470136 120.795136,192.094936 120.326096,192.543736 C120.115776,192.739976 119.946816,192.896616 119.812176,193.020696 C119.695136,193.127176 119.632656,193.177336 119.62701,193.172056 C119.622096,193.166776 119.674016,193.105176 119.780496,192.989016 C119.906336,192.856136 120.065616,192.689816 120.263616,192.480376 C120.717696,192.017496 121.350416,191.372456 122.156496,190.551416 C123.840816,188.861816 126.244976,186.450616 129.227296,183.459496 L129.345216,183.340696 L129.456096,183.467416 C135.398736,190.225816 143.852896,199.839816 153.230176,210.501896 C157.785936,215.608536 161.851536,220.791736 166.578896,224.368056 C167.756336,225.243656 168.953136,226.088456 170.193056,226.678936 C171.451456,227.251816 172.764416,227.617896 174.043056,227.903896 C176.611776,228.455656 179.062576,228.696776 181.296016,228.881576 C185.769056,229.223016 189.406976,229.252056 191.917616,229.311896 C193.147856,229.333896 194.115856,229.352376 194.811056,229.364696 C195.119936,229.374376 195.367216,229.382296 195.562576,229.388456 C195.732416,229.395496 195.819536,229.403416 195.819536,229.411336" id="Fill-138" fill="#455A64"></path>
                <path d="M126.404872,135.003 C126.404872,135.01092 126.298392,135.02148 126.091592,135.03556 C125.884792,135.0558 125.576792,135.05404 125.174632,135.09804 C124.370312,135.16492 123.186712,135.3242 121.705672,135.71316 C118.753272,136.47612 114.616392,138.37252 110.519992,142.0298 C106.363752,145.62372 102.421352,150.88612 97.792552,156.48556 C93.178712,162.10436 88.016632,168.20628 82.525432,174.54844 C66.938872,192.51188 52.977672,207.64172 46.388232,214.8454 L46.382072,214.70108 C47.937912,216.17156 49.139112,217.30764 49.972472,218.09524 C50.359672,218.47012 50.661512,218.7614 50.884152,218.97612 C51.086552,219.17588 51.185992,219.28148 51.179832,219.288017 C51.173672,219.29468 51.061912,219.20316 50.847192,219.0166 C50.615752,218.81068 50.302472,218.53172 49.899432,218.17444 C49.050232,217.40268 47.827032,216.29124 46.243032,214.85244 L46.168232,214.78468 L46.235992,214.70812 C52.714552,207.40236 66.598312,192.20476 82.178712,174.24924 C87.667272,167.90972 92.837272,161.81836 97.466952,156.21628 C102.106312,150.64236 106.088312,145.38172 110.307032,141.78604 C114.465032,138.12876 118.669672,136.25612 121.660792,135.5398 C123.161192,135.1746 124.357992,135.04348 125.168472,135.00652 C125.573272,134.9766 125.883032,134.99244 126.090712,134.98892 C126.298392,134.9898 126.404872,134.99508 126.404872,135.003" id="Fill-140" fill="#455A64"></path>
                <path d="M130.345952,169.371136 C130.396992,169.355296 130.703232,170.120016 131.001552,171.416256 C131.297232,172.708976 131.548912,174.550816 131.428352,176.588016 C131.303392,178.626096 130.813232,180.426576 130.319552,181.660336 C129.826752,182.898496 129.383232,183.595456 129.337472,183.571696 C129.184352,183.518896 130.752512,180.567376 130.970752,176.559856 C131.209232,172.566416 130.178752,169.401936 130.345952,169.371136" id="Fill-142" fill="#455A64"></path>
                <path d="M138.384136,171.741328 C138.433416,171.749248 138.346296,172.610768 137.925656,173.941328 C137.510296,175.269248 136.700696,177.046848 135.424696,178.761088 C134.143416,180.470928 132.666776,181.751328 131.512216,182.526608 C130.355016,183.307168 129.553336,183.634528 129.532216,183.589648 C129.435416,183.463808 132.564696,181.872768 135.057736,178.486528 C137.596536,175.136368 138.237176,171.684128 138.384136,171.741328" id="Fill-144" fill="#455A64"></path>
                <path d="M146.172664,140.806336 C146.038904,140.860896 145.187064,138.811376 143.920744,136.415136 C142.648264,134.018016 141.317704,132.249216 141.427704,132.163856 C141.513064,132.088176 143.027544,133.756656 144.324664,136.198656 C145.612104,138.637136 146.273864,140.768496 146.172664,140.806336" id="Fill-146" fill="#263238"></path>
                <path d="M175.630752,18.306376 C174.802672,22.300696 176.472032,26.705096 179.738592,29.147096 C181.618272,30.552456 183.892192,31.303976 186.122112,32.033496 L190.422672,33.439736 C193.595072,34.476376 196.819392,35.523576 200.155472,35.637976 C199.798192,39.367416 199.242912,41.861336 201.094432,45.118216 C202.755872,48.040696 205.277952,50.160616 208.716112,49.505896 C210.513072,40.577416 210.787632,36.328776 211.100912,27.226056 C211.166912,25.302376 211.206512,23.262536 210.246432,21.594056 C208.658912,18.834376 205.056192,18.143576 201.898752,17.736136 C197.463552,17.163256 193.028352,16.590376 188.592272,16.017496 C186.420432,15.736776 184.222192,15.456056 182.047712,15.713016 C179.873232,15.969096 177.689072,16.823576 176.252912,18.476216" id="Fill-148" fill="#263238"></path>
                <path d="M217.876447,36.585208 C217.876447,36.593128 217.834056,36.601928 217.749576,36.610728 C217.665096,36.623048 217.538376,36.624808 217.372056,36.619528 C217.041176,36.601048 216.543976,36.511288 215.973736,36.226168 C215.405256,35.944568 214.767256,35.477288 214.172376,34.800568 C213.570456,34.131768 213.021336,33.272888 212.378936,32.372648 C211.741816,31.472408 210.927816,30.576568 209.884136,29.814488 C208.844856,29.050648 207.611096,28.405608 206.242696,27.910168 C203.493576,26.909608 200.268376,26.551448 196.881256,26.407128 C193.494136,26.244328 190.210856,26.088568 187.335016,25.270168 C184.437176,24.515128 182.121016,22.928488 180.623256,21.251208 C179.869976,20.409928 179.308536,19.543128 178.929256,18.729128 C178.569336,17.907208 178.346696,17.160968 178.267496,16.534408 C178.095896,15.281288 178.269256,14.592248 178.269256,14.592248 C178.328216,14.593128 178.221736,15.290088 178.442616,16.504488 C178.546456,17.111688 178.789336,17.830648 179.160696,18.619128 C179.550536,19.399688 180.114616,20.228648 180.862616,21.032968 C182.354216,22.638968 184.613176,24.148168 187.446776,24.863608 C190.267176,25.642408 193.510856,25.787608 196.904136,25.949528 C200.296536,26.093848 203.585976,26.467848 206.387896,27.513288 C207.784456,28.031608 209.049896,28.708328 210.112936,29.510008 C211.178616,30.308168 212.013736,31.258568 212.643816,32.185208 C213.277416,33.110968 213.799256,33.967208 214.366856,34.633368 C214.923896,35.303048 215.522296,35.773848 216.056456,36.067768 C217.145016,36.660888 217.888616,36.528888 217.876447,36.585208" id="Fill-150" fill="#455A64"></path>
                <path d="M216.39684,29.4783044 C216.32556,29.47912 216.62388,28.8552 216.24988,27.84496 C215.88028,26.83824 214.6826,25.7268 212.96924,24.8512 C211.25764,23.9668 209.0506,23.20648 206.5338,22.77176 C204.01964,22.36344 201.17108,22.42592 198.20108,22.40128 C195.22492,22.38984 192.35788,22.27016 189.81204,21.68672 C187.27412,21.0936 185.10668,20.07104 183.53236,18.8804 C181.94748,17.69768 180.95308,16.39792 180.43564,15.4308 C180.18484,14.93976 180.00444,14.55432 179.91996,14.27624 C179.82316,14.00432 179.78004,13.85912 179.795,13.85384 C179.84516,13.83448 180.0326,14.41352 180.59052,15.34104 C181.14492,16.26328 182.15252,17.49704 183.72332,18.61816 C185.28356,19.7472 187.4158,20.71608 189.90532,21.27488 C192.401,21.82312 195.23548,21.93224 198.20372,21.9428 C201.17372,21.9692 204.02492,21.91464 206.60596,22.35552 C209.16588,22.82192 211.3914,23.62448 213.12236,24.56608 C214.85068,25.49536 216.07476,26.6904 216.41708,27.78424 C216.59396,28.32016 216.57988,28.76896 216.52708,29.05496 C216.469,29.34096 216.40828,29.48176 216.39684,29.4783044" id="Fill-152" fill="#455A64"></path>
                <path d="M222.5036,7.81029841 C222.52472,7.805952 222.62328,8.072592 222.64616,8.582992 C222.65936,9.088992 222.55816,9.845792 222.1692,10.674752 C221.4168,12.367872 219.5336,14.152512 217.14264,15.511232 C215.92208,16.166832 214.6408,16.571632 213.44928,16.727392 C212.25688,16.887552 211.1692,16.814512 210.28216,16.673712 C209.39248,16.532912 208.69024,16.339312 208.21416,16.185312 C207.73984,16.023392 207.48376,15.919552 207.49256,15.889632 C207.51544,15.806032 208.57232,16.151872 210.32352,16.352512 C211.19648,16.449312 212.24984,16.485392 213.3912,16.309392 C214.5308,16.136912 215.74872,15.739152 216.9244,15.108192 C219.24056,13.790832 221.10528,12.092432 221.87792,10.532192 C222.70248,8.967552 222.41208,7.801552 222.5036,7.81029841" id="Fill-154" fill="#455A64"></path>
                <path d="M218.621392,2.56256 C218.649552,2.56608 218.645152,2.83976 218.577392,3.32904 C218.511392,3.81744 218.363552,4.52056 218.085472,5.36096 C217.541632,7.03648 216.357152,9.27784 214.341072,11.11968 C212.324112,12.9624 209.985072,13.9392 208.267312,14.32904 C207.404912,14.53056 206.692112,14.61416 206.199312,14.63616 C205.706512,14.65904 205.433712,14.6388 205.431918,14.61064 C205.424912,14.52792 206.516992,14.48832 208.185472,14.01576 C209.845152,13.55464 212.083872,12.56112 214.032192,10.78088 C215.979632,9.00152 217.171152,6.86224 217.780112,5.25096 C218.401392,3.63176 218.540432,2.5476 218.621392,2.56256" id="Fill-156" fill="#455A64"></path>
                <path d="M215.014536,52.0660032 C214.997816,52.065112 215.003976,51.855672 215.021576,51.459672 C215.039176,51.062792 215.065576,50.478472 215.073496,49.726952 C215.069976,48.234472 215.048856,46.016872 214.217256,43.472792 C213.794856,42.211752 213.153336,40.876792 212.173896,39.662392 C211.200616,38.447992 209.850696,37.407832 208.235016,36.724952 C204.983416,35.302872 200.989976,35.306392 196.899736,34.930632 C192.792776,34.542552 188.882056,33.693352 185.608456,32.180632 C182.317256,30.705752 179.788136,28.509272 178.161016,26.336552 C176.514536,24.155912 175.765656,22.020152 175.472616,20.539992 C175.322136,19.797272 175.261416,19.207672 175.255256,18.809912 C175.242936,18.410392 175.243816,18.202712 175.259656,18.2018149 C175.313336,18.197432 175.306296,19.041352 175.646856,20.501272 C175.989176,21.949752 176.770616,24.024792 178.417976,26.140312 C180.052136,28.248792 182.539016,30.366952 185.783576,31.796072 C189.008776,33.261272 192.866696,34.089352 196.943736,34.474792 C200.998776,34.851432 205.045896,34.849672 208.403976,36.337752 C210.069816,37.053192 211.476056,38.154952 212.470456,39.424792 C213.472776,40.694632 214.112536,42.075352 214.525256,43.372472 C215.334856,45.990472 215.302296,48.230952 215.252136,49.731352 C215.216056,50.487272 215.161496,51.071592 215.113096,51.466712 C215.066456,51.861832 215.029496,52.067752 215.014536,52.0660032" id="Fill-158" fill="#455A64"></path>
                <path d="M213.881096,22.467896 C213.818616,22.509256 213.290616,21.755976 212.333176,20.634856 C211.377496,19.511096 209.954536,18.045896 208.174296,16.674856 C206.389656,15.308216 204.606776,14.310296 203.275336,13.677576 C201.944776,13.041336 201.081496,12.725416 201.105256,12.654136 C201.120216,12.604856 202.023976,12.812536 203.408216,13.381016 C204.790696,13.945976 206.636056,14.918376 208.453256,16.311416 C210.266936,17.707976 211.681976,19.240056 212.584856,20.430696 C213.491256,21.621336 213.925096,22.440616 213.881096,22.467896" id="Fill-160" fill="#E8505B"></path>
                <path d="M160.70252,89.5969955 C160.74828,89.616472 160.34348,90.343352 160.01524,91.779512 C159.65796,93.213032 159.54004,95.348792 159.37812,97.994072 C159.0094,103.326872 158.50604,110.600952 157.95076,118.638872 C157.34268,126.675032 156.79268,133.946472 156.38876,139.276632 C156.17052,141.875272 155.99188,143.996072 155.8634,145.527272 C155.79476,146.226872 155.7402,146.790072 155.69796,147.224792 C155.65396,147.612872 155.62404,147.816152 155.6082,147.814403 C155.59236,147.813512 155.59148,147.608472 155.60556,147.218632 C155.6258,146.782152 155.6522,146.217192 155.68564,145.514952 C155.77892,143.981992 155.9074,141.856792 156.0658,139.253752 C156.43452,133.921832 156.937,126.646872 157.49316,118.606312 C158.10124,110.571912 158.65124,103.300472 159.05428,97.971192 C159.25668,95.336472 159.42652,93.176952 159.84188,91.738152 C160.03372,91.015672 160.24844,90.476232 160.41476,90.121592 C160.58108,89.766072 160.69108,89.591832 160.70252,89.5969955" id="Fill-162" fill="#FAFAFA"></path>
                <path d="M150.67536,122.18888 C150.788,122.24608 149.34744,125.3076 147.45808,129.0256 C145.56784,132.7436 143.94424,135.71008 143.8316,135.65376 C143.71896,135.59568 145.15864,132.53592 147.04888,128.81704 C148.93912,125.09992 150.56272,122.13256 150.67536,122.18888" id="Fill-164" fill="#FAFAFA"></path>
                <path d="M120.60664,230.038688 C120.58728,230.024608 120.77912,229.679648 121.21648,229.116448 C121.64944,228.552368 122.33672,227.779728 123.2704,226.914688 C124.19968,226.045248 125.37712,225.097488 126.66984,224.041488 C127.95904,222.981088 129.35472,221.799248 130.61752,220.358688 C133.18448,217.506608 134.83096,214.391408 135.7576,212.061168 C136.68424,209.721248 136.99576,208.180368 137.07584,208.199548 C137.10576,208.205008 137.04944,208.593968 136.90776,209.290048 C136.7476,209.981728 136.49504,210.981408 136.06032,212.177328 C135.20056,214.563888 133.5708,217.761808 130.95896,220.664928 C129.67416,222.130128 128.2424,223.326048 126.9356,224.369728 C125.62352,225.410768 124.43376,226.325968 123.48688,227.156688 C122.5356,227.980368 121.8228,228.707248 121.35288,229.231728 C120.87944,229.752688 120.6392,230.061568 120.60664,230.038688" id="Fill-166" fill="#FAFAFA"></path>
                <path d="M206.538552,42.481824 C206.705752,42.400864 212.673032,39.761744 212.743432,46.623984 C212.812952,53.484464 205.909352,52.139824 205.896152,51.942704 C205.882072,51.746464 206.538552,42.481824 206.538552,42.481824" id="Fill-168" fill="#FFBE9D"></path>
                <path d="M207.96556,49.322504 C207.99548,49.300504 208.08612,49.405224 208.28852,49.494984 C208.48652,49.582984 208.8262,49.641944 209.1826,49.504664 C209.90508,49.230984 210.50348,48.074664 210.52372,46.837384 C210.53516,46.212584 210.39788,45.618584 210.17172,45.128424 C209.957,44.629464 209.62876,44.281864 209.26356,44.220264 C208.90012,44.140184 208.64316,44.361064 208.56132,44.555544 C208.47156,44.748264 208.51644,44.884664 208.47948,44.896984 C208.461,44.914584 208.33164,44.783464 208.38444,44.500104 C208.41084,44.362824 208.49004,44.200024 208.64932,44.066264 C208.813,43.931624 209.05412,43.860344 209.30844,43.884984 C209.8382,43.916664 210.31956,44.398024 210.5686,44.936584 C210.8458,45.476904 211.01476,46.143064 211.00244,46.845304 C210.97252,48.227784 210.27732,49.528424 209.2882,49.825864 C208.80772,49.956104 208.40292,49.815304 208.19348,49.655144 C207.97964,49.487944 207.9418,49.334824 207.96556,49.322504" id="Fill-170" fill="#EB996E"></path>
                <path d="M208.251296,46.517504 C208.906896,46.260544 209.688336,46.508704 210.182016,47.011184 C210.674816,47.512784 210.909776,48.222944 210.963456,48.925184 C211.017136,49.626544 210.907136,50.329664 210.797136,51.023984 C210.732016,51.434944 210.601776,51.925104 210.203136,52.043904 C209.805376,52.161824 209.404096,51.794864 209.296736,51.393584 C209.188496,50.992304 209.276496,50.569024 209.294976,50.154544 C209.312576,49.740064 209.231616,49.272784 208.896336,49.029024 C208.748496,48.921664 208.568096,48.871504 208.405296,48.788784 C207.940656,48.552944 207.637936,48.030224 207.663456,47.509264 C207.688096,46.989184 207.959136,46.523664 208.554896,46.435664" id="Fill-172" fill="#E8505B"></path>
                <path d="M190.080704,102.807403 C190.088624,102.807403 190.092144,102.914768 190.092144,103.124208 C190.087744,103.357408 190.083344,103.664528 190.077184,104.053488 C190.053424,104.898288 190.018224,106.095968 189.974224,107.626288 C189.858944,110.754688 189.692624,115.234768 189.487584,120.759408 C189.261424,126.303408 188.979824,132.904288 188.599664,140.232048 C188.394624,143.896368 188.222144,147.739328 187.848144,151.729248 C187.653664,153.723328 187.230384,155.767568 186.329264,157.671008 C185.863744,158.611728 185.276784,159.511088 184.527024,160.284608 C183.761424,161.043168 182.833904,161.642448 181.824544,162.045488 C180.815184,162.474048 179.728384,162.602528 178.669744,162.672928 C178.138224,162.665888 177.604944,162.700208 177.082224,162.629808 L176.296384,162.556768 C176.034144,162.512768 175.754304,162.427408 175.497344,162.345568 C173.551664,161.479648 171.928064,160.241488 170.315024,159.056128 C167.123264,156.640528 164.177904,154.151888 161.399744,151.753008 C155.850464,146.946448 150.984944,142.472528 146.920224,138.694688 C142.859024,134.912448 139.612704,131.809568 137.380144,129.654448 C136.286304,128.584368 135.429184,127.747488 134.824624,127.157008 C134.550064,126.879808 134.333584,126.661568 134.169904,126.497008 C134.024704,126.346528 133.952544,126.266448 133.957554,126.260288 C133.963104,126.255008 134.045824,126.323648 134.202464,126.463568 C134.374064,126.620208 134.601104,126.827888 134.888864,127.090128 C135.506624,127.665648 136.383104,128.482288 137.503344,129.524208 C139.799264,131.652048 143.086064,134.698608 147.140224,138.457088 C151.231344,142.202368 156.117104,146.649888 161.675184,151.433568 C164.457744,153.819248 167.404864,156.298208 170.584304,158.697088 C172.179744,159.870128 173.829744,161.107408 175.661024,161.919648 C177.534544,162.386048 179.754784,162.350848 181.656464,161.618688 C182.609504,161.237648 183.478944,160.677088 184.202304,159.961648 C184.909824,159.231248 185.470384,158.375888 185.919184,157.472128 C186.787744,155.640848 187.207504,153.647648 187.401984,151.679088 C187.779504,147.721728 187.962544,143.867328 188.178144,140.209168 C188.548624,132.889328 188.883024,126.293728 189.163744,120.745328 C189.429504,115.223328 189.645984,110.745888 189.796464,107.618368 C189.877424,106.089808 189.939904,104.893888 189.984784,104.049968 C190.010304,103.661888 190.029664,103.354768 190.044624,103.122448 C190.061344,102.913888 190.072784,102.806528 190.080704,102.807403" id="Fill-174" fill="#E8505B"></path>
                <path d="M198.80036,134.001824 L197.2586,139.939184 L166.53428,117.544944 L158.21388,105.720384 C156.95548,103.931344 154.275,102.096544 152.12428,101.677664 C149.84332,101.233264 147.88004,102.223264 145.43716,103.566144 L138.39364,107.926544 C137.54444,108.451904 137.03844,109.432224 137.21268,110.415184 C137.32532,111.054064 137.6914,111.517824 138.64884,111.093664 C140.77492,110.150304 145.2638,108.823264 145.2638,108.823264 L146.44476,120.138304 L151.64468,123.909104 L156.8446,127.917504 L191.53508,162.354544 C199.00892,169.772944 211.5718,167.724304 216.28772,158.317984 L221.42868,143.721424 L198.80036,134.001824 Z" id="Fill-176" fill="#FFBE9D"></path>
                <path d="M196.484728,139.0928 C196.503208,139.04704 197.077848,139.23448 197.774808,139.88744 C198.473528,140.52808 199.208328,141.67032 199.571768,143.06952 C199.933448,144.46696 199.936088,145.77024 199.905288,146.69072 C199.866568,147.6156 199.788248,148.18056 199.726648,148.179681 C199.659768,148.1788 199.622808,147.60768 199.577048,146.69248 C199.526008,145.7808 199.468808,144.51536 199.123848,143.18744 C198.778008,141.86304 198.138248,140.77536 197.539848,140.11536 C196.945848,139.44392 196.446008,139.15968 196.484728,139.0928" id="Fill-178" fill="#EB996E"></path>
                <path d="M145.20968,109.40908 C145.1604,109.37652 145.30912,109.01484 145.6708,108.49212 C146.03072,107.98524 146.6432,107.26364 147.62088,106.91604 C148.62936,106.57812 149.61672,106.92748 150.09896,107.39212 C150.60232,107.87612 150.58296,108.3522 150.53632,108.34516 C150.46152,108.37156 150.35856,107.97908 149.88952,107.6438 C149.44072,107.3138 148.59064,107.0762 147.77224,107.3534 C146.938,107.64556 146.33608,108.25628 145.926,108.69716 C145.51416,109.14772 145.266,109.4478 145.20968,109.40908" id="Fill-180" fill="#EB996E"></path>
                <path d="M150.71012,112.429768 C150.65732,112.477288 150.425,112.265208 150.00348,112.031128 C149.58636,111.795288 148.95364,111.554168 148.23556,111.556808 C147.51748,111.560328 146.88652,111.806728 146.47204,112.045208 C146.05228,112.282808 145.82084,112.495768 145.76804,112.449128 C145.72316,112.414808 145.87188,112.112968 146.28724,111.775048 C146.6938,111.439768 147.39868,111.097448 148.2338,111.093041 C149.0698,111.091288 149.77644,111.426568 150.18564,111.759208 C150.60364,112.093608 150.75412,112.394568 150.71012,112.429768" id="Fill-182" fill="#EB996E"></path>
                <path d="M211.41384,78.64516 C212.9512,77.74844 233.486,91.46148 233.8424,98.22604 C234.19792,104.98972 224.22576,179.50724 224.22576,179.50724 C224.22576,179.50724 235.97816,183.66788 235.97816,185.80364 C235.97816,187.9394 233.486,195.05948 233.486,195.05948 C233.486,195.05948 238.82584,216.0642 242.0308,216.77612 C245.234,217.48804 271.98864,225.49604 267.3616,229.41204 L208.31184,229.98052 C202.97112,227.84388 206.78768,224.17516 202.0084,210.80092 C197.88384,199.2562 187.56144,161.59572 187.56144,152.339 C187.56144,143.08316 202.86992,83.62948 211.41384,78.64516" id="Fill-184" fill="#E8505B"></path>
                <path d="M177.150952,127.441336 C177.150952,127.441336 177.562792,124.795176 178.964632,125.038936 C180.365592,125.282696 198.388872,134.781416 198.388872,134.781416 C198.388872,134.781416 206.670552,104.293816 210.323432,100.905816 C213.977192,97.516056 224.090152,94.260936 228.834232,94.837336 C233.579192,95.412856 233.110152,108.875096 232.920952,112.395976 C232.773992,115.120456 225.161992,146.266296 221.722072,160.229256 C220.666952,164.514856 217.923112,168.186216 214.114472,170.416136 C208.613592,173.636936 201.741672,173.365016 196.512712,169.718296 L177.150952,156.214696 L177.150952,127.441336 Z" id="Fill-186" fill="#E8505B"></path>
                <path d="M242.03036,216.775944 C238.82628,216.064024 233.48644,195.059304 233.48644,195.059304 C233.48644,195.059304 235.9786,187.939224 235.9786,185.803464 C235.9786,183.667704 224.2262,179.507064 224.2262,179.507064 C224.2262,179.507064 229.46748,140.336504 232.21484,116.217464 C232.63636,114.238344 232.89508,112.874344 232.9206,112.396504 C232.96284,111.609784 233.01916,110.325864 233.02796,108.801704 C233.5894,103.417864 233.91148,99.539704 233.84196,98.225864 C233.48644,91.462184 212.95164,77.749144 211.4134,78.644984 C205.62388,82.022424 196.7306,110.404184 191.59668,131.236424 C186.32812,128.509304 179.78708,125.182024 178.96428,125.038584 C177.56332,124.795704 177.1506,127.440984 177.1506,127.440984 L177.1506,156.215224 L189.45828,164.797864 C192.63508,179.852024 198.98428,202.337784 202.00884,210.800744 C206.78812,224.174984 202.97156,227.843704 208.3114,229.980344 L267.21596,229.980344 C271.84388,226.064344 245.23444,217.488744 242.03036,216.775944" id="Fill-188" fill="#000000"></path>
                <path d="M228.990168,128.221699 C229.006008,128.22436 228.978728,128.4778 228.911848,128.95828 C228.847608,129.43876 228.735848,130.14364 228.586248,131.0518 C228.280888,132.86636 227.794248,135.48436 227.121928,138.70516 C226.449608,141.92596 225.597768,145.75044 224.543528,149.9718 C224.011128,152.08204 223.437368,154.29084 222.773848,156.56916 C222.098008,158.83956 221.279608,161.1874 220.005368,163.38828 C217.415528,167.75572 213.388648,170.96068 209.163768,172.24284 C207.050888,172.86588 204.900168,173.02252 202.965048,172.62212 C201.044888,172.19884 199.378168,171.43236 197.926168,170.64916 C195.031848,169.04668 192.914568,167.41164 191.431768,166.32748 C190.723368,165.79508 190.159288,165.3718 189.738648,165.05588 C189.352328,164.76372 189.153448,164.60532 189.162791,164.59212 C189.171928,164.57804 189.388408,164.71356 189.792328,164.9802 C190.225288,165.27852 190.806088,165.67892 191.536488,166.18316 C193.049208,167.22156 195.194648,168.81436 198.079288,170.36404 C199.524248,171.11996 201.174248,171.85476 203.040728,172.249 C204.906328,172.61948 206.988408,172.4558 209.041448,171.83892 C213.140488,170.57436 217.081128,167.42396 219.609368,163.15772 C220.854568,161.00788 221.666808,158.69524 222.343528,156.4398 C223.009688,154.1782 223.592248,151.97028 224.133448,149.86884 C225.208808,145.65804 226.093208,141.84588 226.805128,138.6374 C227.517048,135.42804 228.052088,132.82324 228.410248,131.01924 C228.582728,130.14892 228.719128,129.45724 228.821208,128.94156 C228.917128,128.46724 228.974328,128.21908 228.990168,128.221699" id="Fill-190" fill="#263238"></path>
                <path d="M205.45448,142.892112 C205.38936,142.931712 204.82616,142.045552 203.78776,140.715872 C202.752,139.387072 201.19528,137.642912 199.22848,135.990272 C197.25552,134.341152 195.26672,133.114432 193.776,132.326832 C192.28616,131.537472 191.31552,131.137952 191.3428,131.066672 C191.35424,131.036752 191.60768,131.108032 192.05824,131.262912 C192.51144,131.412512 193.15032,131.675632 193.92208,132.037312 C195.46648,132.758912 197.51776,133.963632 199.5224,135.639152 C201.52176,137.319072 203.06704,139.128352 204.04736,140.522272 C204.53928,141.219232 204.90888,141.802672 205.13592,142.221552 C205.36736,142.638672 205.48176,142.875392 205.45448,142.892112" id="Fill-192" fill="#263238"></path>
                <path d="M209.8888,139.083296 C209.82808,139.133456 209.33088,138.544736 208.39632,137.750096 C207.46616,136.954576 206.052,135.997136 204.31488,135.314256 C202.57336,134.639296 200.88552,134.385856 199.66144,134.340976 C198.43648,134.292576 197.67176,134.388496 197.661108,134.310176 C197.65152,134.263536 198.40568,134.051456 199.66496,134.017136 C200.91984,133.978416 202.68072,134.188736 204.4812,134.887456 C206.27904,135.593216 207.71696,136.631616 208.61368,137.509856 C209.51656,138.388096 209.92752,139.055136 209.8888,139.083296" id="Fill-194" fill="#263238"></path>
                <path d="M206.46208,100.903836 C206.49376,100.90916 206.4436,101.39316 206.32568,102.26524 C206.20336,103.13644 206.00008,104.39396 205.70352,105.93924 C205.12272,109.0298 204.17056,113.27228 202.9632,117.91604 C201.74704,122.55892 200.50624,126.7266 199.49072,129.70452 C198.98824,131.19524 198.54472,132.38852 198.21912,133.20692 C197.88736,134.02268 197.69112,134.46708 197.6612,134.455855 C197.63128,134.4442 197.77208,133.9778 198.05192,133.1462 C198.3432,132.231 198.72424,131.03948 199.18272,129.6042 C200.1164,126.6078 201.30528,122.43572 202.52056,117.79988 C203.72528,113.16404 204.72496,108.94268 205.38584,105.87324 C205.6956,104.39924 205.95256,103.17516 206.15056,102.23532 C206.32128,101.3738 206.43128,100.8986 206.46208,100.903836" id="Fill-196" fill="#263238"></path>
                <path d="M224.122748,180.017904 C224.128784,180.048704 223.904384,180.117344 223.490784,180.216784 C223.078064,180.320624 222.469984,180.419184 221.712304,180.496624 C220.199584,180.654144 218.068224,180.625984 215.788144,180.125264 C213.508944,179.617504 211.564144,178.742784 210.259984,177.962224 C209.605264,177.573264 209.095744,177.225664 208.765744,176.957264 C208.432224,176.694144 208.257984,176.537504 208.276464,176.511984 C208.321344,176.448624 209.089584,176.984544 210.416624,177.678864 C211.741024,178.375824 213.659424,179.181024 215.887584,179.677344 C218.116624,180.167504 220.195184,180.245824 221.689424,180.173664 C223.186304,180.104144 224.108544,179.942224 224.122748,180.017904" id="Fill-198" fill="#263238"></path>
                <path d="M230.931888,193.410448 C230.938928,193.424528 230.838608,193.487008 230.638848,193.592608 C230.435568,193.690288 230.149568,193.868928 229.745648,194.017648 C228.958048,194.362608 227.755088,194.733088 226.223888,194.933728 C223.172928,195.366688 218.761488,194.764768 214.594688,192.537488 C210.435808,190.303168 207.339968,187.317328 205.187488,185.165728 C204.112128,184.078048 203.269088,183.171648 202.695328,182.538928 C202.120688,181.906208 201.816208,181.544528 201.838208,181.522528 C201.861088,181.500528 202.209568,181.819968 202.823808,182.414848 C203.495248,183.067808 204.367328,183.915248 205.414528,184.934288 C207.618928,187.021648 210.723568,189.938848 214.809408,192.132688 C218.896128,194.314208 223.192288,194.953088 226.187808,194.611648 C229.215008,194.304528 230.894928,193.298688 230.931888,193.410448" id="Fill-200" fill="#263238"></path>
                <path d="M186.318792,132.262424 C186.350472,132.256344 186.442872,132.606584 186.585432,133.247224 C186.737672,133.886104 186.881992,134.827704 186.989352,135.998104 C187.105512,137.167624 187.127512,138.572104 187.041272,140.127064 C186.931272,141.678504 186.698072,143.379544 186.280072,145.128104 C185.844472,146.874024 185.268072,148.489704 184.650312,149.918824 C184.009672,151.338264 183.342632,152.573784 182.700232,153.558504 C182.065752,154.547624 181.503432,155.316744 181.073992,155.813944 C180.652472,156.316424 180.408712,156.584824 180.384072,156.563704 C180.315432,156.510024 181.236792,155.388904 182.423912,153.389544 C183.024072,152.394264 183.652392,151.159624 184.262232,149.751624 C184.850072,148.333944 185.406232,146.737624 185.834792,145.018984 C186.246632,143.296824 186.488632,141.625704 186.620632,140.096264 C186.727992,138.565944 186.739432,137.180824 186.666392,136.020984 C186.534392,133.698664 186.233432,132.279224 186.318792,132.262424" id="Fill-202" fill="#263238"></path>
                <path d="M225.794192,91.678488 C225.790664,91.748888 224.578904,91.701368 222.628824,91.696088 C220.688424,91.704888 217.963944,91.754168 215.141784,92.625368 C212.325784,93.501848 210.143384,95.213448 208.996744,96.749928 C207.820184,98.287288 207.563224,99.512248 207.470824,99.475288 C207.446184,99.470008 207.491064,99.166408 207.661784,98.639288 C207.828104,98.112168 208.166904,97.374728 208.736264,96.557208 C209.853864,94.916888 212.092584,93.092648 215.004504,92.188008 C217.912024,91.292168 220.685784,91.299208 222.634984,91.371368 C223.615304,91.413608 224.406424,91.479608 224.951144,91.538568 C225.496744,91.597528 225.795944,91.647688 225.794192,91.678488" id="Fill-204" fill="#263238"></path>
                <path d="M184.160856,149.278096 C184.030616,149.344096 183.247416,147.259376 181.255976,145.504656 C179.290936,143.719136 177.132296,143.170896 177.184216,143.033616 C177.195656,142.981696 177.748296,143.042416 178.588696,143.350416 C179.427336,143.654896 180.536136,144.248896 181.561336,145.163216 C182.582136,146.080176 183.295816,147.116816 183.690936,147.915856 C184.090456,148.717536 184.211896,149.259616 184.160856,149.278096" id="Fill-206" fill="#FAFAFA"></path>
                <path d="M186.683992,136.979568 C186.615352,137.020928 186.280952,136.478848 185.599832,135.741408 C184.920472,135.007488 183.816952,134.132768 182.367592,133.657568 C180.921752,133.177088 179.508472,133.142768 178.501752,133.155968 C177.489752,133.183248 176.858792,133.251008 176.847259,133.178848 C176.838552,133.126048 177.451912,132.943888 178.482392,132.832128 C179.504952,132.736208 180.979832,132.713328 182.512792,133.222848 C184.051032,133.726208 185.205592,134.710928 185.844472,135.528448 C186.489512,136.352128 186.724472,136.958448 186.683992,136.979568" id="Fill-208" fill="#FAFAFA"></path>
                <path d="M227.72948,93.4289201 C227.73652,93.426344 227.76468,93.505544 227.81308,93.663944 C227.86588,93.820584 227.9354,94.059064 227.96796,94.380264 C228.0762,95.018264 228.1026,95.969544 228.0938,97.190104 C228.05508,99.632104 227.76644,103.153864 227.24988,107.482584 C226.19212,116.135624 224.34852,128.042904 221.61964,141.064264 C221.27204,142.691384 220.91036,144.296504 220.51964,145.870824 C220.10868,147.432824 219.75492,149.019464 219.06764,150.457384 C218.7966,151.203624 218.36804,151.873304 217.99932,152.560584 C217.79868,152.894984 217.54788,153.198584 217.32612,153.516264 C217.11316,153.841864 216.84828,154.125224 216.57548,154.398024 C215.52564,155.521784 214.18276,156.356904 212.73956,156.705384 C211.299,157.068824 209.81444,156.981704 208.47508,156.587464 C207.7834,156.404424 207.20348,156.014584 206.62004,155.725064 C206.03572,155.414424 205.45932,155.109944 204.89348,154.809864 C202.63276,153.609544 200.52516,152.490184 198.59796,151.467624 C194.77876,149.424264 191.67764,147.764584 189.49876,146.599464 C188.45244,146.027464 187.62788,145.578664 187.03564,145.255704 C186.77516,145.107864 186.5666,144.989064 186.40028,144.894904 C186.2586,144.812184 186.18732,144.765544 186.190716,144.758504 C186.19524,144.751464 186.27356,144.784024 186.42228,144.854424 C186.593,144.937144 186.80948,145.041864 187.07876,145.172984 C187.68068,145.477464 188.51756,145.902504 189.5806,146.441064 C191.7762,147.575384 194.89844,149.189304 198.74492,151.178104 C200.67916,152.186584 202.7938,153.287464 205.06244,154.469304 C205.63004,154.765864 206.20732,155.067704 206.79428,155.373944 C207.39532,155.667864 207.94972,156.038344 208.58948,156.201144 C209.86636,156.569864 211.2814,156.645544 212.63748,156.295304 C213.99708,155.960904 215.25812,155.173304 216.25868,154.096184 C216.51828,153.834824 216.77172,153.564664 216.97588,153.249624 C217.18796,152.941624 217.4282,152.651224 217.62268,152.327384 C217.97644,151.657704 218.39268,151.011784 218.6558,150.279624 C219.32372,148.877784 219.6678,147.322824 220.077,145.760824 C220.46508,144.193544 220.825,142.591944 221.17084,140.967464 C223.8962,127.966344 225.78996,116.072264 226.9278,107.442104 C227.48572,103.124824 227.82276,99.615384 227.91516,97.185704 C227.95124,95.972184 227.953,95.024424 227.87644,94.392584 C227.8298,93.754584 227.6934,93.440424 227.72948,93.4289201" id="Fill-210" fill="#FAFAFA"></path>
                <path d="M201.391784,137.981624 C201.370664,138.044104 200.549624,137.818824 199.226984,137.454504 C197.904344,137.088424 196.074824,136.595624 194.040264,136.112504 C192.004824,135.630264 190.148904,135.250984 188.802504,134.984344 C187.456984,134.715944 186.622744,134.548744 186.631475,134.482744 C186.639464,134.422904 187.491304,134.477464 188.856184,134.664024 C190.221944,134.850584 192.098984,135.181464 194.146744,135.666344 C196.192744,136.152104 198.018744,136.698584 199.322024,137.144744 C200.626184,137.590904 201.411144,137.924424 201.391784,137.981624" id="Fill-212" fill="#FAFAFA"></path>
                <path d="M207.357568,137.196136 C207.357568,137.313176 206.315648,137.424056 205.205088,138.027736 C204.648048,138.315496 204.215968,138.679816 203.934368,138.972856 C203.654528,139.268536 203.512848,139.492936 203.447728,139.464776 C203.396688,139.446296 203.435408,139.159416 203.678288,138.773976 C203.921168,138.392936 204.380528,137.937976 204.988608,137.623816 C206.206528,136.963816 207.377808,137.059736 207.357568,137.196136" id="Fill-214" fill="#FAFAFA"></path>
                <path d="M212.304576,94.079502 C212.320416,94.082208 212.304576,94.225648 212.260576,94.496688 C212.202496,94.817888 212.132096,95.205968 212.047616,95.674128 C211.827616,96.765328 211.534576,98.221728 211.179056,99.989648 C210.425776,103.629328 209.354816,108.652368 208.143936,114.191968 C206.933056,119.735088 205.811056,124.747568 204.976816,128.369648 C204.563216,130.124368 204.221776,131.571088 203.966576,132.653488 C203.848656,133.113728 203.750096,133.496528 203.669136,133.812448 C203.596096,134.077328 203.550336,134.213728 203.535376,134.210274 C203.519536,134.206688 203.535376,134.063248 203.579376,133.792208 C203.637456,133.470128 203.707856,133.080288 203.793216,132.613008 C204.012336,131.522688 204.305376,130.065408 204.660896,128.297488 C205.414176,124.656928 206.485136,119.635648 207.696016,114.095168 C208.906896,108.555568 210.028016,103.545728 210.861376,99.923648 C211.275856,98.168048 211.617296,96.721328 211.872496,95.638048 C211.991296,95.177808 212.088976,94.795008 212.170816,94.477328 C212.243856,94.213328 212.288736,94.076048 212.304576,94.079502" id="Fill-216" fill="#FAFAFA"></path>
                <path d="M209.076903,171.511824 C209.067056,171.541744 208.635856,171.420304 207.863216,171.173024 C207.473376,171.055984 207.005216,170.891424 206.470176,170.679344 C205.931616,170.473424 205.316496,170.242864 204.655616,169.943664 C201.983056,168.808464 198.432256,166.922624 194.708096,164.533424 C190.984816,162.142464 187.756096,159.774384 185.443456,158.034624 C184.286256,157.165184 183.359616,156.448864 182.724256,155.947264 C182.089776,155.445664 181.746576,155.156144 181.765936,155.130624 C181.784416,155.105104 182.162816,155.346224 182.829856,155.803824 C183.562896,156.318624 184.505376,156.979504 185.634416,157.773264 C187.994576,159.444384 191.246176,161.765824 194.955376,164.147984 C198.664576,166.526624 202.165216,168.444144 204.787616,169.647984 C205.437056,169.963904 206.038976,170.214704 206.565216,170.440864 C207.089696,170.675824 207.545536,170.863264 207.923936,171.005824 C208.674576,171.303264 209.086416,171.481904 209.076903,171.511824" id="Fill-218" fill="#FAFAFA"></path>
                <path d="M208.777624,82.588 C208.762664,82.60736 208.657944,82.5572 208.452024,82.42696 L208.064824,82.1832 L208.520664,82.30728 C209.338184,82.52904 211.832104,83.53576 214.112184,85.66272 C215.528984,86.96072 216.563864,88.37664 217.185144,89.46256 C217.811704,90.55024 218.066024,91.28504 218.017624,91.30616 C217.884744,91.38888 216.599944,88.53064 213.801544,85.99976 C211.583064,83.93 209.218504,82.83 208.468744,82.43664 L208.537384,82.31608 C208.716024,82.48064 208.792584,82.56952 208.777624,82.588" id="Fill-220" fill="#FAFAFA"></path>
                <path d="M216.258944,178.878404 C216.199104,178.875752 216.170944,178.101352 216.231664,176.850872 C216.292384,175.601272 216.456064,173.877352 216.768464,171.993272 C217.083504,170.108312 217.487424,168.423992 217.835904,167.222792 C218.183504,166.020712 218.461584,165.296472 218.518784,165.314072 C218.583024,165.331672 218.415824,166.086712 218.150064,167.301992 C217.884304,168.518152 217.533184,170.198072 217.220784,172.068952 C216.910144,173.938952 216.697184,175.641752 216.554624,176.878152 C216.412064,178.114552 216.325824,178.881912 216.258944,178.878404" id="Fill-222" fill="#FAFAFA"></path>
                <path d="M224.491344,194.820648 C224.419184,194.791608 224.754464,193.999608 225.005264,192.659368 C225.261344,191.327928 225.368704,189.413048 224.869744,187.402248 C224.370784,185.390568 223.380784,183.748488 222.532464,182.690728 C221.684144,181.623288 221.017984,181.080328 221.067264,181.020488 C221.095424,180.980888 221.842544,181.438488 222.780624,182.482168 C223.716064,183.513528 224.794944,185.196088 225.315024,187.292248 C225.835104,189.386648 225.667024,191.378968 225.322064,192.728008 C224.981504,194.089368 224.534464,194.842648 224.491344,194.820648" id="Fill-224" fill="#FAFAFA"></path>
                <path d="M245.527131,229.23516 C245.526248,229.251 245.337048,229.24836 244.977128,229.22812 C244.618968,229.21052 244.089208,229.17444 243.410728,229.1014 C242.052888,228.9606 240.086088,228.70188 237.703928,228.13428 C235.333208,227.5482 232.521608,226.64972 229.696808,225.027 C226.870248,223.43068 224.095608,221.01332 222.010008,217.88492 C219.893608,214.77412 218.556008,211.41516 217.674248,208.30348 C216.801288,205.18036 216.356008,202.29396 216.053288,199.87132 C215.756728,197.44692 215.610648,195.47748 215.511208,194.117 C215.471608,193.47548 215.440808,192.9554 215.415288,192.54884 C215.399448,192.1898 215.398568,192.0006 215.413528,191.999708 C215.429368,191.99796 215.461048,192.18364 215.507688,192.54092 C215.554328,192.94572 215.614168,193.46316 215.688968,194.10028 C215.842968,195.4546 216.038328,197.41876 216.375368,199.82908 C216.716808,202.23676 217.193768,205.10116 218.080808,208.18732 C218.974888,211.26116 220.308968,214.57084 222.388408,217.62708 C224.440568,220.70268 227.138648,223.06988 229.907128,224.66092 C232.673848,226.2766 235.441448,227.19972 237.783128,227.82012 C240.136248,228.42292 242.085448,228.72916 243.431848,228.92364 C244.068088,229.01076 244.582888,229.08116 244.986808,229.1366 C245.342328,229.18588 245.528008,229.21932 245.527131,229.23516" id="Fill-226" fill="#FAFAFA"></path>
                <path d="M216.139528,230.483 C216.139528,230.483 215.216408,230.28588 213.833928,229.33636 C212.463768,228.3842 210.800568,226.53708 209.465608,223.87156 C208.786248,222.54716 208.152648,221.04412 207.559528,219.40732 C206.945288,217.77756 206.332808,216.0202 205.716808,214.16164 C204.498888,210.441 203.317928,206.29796 202.246088,201.9094 C200.104168,193.127 198.747208,185.05564 197.787128,179.21948 C197.318088,176.29876 196.957288,173.93244 196.719688,172.29564 C196.610568,171.51156 196.522568,170.88412 196.457448,170.40892 C196.402008,169.97684 196.380888,169.74804 196.396728,169.74539 C196.412568,169.74364 196.464488,169.96628 196.548088,170.39484 C196.635208,170.86564 196.751368,171.48868 196.895688,172.26748 C197.189608,173.94564 197.602328,176.28908 198.106568,179.1658 C199.147608,184.98524 200.554728,193.03812 202.691368,201.80028 C203.761448,206.17916 204.925688,210.3134 206.118088,214.03228 C206.721768,215.8882 207.319288,217.64468 207.915048,219.2762 C208.492328,220.91388 209.101288,222.40724 209.754248,223.72548 C211.038168,226.37604 212.625688,228.2126 213.939528,229.19204 C215.263048,230.16972 216.165928,230.42756 216.139528,230.483" id="Fill-228" fill="#FAFAFA"></path>
                <path d="M177.819136,65.843976 C177.827056,65.843976 177.835856,65.935496 177.843776,66.115016 C177.849936,66.319176 177.856976,66.582296 177.867536,66.911416 C177.870176,67.611896 177.853456,68.645896 177.757536,69.972936 C177.664256,71.300856 177.490016,72.920056 177.255056,74.792696 C177.027136,76.667096 176.729696,78.795816 176.548416,81.156856 C176.374176,83.514376 176.331936,86.123576 176.758736,88.865656 C177.176736,91.593656 178.141216,94.486216 180.045536,96.943176 C181.956016,99.375496 184.782576,101.289496 188.040336,102.166856 C189.660416,102.612136 191.401936,102.804856 193.117056,102.653496 C194.830416,102.439656 196.520896,101.830696 198.057376,100.925176 C201.128576,99.095656 203.486096,96.275256 204.715456,93.138936 C205.322656,91.572536 205.674656,89.922536 206.022256,88.324456 C206.359296,86.719336 206.643536,85.137096 206.902256,83.590056 C207.914256,77.397496 208.598896,71.778696 209.043296,67.054856 C209.462176,62.327496 209.605616,58.483656 209.789536,55.833096 C209.879296,54.531576 209.949696,53.509016 210.000736,52.780376 C210.028896,52.452136 210.050896,52.190776 210.069376,51.986616 C210.086976,51.808856 210.100176,51.717336 210.108096,51.7182097 C210.116016,51.7182097 210.118656,51.810616 210.116016,51.990136 C210.109856,52.194296 210.102816,52.456536 210.092256,52.785656 C210.063216,53.516056 210.020976,54.539496 209.967296,55.841896 C209.838816,58.495096 209.744656,62.340696 209.366256,67.083016 C208.961456,71.821816 208.310256,77.447656 207.319376,83.658696 C207.065936,85.211016 206.785216,86.798536 206.450816,88.413336 C206.104096,90.025496 205.759136,91.676376 205.133456,93.303496 C203.872416,96.534856 201.453296,99.436216 198.289696,101.320296 C196.705696,102.252216 194.958896,102.885816 193.167216,103.106696 C191.365856,103.263336 189.594416,103.060936 187.922416,102.600696 C184.573136,101.690776 181.671776,99.716936 179.712896,97.202776 C177.759296,94.662216 176.792176,91.695736 176.382976,88.924616 C175.965856,86.136776 176.029216,83.502936 176.225456,81.131336 C176.428736,78.757096 176.749056,76.629256 177.000736,74.760136 C177.259456,72.891016 177.459216,71.279736 177.579776,69.958856 C177.702096,68.637976 177.747856,67.608376 177.775136,66.910536 C177.783936,66.581416 177.790976,66.319176 177.797136,66.115016 C177.803296,65.935496 177.811216,65.843976 177.819136,65.843976" id="Fill-230" fill="#E8505B"></path>
                <path d="M133.141888,126.285544 L134.608848,127.909144 C135.041808,128.387864 135.657808,128.661544 136.304608,128.661544 C136.778048,128.661544 137.026208,128.099224 136.706768,127.748984 L135.372688,126.285544 L133.141888,126.285544 Z" id="Fill-232" fill="#E8505B"></path>
            </g>
        </g>
    </g>
</svg>