<?xml version="1.0" encoding="UTF-8"?>
<svg width="375px" height="337px" viewBox="0 0 375 337" version="1.1" xmlns="http://www.w3.org/2000/svg" xmlns:xlink="http://www.w3.org/1999/xlink">
    <!-- Generator: Sketch 63.1 (92452) - https://sketch.com -->
    <title>Illustration_posture</title>
    <desc>Created with Sketch.</desc>
    <g id="Azzurro" stroke="none" stroke-width="1" fill="none" fill-rule="evenodd">
        <g id="Step_3" transform="translate(-19.000000, -408.000000)">
            <g id="Illustration_posture" transform="translate(19.000000, 407.000000)">
                <g id="Group-15" opacity="0.800000012" transform="translate(0.000000, 249.840437)">
                    <path d="M374.47132,0.425194 C374.47132,0.547162 292.225926,0.646261 190.795135,0.646261 C89.3279233,0.646261 7.0994693,0.547162 7.0994693,0.425194 C7.0994693,0.303226 89.3279233,0.204974 190.795135,0.204974 C292.225926,0.204974 374.47132,0.303226 374.47132,0.425194" id="Fill-1" fill="#E0E0E0"></path>
                    <path d="M358.674432,54.3900203 C358.674432,72.5327603 278.38222,87.2409153 179.337428,87.2409153 C80.2917885,87.2409153 0.0004235,72.5327603 0.0004235,54.3900203 C0.0004235,36.2464333 80.2917885,21.5391253 179.337428,21.5391253 C278.38222,21.5391253 358.674432,36.2464333 358.674432,54.3900203" id="Fill-3" fill="#EBEBEB"></path>
                    <path d="M247.769522,54.3900203 C247.749194,54.4010313 247.797473,54.1130513 247.45952,53.7683223 C247.141048,53.4193583 246.515962,53.0670063 245.657951,52.7332883 C243.933459,52.0641583 241.25948,51.4517773 237.791015,50.8919103 C230.846462,49.7747173 220.690932,48.8633453 208.123993,48.2933143 C195.557054,47.7309063 180.568542,47.4937463 163.939391,47.8774373 C155.625239,48.0798703 146.900292,48.4347633 137.878048,49.1242213 C133.36862,49.4748793 128.782962,49.9034613 124.157495,50.5353233 C121.846032,50.8546423 119.521864,51.2222403 117.214636,51.7219703 C116.061869,51.9735293 114.911643,52.2589683 113.79445,52.6367303 C113.237971,52.8264583 112.686574,53.0399023 112.177527,53.3126363 C111.687114,53.5692773 111.150116,53.9572033 111.125553,54.3849383 C111.139105,54.8126733 111.677797,55.2022933 112.166516,55.4623223 C112.675563,55.7350563 113.226113,55.9485003 113.783439,56.1390753 C114.899785,56.5176843 116.051705,56.8031233 117.203625,57.0546823 C119.5117,57.5552593 121.835868,57.9237043 124.148178,58.2430233 C128.775339,58.8757323 133.361844,59.3043143 137.872966,59.6549723 C146.896904,60.3444303 155.624392,60.6993233 163.939391,60.9017563 C180.571083,61.2862943 195.560442,61.0491343 208.127381,60.4858793 C220.69432,59.9158483 230.848156,59.0044763 237.792709,57.8872833 C241.261174,57.3274163 243.934306,56.7150353 245.657951,56.0467523 C246.515962,55.7121873 247.141048,55.3598353 247.45952,55.0117183 C247.797473,54.6661423 247.749194,54.3790093 247.769522,54.3900203 C247.76444,54.3756213 247.829659,54.6746123 247.4934,55.0422103 C247.176622,55.4089613 246.549842,55.7791003 245.690984,56.1289113 C243.965645,56.8293803 241.291666,57.4697123 237.82066,58.0566833 C230.872719,59.2280843 220.715495,60.1877353 208.142627,60.7975753 C195.568912,61.4006393 180.572777,61.6699853 163.930074,61.3091633 C155.609146,61.1168943 146.874882,60.7704713 137.839933,60.0860953 C133.322882,59.7371313 128.729601,59.3110903 124.088888,58.6775343 C121.768955,58.3582153 119.436317,57.9897703 117.109608,57.4849583 C115.947524,57.2308583 114.784593,56.9437253 113.641143,56.5566463 C113.069418,56.3609893 112.501928,56.1416163 111.955613,55.8502483 C111.684573,55.6994823 111.41438,55.5377053 111.172138,55.3124033 C110.937519,55.0955713 110.689348,54.7898043 110.684266,54.3807033 C110.699512,53.9741433 110.946836,53.6726113 111.182302,53.4574733 C111.425391,53.2347123 111.695584,53.0712413 111.967471,52.9247103 C112.513786,52.6324953 113.081276,52.4139693 113.652154,52.2191593 C114.796451,51.8329273 115.957688,51.5466413 117.120619,51.2916943 C119.446481,50.7877293 121.778272,50.4201313 124.097358,50.1008123 C128.737224,49.4681033 133.329658,49.0420623 137.845015,48.6930983 C146.87827,48.0087223 155.609993,47.6631463 163.930074,47.4708773 C180.570236,47.1092083 195.565524,47.3785543 208.139239,47.9816183 C220.712107,48.5914583 230.870178,49.5511093 237.818966,50.7225103 C241.289972,51.3094813 243.964798,51.9498133 245.690137,52.6502823 C246.548995,53.0000933 247.176622,53.3702323 247.492553,53.7369833 C247.829659,54.1045813 247.76444,54.4035723 247.769522,54.3900203" id="Fill-5" fill="#FAFAFA"></path>
                    <path d="M288.546304,54.3900203 C288.514118,54.4010313 288.590348,53.9682143 288.191411,53.3117893 C287.788239,52.6638343 286.903124,51.9125453 285.586039,51.2256283 C282.952716,49.8340073 278.716022,48.5533433 273.186806,47.3895653 C262.113975,45.0645503 245.811766,43.1774343 225.619286,41.9924813 C205.423418,40.8227743 181.315257,40.3230443 154.578008,41.0946613 C141.211501,41.5020683 127.183487,42.2228653 112.700634,43.6288853 C105.462172,44.3462943 98.1059772,45.2237863 90.7082792,46.5163083 C87.0136652,47.1727333 83.3029582,47.9240223 79.6447652,48.9539743 C77.8203272,49.4765733 76.0035122,50.0643913 74.2688562,50.8410903 C73.4057632,51.2315573 72.5579162,51.6728443 71.8083212,52.2335583 C71.0832892,52.7832613 70.3565632,53.5082933 70.3497872,54.3798563 C70.3489402,55.2522663 71.0663492,55.9840743 71.7930752,56.5337773 C72.5409762,57.0953383 73.3879762,57.5383193 74.2510692,57.9304803 C75.9857252,58.7097203 77.8025402,59.2975383 79.6278252,59.8201373 C83.2868652,60.8526303 86.9984192,61.6030723 90.6947272,62.2611913 C98.0941192,63.5545603 105.452855,64.4320523 112.692164,65.1494613 C127.179252,66.5563283 141.209807,67.2779723 154.578008,67.6845323 C181.319492,68.4561493 205.429347,67.9564193 225.624368,66.7867123 C245.816848,65.6017593 262.117363,63.7146433 273.189347,61.3896283 C278.717716,60.2258503 282.952716,58.9443393 285.586886,57.5535653 C286.903971,56.8666483 287.789086,56.1153593 288.191411,55.4682513 C288.590348,54.8118263 288.514118,54.3781623 288.546304,54.3900203 C288.546304,54.3900203 288.543763,54.4865783 288.528517,54.6813883 C288.503107,54.8728103 288.420948,55.1565553 288.230373,55.4919673 C287.833977,56.1577093 286.945474,56.9284793 285.629236,57.6314893 C282.993372,59.0561433 278.754984,60.3656053 273.225768,61.5573343 C262.148702,63.9365573 245.843105,65.8736463 225.642155,67.0975613 C205.440358,68.3079243 181.322033,68.8415343 154.56615,68.0919393 C141.190326,67.6946963 127.151301,66.9823693 112.650661,65.5797373 C105.402035,64.8648693 98.0356762,63.9882243 90.6184972,62.6931613 C86.9128722,62.0341953 83.1903072,61.2820593 79.5075512,60.2436373 C77.6695612,59.7176503 75.8375002,59.1255973 74.0689642,58.3319583 C73.1880842,57.9321743 72.3190622,57.4798763 71.5271172,56.8852823 C71.1264862,56.5973023 70.7605822,56.2457973 70.4471922,55.8417783 C70.1397312,55.4394533 69.9008772,54.9278653 69.9083227,54.3773153 C69.9083227,53.8284593 70.1473542,53.3177183 70.4607442,52.9196283 C70.7766752,52.5189973 71.1417322,52.1674923 71.5432102,51.8812063 C72.3368492,51.2891533 73.2058712,50.8393963 74.0867512,50.4396123 C75.8552872,49.6476673 77.6873482,49.0564613 79.5244912,48.5304743 C83.2064002,47.4937463 86.9281182,46.7424573 90.6320492,46.0834913 C98.0466872,44.7892753 105.412199,43.9134773 112.658284,43.1986093 C127.156383,41.7968243 141.192867,41.0844973 154.56615,40.6881013 C181.317798,39.9385063 205.434429,40.4712693 225.63792,41.6816323 C245.837176,42.9055473 262.144467,44.8426363 273.22238,47.2210123 C278.752443,48.4135883 282.991678,49.7230503 285.628389,51.1477043 C286.945474,51.8507143 287.83313,52.6214843 288.230373,53.2872263 C288.420948,53.6226383 288.503107,53.9063833 288.528517,54.0978053 C288.543763,54.2926153 288.546304,54.3900203 288.546304,54.3900203" id="Fill-7" fill="#FAFAFA"></path>
                    <path d="M339.140494,54.3900203 C339.099838,54.4001843 339.193008,53.7852623 338.736475,52.7536163 C338.292647,51.7228173 337.13988,50.4311423 335.312901,49.2258613 C331.65979,46.7754903 325.514805,44.4996013 317.44713,42.4464733 C301.275359,38.3427583 277.288319,35.0098133 247.545914,32.9219583 C217.798427,30.8595133 182.250684,29.9693163 142.841468,31.3135053 C123.142789,32.0241383 102.469213,33.2810863 81.15954,35.7441623 C70.511056,37.0019573 59.694019,38.5401093 48.857501,40.8092223 C43.446018,41.9594483 38.019289,43.2866973 32.717069,45.1035123 C30.073582,46.0199663 27.447882,47.0558473 24.999205,48.4271403 C23.781219,49.1157513 22.602195,49.8932973 21.592571,50.8487133 C20.604969,51.7990473 19.774909,53.0161863 19.755428,54.3747743 C19.762204,55.7350563 20.586335,56.9555833 21.570549,57.9101523 C22.578479,58.8689563 23.756656,59.6473493 24.973795,60.3385013 C27.422472,61.7131823 30.049019,62.7499103 32.692506,63.6680583 C37.99642,65.4874143 43.423996,66.8146633 48.836326,67.9657363 C59.677079,70.2373903 70.496657,71.7746953 81.147682,73.0341843 C102.462437,75.4981073 123.139401,76.7559023 142.841468,77.4656883 C182.256613,78.8107243 217.806897,77.9196803 247.553537,75.8572353 C277.295095,73.7685333 301.281288,70.4355883 317.450518,66.3318733 C325.517346,64.2795923 331.661484,62.0037033 335.313748,59.5524853 C337.140727,58.3480513 338.293494,57.0563763 338.736475,56.0255773 C339.193008,54.9939313 339.099838,54.3798563 339.140494,54.3900203 C339.140494,54.3900203 339.136259,54.5331633 339.115931,54.8186023 C339.116778,54.9634393 339.074428,55.1362273 339.02022,55.3420483 C338.982952,55.5537983 338.891476,55.7841823 338.777978,56.0433643 C338.344314,57.0911033 337.189853,58.4039533 335.363721,59.6261743 C331.71061,62.1121193 325.563084,64.4176533 317.492868,66.4978853 C301.318556,70.6583493 277.326434,74.0387263 247.576406,76.1680843 C217.819602,78.2711853 182.259154,79.1944153 142.827916,77.8722483 C123.117379,77.1726263 102.429404,75.9241483 81.097709,73.4636133 C70.437367,72.2066653 59.607625,70.6693603 48.745697,68.3951653 C43.321509,67.2423983 37.881228,65.9126083 32.548516,64.0839353 C29.889783,63.1598583 27.245449,62.1188953 24.756963,60.7230393 C23.519496,60.0191823 22.314215,59.2263903 21.263935,58.2269303 C20.242453,57.2342463 19.325152,55.9188553 19.314141,54.3730803 C19.339551,52.8289993 20.261934,51.5195373 21.285957,50.5310883 C22.339625,49.5358633 23.544906,48.7447653 24.782373,48.0426023 C27.270859,46.6492873 29.914346,45.6091713 32.573079,44.6867883 C37.904097,42.8606563 43.343531,41.5317133 48.766025,40.3806403 C59.624565,38.1072923 70.451766,36.5708343 81.109567,35.3147333 C102.437027,32.8558923 123.11992,31.6065673 142.827916,30.9069453 C182.252378,29.5847783 217.811979,30.5080083 247.567936,32.6111093 C277.318811,34.7396203 301.312627,38.1199973 317.48948,42.2804613 C325.559696,44.3615403 331.708069,46.6662273 335.362874,49.1521723 C337.189853,50.3752403 338.343467,51.6880903 338.777131,52.7358293 C338.891476,52.9950113 338.982952,53.2253953 339.02022,53.4371453 C339.074428,53.6438133 339.116778,53.8166013 339.115931,53.9605913 C339.136259,54.2460303 339.140494,54.3900203 339.140494,54.3900203" id="Fill-9" fill="#FAFAFA"></path>
                    <path d="M186.646614,34.2051633 C172.757508,33.2988733 158.811653,32.3917363 144.892055,32.9761663 C130.972457,33.5597493 116.97917,35.6941893 104.64685,40.5593573 C99.799469,42.4718833 94.824191,45.2551253 93.96618,49.3037853 C93.040409,53.6675293 97.443115,57.8042773 102.660635,59.8760393 C113.420076,64.1466133 126.709506,61.9029103 137.904305,58.3124773 C149.098257,54.7220443 159.890731,49.8187613 172.001984,48.8480993 C182.060956,48.0426023 192.148726,50.0482983 201.647831,52.6494353 C211.147783,55.2522663 220.383471,58.4767953 230.212906,60.2690473 C240.041494,62.0612993 250.786536,62.3111643 259.928207,59.0705423 C264.816244,57.3384273 269.420536,54.1681063 269.703434,50.1279163 C269.903326,47.2616683 267.824788,44.5046833 264.947529,42.6065563 C262.071117,40.7084293 258.465438,39.5488863 254.851289,38.5850003 C231.668052,32.4035943 206.352916,33.1523423 181.764506,33.9773203" id="Fill-11" fill="#E0E0E0"></path>
                    <path d="M14.1758155,52.9574045 C12.2268685,54.3803645 10.2770745,55.8033245 8.3281275,57.2271315 C7.7436975,57.6540195 7.0915075,58.2282855 7.1889125,58.9448475 C7.3117275,59.8409735 8.4475545,60.1331885 9.3504565,60.1806205 C15.6224915,60.5168795 19.9091585,59.8502905 25.4815715,56.9510095 C25.9618205,56.7011445 27.5880605,55.8329695 28.2953055,55.2985125 C28.7272755,54.9724175 30.5551015,53.5791025 30.2163015,53.1572965 C29.8554795,52.7083865 29.1922785,52.6838235 28.6163185,52.6965285 C23.6181715,52.8108735 19.1739625,52.8430595 14.1758155,52.9574045" id="Fill-13" fill="#E0E0E0"></path>
                </g>
                <g id="Group-216" transform="translate(66.913000, 0.822437)">
                    <path d="M178.483482,116.717786 C178.364902,114.642636 177.222299,112.553087 175.329254,111.693382 C173.680992,110.944634 171.686307,111.219909 170.11851,112.125352 C168.549866,113.030795 167.370842,114.497799 166.502667,116.086771 C164.228472,120.252317 163.957432,125.170846 163.483112,129.893718 C163.008792,134.615743 161.865342,138.598337 159.372621,143.254296 L176.720028,122.595119 C177.82621,120.835053 178.601215,118.792936 178.483482,116.717786" id="Fill-16" fill="#E8505B"></path>
                    <path d="M178.483482,116.717786 C178.364902,114.642636 177.222299,112.553087 175.329254,111.693382 C173.680992,110.944634 171.686307,111.219909 170.11851,112.125352 C168.549866,113.030795 167.370842,114.497799 166.502667,116.086771 C164.228472,120.252317 163.957432,125.170846 163.483112,129.893718 C163.008792,134.615743 161.865342,138.598337 159.372621,143.254296 L176.720028,122.595119 C177.82621,120.835053 178.601215,118.792936 178.483482,116.717786" id="Fill-18" fill="#3D75A7"></path>
                    <path d="M158.618622,105.428377 C159.63841,106.302481 193.423546,145.057813 193.423546,145.057813 L175.135122,159.562688 L151.921393,130.637638 L158.618622,105.428377 Z" id="Fill-20" fill="#FFBE9D"></path>
                    <path d="M57.9588548,118.535787 C57.0593408,119.533553 29.7706948,155.822421 29.7706948,155.822421 L46.8521438,174.336147 L67.8187818,142.683757 L57.9588548,118.535787 Z" id="Fill-22" fill="#FFBE9D"></path>
                    <path d="M58.2793596,142.564499 C60.2740446,143.480106 61.4005546,145.60777 62.1518436,147.670215 C62.9039796,149.731813 63.4646936,151.940789 64.8808776,153.617849 C66.2962146,155.294909 68.9371606,156.215598 70.7184016,154.932393 C72.4090136,153.71356 72.4954076,151.158161 71.7280256,149.220225 C70.8031016,146.880811 68.9286906,145.002165 66.7722286,143.707102 C64.6149196,142.411192 62.1797946,141.651433 59.7319646,141.068697" id="Fill-24" fill="#E8505B"></path>
                    <path d="M58.2793596,142.564499 C60.2740446,143.480106 61.4005546,145.60777 62.1518436,147.670215 C62.9039796,149.731813 63.4646936,151.940789 64.8808776,153.617849 C66.2962146,155.294909 68.9371606,156.215598 70.7184016,154.932393 C72.4090136,153.71356 72.4954076,151.158161 71.7280256,149.220225 C70.8031016,146.880811 68.9286906,145.002165 66.7722286,143.707102 C64.6149196,142.411192 62.1797946,141.651433 59.7319646,141.068697" id="Fill-26" fill="#000000"></path>
                    <path d="M217.062469,215.904789 C216.697412,215.782821 216.05708,215.664241 215.197375,215.546508 L147.110433,186.996679 L79.4122637,186.996679 L12.6703577,213.362942 C5.9002867,215.620197 -3.7707593,228.837632 1.7093307,244.633335 C1.8617907,245.072928 2.0210267,245.499816 2.1870387,245.91654 C6.5677227,256.902977 18.7433477,262.621074 30.1710717,259.566792 C39.3898197,257.102022 52.6402877,253.493802 66.2752937,249.76192 L67.8049757,249.721264 L110.270168,237.670148 C116.921659,239.508138 130.896312,243.364529 146.426057,247.631715 L146.431986,247.633409 C165.316698,252.822131 186.490851,258.61307 199.561755,262.107792 C210.988632,265.162074 223.164257,259.444824 227.544941,248.458387 C227.710953,248.040816 227.871036,247.613928 228.022649,247.175182 C233.503586,231.378632 223.831693,218.161197 217.062469,215.904789" id="Fill-28" fill="#455A64"></path>
                    <path d="M109.739607,237.820914 C109.737913,237.813291 109.81499,237.784493 109.969144,237.733673 C110.148708,237.678618 110.375704,237.608317 110.659449,237.520229 C111.302322,237.331348 112.201836,237.067931 113.354603,236.729978 C115.747378,236.04899 119.188739,235.070705 123.521991,233.837473 L123.407646,234.037365 C121.655203,227.599318 119.321718,219.031066 116.626564,209.135565 L116.862877,209.316823 C114.60901,209.321058 112.280607,209.323599 109.885291,209.327834 C107.491669,209.360867 105.03791,209.540431 102.524861,209.648847 C97.4962219,209.923275 92.2473629,210.209561 86.8562079,210.504317 C67.4997169,211.629133 49.9956149,212.936901 37.3338119,213.962618 C31.0270499,214.48437 25.9137109,214.907023 22.3393709,215.203473 C20.5945509,215.345769 19.2274929,215.456726 18.2619129,215.53465 C17.8180849,215.565989 17.4674269,215.589705 17.2006219,215.607492 C16.9609209,215.621891 16.8364075,215.623585 16.8364075,215.614268 C16.8364075,215.604951 16.9575329,215.584623 17.1946929,215.553284 C17.4606509,215.521098 17.8096149,215.479595 18.2517489,215.427081 C19.2156349,215.323747 20.5793049,215.17891 22.3198899,214.993417 C25.8544209,214.63683 30.9719949,214.137947 37.3007789,213.581468 C49.9574999,212.457499 67.4624489,211.0879 86.8248689,209.963084 C92.2177179,209.674257 97.4691179,209.392206 102.498604,209.121166 C105.015041,209.017832 107.47727,208.842503 109.875127,208.816246 C112.272984,208.820481 114.605622,208.823869 116.862877,208.828104 L117.050911,208.828104 L117.09919,209.008515 C119.731666,218.920956 122.010943,227.50276 123.723577,233.952665 L123.76508,234.110207 L123.609232,234.152557 C119.25904,235.323111 115.804127,236.25227 113.401188,236.898531 C112.239104,237.201757 111.331967,237.43807 110.684012,237.606623 C110.394338,237.676924 110.163954,237.732826 109.981849,237.777717 C109.82346,237.813291 109.741301,237.828537 109.739607,237.820914" id="Fill-30" fill="#263238"></path>
                    <path d="M87.686522,209.947669 C87.610292,210.069637 85.729105,208.996488 83.687835,207.288936 C81.641483,205.587313 80.248168,203.929734 80.354043,203.832329 C80.467541,203.72476 82.016704,205.195152 84.035105,206.873059 C86.047577,208.556895 87.772069,209.818078 87.686522,209.947669" id="Fill-32" fill="#263238"></path>
                    <path d="M209.037484,218.366425 C209.035789,218.384212 208.713929,218.378283 208.103242,218.347791 C207.446817,218.307982 206.55662,218.253774 205.435192,218.186861 C203.067827,218.025084 199.7298,217.796394 195.626085,217.516037 C187.300075,216.95617 175.880821,216.188788 163.265603,215.340941 C150.640221,214.577794 139.214191,213.886642 130.884793,213.383524 C126.779384,213.139588 123.438816,212.942237 121.071451,212.801635 C119.950023,212.726252 119.06152,212.666115 118.404248,212.621224 C117.794408,212.573792 117.475934,212.539912 117.475934,212.522125 C117.475934,212.502644 117.797796,212.500103 118.40933,212.511961 C119.066602,212.531442 119.958493,212.558546 121.081615,212.590732 C123.451521,212.689831 126.79463,212.829586 130.905121,213.00068 C139.198945,213.383524 150.652926,213.994211 163.299483,214.800555 C175.941805,215.607746 187.38054,216.458981 195.654883,217.13404 C199.753516,217.486392 203.088155,217.773525 205.451285,217.975958 C206.570172,218.086068 207.457828,218.173309 208.112559,218.238528 C208.719858,218.303747 209.037484,218.347791 209.037484,218.366425" id="Fill-34" fill="#263238"></path>
                    <path d="M110.864931,217.063654 C110.76922,216.962862 111.888954,215.938838 113.659184,215.49501 C115.425179,215.035936 116.898959,215.399299 116.862538,215.533126 C116.845598,215.694055 115.437037,215.589874 113.79301,216.020997 C112.143054,216.430098 110.957254,217.195786 110.864931,217.063654" id="Fill-36" fill="#263238"></path>
                    <path d="M112.711137,221.367346 C112.69335,221.218274 113.929123,220.949775 115.472357,220.765976 C117.015591,220.58133 118.280162,220.553379 118.298796,220.702451 C118.315736,220.851523 117.079116,221.120022 115.536729,221.303821 C113.994342,221.48762 112.728924,221.515571 112.711137,221.367346" id="Fill-38" fill="#263238"></path>
                    <path d="M113.542383,226.361682 C113.544924,226.201599 115.055972,226.159249 116.813497,225.639191 C118.576104,225.138614 119.876249,224.365303 119.96349,224.499129 C120.052425,224.606698 118.825122,225.62818 116.964263,226.160096 C115.108486,226.705564 113.524596,226.499743 113.542383,226.361682" id="Fill-40" fill="#263238"></path>
                    <path d="M115.1992,231.738099 C115.192424,231.577169 116.645029,231.46113 118.29075,230.833503 C119.944941,230.22451 121.114648,229.357182 121.216288,229.482538 C121.316234,229.579096 120.237156,230.69036 118.481325,231.340856 C116.731423,232.004057 115.186495,231.87616 115.1992,231.738099" id="Fill-42" fill="#263238"></path>
                    <path d="M146.226334,207.371179 C146.338138,207.479595 145.203158,208.800915 143.935199,210.521172 C142.65877,212.2355 141.72707,213.705892 141.589856,213.631356 C141.462806,213.564443 142.198002,211.948367 143.498994,210.198465 C144.794057,208.444328 146.125541,207.268692 146.226334,207.371179" id="Fill-44" fill="#263238"></path>
                    <path d="M117.099105,209.008854 L100.879055,206.555942 C100.879055,206.555942 99.3993462,202.734278 96.8998492,202.542009 C94.3995052,202.34974 92.0922772,205.106725 90.2678392,204.93309 C88.4434012,204.760302 66.6661842,197.444763 65.4236352,207.310619 L74.4806062,211.045889" id="Fill-46" fill="#FFBE9D"></path>
                    <path d="M170.309593,217.946228 L122.033134,228.296569 L117.699035,211.721626 L135.562265,210.857686 C135.562265,210.857686 137.70094,207.362963 140.194508,207.621298 C142.688923,207.878786 144.465082,211.004216 146.291214,211.160911 C148.117346,211.317607 170.853367,208.016847 170.309593,217.946228" id="Fill-48" fill="#FFBE9D"></path>
                    <path d="M78.5986355,188.670944 C78.5986355,188.670944 78.4605745,188.748868 78.1819115,188.881 C77.8863085,189.017367 77.4729725,189.209636 76.9393625,189.457807 C75.8467325,189.963466 74.2230335,190.681722 72.1233205,191.585471 C67.9247415,193.398898 61.7992375,195.90263 54.2016475,198.922185 C46.6091395,201.953598 37.5420045,205.489823 27.5846725,209.689249 C22.6051595,211.78388 17.2673655,213.760778 12.1845185,216.68801 L11.2392665,217.250418 C11.1588015,217.298697 11.0910415,217.342741 11.0664785,217.373233 C11.0402215,217.395255 11.0656315,217.38255 11.0613965,217.350364 C11.0546205,217.294462 11.0453035,217.295309 11.0453035,217.295309 C11.1189925,217.345282 11.3061795,217.404572 11.4738855,217.432523 C12.1718135,217.558726 12.9214085,217.587524 13.6616865,217.613781 C15.1481715,217.657825 16.6541375,217.63665 18.1702675,217.604464 C21.2025275,217.534163 24.2796785,217.395255 27.3915565,217.236866 C39.8475385,216.572818 51.6996095,215.681774 62.4776845,214.867807 C73.2489835,214.007255 82.9496745,213.23225 91.1037435,212.580907 C99.2374845,211.905001 105.824604,211.356145 110.397557,210.975842 C112.662435,210.791196 114.426736,210.648053 115.643874,210.548954 C116.230846,210.50491 116.684838,210.47103 117.010085,210.447314 C117.317546,210.426986 117.475936,210.427833 117.475936,210.427833 C117.475936,210.427833 117.320087,210.457478 117.013474,210.492205 C116.68992,210.526932 116.237622,210.574364 115.652344,210.637889 C114.436899,210.755622 112.673445,210.926716 110.412802,211.146936 C105.84239,211.560272 99.2586595,212.15656 91.1300005,212.891756 C82.9860955,213.603236 73.2862515,214.424826 62.5081765,215.272673 C51.7309485,216.109509 39.8780305,217.013258 27.4144255,217.676459 C24.3000065,217.836542 21.2194675,217.974603 18.1795845,218.044057 C16.6600665,218.075396 15.1498655,218.09403 13.6472875,218.049986 C12.8951515,218.021188 12.1497915,217.996625 11.3874915,217.858564 C11.1943755,217.81452 11.0097295,217.789957 10.7742635,217.634109 C10.7107385,217.573125 10.6311205,217.50113 10.6277325,217.346129 C10.6294265,217.227549 10.6997275,217.123368 10.7420775,217.085253 C10.8403295,216.977684 10.9385815,216.929405 11.0139645,216.881126 L11.9676865,216.314483 C17.0979655,213.366923 22.4535465,211.395954 27.4288245,209.314875 C37.3988615,205.134083 46.4812425,201.624962 54.0873025,198.631664 C61.6984445,195.649377 67.8391945,193.191383 72.0564075,191.427929 C74.1484975,190.542814 75.7789725,189.852509 76.9037885,189.376495 C77.4450215,189.146111 77.8634395,188.967394 78.1632775,188.839497 C78.4478695,188.721764 78.5986355,188.670944 78.5986355,188.670944" id="Fill-50" fill="#FFFFFF"></path>
                    <path d="M145.371833,188.670944 C145.375269,188.663321 145.481144,188.70313 145.685271,188.786983 C145.908879,188.880153 146.206176,189.006356 146.587326,189.166439 C147.399599,189.51625 148.558295,190.01598 150.040545,190.654618 C153.067723,191.942905 157.409445,193.791059 162.765026,196.070336 C173.560041,200.578917 188.437595,206.792509 204.868549,213.654056 C208.991745,215.337045 213.030241,217.00987 216.715538,219.070621 C217.175459,219.327262 217.631992,219.587291 218.079208,219.859178 C218.301969,219.994698 218.525576,220.111584 218.763584,220.3047 C218.822027,220.366531 218.879623,220.410575 218.932984,220.490193 C218.977875,220.590986 219.043093,220.672298 219.008367,220.824758 C218.995662,220.978065 218.902492,221.027191 218.832191,221.114432 C218.76189,221.161864 218.691589,221.199132 218.619594,221.238941 C217.54221,221.598069 216.530891,221.565883 215.50941,221.619244 C213.478304,221.664135 211.498018,221.592987 209.566858,221.510828 C201.846452,221.139842 194.919687,220.501204 189.104185,219.968441 C183.28953,219.421279 178.589527,218.923243 175.343823,218.563268 C173.740452,218.377775 172.486892,218.232091 171.608553,218.130451 C171.198605,218.077937 170.877592,218.035587 170.63789,218.004248 C170.419365,217.973756 170.308407,217.953428 170.309255,217.945805 C170.310102,217.939029 170.422753,217.943264 170.642973,217.959357 C170.883521,217.980532 171.206228,218.007636 171.617023,218.042363 C172.497903,218.124522 173.754851,218.242255 175.360763,218.393021 C178.636959,218.692859 183.335267,219.124829 189.132136,219.657592 C194.948485,220.150546 201.877792,220.756998 209.585492,221.105115 C211.510723,221.182192 213.487621,221.247411 215.498399,221.198285 C216.484307,221.153394 217.559997,221.149159 218.444265,220.849321 L218.565386,220.779867 C218.565386,220.762927 218.613665,220.740058 218.586561,220.751916 C218.607735,220.775632 218.558609,220.693473 218.479839,220.625713 C218.315521,220.491887 218.080902,220.359755 217.858141,220.22847 C217.41516,219.959124 216.962015,219.702483 216.504635,219.447536 C212.846442,217.408807 208.824886,215.745299 204.701689,214.06231 C188.255491,207.196528 173.376242,200.968537 162.643058,196.357469 C157.277312,194.053629 152.949143,192.152961 149.971091,190.811313 C148.50324,190.140489 147.354708,189.615349 146.550905,189.247751 C146.178224,189.070728 145.885163,188.93182 145.667484,188.827639 C145.468439,188.730234 145.36934,188.67772 145.371833,188.670944" id="Fill-52" fill="#FFFFFF"></path>
                    <path d="M109.698612,91.5298692 L109.698612,91.5298692 C118.0873,92.1185342 125.086908,85.2019322 124.593107,76.8073152 C124.386439,73.3041232 124.214498,70.6292972 124.214498,70.6292972 C124.214498,70.6292972 135.261919,68.9107342 135.398286,57.8658542 C135.534653,46.8201272 133.619586,21.4575592 133.619586,21.4575592 C120.833274,15.9622232 106.075146,17.8171532 95.0463591,26.3057872 L93.4099551,27.5661232 L96.7640751,78.5377362 C97.2214551,85.4933002 102.745589,91.0419972 109.698612,91.5298692" id="Fill-54" fill="#FFBE9D"></path>
                    <path d="M124.232454,70.4698071 C124.232454,70.4698071 117.252327,71.0372971 109.832607,66.3771031 C109.832607,66.3771031 113.2367,74.3270451 124.257864,73.3318201 L124.232454,70.4698071 Z" id="Fill-56" fill="#EB996E"></path>
                    <path d="M94.7706606,39.0071451 C94.5826266,38.9249861 87.1815406,36.7625951 87.4229356,44.3136001 C87.6634836,51.8654521 95.1950076,50.0655771 95.2018434,49.8478981 C95.2077126,49.6310661 94.7706606,39.0071451 94.7706606,39.0071451" id="Fill-58" fill="#FFBE9D"></path>
                    <path d="M92.8036725,47.0610987 C92.7689455,47.0382297 92.6749285,47.1576567 92.4555555,47.2669197 C92.2421115,47.3727947 91.8711255,47.4532597 91.4730355,47.3177397 C90.6658445,47.0509347 89.9535175,45.8058447 89.8738995,44.4455627 C89.8323965,43.7594927 89.9552115,43.0996797 90.1813605,42.5508237 C90.3948045,41.9909567 90.7395335,41.5937137 91.1393175,41.5090137 C91.5357135,41.4039857 91.8279285,41.6352167 91.9270275,41.8452727 C92.0345965,42.0527877 91.9913995,42.2052477 92.0320555,42.2171057 C92.0540775,42.2348927 92.1895975,42.0849737 92.1192965,41.7749717 C92.0828755,41.6258997 91.9897055,41.4505707 91.8067535,41.3116627 C91.6212605,41.1693667 91.3527615,41.1033007 91.0732515,41.1422627 C90.4922095,41.2015527 89.9857035,41.7537967 89.7366855,42.3568607 C89.4563285,42.9641597 89.3013275,43.7052847 89.3479125,44.4769017 C89.4453175,45.9964197 90.2694485,47.3956637 91.3713955,47.6768677 C91.9066995,47.7979887 92.3445985,47.6243537 92.5682065,47.4380137 C92.7960495,47.2440507 92.8299295,47.0738037 92.8036725,47.0610987" id="Fill-60" fill="#EB996E"></path>
                    <path d="M108.762677,37.8284599 C108.957487,37.6226389 110.153451,38.5069069 111.850839,38.5026719 C113.546533,38.5221529 114.79247,37.6488959 114.975422,37.8572579 C115.066898,37.9495809 114.867853,38.3205669 114.324926,38.7152689 C113.791316,39.1082769 112.880791,39.4911209 111.822888,39.4868859 C110.765832,39.4809569 109.875635,39.0913369 109.364894,38.6932469 C108.843142,38.2926159 108.666119,37.9199359 108.762677,37.8284599" id="Fill-62" fill="#263238"></path>
                    <path d="M125.447561,37.5116819 C125.642371,37.3058609 126.840029,38.1901289 128.535723,38.1858939 C130.23057,38.2053749 131.477354,37.3321179 131.661153,37.5404799 C131.750935,37.6319559 131.554431,38.0037889 131.00981,38.3984909 C130.4762,38.7914989 129.564828,39.1734959 128.507772,39.1701079 C127.450716,39.1641789 126.561366,38.7745589 126.049778,38.3764689 C125.52972,37.9758379 125.35185,37.6031579 125.447561,37.5116819" id="Fill-64" fill="#263238"></path>
                    <path d="M121.004876,49.9003274 C120.996406,49.8037694 122.051768,49.6216644 123.761861,49.4031384 C124.195525,49.3582474 124.605473,49.2718534 124.678315,48.9762504 C124.780802,48.6628604 124.598697,48.1953164 124.388641,47.6913514 C123.981234,46.6427654 123.555193,45.5433594 123.10713,44.3914394 C121.326736,39.6922834 120.038449,35.8282694 120.228177,35.7579684 C120.418752,35.6876674 122.0145,39.4398774 123.794894,44.1390334 C124.223476,45.2977294 124.633424,46.4022174 125.023044,47.4592734 C125.186515,47.9522274 125.469413,48.5104004 125.248346,49.1600494 C125.13146,49.4844504 124.812988,49.7190694 124.535172,49.7944524 C124.257356,49.8791524 124.01342,49.8833874 123.799129,49.8969394 C122.078872,49.9892624 121.011652,49.9968854 121.004876,49.9003274" id="Fill-66" fill="#263238"></path>
                    <path d="M116.008932,51.0744388 C116.285054,51.0583458 116.289289,52.9005708 117.865556,54.2083388 C119.440129,55.5203418 121.404322,55.3136738 121.418721,55.5711618 C121.444131,55.6863538 120.980822,55.9285958 120.152456,55.9514648 C119.339336,55.9794158 118.150995,55.7185398 117.187109,54.9181248 C116.224917,54.1160158 115.811581,53.0462548 115.748056,52.2907308 C115.676908,51.5199608 115.883576,51.0634278 116.008932,51.0744388" id="Fill-68" fill="#263238"></path>
                    <path d="M115.282714,32.3875013 C115.115855,32.8491163 113.421008,32.6305903 111.429711,32.8702913 C109.432485,33.0701833 107.826573,33.6537663 107.563156,33.2395833 C107.445423,33.0413853 107.724933,32.6077213 108.374582,32.1605053 C109.017455,31.7141363 110.044866,31.2906363 111.239983,31.1568103 C112.435947,31.0263723 113.530271,31.2161003 114.255303,31.5108563 C114.986264,31.8056123 115.354709,32.1681283 115.282714,32.3875013" id="Fill-70" fill="#263238"></path>
                    <path d="M130.905036,34.0083205 C130.606045,34.3937055 129.438032,33.9930745 128.031165,33.9744405 C126.625992,33.9066805 125.434263,34.2336225 125.160682,33.8304505 C125.040408,33.6347935 125.227595,33.2485615 125.747653,32.8835045 C126.260935,32.5201415 127.118099,32.2228445 128.084526,32.2516425 C129.050953,32.2821345 129.887789,32.6319455 130.377355,33.0266475 C130.873697,33.4230435 131.037168,33.8202865 130.905036,34.0083205" id="Fill-72" fill="#263238"></path>
                    <path d="M139.000323,14.4842929 C139.11975,13.1146939 138.609009,11.6451489 137.495204,10.8413459 C136.380552,10.0366959 134.652672,10.0875159 133.748076,11.1217029 C134.26644,9.2769369 132.75878,7.1501199 130.846254,7.0281519 C129.044685,6.9138069 127.509074,8.2749359 125.768489,8.7517969 C124.06856,9.2184939 122.245816,8.8153219 120.610259,8.1563559 C118.976396,7.4982369 117.448408,6.5902529 115.794217,5.9854949 C112.340998,4.7251589 108.394825,4.8835479 105.055104,6.4166179 C101.715383,7.9496879 99.02277,10.8396519 97.728554,14.2793189 C95.31291,13.5246419 92.567783,14.7510979 91.07791,16.7966029 C89.588884,18.8429549 89.20604,21.5304859 89.503337,24.0443819 C89.703229,25.7426169 90.194489,27.3832559 90.766214,29.0001789 C90.765367,29.1424749 90.751815,29.2813829 90.754356,29.4245259 C90.868701,35.4983629 91.554771,42.6301029 94.146591,42.6699119 C98.662795,42.7393659 97.586258,34.2304039 97.586258,34.2304039 C103.129026,32.0891879 101.06404,23.7843529 102.450579,22.5248639 C103.836271,21.2645279 106.735552,18.3372959 118.339452,24.2688369 C122.846339,26.5718299 128.83717,26.4998349 132.107437,25.7578629 C132.203995,25.7366879 132.3014,25.7222889 132.396264,25.6994199 C132.417439,25.6943379 132.443696,25.6901029 132.464024,25.6850209 C132.499598,25.6765509 132.524161,25.6562229 132.559735,25.6469059 C133.602392,25.3750189 134.607781,24.9709999 135.535246,24.3840289 C136.586373,23.7191339 137.542636,22.8187729 137.989005,21.6575359 C138.43368,20.4962989 138.266821,19.0462349 137.355449,18.2000819 C138.211766,17.1252389 138.881743,15.8530449 139.000323,14.4842929" id="Fill-74" fill="#263238"></path>
                    <path d="M127.974501,0.0253253 C127.988052,0.0177023 128.058354,0.1193423 128.180321,0.3234693 C128.314995,0.5216673 128.459832,0.8409863 128.627537,1.2636393 C128.943469,2.1080983 129.172158,3.4573693 128.860463,5.0666693 C128.554696,6.6497123 127.634853,8.5436043 125.807028,9.7870003 C123.961415,11.0176913 121.434814,11.2548513 119.0107,10.8881003 C116.556094,10.5315133 114.3522,9.7336393 112.293989,9.3143743 C110.245097,8.8637703 108.333418,8.7883873 106.800348,9.1805483 C105.258808,9.5312063 104.151778,10.2418393 103.509753,10.8381273 C102.866879,11.4445793 102.622943,11.8858663 102.584829,11.8604563 C102.572123,11.8519863 102.628025,11.7418763 102.747453,11.5360553 C102.86942,11.3319283 103.076089,11.0447953 103.389478,10.7153123 C104.012871,10.0622753 105.140227,9.2788003 106.725812,8.8773223 C108.300384,8.4318003 110.293375,8.4792323 112.376996,8.9171313 C114.471626,9.3219973 116.682297,10.1063193 119.072531,10.4510483 C121.442437,10.8093293 123.84707,10.5806393 125.584267,9.4482003 C127.307912,8.3030563 128.224366,6.5167333 128.555543,5.0014503 C128.893496,3.4641453 128.722402,2.1563773 128.464067,1.3170003 C128.204037,0.4708473 127.927916,0.0507353 127.974501,0.0253253" id="Fill-76" fill="#455A64"></path>
                    <path d="M125.106728,2.084467 C125.124515,2.046352 125.70471,2.590126 125.819902,3.775926 C125.868181,4.354427 125.786869,5.071836 125.445528,5.77654 C125.109269,6.483785 124.498582,7.132587 123.728659,7.584885 C122.955348,8.032948 122.108348,8.248086 121.341813,8.271802 C120.572737,8.301447 119.890902,8.169315 119.344587,8.001609 C118.249416,7.650951 117.687855,7.204582 117.714112,7.166467 C117.747992,7.099554 118.360373,7.442589 119.426746,7.700924 C120.471097,7.954177 122.075315,8.049041 123.505898,7.203735 C124.207214,6.792093 124.763693,6.215286 125.083012,5.594435 C125.406566,4.972737 125.514982,4.325629 125.508206,3.792019 C125.48449,2.703624 125.033039,2.120041 125.106728,2.084467" id="Fill-78" fill="#263238"></path>
                    <path d="M163.78998,183.933927 C163.78998,183.933927 164.497225,189.187868 159.185688,192.060892 L147.110856,186.996679 L132.229913,187.996986 L138.099623,172.05814 C138.099623,172.05814 154.821097,174.108727 157.187615,176.002619 C159.554133,177.895664 163.979708,181.427654 163.78998,183.933927" id="Fill-80" fill="#E8505B"></path>
                    <path d="M163.78998,183.933927 C163.78998,183.933927 164.497225,189.187868 159.185688,192.060892 L147.110856,186.996679 L132.229913,187.996986 L138.099623,172.05814 C138.099623,172.05814 154.821097,174.108727 157.187615,176.002619 C159.554133,177.895664 163.979708,181.427654 163.78998,183.933927" id="Fill-82" fill="#000000"></path>
                    <path d="M163.78998,183.933927 C163.78998,183.933927 164.497225,189.187868 159.185688,192.060892 L147.110856,186.996679 L132.229913,187.996986 L138.099623,172.05814 C138.099623,172.05814 154.821097,174.108727 157.187615,176.002619 C159.554133,177.895664 163.979708,181.427654 163.78998,183.933927" id="Fill-84" fill="#E8505B"></path>
                    <path d="M163.78998,183.933927 C163.78998,183.933927 164.497225,189.187868 159.185688,192.060892 L147.110856,186.996679 L132.229913,187.996986 L138.099623,172.05814 C138.099623,172.05814 154.821097,174.108727 157.187615,176.002619 C159.554133,177.895664 163.979708,181.427654 163.78998,183.933927" id="Fill-86" fill="#3D75A7"></path>
                    <path d="M176.324564,112.308219 L175.117589,111.261327 L149.579692,91.2619631 C141.695816,82.8808981 135.961626,80.3585321 124.873549,79.0482231 C123.061816,78.8339321 125.910277,79.1786611 124.873549,79.0482231 C116.365434,81.6679941 104.974131,81.9187061 96.4660158,79.2887711 L96.4660158,79.2887711 C92.5215368,79.4556301 89.2529638,80.6702281 85.8979968,81.3131011 C75.3299778,83.3382781 69.6821818,90.8028891 65.6114998,98.1421441 L45.1691548,132.443103 L46.0449528,133.797456 C48.8993428,138.21202 53.1512828,141.541577 58.1206318,143.254211 L59.4936188,143.940281 C64.2291958,146.305105 68.5734588,149.669389 71.5515108,154.044991 L80.5576618,138.320436 L78.0276728,163.52885 L76.2786178,188.285813 C88.9785358,191.744114 99.5677298,193.211118 113.223064,192.997674 C131.031239,193.077292 155.793284,171.400021 163.789811,183.933927 C163.905003,177.510279 155.817,168.714184 153.578379,164.455468 C146.621121,151.219399 147.928889,145.867206 147.42323,135.935284 L159.371859,143.254211 L161.514769,139.063255 C163.323961,135.522795 166.779721,127.643154 168.068008,121.497322 C168.068008,121.497322 169.476569,110.027248 176.324564,112.308219" id="Fill-88" fill="#5198D8"></path>
                    <path d="M80.6189846,112.917805 C80.6537116,112.917805 80.6850506,113.287097 80.7121546,113.953686 C80.7392586,114.620275 80.7612806,115.585008 80.7782206,116.777584 C80.8129476,119.161889 80.8256526,122.455872 80.8087126,126.09289 C80.7909256,129.731602 80.7477286,133.025585 80.6909796,135.40989 C80.6630286,136.601619 80.6316896,137.566352 80.5986566,138.232094 C80.5656236,138.898683 80.5308966,139.267128 80.4953226,139.267128 C80.4614426,139.267128 80.4301036,138.897836 80.4029996,138.231247 C80.3758956,137.564658 80.3538736,136.599925 80.3369336,135.407349 C80.3022066,133.023044 80.2895016,129.729908 80.3064416,126.090349 C80.3233816,122.453331 80.3674256,119.160195 80.4241746,116.77589 C80.4521256,115.584161 80.4834646,114.619428 80.5164976,113.952839 C80.5495306,113.28625 80.5842576,112.917805 80.6189846,112.917805" id="Fill-90" fill="#263238"></path>
                    <path d="M148.874056,152.898077 C148.839329,152.900609 148.76564,152.330578 148.662306,151.297238 C148.563207,150.178351 148.431075,148.702877 148.271839,146.919095 C147.964378,143.221093 147.573911,138.109448 147.17328,132.462499 C146.772649,126.812162 146.438084,121.696282 146.220405,117.992351 C146.126388,116.203487 146.048464,114.724625 145.989174,113.60235 C145.945977,112.565622 145.938354,111.991356 145.972234,111.988807 C146.006961,111.986274 146.08065,112.556305 146.183984,113.588798 C146.283083,114.707685 146.415215,116.183159 146.574451,117.966941 C146.881912,121.664943 147.272379,126.777435 147.67301,132.426925 C148.074488,138.073874 148.408206,143.189754 148.625885,146.894532 C148.719902,148.681702 148.797826,150.161411 148.857116,151.283686 C148.900313,152.320414 148.907936,152.895527 148.874056,152.898077" id="Fill-92" fill="#263238"></path>
                    <path d="M93.2478393,80.1764271 C98.6703333,87.7985801 105.750406,94.2357801 113.852808,98.9103731 C116.819849,100.623007 120.011345,102.126432 123.425602,102.404248 C129.306323,102.881956 134.860102,99.6718261 139.422044,95.9306271 C141.225307,94.4517651 143.010783,92.7755521 143.779859,90.5725051 C144.548088,88.3711521 143.947565,85.5269261 141.884273,84.4393781 C140.466395,83.6906301 138.702094,83.9260961 137.242713,84.5926851 C135.782485,85.2584271 134.539936,86.3078601 133.22878,87.2310901 C127.349753,91.3712261 119.770797,93.0135591 112.705123,91.6795341 C105.640296,90.3446621 99.1827683,86.0503721 95.2205023,80.0510711" id="Fill-94" fill="#3D75A7"></path>
                    <path d="M101.368028,180.198488 C113.782507,182.569241 127.165954,177.269562 134.722888,167.139442 C135.940874,165.507273 137.058067,163.502424 136.554102,161.528914 C136.027268,159.467316 133.774248,158.180723 131.647431,158.236625 C129.520614,158.29168 127.557268,159.428354 125.957285,160.830986 C122.078025,164.229997 119.856344,169.20951 115.990636,172.627155 C112.548428,175.668732 107.876376,177.278032 103.290718,177.000216 C102.579238,176.957019 101.871146,176.971418 101.168136,177.083222 C100.244059,177.2306 99.5435903,178.06066 99.5427425,178.772987 C99.5418963,179.614905 100.205097,179.971492 101.368028,180.198488" id="Fill-102" fill="#3D75A7"></path>
                    <polygon id="Fill-104" fill="#3D75A7" points="146.372696 120.508111 147.422976 135.934522 159.372452 143.254296 161.865173 138.59749"></polygon>
                    <path d="M176.554524,112.55639 C176.536737,112.613139 176.065805,112.307372 175.124788,112.273492 C174.204099,112.226907 172.794691,112.544532 171.509792,113.626998 C170.199483,114.677278 169.2771,116.540678 168.6842,118.685282 C168.09977,120.844285 167.544138,123.281951 166.760663,125.766202 C165.247074,130.760961 163.438729,135.134869 161.988665,138.226419 C161.268715,139.775582 160.62923,141.001191 160.183708,141.84565 C159.726328,142.683333 159.459523,143.139019 159.432419,143.125761 C159.406162,143.111068 159.620453,142.628278 160.030401,141.768573 C160.428491,140.902092 161.023085,139.658696 161.70492,138.097675 C163.07706,134.982409 164.831197,130.610195 166.338857,125.637458 C167.120638,123.156595 167.678811,120.757891 168.293733,118.571784 C168.917125,116.400923 169.902186,114.464681 171.312441,113.385603 C172.684581,112.282809 174.177842,111.999911 175.135799,112.101551 C175.621977,112.14136 175.982799,112.270104 176.216571,112.366662 C176.446108,112.478466 176.5613,112.542838 176.554524,112.55639" id="Fill-106" fill="#263238"></path>
                    <path d="M71.5517649,154.04533 C71.5246609,154.064811 71.2290579,153.679426 70.6776609,152.999285 C70.1254169,152.321685 69.3148379,151.346788 68.2069619,150.249076 C67.0999329,149.152211 65.6913719,147.935072 63.9296119,146.865311 C62.1864859,145.763364 60.1435219,144.767292 58.0082349,143.679744 C55.8780299,142.580338 53.8706399,141.472462 52.1503829,140.29005 C50.4199619,139.123731 48.9953079,137.873559 47.9230059,136.713169 C46.8608679,135.540921 46.1451529,134.469466 45.7360519,133.687685 C45.5082089,133.309923 45.3904759,132.984675 45.2896829,132.776313 C45.1973599,132.563716 45.1550099,132.449371 45.1694089,132.443442 C45.2625789,132.384999 45.9859169,134.243317 48.1508489,136.499725 C49.2350089,137.614377 50.6554279,138.818811 52.3773789,139.952944 C54.0891659,141.102323 56.0872389,142.192412 58.2098209,143.286736 C60.3357909,144.370896 62.3931539,145.386449 64.1464439,146.521429 C65.9226029,147.625917 67.3404809,148.894723 68.4297229,150.029703 C69.5215059,151.169765 70.3007459,152.18193 70.8140279,152.895104 C71.0706689,153.252538 71.2612439,153.535436 71.3832119,153.732787 C71.5060269,153.929291 71.5644699,154.03686 71.5517649,154.04533" id="Fill-108" fill="#263238"></path>
                    <path d="M139.265858,159.170999 C139.280257,159.176202 139.227743,159.343908 139.113398,159.658145 C138.993124,159.968994 138.843205,160.44162 138.578941,161.018427 C138.089375,162.189828 137.270326,163.844866 136.042176,165.76078 C133.625685,169.582444 129.245847,174.405262 123.028021,177.615392 C116.806806,180.824675 110.338267,181.598833 105.82291,181.35405 C103.549562,181.244787 101.726818,180.953419 100.487656,180.673909 C99.8642645,180.554482 99.3933325,180.402869 99.0689315,180.321557 C98.7479185,180.232622 98.5810595,180.177567 98.5843969,180.163168 C98.5886825,180.148769 98.7623175,180.173332 99.0901065,180.235163 C99.4195895,180.288524 99.8956035,180.413033 100.52069,180.506203 C101.763239,180.732352 103.580054,180.973747 105.833921,181.042354 C110.313704,181.204978 116.689073,180.38847 122.825588,177.223231 C128.959562,174.056298 133.319071,169.33512 135.782147,165.589686 C137.031472,163.712734 137.887788,162.092423 138.423092,160.948126 C138.710226,160.384024 138.883861,159.924103 139.032085,159.625112 C139.171841,159.321886 139.251459,159.166038 139.265858,159.170999" id="Fill-110" fill="#263238"></path>
                    <path d="M72.3065266,152.274338 C73.2780356,139.964887 76.0900756,127.802814 80.6181376,116.3158 L80.5986566,138.231925 L72.3065266,152.274338 Z" id="Fill-112" fill="#3D75A7"></path>
                    <path d="M92.8111261,79.7325991 C96.5260681,87.6867761 106.330093,92.2029801 114.950012,93.8622531 C123.570778,95.5206791 132.91827,92.8153611 139.319896,86.8084371 C144.745778,81.7171201 147.934733,74.6709271 152.982006,69.2052361 C161.591761,59.8814601 175.690076,56.0530201 187.832668,59.7417051 L188.500104,47.7168461 C184.384531,45.0496431 173.786867,44.0806751 168.936945,44.8116361 C159.38702,46.2515361 150.45964,51.4783731 144.53064,59.1022201 C139.209786,65.9442861 136.075039,74.7403811 129.017835,79.7732551 C123.917201,83.4102731 117.593499,83.4373771 111.418022,82.3913321 C105.241698,81.3444401 101.082928,75.7017261 96.3100831,71.6445961 L92.8111261,79.7325991 Z" id="Fill-114" fill="#263238"></path>
                    <path d="M96.2669708,71.6530661 C99.4821828,75.7356061 104.359209,78.4688751 109.51998,79.0804091 C114.681598,79.6910961 120.061742,78.1732721 124.141741,74.9546721 C125.243688,74.0848031 126.653943,73.0362171 127.899033,73.6867131 C128.861225,74.1898311 129.099232,75.4349211 129.228823,76.5131521 C129.524426,79.0033321 129.759045,81.7577761 128.293735,83.7931171 C126.888562,85.7462991 124.333163,86.4416861 121.959022,86.8346941 C116.32986,87.7655471 110.361898,87.7037161 105.146919,85.3863241 C99.9327868,83.0689321 96.7192688,77.3415181 96.2669708,71.6530661" id="Fill-116" fill="#263238"></path>
                    <path d="M131.468376,77.7433349 C131.479387,77.7543459 131.382829,77.8602209 131.192254,78.0541839 C130.99575,78.2422179 130.721322,78.5378209 130.32662,78.8732329 C129.545686,79.5516799 128.349722,80.4740629 126.714165,81.3566369 C125.077761,82.2256589 122.996682,83.0692709 120.564098,83.4766779 C118.142525,83.8993309 115.37707,83.9044129 112.60738,83.2285069 C109.824138,82.5720819 107.411035,81.2719369 105.309628,80.0387049 C104.258501,79.4093839 103.274287,78.8122489 102.360374,78.2066439 C101.454084,77.5976509 100.649434,76.9725649 99.9540465,76.3567959 C98.5590375,75.1294929 97.6036215,73.9496219 97.0479895,73.0729769 C96.7659385,72.6367719 96.5770575,72.2793379 96.4618655,72.0320139 C96.3492145,71.7838429 96.2967005,71.6508639 96.3102525,71.6440879 C96.3458265,71.6263009 96.5956915,72.1421239 97.1894385,72.9764189 C97.7814915,73.8107139 98.7572355,74.9397649 100.158174,76.1204829 C100.856102,76.7125359 101.660752,77.3147529 102.562807,77.9017239 C103.464862,78.4810719 104.469404,79.0756659 105.514602,79.6880469 C107.615162,80.8950219 109.996079,82.1612869 112.711561,82.7990779 C115.416879,83.4605849 118.118809,83.4682079 120.497185,83.0760469 C122.884031,82.6982849 124.9397,81.9012579 126.569328,81.0796679 C128.199803,80.2462199 129.409319,79.3738099 130.217357,78.7419479 C131.014384,78.0948399 131.442966,77.7162309 131.468376,77.7433349" id="Fill-118" fill="#455A64"></path>
                    <path d="M146.030254,77.8132124 C145.966729,77.9199344 143.780622,76.7349814 141.081233,75.2832234 C138.383538,73.8280774 136.191502,72.6549824 136.244863,72.5431784 C136.297377,72.4356094 138.58343,73.4350694 141.290442,74.8944504 C143.999148,76.3512904 146.091238,77.7107254 146.030254,77.8132124" id="Fill-120" fill="#455A64"></path>
                    <path d="M151.936131,70.1170316 C151.877688,70.2237536 149.445951,68.9939096 146.506014,67.3710576 C143.564383,65.7482056 141.228357,64.3464206 141.287647,64.2396986 C141.346937,64.1329766 143.777827,65.3619736 146.718611,66.9856726 C149.659395,68.6076776 151.994574,70.0103096 151.936131,70.1170316" id="Fill-122" fill="#455A64"></path>
                    <path d="M157.642624,63.7488621 C157.597733,63.7920591 157.069205,63.3160451 156.237451,62.5291821 C155.280341,61.6195041 154.194487,60.5878581 152.995982,59.4494901 C151.789007,58.3178981 150.69553,57.2938751 149.731644,56.3909731 C148.898196,55.6058041 148.392537,55.1060741 148.432346,55.0586421 C148.471308,55.0137511 149.048962,55.4296281 149.937465,56.1563541 C150.825968,56.8839271 152.022779,57.9257371 153.297514,59.1284771 C154.572249,60.3312171 155.682666,61.4653501 156.460212,62.3098091 C157.236911,63.1551151 157.685821,63.7082061 157.642624,63.7488621" id="Fill-124" fill="#455A64"></path>
                    <path d="M158.502075,47.9043719 C158.555436,47.8730329 159.010275,48.5455509 159.720061,49.6441099 C160.517935,50.8756479 161.457258,52.3290999 162.496527,53.9341649 C163.550195,55.5290659 164.503917,56.9740479 165.311955,58.1979629 C166.033599,59.2897459 166.466416,59.9749689 166.416443,60.0122369 C166.368164,60.0469639 165.844718,59.4261129 165.057008,58.3775269 C164.270145,57.3289409 163.222406,55.8500789 162.126388,54.1747129 C161.032064,52.5001939 160.097823,50.9476429 159.454103,49.8058869 C158.809536,48.6632839 158.450408,47.9348639 158.502075,47.9043719" id="Fill-126" fill="#455A64"></path>
                    <path d="M171.800059,45.3922342 C171.861043,45.3821753 172.034678,46.1097483 172.296401,47.2879253 C172.59878,48.6287263 172.947744,50.1753483 173.333976,51.8829003 C173.7507,53.5828293 174.127615,55.1226753 174.455404,56.4575473 C174.746772,57.6281013 174.917019,58.3573683 174.856035,58.3760023 C174.800133,58.3929423 174.524858,57.6958613 174.154719,56.5430943 C173.785427,55.3911743 173.328047,53.7818743 172.904547,51.9836933 C172.481894,50.1855123 172.172739,48.5414853 171.989787,47.3455213 C171.806835,46.1495573 171.741616,45.4016563 171.800059,45.3922342" id="Fill-128" fill="#455A64"></path>
                    <path d="M182.213924,45.2467332 C182.342668,45.252669 182.291001,48.108753 182.468024,51.620415 C182.63573,55.132924 182.967754,57.969527 182.83901,57.988237 C182.781414,57.996631 182.623025,57.296162 182.454472,56.149324 C182.285072,55.003333 182.114825,53.409279 182.026737,51.64159 C181.94119,49.874748 181.953895,48.272224 182.010644,47.115222 C182.066546,45.957373 182.155481,45.244199 182.213924,45.2467332" id="Fill-130" fill="#455A64"></path>
                    <path d="M138.452822,87.4508019 C138.367275,87.5380429 136.384448,85.7424029 134.023859,83.4411039 C131.660729,81.1389579 129.81681,79.2027159 129.900663,79.1154749 C129.98621,79.0282339 131.969884,80.8230269 134.33132,83.1260199 C136.692756,85.4264719 138.538369,87.3635609 138.452822,87.4508019" id="Fill-132" fill="#455A64"></path>
                    <path d="M126.493013,93.6126422 C126.376127,93.6473692 125.551149,91.2478182 124.649941,88.2528262 C123.748733,85.2569872 123.112636,82.8006872 123.228675,82.7651132 C123.345561,82.7303862 124.171386,85.1299372 125.072594,88.1257762 C125.973802,91.1207682 126.609899,93.5770682 126.493013,93.6126422" id="Fill-134" fill="#455A64"></path>
                    <path d="M113.180883,93.4351957 C113.060609,93.4106327 113.422278,91.1838697 113.98638,88.4624587 C114.550482,85.7410477 115.10442,83.5549407 115.224694,83.5795037 C115.344121,83.6049137 114.983299,85.8299827 114.41835,88.5522407 C113.854248,91.2736517 113.30031,93.4597587 113.180883,93.4351957" id="Fill-136" fill="#455A64"></path>
                    <path d="M103.145966,89.6070945 C103.035856,89.5715205 103.617745,87.5353325 104.75696,85.1933775 C105.889399,82.8480345 107.126866,81.1294715 107.222577,81.1938435 C107.330993,81.2624505 106.272243,83.0674075 105.154203,85.3856465 C104.02854,87.6996505 103.267087,89.6494445 103.145966,89.6070945" id="Fill-138" fill="#455A64"></path>
                    <path d="M100.371702,76.8095174 C100.477577,76.8620314 99.6864792,78.6254854 98.4303782,80.6438864 C97.1785122,82.6656754 95.9503622,84.1563954 95.8554982,84.0852474 C95.7547052,84.0107114 96.8151492,82.4158104 98.0560042,80.4109614 C99.3010942,78.4103474 100.259898,76.7519214 100.371702,76.8095174" id="Fill-140" fill="#455A64"></path>
                    <path d="M111.572515,79.3587333 C111.692789,79.3900723 111.617406,80.0634373 111.532706,80.8816393 C111.444618,81.7006883 111.377705,82.3749003 111.253196,82.3799823 C111.133769,82.3867583 111.001637,81.6922183 111.09396,80.8359013 C111.182895,79.9787373 111.457323,79.3273943 111.572515,79.3587333" id="Fill-142" fill="#455A64"></path>
                    <path d="M119.849399,83.3046522 C119.731666,83.3249802 119.420817,82.1163112 119.261581,80.5908642 C119.09811,79.0654172 119.149777,77.8186332 119.269204,77.8143873 C119.393713,77.8101632 119.539397,79.0357722 119.69948,80.5451262 C119.857869,82.0536332 119.972214,83.2834772 119.849399,83.3046522" id="Fill-144" fill="#455A64"></path>
                    <path d="M125.792459,74.3421045 C125.918662,74.3361927 126.082133,75.8607927 126.395523,77.7191107 C126.702984,79.5782757 127.045172,81.0732307 126.923204,81.1088047 C126.8114,81.1435317 126.272708,79.6816097 125.960165,77.7919527 C125.641693,75.9039897 125.674726,74.3455097 125.792459,74.3421045" id="Fill-146" fill="#455A64"></path>
                    <path d="M48.9118784,173.156953 L102.099243,142.345634 C106.147903,140.000291 108.720242,135.752586 108.923522,131.07884 L110.328695,98.7141232 C110.36681,97.8273142 109.701915,97.0675552 108.817647,96.9879372 C108.02062,96.9159422 107.285424,97.4232952 107.070286,98.1949122 L100.274805,122.479249 L36.9971294,149.28087 C29.8865644,152.292802 26.7992494,160.685725 30.2643264,167.587928 C33.7175454,174.466415 42.2519174,177.015038 48.9118784,173.156953" id="Fill-148" fill="#FFBE9D"></path>
                    <path d="M100.274589,122.479249 C100.280396,122.493648 100.07034,122.603758 99.6654736,122.801109 C99.2207986,123.012012 98.6278986,123.293216 97.8833856,123.646415 C96.2859436,124.377376 94.0430876,125.40394 91.2894906,126.663429 C85.7077606,129.18156 77.9678746,132.595817 69.3615076,136.233682 C60.7517526,139.8707 52.9034506,143.033398 47.1963646,145.254232 C44.3436686,146.365496 42.0288176,147.248917 40.4229056,147.841817 C39.6487476,148.123868 39.0321316,148.348323 38.5696696,148.516876 C38.1444756,148.666795 37.9191736,148.73879 37.9131566,148.724391 C37.9081626,148.709992 38.1233006,148.610893 38.5383306,148.434717 C38.9923226,148.246683 39.5987746,147.995971 40.3602276,147.681734 C41.9890086,147.023615 44.2750616,146.099538 47.0820196,144.963711 C52.7569196,142.669188 60.5831996,139.463293 69.1895666,135.827122 C77.7933926,132.190951 85.5502186,128.823279 91.1624406,126.37799 C93.9397536,125.171862 96.2012436,124.190189 97.8130846,123.48972 C98.5719966,123.16786 99.1767546,122.912066 99.6290526,122.720644 C100.045777,122.548703 100.268538,122.465697 100.274589,122.479249" id="Fill-150" fill="#EB996E"></path>
                    <path d="M177.242712,164.103794 L123.066051,139.883829 C118.942855,138.040757 116.044421,134.221634 115.378679,129.754556 L110.764223,98.8212687 C110.63802,97.9734217 111.200428,97.1763947 112.041499,97.0112297 C112.798717,96.8621577 113.555935,97.2754937 113.841374,97.9937497 L122.815339,120.62559 L186.274273,139.976999 C194.219133,142.542562 197.28612,149.932637 194.585884,156.875496 C191.963572,163.828519 184.026335,167.136054 177.242712,164.103794" id="Fill-182" fill="#FFBE9D"></path>
                </g>
            </g>
        </g>
    </g>
</svg>