<?xml version="1.0" encoding="UTF-8"?>
<svg width="335px" height="273px" viewBox="0 0 335 273" version="1.1" xmlns="http://www.w3.org/2000/svg" xmlns:xlink="http://www.w3.org/1999/xlink">
    <!-- Generator: Sketch 63.1 (92452) - https://sketch.com -->
    <title>Illustration_thanks</title>
    <desc>Created with Sketch.</desc>
    <defs>
        <path d="M4.02,32.889 C3.777,32.889 3.53325,32.8665 3.29175,32.8155 C0.4185,32.20875 -0.1605,28.167 1.03125,25.48275 C2.5725,22.0095 5.8065,19.55325 9.2415,17.92875 C12.6765,16.3035 16.392,15.369 19.9365,13.9995 C27.34125,11.13825 32.61975,6.6855 37.6605,0.552 C37.398,1.05525 37.13025,1.56 36.8595,2.06325 C36.8085,2.1525 36.75675,2.24175 36.7035,2.331 C36.3555,2.95275 35.991,3.603 35.61225,4.2795 C35.229,4.95525 34.77375,5.62425 34.335,6.336 C33.4755,7.773 32.41575,9.21375 31.3335,10.752 C29.07975,13.76325 26.40975,16.9305 23.32425,19.98675 C20.208,23.013 16.9875,25.62075 13.93275,27.81525 C12.37425,28.86675 10.9125,29.898 9.459,30.72975 C8.73825,31.155 8.06025,31.59675 7.37775,31.9665 C7.29075,32.013 7.2045,32.05875 7.119,32.1045 C6.93075,32.1765 6.74325,32.2455 6.55425,32.3145 C5.7375,32.61075 4.8765,32.889 4.02,32.889 L4.02,32.889 Z M9.28425,31.2075 C9.39675,31.14075 9.51075,31.074 9.6255,31.00725 C11.0925,30.1845 12.56775,29.1585 14.13975,28.11 C17.22075,25.9215 20.46525,23.307 23.598,20.265 C26.22825,17.661 28.5525,14.96925 30.56925,12.3585 C25.05225,20.2335 18.14175,27.22575 9.28425,31.2075 L9.28425,31.2075 Z" id="path-1"></path>
    </defs>
    <g id="Azzurro" stroke="none" stroke-width="1" fill="none" fill-rule="evenodd">
        <g id="Grazie" transform="translate(-38.000000, -387.000000)">
            <g id="Illustration_thanks" transform="translate(37.876000, 387.661496)">
                <path d="M247.04325,98.299504 C248.44725,100.532254 250.10475,102.605254 251.97375,104.466004" id="Fill-6" fill="#FFFFFE"></path>
                <path d="M251.97375,104.466004 C251.955,104.484754 251.61975,104.193004 251.11425,103.683754 C250.60875,103.174504 249.939,102.441754 249.255,101.586004 C248.57025,100.730254 248.00325,99.915004 247.617,99.310504 C247.23075,98.705254 247.0215,98.313754 247.04325,98.299504 C247.0695,98.283754 247.32225,98.647504 247.737,99.229504 C248.15175,99.811504 248.7345,100.607254 249.414,101.458504 C250.095,102.309004 250.743,103.052254 251.22,103.584754 C251.6955,104.117254 251.99475,104.444254 251.97375,104.466004" id="Fill-7" fill="#DFDFDA"></path>
                <path d="M213.954,104.298754 C215.59725,102.273004 217.239,100.246504 218.8815,98.220004" id="Fill-8" fill="#FFFFFE"></path>
                <path d="M218.8815,98.220004 C218.925,98.256004 217.85775,99.645754 216.49725,101.324254 C215.13675,103.002754 213.99825,104.334754 213.954,104.298754 C213.91125,104.263504 214.97775,102.873754 216.33825,101.195254 C217.69875,99.516754 218.83725,98.184754 218.8815,98.220004" id="Fill-9" fill="#DFDFDA"></path>
                <path d="M213.96,49.824004 C214.00425,49.788754 215.0745,51.069004 216.351,52.682254 C217.62825,54.297004 218.6265,55.633504 218.58225,55.668004 C218.538,55.703254 217.46775,54.423754 216.19125,52.809754 C214.914,51.195754 213.915,49.859254 213.96,49.824004" id="Fill-10" fill="#DFDFDA"></path>
                <path d="M318.70875,87.120754 C318.70875,87.120754 318.70275,87.251254 318.66975,87.503254 C318.63225,87.773254 318.58125,88.144504 318.5145,88.622254 C318.366,89.622754 318.1515,91.065754 317.877,92.916004 C317.31825,96.645004 316.47,102.033754 315.396,108.688504 C313.254,121.999504 310.13625,140.361004 306.62775,160.628254 C303.117,180.902254 299.95425,199.256254 297.738,212.553004 C296.6385,219.189754 295.7475,224.565754 295.12875,228.302254 C294.81975,230.147254 294.5805,231.586504 294.41325,232.584004 C294.33,233.058754 294.26475,233.427754 294.21825,233.696254 C294.171,233.946004 294.1365,234.072754 294.1365,234.072754 C294.1365,234.072754 294.14325,233.941504 294.1755,233.689504 C294.21375,233.420254 294.26475,233.048254 294.3315,232.571254 C294.48,231.570754 294.6945,230.127754 294.96975,228.277504 C295.52775,224.549254 296.376,219.161254 297.44925,212.506504 C299.59275,199.195504 302.70975,180.831754 306.21975,160.557754 C309.729,140.290504 312.891,121.938754 315.10725,108.641254 C316.2075,102.005254 317.0985,96.628504 317.718,92.891254 C318.0255,91.046254 318.2655,89.607004 318.432,88.609504 C318.516,88.134004 318.58125,87.765004 318.6285,87.497254 C318.675,87.246754 318.70875,87.120754 318.70875,87.120754" id="Fill-21" fill="#DFDFDA"></path>
                <path d="M298.3815,120.326254 C298.40625,120.310504 298.59825,120.559504 298.92375,121.023004 C299.253,121.485754 299.70675,122.168254 300.2595,123.018004 C301.362,124.719754 302.8215,127.109254 304.38375,129.776254 C305.90925,132.405754 307.28775,134.783254 308.352,136.620004 C308.82825,137.432254 309.2325,138.122254 309.56475,138.687754 C309.85125,139.174504 310.0005,139.452754 309.97575,139.467754 C309.9525,139.484254 309.759,139.236004 309.429,138.774754 C309.10125,138.311254 308.64675,137.628004 308.10225,136.771504 C307.017,135.059254 305.589,132.651754 304.0275,129.985504 C302.48475,127.368004 301.08975,125.001004 300.01125,123.172504 C299.53125,122.362504 299.12325,121.674004 298.788,121.110004 C298.5045,120.620254 298.35825,120.341254 298.3815,120.326254" id="Fill-22" fill="#DFDFDA"></path>
                <path d="M311.1105,139.347004 C311.04825,139.251754 315.84075,136.020754 321.81225,132.132754 C327.78675,128.242504 332.6775,125.168254 332.73975,125.264254 C332.802,125.359504 328.011,128.589004 322.038,132.479254 C316.0665,136.367254 311.1735,139.443004 311.1105,139.347004" id="Fill-23" fill="#DFDFDA"></path>
                <path d="M304.317613,170.233504 C304.31025,170.205004 304.61175,170.096254 305.16375,169.923754 C305.80125,169.728754 306.5835,169.490254 307.50525,169.209004 C309.48075,168.605254 312.20625,167.762254 315.18075,166.722754 C318.15825,165.690004 320.82,164.664004 322.74225,163.907254 C323.63925,163.555504 324.4005,163.257004 325.0215,163.014004 C325.5615,162.806254 325.866,162.704254 325.87725,162.730504 C325.8885,162.756754 325.60575,162.908254 325.08525,163.161754 C324.56475,163.414504 323.8035,163.765504 322.854,164.176504 C320.95725,165.004504 318.303,166.077754 315.3165,167.112754 C312.333,168.155254 309.585,168.957004 307.5855,169.490254 C306.58425,169.753504 305.77125,169.955254 305.205,170.079004 C304.64025,170.205004 304.32375,170.260504 304.317613,170.233504" id="Fill-24" fill="#DFDFDA"></path>
                <path d="M289.017,155.562004 C289.0365,155.541754 289.2705,155.723254 289.67775,156.069754 C290.085,156.417004 290.66475,156.927754 291.3765,157.566754 C292.797,158.844004 294.741,160.629004 296.871,162.619504 C299.001,164.610754 300.9135,166.429504 302.2845,167.761504 C302.96925,168.426754 303.51825,168.971254 303.89175,169.354504 C304.26525,169.737004 304.4625,169.958254 304.443,169.980004 C304.4235,170.000254 304.1895,169.818754 303.78225,169.471504 C303.375,169.125004 302.7945,168.613504 302.08425,167.975254 C300.663,166.698004 298.719,164.912254 296.58825,162.921754 C294.459,160.931254 292.5465,159.111754 291.17625,157.780504 C290.4915,157.114504 289.94175,156.570754 289.56825,156.187504 C289.194,155.804254 288.9975,155.583004 289.017,155.562004" id="Fill-25" fill="#DFDFDA"></path>
                <path d="M279.555,182.067004 C279.5745,182.046004 279.87225,182.281504 280.3935,182.726254 C280.97025,183.231004 281.7015,183.871504 282.57525,184.637254 C284.40525,186.264754 286.914,188.533504 289.668,191.058004 C292.42275,193.584004 294.90075,195.887254 296.6805,197.569504 C297.51825,198.373504 298.22025,199.047754 298.773,199.578004 C299.2605,200.058754 299.5215,200.334004 299.50275,200.355754 C299.48325,200.376754 299.18625,200.141254 298.66425,199.696504 C298.08825,199.191754 297.35625,198.550504 296.4825,197.785504 C294.6525,196.158004 292.143,193.889254 289.38825,191.362504 C286.635,188.838004 284.15775,186.535504 282.378,184.852504 C281.5395,184.047754 280.8375,183.375004 280.28475,182.844754 C279.7965,182.363254 279.53625,182.087254 279.555,182.067004" id="Fill-26" fill="#DFDFDA"></path>
                <path d="M56.7330005,245.205754 C56.73375,237.628504 55.899,228.603754 53.9655,218.780254 C52.05075,208.951504 49.05825,198.351754 45.5475,187.372504 C44.6595,184.632004 43.78275,181.923004 42.918,179.253754 C42.04875,176.590504 41.187,173.949754 40.185,171.419254 C38.20125,166.347754 35.90775,161.622754 33.591,157.206004 C31.275,152.787004 28.9155,148.677754 26.68275,144.852004 C24.4395,141.028504 22.2825,137.505004 20.17875,134.376754 C15.99,128.103004 12.02025,123.452254 9.165,120.370504 C7.74,118.824004 6.5955,117.660754 5.80875,116.883004 C5.43,116.513254 5.133,116.222254 4.9095,116.004004 C4.704,115.809004 4.596,115.712254 4.5887528,115.719349 C4.581,115.726504 4.6755,115.837504 4.86675,116.046754 C5.0805,116.275504 5.36475,116.579254 5.7255,116.966254 C6.48375,117.770254 7.60125,118.957504 8.99925,120.525004 C11.799,123.650254 15.70575,128.325754 19.83825,134.610754 C21.9135,137.743504 24.04575,141.271504 26.2665,145.100254 C28.4805,148.934254 30.8205,153.046504 33.1185,157.461004 C35.4165,161.873254 37.68975,166.585504 39.65475,171.632254 C40.64775,174.150004 41.49975,176.768254 42.369,179.438254 C43.23225,182.106754 44.1075,184.814254 44.99475,187.554004 C48.50175,198.524254 51.5025,209.094004 53.44125,218.887504 C55.39725,228.674254 56.27025,237.658504 56.32125,245.208754" id="Fill-31" fill="#DFDFDA"></path>
                <path d="M40.02075,171.381903 C40.05975,171.391504 40.2105,170.922754 40.452,170.066254 C40.69725,169.210504 41.01075,167.962504 41.376,166.414504 C42.108,163.320004 42.9735,159.011254 43.911,154.257754 C44.84775,149.501254 45.77175,145.218004 46.5495,142.143004 C46.93425,140.604754 47.2575,139.362004 47.49225,138.507004 C47.7225,137.649004 47.832,137.169004 47.79375,137.155245 C47.7555,137.142754 47.57325,137.600254 47.277,138.439504 C46.97475,139.275754 46.58925,140.505754 46.1535,142.035754 C45.27075,145.094254 44.2785,149.382004 43.341,154.142254 C42.429,158.835754 41.604,163.081504 40.974,166.326004 C40.68,167.789254 40.431,169.022254 40.2315,170.013004 C40.05975,170.883754 39.98175,171.371254 40.02075,171.381903" id="Fill-32" fill="#DFDFDA"></path>
                <path d="M0.225723523,160.104754 C0.22125,160.144504 0.7905,160.264504 1.82325,160.446004 C2.853,160.634254 4.34625,160.896754 6.1785,161.281504 C9.8505,162.021754 14.88675,163.221754 20.385,164.788504 C25.8825,166.365754 30.7965,168.005254 34.31625,169.293754 C36.0825,169.924504 37.49625,170.475004 38.4765,170.848504 C39.45525,171.227254 40.00425,171.418504 40.0211311,171.381754 C40.03725,171.343504 39.5175,171.081004 38.5635,170.637004 C37.608,170.197504 36.21225,169.587004 34.461,168.903004 C30.96825,167.511754 26.05725,165.804004 20.544,164.221504 C15.02925,162.651004 9.9585,161.510254 6.25575,160.872754 C4.407,160.539754 2.89875,160.337254 1.85475,160.219504 C0.81075,160.107754 0.23175,160.063504 0.225723523,160.104754" id="Fill-33" fill="#DFDFDA"></path>
                <path d="M53.53575,217.989486 C53.553,217.999504 53.66325,217.838254 53.85825,217.521004 C54.0825,217.142254 54.35475,216.679504 54.68475,216.120004 C55.39725,214.899754 56.382,213.108004 57.57,210.877504 C59.94825,206.418004 63.03975,200.154754 66.35775,193.197754 C69.678,186.237004 72.70725,179.954254 74.98875,175.451254 C76.10475,173.263504 77.02425,171.463504 77.70675,170.125504 C77.99925,169.545004 78.24075,169.065754 78.43875,168.672754 C78.6,168.337504 78.6765,168.156754 78.65925,168.145201 C78.64125,168.137254 78.531,168.297754 78.33525,168.615004 C78.1125,168.993754 77.8395,169.455004 77.5095,170.016004 C76.797,171.235504 75.81225,173.028004 74.62425,175.258504 C72.246,179.717254 69.1545,185.981254 65.83575,192.941254 C62.51625,199.899004 59.48775,206.181754 57.20625,210.684754 C56.08875,212.871754 55.17,214.673254 54.48825,216.009754 C54.195,216.590254 53.9535,217.071004 53.7555,217.463254 C53.59425,217.798504 53.51775,217.980004 53.53575,217.989486" id="Fill-34" fill="#DFDFDA"></path>
                <path d="M1.32060238,195.719254 C1.31475,195.738754 1.49175,195.830254 1.8345,195.988504 C2.2425,196.168504 2.7435,196.388254 3.3495,196.655254 C4.74975,197.256004 6.6405,198.066004 8.94,199.050004 C13.6605,201.074254 20.14725,203.943004 27.31125,207.123754 C34.47675,210.306004 40.9965,213.117754 45.75975,215.044504 C48.14175,216.008254 50.076,216.768004 51.42375,217.266754 C52.047,217.491754 52.56075,217.677754 52.9785,217.830754 C53.33625,217.953754 53.529,218.008504 53.5359361,217.989004 C53.5425,217.970254 53.3655,217.878754 53.022,217.719754 C52.6155,217.541254 52.1145,217.321504 51.507,217.053754 C50.10675,216.453754 48.2175,215.644504 45.918,214.659004 C41.1975,212.636254 34.70925,209.766004 27.54375,206.584504 C20.3805,203.403754 13.8615,200.591254 9.09825,198.666004 C6.71625,197.701504 4.782,196.941004 3.4335,196.443004 C2.81025,196.217254 2.29725,196.029754 1.878,195.878254 C1.52025,195.755254 1.329,195.701254 1.32060238,195.719254" id="Fill-35" fill="#DFDFDA"></path>
                <path d="M98.187,12.943504 C98.187,12.943504 98.067,12.951004 97.8435,12.954754 C97.60725,12.957754 97.2795,12.961504 96.85275,12.966754 C95.97075,12.972754 94.68975,12.981004 93.02775,12.991504 C89.68275,13.003504 84.81825,13.022254 78.675,13.045504 C66.393,13.069504 49.008,13.104004 28.53825,13.144504 L28.74,12.943504 C28.74525,27.027004 28.752,42.632254 28.758,59.034004 L28.758,59.039254 L28.53825,58.820254 C54.8115,58.836754 79.035,58.852504 98.187,58.864504 L98.0115,59.039254 C98.0505,45.011254 98.082,33.510004 98.10375,25.500004 C98.12325,21.497254 98.13825,18.369754 98.148,16.226254 C98.157,15.166504 98.163,14.353504 98.1675,13.788754 C98.17425,13.236754 98.187,12.943504 98.187,12.943504 C98.187,12.943504 98.199,13.211254 98.20575,13.752004 C98.21025,14.309254 98.217,15.111004 98.22525,16.156504 C98.23575,18.291004 98.25075,21.405754 98.2695,25.391254 C98.292,33.426754 98.3235,44.966254 98.36175,59.039254 L98.3625,59.214754 L98.187,59.214754 C79.035,59.226754 54.8115,59.242504 28.53825,59.259004 L28.3185,59.259754 L28.3185,59.034004 C28.32525,42.632254 28.33125,27.027004 28.3365,12.943504 L28.33725,12.741004 L28.53825,12.741754 C49.062,12.782254 66.49275,12.816754 78.80775,12.840754 C84.93075,12.864004 89.7795,12.882004 93.11475,12.894754 C94.758,12.906004 96.02625,12.913504 96.89925,12.919504 C97.31625,12.924754 97.6365,12.928504 97.86675,12.931504 C98.08275,12.935254 98.187,12.943504 98.187,12.943504" id="Fill-40" fill="#DFDFDA"></path>
                <path d="M18.909,5.15025405 C18.9465,5.10225405 19.52775,5.48400405 20.43825,6.14025405 C21.34725,6.79725405 22.58625,7.72875405 23.9235,8.79825405 C25.26075,9.86925405 26.43675,10.881754 27.26475,11.640004 C28.0935,12.399004 28.57725,12.898504 28.53825,12.943504 C28.45575,13.036504 26.31825,11.273254 23.64825,9.14100405 C20.97675,7.01250405 18.831,5.25000405 18.909,5.15025405" id="Fill-41" fill="#DFDFDA"></path>
                <path d="M107.81625,5.32275405 C107.89125,5.41800405 105.7965,7.20075405 103.13775,9.30450405 C100.47825,11.409754 98.262,13.038004 98.187,12.943504 C98.11125,12.848254 100.206,11.064754 102.8655,8.96025405 C105.5235,6.85650405 107.7405,5.22750405 107.81625,5.32275405" id="Fill-42" fill="#DFDFDA"></path>
                <path d="M97.833,58.635004 C97.9095,58.540504 100.19025,60.263254 102.92775,62.481004 C105.66525,64.700254 107.8215,66.575254 107.74575,66.669004 C107.66925,66.763504 105.3885,65.041504 102.65025,62.822254 C99.9135,60.604504 97.7565,58.728754 97.833,58.635004" id="Fill-44" fill="#DFDFDA"></path>
                <path d="M18.909,66.660004 C18.834,66.564754 20.907,64.800004 23.53875,62.718754 C26.1705,60.637504 28.365,59.027254 28.44,59.122504 C28.51575,59.217754 26.44275,60.981754 23.811,63.063754 C21.17925,65.145004 18.98475,66.755254 18.909,66.660004" id="Fill-45" fill="#DFDFDA"></path>
                <path d="M326.33475,271.392754 C326.33475,271.500754 253.2765,271.588504 163.17525,271.588504 C73.0425,271.588504 0,271.500754 0,271.392754 C0,271.285504 73.0425,271.197754 163.17525,271.197754 C253.2765,271.197754 326.33475,271.285504 326.33475,271.392754" id="Fill-62" fill="#1A282B"></path>
                <path d="M234.66675,141.612754 C235.83375,146.111254 234.27975,151.204504 230.8005,154.285504 C228.51525,156.308254 225.53475,157.480504 223.44975,159.708754 C220.76775,162.578254 219.99525,166.970254 221.169,170.718004 C222.34275,174.465754 225.2955,177.529504 228.83925,179.223754 C233.67,181.534504 239.62275,181.331254 244.2855,178.697254 C250.086,175.419754 253.4625,168.846754 254.3175,162.239254 C255.1725,155.631754 253.8285,148.941004 252.08475,142.511254" id="Fill-63" fill="#1A282B"></path>
                <path d="M307.78425,258.120754 C313.78725,257.139004 319.4115,258.971254 325.35075,260.286754 C326.9505,260.641504 328.626,260.950504 330.2145,260.546254 C332.7885,259.890004 334.61925,257.384254 335.0175,254.757754 C335.3625,252.483004 334.76925,250.101754 333.50025,248.183254 C332.9625,247.370254 332.29275,246.624004 331.44525,246.142504 C330.57675,245.648254 329.5695,245.458504 328.575,245.362504 C324.96,245.013754 321.285,245.817754 317.9955,247.358254 C314.706,248.897254 311.787,251.152504 309.21975,253.721254 C307.9635,254.979004 308.34,256.432504 307.78425,258.120754" id="Fill-64" fill="#1A282B"></path>
                <path d="M186.1095,161.286754 C185.1525,155.592004 185.27175,149.718004 186.45825,144.067504 C187.0365,141.317254 187.88325,138.579004 189.423,136.227754 C189.98325,135.372004 190.67475,134.541004 191.62425,134.162254 C192.93675,133.638754 194.4975,134.122504 195.53325,135.083254 C196.88475,136.338004 197.44425,138.276004 197.38575,140.119504 C197.32875,141.963004 196.7235,143.743504 196.05075,145.461004 C193.728,151.387504 190.0725,156.305254 186.1095,161.286754" id="Fill-65" fill="#1A282B"></path>
                <path d="M302.37825,182.964004 C303.7455,183.932254 333.91875,248.879254 333.91875,248.879254 C331.497,247.838254 328.81275,247.573504 326.23425,248.120254 L324.59925,248.556754 C321.6705,249.339004 318.89325,250.605754 316.383,252.303754 L307.78425,258.120754 C307.0905,257.727754 306.633,257.019754 306.55875,256.226254 L306.5355,255.977254 L283.1595,215.855254 L302.37825,182.964004" id="Fill-66" fill="#5198D8"></path>
                <path d="M189.2085,79.601254 L197.24475,125.299504 C199.8345,131.448004 230.0115,168.711004 230.0115,168.711004 L220.03125,200.767504 L180.40425,146.580004 C176.72475,142.643254 174.72225,137.428504 174.822,132.042004 L176.37075,83.217004 L189.2085,79.601254" id="Fill-67" fill="#F2B499"></path>
                <path d="M231.99225,161.548504 L252.68625,163.112254 L270.73125,165.912754 C270.73125,165.912754 302.37825,174.230254 302.37825,177.695254 C302.37825,178.848754 293.733,206.366254 288.915,222.853504 C286.836,229.968754 286.0035,235.029754 286.0035,235.029754 L302.37825,271.392754 L224.51775,271.392754 L224.51775,238.050004 C224.51775,238.050004 219.291,194.306254 220.19175,188.331754 C221.09175,182.358004 231.99225,161.548504 231.99225,161.548504" id="Fill-68" fill="#5198D8"></path>
                <path d="M179.41575,61.137754 C179.53575,56.484004 180.0105,51.840004 180.837,47.258254 C180.954,46.608754 181.21875,45.819004 181.8735,45.732754 C182.68275,45.626254 183.09525,46.667254 183.20025,47.476504 C183.91725,52.988254 183.687,58.623004 182.52,64.057504" id="Fill-69" fill="#EB916B"></path>
                <path d="M188.61825,157.901254 C197.49675,149.964004 197.79825,136.216504 197.03925,125.279254 C196.983,124.472254 196.923,123.591754 197.38575,122.928754 C198.23175,121.719004 200.295,122.167504 201.1215,123.390754 C201.94725,124.614004 201.9015,126.205504 201.82425,127.680004 C202.2795,126.429754 204.231,126.437254 205.14675,127.402504 C206.06175,128.367754 206.21625,129.804754 206.32275,131.130754 C206.42175,132.352504 206.52,133.574254 206.619,134.796004 L232.5555,159.516004 C232.5555,159.516004 233.268,157.296754 235.17375,158.564254 C237.07875,159.831754 238.3095,162.594004 238.3095,162.594004 L220.03125,202.491004 L186.10725,161.219254 C186.10725,161.219254 187.17225,159.193504 188.61825,157.901254" id="Fill-70" fill="#5198D8"></path>
                <path d="M223.818,185.507254 C221.1915,189.009754 219.0015,192.896254 217.8645,197.124004 C216.72825,201.351754 216.6945,205.946254 218.2515,210.037504 C220.44525,215.804254 225.8925,220.203754 231.99225,221.135254" id="Fill-71" fill="#468AC7"></path>
                <path d="M307.78425,258.120754 L306.79875,271.392754 L326.025,271.392754 L330.53325,247.953004 C324.67725,247.625254 318.9015,249.435754 314.28,253.047004 L307.78425,258.120754" id="Fill-72" fill="#F2B499"></path>
                <path d="M197.652,154.965004 C197.62875,154.953004 197.7795,154.578754 198.0735,153.912754 C198.375,153.250504 198.77775,152.277004 199.236,151.062004 C199.70025,149.849254 200.1795,148.377754 200.63625,146.724004 C201.0735,145.064254 201.477,143.220004 201.77025,141.262504 C202.0485,139.300504 202.18875,137.418004 202.24275,135.702754 C202.278,133.986754 202.239,132.439504 202.13925,131.144254 C202.047,129.849004 201.93975,128.801254 201.84,128.080504 C201.7485,127.359004 201.7095,126.957004 201.7365,126.951716 C201.76275,126.947254 201.85125,127.340254 201.99,128.058004 C202.13625,128.773504 202.287,129.821254 202.4145,131.121754 C202.55025,132.422254 202.61775,133.980004 202.60275,135.709504 C202.56825,137.439004 202.43775,139.340254 202.15725,141.318754 C201.861,143.294254 201.44325,145.152004 200.98275,146.819254 C200.50425,148.481254 199.99425,149.955004 199.49325,151.162504 C198.999,152.372254 198.55575,153.333004 198.21075,153.978004 C197.874,154.626004 197.676,154.977754 197.652,154.965004" id="Fill-73" fill="#1A282B"></path>
                <path d="M203.304,148.005004 C203.25,147.975004 203.61,147.271504 204.105,146.101504 C204.60075,144.933004 205.2,143.281504 205.638,141.397504 C206.07075,139.511254 206.25675,137.764504 206.3235,136.496254 C206.3925,135.228754 206.37675,134.438254 206.439,134.434496 C206.484,134.431504 206.59875,135.219004 206.60025,136.504504 C206.60325,137.787754 206.45925,139.569754 206.01825,141.486004 C205.5735,143.399254 204.9225,145.063504 204.35625,146.215504 C203.79075,147.369754 203.34375,148.027504 203.304,148.005004" id="Fill-74" fill="#1A282B"></path>
                <path d="M233.76825,168.742504 C233.709,168.708754 234.021,168.220504 234.2025,167.338504 C234.39525,166.462504 234.3825,165.192004 234.00825,163.865254 C233.631,162.536254 233.06925,161.392504 232.70475,160.548004 C232.33125,159.705004 232.137,159.164254 232.18725,159.142504 C232.236,159.120004 232.51575,159.615004 232.953,160.427254 C233.37975,161.241004 233.991,162.378754 234.384,163.760254 C234.777,165.144004 234.7455,166.497004 234.47175,167.403754 C234.20625,168.321004 233.7975,168.768754 233.76825,168.742504" id="Fill-75" fill="#1A282B"></path>
                <path d="M229.25625,221.574754 C229.248,221.585254 229.13625,221.522254 228.93,221.392504 C228.68925,221.233504 228.396,221.040004 228.04125,220.806004 C227.27775,220.286254 226.17525,219.525004 224.8725,218.501254 C223.575,217.475254 222.06675,216.176254 220.66275,214.474504 C219.26775,212.779504 218.01375,210.620254 217.4055,208.136254 C216.77775,205.659754 216.72825,203.196004 216.97575,201.013504 C217.221,198.824254 217.7385,196.903504 218.2575,195.330754 C218.784,193.758004 219.30975,192.523504 219.6885,191.679754 C219.8805,191.259004 220.03425,190.934254 220.14525,190.717504 C220.2555,190.500754 220.31925,190.389754 220.33125,190.394122 C220.3575,190.406254 220.16625,190.881004 219.828,191.739004 C219.4935,192.598504 219.00825,193.842754 218.5215,195.415504 C218.0385,196.986754 217.55475,198.893254 217.33275,201.051004 C217.11,203.203504 217.17,205.619254 217.78425,208.039504 C218.379,210.466504 219.5865,212.567254 220.9425,214.247254 C222.30525,215.931754 223.779,217.239004 225.04575,218.286004 C226.3185,219.331504 227.394,220.125004 228.1305,220.682254 C228.46725,220.940254 228.74625,221.153254 228.97575,221.328754 C229.16625,221.479504 229.263,221.563504 229.25625,221.574754" id="Fill-76" fill="#1A282B"></path>
                <path d="M271.745339,228.993754 C271.749,229.007254 271.63425,229.047754 271.41375,229.113004 C271.1925,229.172254 270.87,229.283254 270.441,229.366504 C269.589,229.564504 268.33125,229.761004 266.76375,229.807504 C263.65575,229.922254 259.1805,229.204504 255.093,226.623004 C251.007,224.034754 248.44125,220.297504 247.21275,217.440754 C246.5835,216.004504 246.222,214.784254 246.03675,213.930004 C245.928,213.507004 245.88975,213.168004 245.8485,212.941504 C245.8125,212.714254 245.8005,212.594254 245.814,212.591932 C245.847,212.585254 245.95125,213.056254 246.18375,213.892504 C246.4125,214.728754 246.8115,215.922754 247.464,217.326754 C248.74125,220.118254 251.29725,223.755754 255.3015,226.293004 C259.30875,228.822754 263.6895,229.574254 266.76,229.531504 C268.30725,229.520254 269.5575,229.368004 270.411,229.217254 C271.266,229.068754 271.737,228.961504 271.745339,228.993754" id="Fill-77" fill="#1A282B"></path>
                <path d="M283.6785,243.570887 C283.57425,243.543004 284.56725,239.397004 285.89475,234.312004 C287.22375,229.224754 288.384,225.123754 288.489,225.150621 C288.59325,225.177754 287.601,229.323004 286.27275,234.410254 C284.9445,239.496004 283.7835,243.597754 283.6785,243.570887" id="Fill-78" fill="#1A282B"></path>
                <path d="M294.174,234.766504 C294.081,234.821254 291.06675,229.891504 287.44125,223.758754 C283.81425,217.622254 280.95075,212.606254 281.043,212.550754 C281.136,212.496004 284.15025,217.424254 287.77725,223.560004 C291.40275,229.693504 294.26625,234.711004 294.174,234.766504" id="Fill-79" fill="#1A282B"></path>
                <path d="M322.932038,246.911254 C322.9395,246.984754 321.84075,247.077004 320.13,247.509004 C319.27275,247.719004 318.27375,248.047504 317.1945,248.481754 C316.12275,248.934754 314.97525,249.506254 313.836,250.217254 C312.7035,250.941754 311.6955,251.733754 310.82625,252.507754 C309.9705,253.296004 309.246,254.057254 308.68875,254.741254 C307.56525,256.101754 307.0095,257.054254 306.9465,257.016754 C306.92325,257.002504 307.047,256.757254 307.29225,256.322254 C307.53075,255.883504 307.93125,255.279754 308.4735,254.568754 C309.00975,253.854004 309.72525,253.059754 310.5825,252.242254 C311.45325,251.440504 312.47475,250.624504 313.6275,249.887254 C314.78775,249.162754 315.96225,248.590504 317.06025,248.148004 C318.165,247.724254 319.1895,247.419004 320.06625,247.239754 C320.94075,247.055254 321.65775,246.953254 322.1565,246.925504 C322.6545,246.891004 322.92975,246.884254 322.932038,246.911254" id="Fill-80" fill="#1A282B"></path>
                <path d="M326.604773,242.395504 C326.5995,242.475004 325.39725,242.331004 323.475,242.495254 C322.51275,242.568754 321.37875,242.765254 320.14575,243.079504 C318.9195,243.419254 317.5995,243.891754 316.28175,244.542004 C314.9715,245.208004 313.8015,245.983504 312.79575,246.762754 C311.80575,247.562254 310.97025,248.353504 310.335,249.080254 C309.05325,250.521754 308.44875,251.571004 308.382,251.527504 C308.35875,251.514004 308.5005,251.248504 308.778,250.777504 C308.913,250.539754 309.08775,250.254754 309.3225,249.945754 C309.55275,249.633754 309.79725,249.261754 310.1265,248.898754 C310.74375,248.139004 311.574,247.311754 312.57,246.482254 C313.5825,245.673004 314.7705,244.872004 316.10625,244.192504 C317.4495,243.529504 318.80175,243.057004 320.05575,242.730754 C321.31725,242.429254 322.47525,242.259754 323.45475,242.220004 C323.94225,242.173504 324.3855,242.200504 324.774,242.202754 C325.16325,242.199754 325.49625,242.229754 325.767,242.264254 C326.31075,242.323504 326.60775,242.368504 326.604773,242.395504" id="Fill-81" fill="#1A282B"></path>
                <path d="M259.536,234.593254 C257.1315,234.593254 254.727,233.760004 252.8595,232.242004 C250.5825,230.393254 249.18825,227.693254 247.93725,225.040504 C246.43725,221.860504 245.05875,218.112004 246.28725,214.913254 C246.49575,215.631754 246.79575,216.489004 247.21275,217.440754 C248.44125,220.297504 251.007,224.034754 255.093,226.623004 C258.0795,228.509254 261.27375,229.400254 263.99025,229.698754 C265.32075,229.953754 266.6745,230.088004 268.0365,230.088004 C268.065,230.088004 268.095,230.087254 268.12425,230.087254 C266.4765,232.455004 263.817,234.090754 260.96175,234.493504 C260.48925,234.560254 260.013,234.593254 259.536,234.593254 M258.975,228.120754 C257.74725,227.654254 256.5075,227.054254 255.3015,226.293004 C251.7285,224.028754 249.30825,220.889254 247.9215,218.255254 C250.41975,222.596254 254.38725,226.085254 258.975,228.120754" id="Fill-82" fill="#468AC7"></path>
                <path d="M263.99025,229.698754 C261.27375,229.400254 258.0795,228.509254 255.093,226.623004 C251.007,224.034754 248.44125,220.297504 247.21275,217.440754 C246.79575,216.489004 246.49575,215.631754 246.28725,214.913254 C246.3,214.881754 246.312,214.849504 246.32475,214.818004 C246.7545,216.012004 247.29075,217.160254 247.9215,218.255254 C249.30825,220.889254 251.7285,224.028754 255.3015,226.293004 C256.5075,227.054254 257.74725,227.654254 258.975,228.120754 C260.583,228.833254 262.26675,229.368004 263.99025,229.698754" id="Fill-83" fill="#111819"></path>
                <path d="M246.4035,214.631254 C246.3885,214.583254 246.3735,214.536004 246.3585,214.489504 L246.6165,214.189504 C246.53925,214.335004 246.46875,214.482754 246.4035,214.631254" id="Fill-84" fill="#AB363E"></path>
                <path d="M246.32475,214.818004 C246.30075,214.750504 246.276,214.681504 246.25275,214.613254 L246.3585,214.489504 C246.3735,214.536004 246.3885,214.583254 246.4035,214.631254 C246.3765,214.693504 246.35025,214.755754 246.32475,214.818004" id="Fill-85" fill="#111819"></path>
                <path d="M287.02425,230.074504 C287.3505,228.663754 287.7615,227.001004 288.26625,225.151504 C288.3075,225.221254 288.34875,225.291004 288.39,225.360754 C288.1785,225.944254 287.67,227.703004 287.02425,230.074504 M287.9475,227.760754 C288.20325,226.688254 288.38175,225.888754 288.45675,225.472504 C288.51075,225.564004 288.56475,225.654004 288.61875,225.744754 C288.3945,226.416754 288.171,227.088754 287.9475,227.760754" id="Fill-86" fill="#ADAEAA"></path>
                <path d="M284.50125,236.351254 C284.00925,236.351254 283.5255,235.839754 283.46025,235.307254 C283.38225,234.659254 283.6875,234.036754 283.89975,233.419504 C285.033,230.118754 283.5405,226.554754 282.12675,223.365004 C280.713,220.176754 279.7005,215.775754 281.04075,212.556004 C281.031,212.745754 283.8645,217.707754 287.44125,223.758754 C287.72025,224.230504 287.9955,224.695504 288.26625,225.151504 C287.7615,227.001004 287.3505,228.663754 287.02425,230.074504 C286.821,230.820004 286.60425,231.624754 286.37925,232.473754 C286.0605,233.431504 285.74175,234.389254 285.423,235.347004 C285.303,235.705504 285.156,236.099254 284.81925,236.273254 C284.71575,236.327254 284.6085,236.351254 284.50125,236.351254" id="Fill-87" fill="#468AC7"></path>
                <path d="M286.37925,232.473754 C286.60425,231.624754 286.821,230.820004 287.02425,230.074504 C287.67,227.703004 288.1785,225.944254 288.39,225.360754 C288.4125,225.397504 288.435,225.435754 288.45675,225.472504 C288.38175,225.888754 288.20325,226.688254 287.9475,227.760754 C287.424,229.332004 286.90125,230.903254 286.37925,232.473754" id="Fill-88" fill="#111819"></path>
                <path d="M288.61875,225.744754 C288.56475,225.654004 288.51075,225.564004 288.45675,225.472504 C288.435,225.435754 288.4125,225.397504 288.39,225.360754 C288.34875,225.291004 288.3075,225.221254 288.26625,225.151504 C287.9955,224.695504 287.72025,224.230504 287.44125,223.758754 C283.8645,217.707754 281.031,212.745754 281.040725,212.556004 C281.0415,212.554504 281.04225,212.553004 281.043,212.550754 L288.62625,225.721504 C288.62325,225.729004 288.621,225.736504 288.61875,225.744754" id="Fill-89" fill="#111819"></path>
                <path d="M210.099,170.184845 C209.9925,170.167504 210.336,167.495254 210.86625,164.216254 C211.3965,160.936504 211.91325,158.292004 212.019,158.30917 C212.1255,158.327254 211.782,160.998754 211.25175,164.278504 C210.7215,167.557504 210.20475,170.202754 210.099,170.184845" id="Fill-90" fill="#FDFCFB"></path>
                <path d="M202.19475,168.525754 C202.10025,168.589504 200.80725,166.786504 199.02675,164.719504 C197.253,162.645004 195.66525,161.095504 195.744,161.011504 C195.81,160.935004 197.5305,162.369754 199.323,164.464504 C201.1215,166.553254 202.28025,168.471754 202.19475,168.525754" id="Fill-91" fill="#FDFCFB"></path>
                <path d="M208.9755,149.209504 C209.0175,149.241004 208.6995,149.760004 208.1295,150.558754 C207.55875,151.358254 206.73075,152.433004 205.761,153.575254 C204.7905,154.716754 203.8635,155.707504 203.16675,156.399754 C202.4715,157.092004 202.01025,157.489504 201.9735,157.453504 C201.8925,157.374004 203.53575,155.597254 205.464,153.322504 C207.396,151.052254 208.884,149.142754 208.9755,149.209504" id="Fill-92" fill="#FDFCFB"></path>
                <path d="M206.32725,139.770004 C206.22,139.812754 205.794,138.858754 204.963,137.908504 C204.1425,136.949254 203.259,136.391254 203.3175,136.290004 C203.35575,136.197754 204.38175,136.632004 205.2585,137.652754 C206.142,138.666754 206.424,139.745254 206.32725,139.770004" id="Fill-93" fill="#FDFCFB"></path>
                <path d="M199.49025,145.584754 C199.50675,145.691254 198.6345,145.918504 197.541,146.091754 C196.44675,146.265004 195.54675,146.319004 195.53025,146.212504 C195.513,146.106004 196.386,145.878754 197.4795,145.705504 C198.573,145.532254 199.47375,145.478254 199.49025,145.584754" id="Fill-94" fill="#FDFCFB"></path>
                <path d="M216.74625,153.919504 C216.62625,153.903004 216.92025,152.319004 216.49725,150.429754 C216.1005,148.535254 215.17575,147.215254 215.2785,147.150004 C215.34225,147.078004 216.4575,148.356004 216.87975,150.347254 C217.32,152.333254 216.834,153.958504 216.74625,153.919504" id="Fill-95" fill="#FDFCFB"></path>
                <path d="M225.966,163.833004 C225.858,163.890754 225.072,162.301504 223.55325,160.786504 C222.04875,159.255004 220.467,158.457004 220.52475,158.350504 C220.551,158.259004 222.267,158.923504 223.83,160.511254 C225.40575,162.085504 226.0575,163.807504 225.966,163.833004" id="Fill-96" fill="#FDFCFB"></path>
                <path d="M211.1685,181.041004 C211.20525,181.131004 209.67825,181.684504 207.7065,181.610254 C205.734,181.548754 204.249,180.891754 204.291,180.804004 C204.327,180.690754 205.8195,181.163254 207.72,181.219504 C209.61975,181.293754 211.14,180.924754 211.1685,181.041004" id="Fill-97" fill="#FDFCFB"></path>
                <path d="M218.115,184.599004 C218.007,184.558504 218.59275,182.829004 219.0795,180.640504 C219.576,178.453504 219.78675,176.640754 219.90075,176.648976 C220.002,176.654254 219.96375,178.506004 219.4605,180.726004 C218.96625,182.947504 218.208,184.638004 218.115,184.599004" id="Fill-98" fill="#FDFCFB"></path>
                <path d="M233.28225,185.181004 C233.20275,185.253754 231.7365,183.773254 230.00775,181.875754 C228.279,179.977504 226.9425,178.380004 227.022,178.307254 C227.1015,178.235254 228.56775,179.714254 230.2965,181.612504 C232.02525,183.510754 233.36175,185.109004 233.28225,185.181004" id="Fill-99" fill="#FDFCFB"></path>
                <path d="M240.354,202.706254 C240.27675,202.781254 239.18175,201.773254 237.90975,200.455504 C236.63625,199.138504 235.66725,198.009004 235.74525,197.934004 C235.8225,197.859754 236.91675,198.866254 238.19025,200.184754 C239.463,201.502504 240.432,202.632004 240.354,202.706254" id="Fill-100" fill="#FDFCFB"></path>
                <path d="M227.21775,204.377254 C227.2845,204.453754 226.03275,205.611754 224.2215,206.658004 C222.41325,207.712504 220.788,208.225504 220.755,208.130254 C220.713,208.023004 222.24975,207.357004 224.025,206.320504 C225.80475,205.293004 227.14575,204.288004 227.21775,204.377254" id="Fill-101" fill="#FDFCFB"></path>
                <path d="M233.26275,221.055004 C233.15025,221.026504 233.5995,219.056254 233.823,216.586504 C234.0585,214.116754 233.9805,212.097754 234.0975,212.090958 C234.195,212.079754 234.45,214.114504 234.21225,216.622504 C233.9835,219.130504 233.358,221.084254 233.26275,221.055004" id="Fill-102" fill="#FDFCFB"></path>
                <path d="M255.99375,207.495004 C255.93675,207.576754 254.328,206.454754 252.75,204.641254 C251.16225,202.833754 250.2645,201.090754 250.35225,201.045754 C250.452,200.985004 251.484,202.611004 253.04325,204.384004 C254.59275,206.165254 256.06725,207.404254 255.99375,207.495004" id="Fill-103" fill="#FDFCFB"></path>
                <path d="M264.3,214.573504 C264.21075,214.503004 265.347,212.944504 266.61975,210.942754 C267.89925,208.944004 268.833,207.257254 268.93425,207.307504 C269.0265,207.352504 268.2405,209.133754 266.949,211.152754 C265.66275,213.174004 264.3795,214.638754 264.3,214.573504" id="Fill-104" fill="#FDFCFB"></path>
                <path d="M263.082,197.259754 C263.05425,197.363254 261.348,196.995754 259.2705,196.437754 C257.193,195.880504 255.53175,195.344254 255.56025,195.239254 C255.588,195.135754 257.29425,195.503254 259.37175,196.060504 C261.4485,196.618504 263.10975,197.154754 263.082,197.259754" id="Fill-105" fill="#FDFCFB"></path>
                <path d="M257.02875,227.726271 C256.92075,227.719504 256.92675,226.128004 257.0415,224.171254 C257.157,222.213004 257.33775,220.632004 257.445,220.637987 C257.553,220.644004 257.547,222.236254 257.43225,224.193754 C257.31675,226.150504 257.136,227.732254 257.02875,227.726271" id="Fill-106" fill="#FDFCFB"></path>
                <path d="M262.263,238.161004 C262.1535,238.110004 262.941,236.553754 263.21025,234.463504 C263.5035,232.374754 263.154,230.667004 263.274,230.646004 C263.36175,230.610004 263.8995,232.342504 263.598,234.516004 C263.31525,236.690254 262.33875,238.220254 262.263,238.161004" id="Fill-107" fill="#FDFCFB"></path>
                <path d="M248.6955,235.856254 C248.60025,235.870504 248.36475,234.108754 248.781,231.979504 C249.18375,229.846504 250.0545,228.297004 250.13775,228.346504 C250.2465,228.394504 249.555,229.979254 249.16425,232.052254 C248.7585,234.123004 248.81475,235.851004 248.6955,235.856254" id="Fill-108" fill="#FDFCFB"></path>
                <path d="M236.322,241.142254 C236.24625,241.224754 234.72825,239.929504 232.80075,238.407754 C230.8755,236.880754 229.26675,235.701004 229.329,235.608754 C229.386,235.521004 231.1035,236.563504 233.043,238.101004 C234.984,239.634754 236.39325,241.067254 236.322,241.142254" id="Fill-109" fill="#FDFCFB"></path>
                <path d="M244.704,226.428754 C244.755,226.524004 242.7855,227.668504 240.306,228.984754 C237.82575,230.300254 235.77525,231.290254 235.725,231.195004 C235.674,231.099754 237.64275,229.955254 240.123,228.639754 C242.60175,227.323504 244.65375,226.333504 244.704,226.428754" id="Fill-110" fill="#FDFCFB"></path>
                <path d="M270.73279,259.448254 C270.73575,259.461004 270.5685,259.503754 270.2475,259.572004 C269.925,259.632004 269.454,259.753504 268.83525,259.833004 C267.60375,260.034004 265.7985,260.208754 263.5635,260.171254 C261.33,260.137504 258.66525,259.831504 255.804,259.074754 C252.94425,258.322504 249.9015,257.076754 246.993,255.278254 C244.10025,253.454254 241.64475,251.266504 239.7135,249.026254 C237.777,246.786754 236.33325,244.527004 235.32225,242.535004 C234.3075,240.543004 233.67225,238.843504 233.31225,237.649504 C233.11275,237.058504 233.01525,236.581504 232.9275,236.266504 C232.84875,235.947754 232.81275,235.779004 232.8255,235.77594 C232.839,235.772254 232.89975,235.934254 233.004,236.244754 C233.115,236.553004 233.23575,237.021004 233.457,237.602254 C233.859,238.775254 234.5295,240.447754 235.5675,242.406004 C236.60025,244.365754 238.05375,246.587254 239.98425,248.790004 C241.91025,250.992004 244.34325,253.144504 247.2,254.947504 C250.07175,256.722754 253.07325,257.963254 255.89775,258.726754 C258.72375,259.494754 261.357,259.827004 263.571,259.894504 C265.7865,259.967254 267.5835,259.836004 268.815,259.682254 C269.4345,259.626754 269.90775,259.529254 270.23325,259.494004 C270.558,259.451254 270.72975,259.434754 270.73279,259.448254" id="Fill-111" fill="#1A282B"></path>
                <path d="M248.3265,255.567754 C248.23425,255.598504 247.9545,253.922254 248.6775,252.022504 C249.38175,250.114504 250.69425,249.036004 250.743,249.118504 C250.8345,249.199504 249.708,250.347754 249.0435,252.159754 C248.3535,253.960504 248.448,255.567754 248.3265,255.567754" id="Fill-112" fill="#FDFCFB"></path>
                <path d="M242.15025,252.987754 C242.20575,253.092754 241.08,253.642504 240.19875,254.842504 C239.2965,256.027504 239.088,257.263504 238.9725,257.238754 C238.87275,257.250754 238.9155,255.892504 239.886,254.609254 C240.84225,253.314754 242.133,252.889504 242.15025,252.987754" id="Fill-113" fill="#FDFCFB"></path>
                <path d="M265.8855,267.114754 C265.89,267.211504 264.1785,267.077254 262.4325,265.976254 C260.67525,264.892504 259.8015,263.415754 259.88925,263.376754 C259.98375,263.300254 260.96025,264.612754 262.63875,265.644754 C264.3045,266.697754 265.91325,266.997004 265.8855,267.114754" id="Fill-114" fill="#FDFCFB"></path>
                <path d="M269.57925,246.339004 C269.6775,246.336754 269.46075,247.902004 268.23525,249.329254 C267.0255,250.769254 265.51575,251.236504 265.503,251.139754 C265.4475,251.031754 266.8035,250.433254 267.93825,249.076504 C269.09325,247.737004 269.4645,246.302254 269.57925,246.339004" id="Fill-115" fill="#FDFCFB"></path>
                <path d="M280.07025,261.830254 C279.98025,261.756754 280.97175,260.503504 281.88225,258.775504 C282.80475,257.053504 283.2885,255.531754 283.401,255.564754 C283.49775,255.584254 283.173,257.191504 282.22725,258.959254 C281.29125,260.732254 280.1415,261.900004 280.07025,261.830254" id="Fill-116" fill="#FDFCFB"></path>
                <path d="M293.93775,263.877004 C293.98125,263.987254 292.6155,264.528004 291.24225,265.659754 C289.857,266.776504 289.0515,268.005754 288.95175,267.939754 C288.86325,267.900754 289.54875,266.526004 290.9955,265.357504 C292.4325,264.176254 293.9175,263.781754 293.93775,263.877004" id="Fill-117" fill="#FDFCFB"></path>
                <path d="M283.36125,246.111754 C283.24575,246.147754 282.5925,243.955504 281.2125,241.524754 C279.849,239.083504 278.31225,237.389254 278.40375,237.308254 C278.43975,237.275254 278.87025,237.656254 279.47775,238.359004 C280.086,239.059504 280.854,240.096004 281.55225,241.332754 C282.24825,242.571004 282.73575,243.765004 283.02075,244.647754 C283.3065,245.531254 283.40925,246.097504 283.36125,246.111754" id="Fill-118" fill="#FDFCFB"></path>
                <path d="M285.43725,223.777504 C285.46125,223.883254 283.86825,224.340004 281.88075,224.799004 C279.891,225.258004 278.259,225.545254 278.235,225.439504 C278.211,225.334504 279.80325,224.877754 281.79225,224.418754 C283.7805,223.959004 285.4125,223.673254 285.43725,223.777504" id="Fill-119" fill="#FDFCFB"></path>
                <path d="M279.054,217.104004 C278.9685,217.170004 277.941,215.989504 276.7575,214.467754 C275.57475,212.946004 274.68525,211.659004 274.77,211.592254 C274.85475,211.526254 275.883,212.706004 277.0665,214.228504 C278.24925,215.750254 279.13875,217.037254 279.054,217.104004" id="Fill-120" fill="#FDFCFB"></path>
                <path d="M294.861,213.098254 C294.8505,213.201004 293.22,213.099004 291.2655,212.634004 C289.31025,212.173504 287.808,211.532254 287.844,211.436254 C287.8815,211.330504 289.425,211.799254 291.3555,212.253754 C293.28525,212.713504 294.8745,212.986504 294.861,213.098254" id="Fill-121" fill="#FDFCFB"></path>
                <path d="M306.10275,212.902504 C306.003,212.850004 306.624,211.495504 307.251,209.775754 C307.884,208.058254 308.28675,206.623504 308.39625,206.648254 C308.4975,206.669254 308.2605,208.164754 307.61775,209.910004 C306.9795,211.657504 306.1935,212.952004 306.10275,212.902504" id="Fill-122" fill="#FDFCFB"></path>
                <path d="M303.57375,228.139504 C303.549,228.236254 301.9905,227.844004 300.3045,226.833754 C298.61175,225.833254 297.52425,224.651254 297.597,224.583004 C297.67575,224.497504 298.8555,225.525004 300.504,226.498504 C302.145,227.482504 303.612,228.029254 303.57375,228.139504" id="Fill-123" fill="#FDFCFB"></path>
                <path d="M310.884,227.675254 C310.779,227.651254 311.148,225.657004 311.70825,223.221754 C312.2685,220.785004 312.80775,218.830504 312.91275,218.854504 C313.01775,218.878504 312.64875,220.872754 312.0885,223.308754 C311.529,225.744754 310.989,227.700004 310.884,227.675254" id="Fill-124" fill="#FDFCFB"></path>
                <path d="M304.77975,244.711504 C304.69275,244.775254 303.5055,243.298504 302.12775,241.412254 C300.75,239.525254 299.70375,237.945754 299.79075,237.882004 C299.8785,237.818254 301.06575,239.295754 302.4435,241.181254 C303.81975,243.067504 304.86675,244.647754 304.77975,244.711504" id="Fill-125" fill="#FDFCFB"></path>
                <path d="M315.1965,238.199254 C315.09225,238.247254 314.40675,236.892754 313.3275,235.378504 C312.2565,233.858254 311.20575,232.763254 311.28675,232.679254 C311.35125,232.604254 312.549,233.595754 313.64625,235.152754 C314.751,236.704504 315.2895,238.162504 315.1965,238.199254" id="Fill-126" fill="#FDFCFB"></path>
                <path d="M324.95925,236.733754 C324.8625,236.792254 323.8815,235.320754 322.5585,233.595004 C321.23925,231.864754 320.076,230.532754 320.1585,230.455504 C320.23125,230.382754 321.53475,231.608254 322.86825,233.358004 C324.207,235.103254 325.04775,236.681254 324.95925,236.733754" id="Fill-127" fill="#FDFCFB"></path>
                <path d="M322.665,243.204004 C322.54875,243.208504 322.6245,241.905004 321.771,240.645004 C320.94825,239.364754 319.7205,238.923004 319.77075,238.817254 C319.7835,238.773004 320.112,238.812754 320.5845,239.050504 C321.0555,239.285254 321.648,239.751754 322.098,240.429754 C322.5435,241.110004 322.74,241.838254 322.77,242.363254 C322.80375,242.892004 322.71075,243.208504 322.665,243.204004" id="Fill-128" fill="#FDFCFB"></path>
                <path d="M315.0495,252.076504 C314.99325,252.060754 315.0105,251.875504 314.95125,251.610754 C314.8965,251.347504 314.74275,250.992004 314.43675,250.751254 C314.1285,250.512754 313.746,250.449754 313.4775,250.460254 C313.206,250.467754 313.03125,250.530004 313.00275,250.479004 C312.97575,250.439254 313.1145,250.277254 313.4355,250.188004 C313.74525,250.098004 314.2545,250.116754 314.67675,250.443754 C315.096,250.773754 315.2385,251.262754 315.22575,251.585254 C315.21825,251.918254 315.0945,252.092254 315.0495,252.076504" id="Fill-129" fill="#FDFCFB"></path>
                <path d="M237.02175,266.259754 C237,266.350504 235.05,265.614004 233.27625,263.825254 C231.486,262.050004 230.75025,260.100754 230.841,260.079004 C230.94975,260.019004 231.81975,261.834754 233.55225,263.548504 C235.26525,265.280254 237.081,266.151004 237.02175,266.259754" id="Fill-130" fill="#FDFCFB"></path>
                <path d="M189.28125,80.110504 C188.07825,68.705254 185.89575,57.975004 185.30325,46.786504 C185.274,46.225504 185.2095,45.594004 184.7715,45.243004 C184.1745,44.765254 183.219,45.148504 182.82825,45.806254 C182.4375,46.463254 182.44575,47.274004 182.44875,48.038254 C182.47275,53.970754 181.4625,59.906254 179.4765,65.496754 C178.18725,69.127504 176.4885,72.621754 175.515,76.350004 C174.54075,80.078254 176.3595,81.342754 178.03725,84.812254" id="Fill-131" fill="#F2B499"></path>
                <path d="M150.9825,34.934254 C150.91275,35.016754 146.69475,31.584754 141.5625,27.270004 C136.428,22.953754 132.3225,19.389004 132.39225,19.306504 C132.46125,19.224004 136.6785,22.655254 141.81375,26.970754 C146.946,31.286254 151.05225,34.851754 150.9825,34.934254" id="Fill-132" fill="#1A282B"></path>
                <path d="M172.37025,29.7967571 C172.26225,29.802004 171.8385,23.136004 171.423,14.908504 C171.0075,6.67875405 170.7585,0.00525404768 170.8665,-2.13162821e-14 C170.9745,-0.00599595232 171.39825,6.65925405 171.81375,14.889004 C172.2285,23.115754 172.4775,29.791504 172.37025,29.7967571" id="Fill-133" fill="#1A282B"></path>
                <path d="M158.74875,25.032004 C158.646,25.065004 157.33125,21.261004 155.81175,16.536754 C154.2915,11.811004 153.14325,7.95375405 153.246,7.92150405 C153.34875,7.88850405 154.6635,11.691004 156.183,16.417504 C157.7025,21.141004 158.8515,24.999004 158.74875,25.032004" id="Fill-134" fill="#1A282B"></path>
                <path d="M146.60925,41.965504 C146.56425,42.063004 143.973,40.971004 140.82225,39.527254 C137.67075,38.082004 135.153,36.831004 135.198,36.733504 C135.24225,36.635254 137.8335,37.726504 140.985,39.171754 C144.13575,40.616254 146.65425,41.867254 146.60925,41.965504" id="Fill-135" fill="#1A282B"></path>
                <path d="M126.87375,33.350254 C126.861,33.457504 126.237,33.467254 125.48025,33.372754 C124.72425,33.278254 124.12125,33.114754 124.13475,33.007504 C124.14825,32.901004 124.77225,32.890504 125.529,32.985004 C126.285,33.079504 126.88725,33.243004 126.87375,33.350254" id="Fill-136" fill="#1A282B"></path>
                <path d="M153.73125,3.08175405 C153.62325,3.08175405 153.53625,2.46825405 153.53625,1.71225405 C153.53625,0.955504048 153.62325,0.342754048 153.73125,0.342754048 C153.83925,0.342754048 153.927,0.955504048 153.927,1.71225405 C153.927,2.46825405 153.83925,3.08175405 153.73125,3.08175405" id="Fill-137" fill="#1A282B"></path>
                <path d="M198.89775,13.671754 C198.978,13.743754 195.519,17.712754 191.172,22.535254 C186.82425,27.360004 183.23625,31.211254 183.156,31.139254 C183.07575,31.067254 186.53475,27.098254 190.88175,22.274254 C195.22875,17.451004 198.81825,13.599004 198.89775,13.671754" id="Fill-138" fill="#1A282B"></path>
                <path d="M204.40275,8.21775405 C204.4785,8.29425405 204.081,8.81550405 203.514,9.38250405 C202.94625,9.95025405 202.425,10.347754 202.34925,10.272004 C202.272,10.195504 202.67025,9.67350405 203.23725,9.10650405 C203.805,8.53950405 204.32625,8.14125405 204.40275,8.21775405" id="Fill-139" fill="#1A282B"></path>
                <path d="M217.77,27.418504 C217.78275,27.441754 217.419,27.656254 216.7515,28.024504 C216.084,28.393504 215.10675,28.905754 213.88875,29.518504 C211.455,30.746254 208.044,32.350504 204.201,33.946504 C200.355,35.540254 196.8105,36.821254 194.22225,37.677004 C192.92775,38.106004 191.8755,38.436004 191.14275,38.646754 C190.41075,38.859754 190.00275,38.965504 189.993623,38.940004 C189.9855,38.914504 190.3785,38.760004 191.0955,38.502004 C191.87775,38.222254 192.89925,37.857004 194.1315,37.416004 C196.69275,36.495004 200.21475,35.175754 204.051,33.585754 C207.88575,31.993504 211.3065,30.432754 213.768,29.270254 C214.95,28.710004 215.931,28.245004 216.68175,27.888754 C217.371,27.563254 217.75725,27.394504 217.77,27.418504" id="Fill-140" fill="#1A282B"></path>
                <path d="M206.79975,45.879004 C206.81325,45.927754 206.058,46.194754 204.81075,46.537504 C203.5635,46.880254 201.81975,47.286754 199.87425,47.620504 C197.9265,47.952004 196.1475,48.146254 194.85675,48.236254 C193.56675,48.327754 192.765,48.326254 192.761981,48.275254 C192.7575,48.219004 193.551,48.122254 194.82975,47.961754 C196.1085,47.801254 197.87175,47.565004 199.80825,47.235004 C201.744,46.904254 203.4855,46.542004 204.74475,46.269004 C206.004,45.996754 206.78475,45.824254 206.79975,45.879004" id="Fill-141" fill="#1A282B"></path>
                <path d="M216.76725,44.034754 C216.76725,44.142004 215.8005,44.229754 214.60725,44.229754 C213.414,44.229754 212.44725,44.142004 212.44725,44.034754 C212.44725,43.926754 213.414,43.839004 214.60725,43.839004 C215.8005,43.839004 216.76725,43.926754 216.76725,44.034754" id="Fill-142" fill="#1A282B"></path>
                <path d="M178.03725,84.812254 C175.04775,82.581004 173.45775,78.617254 174.0765,74.939254 C174.45525,72.689254 175.569,70.644754 176.45775,68.544004 C177.34725,66.444004 178.0275,64.116004 177.48525,61.900504 C177.27825,61.053004 176.8935,60.233254 176.889,59.360254 C176.8845,58.488004 177.4455,57.512254 178.3185,57.472504 C178.97625,57.442504 179.53425,57.943504 179.9475,58.456504 C181.40475,60.264754 182.5815,65.550004 181.84425,69.487504" id="Fill-143" fill="#F2B499"></path>
                <path d="M181.84425,69.487504 C181.806,69.481504 181.92,68.882254 181.965,67.788004 C182.0025,66.696004 181.95375,65.102254 181.5795,63.183004 C181.38825,62.226004 181.1175,61.185754 180.68325,60.131254 C180.46425,59.607754 180.20775,59.069254 179.844,58.606504 C179.48325,58.149754 179.004,57.690004 178.437,57.653254 C177.867,57.609004 177.372,58.110004 177.18525,58.703254 C176.97525,59.297254 177.11025,59.970004 177.309,60.633004 C177.5145,61.293754 177.75975,62.007754 177.83025,62.758504 C177.90525,63.505504 177.876,64.270504 177.74775,65.024254 C177.225,68.065504 175.6005,70.529254 174.7815,72.961504 C174.357,74.175004 174.102,75.377254 174.111,76.517254 C174.10425,77.655004 174.288,78.712504 174.573,79.639504 C175.1505,81.501754 176.1015,82.813504 176.826,83.617504 C177.5625,84.425254 178.06425,84.779254 178.03725,84.812254 C178.02975,84.822754 177.903,84.738004 177.66825,84.565504 C177.432,84.396754 177.102,84.117754 176.71575,83.721754 C175.9455,82.937254 174.9375,81.624004 174.3105,79.723504 C174.00075,78.777754 173.7945,77.691754 173.78775,76.516504 C173.76375,75.338254 174.01725,74.085004 174.441,72.843754 C175.266,70.352254 176.865,67.892254 177.3615,64.961254 C177.486,64.235254 177.51225,63.506254 177.444,62.799754 C177.37875,62.089504 177.15375,61.430254 176.94225,60.741754 C176.742,60.066754 176.5785,59.296504 176.832,58.584004 C176.94975,58.237504 177.141,57.910504 177.423,57.663754 C177.696,57.411004 178.086,57.270004 178.458,57.294004 C179.22525,57.364504 179.73075,57.912754 180.114,58.394254 C180.50775,58.907254 180.762,59.466004 180.9825,60.008254 C181.416,61.098754 181.67475,62.157754 181.85025,63.131254 C182.19525,65.082754 182.20125,66.696004 182.1165,67.797004 C182.0685,68.346754 182.01375,68.772754 181.95,69.057004 C181.893,69.342754 181.857,69.490504 181.84425,69.487504" id="Fill-144" fill="#EB916B"></path>
                <path d="M279.89625,130.401754 C280.2915,132.559504 282.34275,134.223004 284.529,134.404504 C286.71525,134.585254 288.9,133.413754 290.17725,131.630254 C291.45375,129.846004 291.8745,127.533004 291.5775,125.360254 C291.147,122.202004 289.04775,119.166754 286.00425,118.224004 C282.95925,117.281254 279.171,118.959004 278.32875,122.032504 L274.8195,126.934504 L279.89625,130.401754" id="Fill-145" fill="#1A282B"></path>
                <path d="M275.7465,120.777004 C277.17075,109.401004 268.94325,99.005254 257.39175,97.905004 C246.50475,96.867754 236.82825,104.973754 235.197,115.788004 C233.76675,125.267254 232.5375,134.836504 232.581,138.312754 C232.71525,148.793254 238.84725,152.873254 241.33275,154.098004 C241.9005,154.377754 243.46425,154.695004 244.0905,154.784254 L244.149,154.866004 L241.821,166.896754 C240.7665,174.779254 245.16675,181.809754 253.0365,182.956504 C260.9325,184.108504 267.10425,178.053004 268.31025,170.165254 L275.7465,120.777004" id="Fill-146" fill="#F2B499"></path>
                <path d="M237.00375,121.917004 C237.177,122.162254 238.56075,121.419754 240.33375,121.683004 C242.109,121.920754 243.27825,123.023254 243.5025,122.834254 C243.6105,122.751754 243.459,122.333254 242.952,121.837504 C242.454,121.345504 241.56075,120.807004 240.45525,120.650254 C239.34975,120.495754 238.35975,120.767254 237.765,121.105504 C237.159,121.444504 236.91675,121.806754 237.00375,121.917004" id="Fill-147" fill="#1A282B"></path>
                <path d="M252.78825,125.337004 C252.9615,125.581504 254.34675,124.839754 256.11825,125.103004 C257.8935,125.340754 259.06275,126.442504 259.287,126.253504 C259.395,126.171004 259.24575,125.753254 258.7365,125.257504 C258.2385,124.765504 257.34525,124.227004 256.23975,124.070254 C255.1335,123.915004 254.14425,124.186504 253.5495,124.524754 C252.94425,124.864504 252.70125,125.226004 252.78825,125.337004" id="Fill-148" fill="#1A282B"></path>
                <path d="M246.6495,133.722004 C246.672,133.622254 245.59725,133.271254 243.84375,132.782254 C243.3975,132.669754 242.98125,132.517504 242.9505,132.197254 C242.89125,131.853754 243.15225,131.393254 243.4485,130.898254 C244.03425,129.864004 244.64775,128.780254 245.2905,127.644004 C247.8675,123.003754 249.80325,119.161504 249.615,119.059504 C249.4275,118.957504 247.1865,122.635504 244.61025,127.275754 C243.98625,128.421754 243.38925,129.513754 242.82075,130.559254 C242.57475,131.048254 242.1945,131.589754 242.3265,132.302254 C242.39925,132.659254 242.69625,132.953254 242.97525,133.074004 C243.25275,133.204504 243.507,133.246504 243.72825,133.293004 C245.51325,133.651504 246.62775,133.822504 246.6495,133.722004" id="Fill-149" fill="#1A282B"></path>
                <path d="M244.1625,154.794754 C244.1625,154.794754 250.9305,156.356254 260.24925,152.454754 C260.24925,152.454754 256.2255,161.115004 243.5355,158.037004 L244.1625,154.794754" id="Fill-150" fill="#EB916B"></path>
                <path d="M246.77625,138.108004 C247.5375,137.357254 248.7225,137.056504 249.81525,137.337754 C250.572,137.532754 251.2965,138.017254 251.67225,138.712504 C252.0495,139.407754 252.01725,140.312254 251.50575,140.847754 C250.92825,141.451504 249.90525,141.460504 249.09375,141.096754 C248.28225,140.733004 247.63425,140.069254 247.02375,139.413004 C246.85425,139.231504 246.6825,139.042504 246.59325,138.814504 C246.50475,138.586504 246.519,138.307504 246.69225,138.154504" id="Fill-151" fill="#EB916B"></path>
                <path d="M251.69175,135.710254 C251.40525,135.651754 251.121,137.577004 249.273,138.704254 C247.428,139.834504 245.40675,139.319254 245.352,139.586254 C245.3085,139.704004 245.7555,140.027254 246.618,140.176504 C247.464,140.329504 248.745,140.238004 249.87525,139.548754 C251.00325,138.857254 251.59875,137.802004 251.77875,137.021254 C251.97,136.227004 251.8245,135.718504 251.69175,135.710254" id="Fill-152" fill="#1A282B"></path>
                <path d="M254.00925,119.564254 C254.11425,120.072004 255.91875,120.101254 257.964,120.656254 C260.01975,121.169254 261.609,122.022754 261.948,121.630504 C262.10175,121.441504 261.876,120.945004 261.26475,120.378754 C260.661,119.814754 259.6515,119.215504 258.42225,118.893754 C257.193,118.575754 256.02,118.607254 255.21675,118.804504 C254.40825,119.001004 253.968,119.324254 254.00925,119.564254" id="Fill-153" fill="#1A282B"></path>
                <path d="M238.7955,116.448004 C239.049,116.896504 240.33225,116.656504 241.80525,116.850754 C243.28425,116.994004 244.479,117.517504 244.827,117.138004 C244.98225,116.951254 244.84575,116.519254 244.3575,116.058754 C243.8775,115.599754 243.02625,115.158754 242.0115,115.041754 C240.9975,114.927004 240.069,115.164754 239.4975,115.502254 C238.91775,115.841254 238.68675,116.231254 238.7955,116.448004" id="Fill-154" fill="#1A282B"></path>
                <path d="M233.139,113.439004 C235.30875,116.749504 242.19225,114.705004 246.35025,112.431004 C250.728,115.332754 256.81275,114.072754 259.84575,109.636504 C262.22325,112.665754 267.05475,111.664504 268.8165,108.250504 C270.5775,104.835754 269.586,100.138504 267.1665,97.152004 C264.74775,94.164754 261.20775,92.657254 257.71275,92.011504 C249.42675,90.480754 240.40125,93.693004 235.443,101.186254 C233.15625,104.643004 231.783,109.298254 233.139,113.439004" id="Fill-155" fill="#1A282B"></path>
                <path d="M256.045556,93.194254 C256.03725,93.339754 254.08725,92.965504 251.0175,93.477004 C248.00475,93.981754 243.76125,95.553754 240.60225,99.079504 C237.51525,102.657004 236.11275,106.896004 235.6005,109.921504 C235.083,112.993504 235.4775,114.933754 235.34325,114.946575 C235.30425,114.953254 235.17525,114.480754 235.0605,113.601004 C234.9585,112.721254 234.92325,111.428254 235.12125,109.851004 C235.52775,106.728004 236.87625,102.355504 240.09075,98.625754 C243.39975,94.935004 247.83375,93.393754 250.94475,92.997754 C252.52425,92.791504 253.818,92.835754 254.6955,92.935504 C255.57675,93.030004 256.0515,93.157504 256.045556,93.194254" id="Fill-156" fill="#365158"></path>
                <path d="M244.84125,108.59854 C244.80225,108.603004 244.713,108.186754 244.6755,107.419504 C244.63425,106.653004 244.698,105.530254 245.01225,104.184004 C245.60175,101.527504 247.5285,97.855504 251.2395,95.648254 C254.97,93.471754 259.11525,93.567754 261.72525,94.341004 C263.05425,94.718254 264.0675,95.206504 264.71775,95.613754 C265.37025,96.018754 265.692,96.298504 265.66875,96.330754 C265.60125,96.454504 264.216,95.423254 261.60525,94.809754 C259.053,94.180504 255.11025,94.181254 251.58675,96.238504 C248.0805,98.322004 246.168,101.769754 245.481,104.307004 C244.752,106.887754 244.98225,108.600754 244.84125,108.59854" id="Fill-157" fill="#365158"></path>
                <path d="M264.72525,105.008254 C264.03,107.961754 263.3295,110.946754 263.327995,113.981254 C263.32575,117.015754 264.087,120.149254 266.02425,122.485504 C268.91925,125.977504 273.74775,127.036504 278.20425,127.885504 C280.59075,121.972504 281.3175,115.400254 280.281,109.108504 C279.774,106.036504 278.7855,102.909754 276.61875,100.674004 C273.492,97.446754 268.04625,96.797254 264.24825,99.197254" id="Fill-158" fill="#1A282B"></path>
                <path d="M267.2025,119.530504 C266.02725,122.064004 266.11575,124.998754 266.5215,127.763254 C266.928,130.527004 267.62925,133.269004 267.6015,136.062754 C267.5745,138.856504 266.6865,141.813004 264.49575,143.547754 C263.87325,144.040504 263.1555,144.427504 262.6335,145.026754 C262.1115,145.626004 261.8295,146.541754 262.24725,147.217504 C262.6635,147.893254 263.928,147.879004 264.11175,147.106504 L263.99775,147.301504 C263.51925,148.122004 264.1005,149.190754 265.05,149.17371 C266.53575,149.145754 268.05675,148.359754 269.052,147.207004 C270.48525,145.548754 271.05375,143.325004 271.43025,141.165754 C272.58525,134.543254 272.3595,127.680004 274.18875,121.211254" id="Fill-159" fill="#1A282B"></path>
                <path d="M241.77075,163.020004 C242.7975,167.517004 245.85375,171.507754 249.927,173.672254 C253.9995,175.836004 259.017,176.136004 263.319,174.471004 C267.20025,172.968754 270.333,170.045254 273.36075,167.187754 C274.43775,173.671504 272.6415,180.578254 268.5435,185.715754 C264.44625,190.854004 258.11175,194.142004 251.55225,194.534254 C246.58425,194.831254 241.2405,193.314004 238.11675,189.440254 C235.9365,186.735754 235.05225,183.159004 235.0875,179.685754 C235.12275,176.212504 236.0085,172.805254 237.04875,169.491004 C237.939,166.656004 239.337,163.476004 242.20575,162.700504" id="Fill-160" fill="#5198D8"></path>
                <path d="M277.35075,128.125504 C280.32,129.740254 281.952,133.111504 282.5295,136.442254 C283.10625,139.773004 282.8175,143.186254 282.95775,146.563504 C283.09875,149.941504 283.74675,153.468004 285.8805,156.090004 C288.147,158.874754 291.693,160.194004 294.8535,161.898004 C301.8465,165.669004 307.5945,172.050004 309.7005,179.709754 C311.80725,187.368754 309.897,196.227754 304.1595,201.721504 C298.938,206.721004 291.33675,208.480504 284.1075,208.45969 C278.9505,208.445254 273.28875,207.350254 270.07275,203.318254 C266.8965,199.336504 267.03975,193.643254 268.20075,188.684254 C269.36175,183.725254 271.38675,178.893754 271.46625,173.801254 C270.702,176.945254 269.352,179.946004 267.507,182.604004 C266.97825,183.363004 266.07075,184.182754 265.2555,183.747004 C264.3495,183.264754 264.69375,181.908754 265.1145,180.972004 C271.32825,167.148004 269.1645,139.287754 272.847,124.025254" id="Fill-161" fill="#1A282B"></path>
                <path d="M272.2335,126.547504 C272.42025,126.486754 279.66975,125.113504 278.739,132.283504 C277.80825,139.452754 270.8025,137.039254 270.816728,136.831504 C270.831,136.625254 272.2335,126.547504 272.2335,126.547504" id="Fill-162" fill="#F2B499"></path>
                <path d="M273.35925,134.400004 C273.39375,134.381254 273.47325,134.504254 273.67125,134.628004 C273.86475,134.748754 274.2105,134.860504 274.602,134.768254 C275.39625,134.589004 276.1905,133.469254 276.39225,132.181504 C276.49575,131.531254 276.4395,130.892254 276.27525,130.347754 C276.1245,129.795004 275.83275,129.384754 275.46,129.267004 C275.0925,129.130504 274.7925,129.324004 274.6785,129.513754 C274.55625,129.702004 274.58325,129.851254 274.5435,129.858754 C274.52175,129.873754 274.4055,129.718504 274.50225,129.429754 C274.5495,129.291004 274.656,129.132754 274.842,129.017254 C275.0325,128.899504 275.29425,128.861254 275.55675,128.924254 C276.10425,129.033754 276.53625,129.607504 276.717,130.205254 C276.92775,130.809754 277.0065,131.529754 276.89025,132.259504 C276.657,133.698754 275.742,134.954254 274.6665,135.119254 C274.14525,135.185254 273.744,134.979004 273.549,134.781004 C273.35025,134.575504 273.333,134.410504 273.35925,134.400004" id="Fill-163" fill="#EB916B"></path>
                <path d="M234.35475,178.476754 C234.30675,178.446754 234.79425,177.610504 235.57425,176.260504 C236.343,174.909004 237.417,173.032504 238.1625,170.792254 C238.905,168.552754 239.031,166.380004 238.809,164.857504 C238.602,163.325254 238.164,162.446254 238.2345,162.418504 C238.25625,162.408754 238.38375,162.616504 238.56,163.020754 C238.73775,163.424254 238.9395,164.035504 239.082,164.814754 C239.382,166.368004 239.29575,168.618754 238.533,170.913754 C237.77025,173.205754 236.64225,175.083004 235.81125,176.403004 C235.3905,177.063754 235.03575,177.587254 234.78225,177.944254 C234.5295,178.300504 234.378,178.491004 234.35475,178.476754" id="Fill-164" fill="#1A282B"></path>
                <path d="M238.01325,170.199754 C237.90525,170.225254 237.70125,169.588504 237.06,169.156504 C236.43225,168.704254 235.764,168.732754 235.75125,168.622504 C235.74375,168.574504 235.91025,168.489754 236.205,168.485254 C236.4975,168.477754 236.9115,168.577504 237.2835,168.836254 C237.65475,169.095754 237.891,169.449754 237.98475,169.725754 C238.08225,170.004754 238.06125,170.190004 238.01325,170.199754" id="Fill-165" fill="#FDFCFB"></path>
                <path d="M242.643,170.189254 C242.541,170.249254 241.9725,169.216504 240.79725,168.457504 C239.6355,167.676754 238.4625,167.562004 238.4775,167.445754 C238.458,167.346004 239.7465,167.286754 241.01175,168.131254 C242.28825,168.960754 242.742,170.168254 242.643,170.189254" id="Fill-166" fill="#FDFCFB"></path>
                <path d="M245.55825,185.406004 C245.4525,185.384254 245.64675,184.013254 245.991,182.343754 C246.336,180.673504 246.70125,179.337754 246.807,179.360254 C246.91275,179.382004 246.71925,180.753004 246.37425,182.423254 C246.02925,184.092004 245.66325,185.427754 245.55825,185.406004" id="Fill-167" fill="#FDFCFB"></path>
                <path d="M257.25825,187.701009 C257.151,187.698004 257.10825,186.247504 257.16375,184.463254 C257.22,182.678254 257.352,181.235254 257.46,181.237501 C257.568,181.241254 257.61,182.691004 257.5545,184.476004 C257.499,186.260254 257.36625,187.704004 257.25825,187.701009" id="Fill-168" fill="#FDFCFB"></path>
                <polyline id="Fill-169" fill="#BB826E" points="18.3705 221.026504 6.807 271.392754 31.2645 271.467754 42.564 227.177254 18.3705 221.026504"></polyline>
                <path d="M138.48075,159.156754 C136.1565,156.039004 133.48575,153.046504 132.2595,149.355754 C131.66775,147.573004 131.436,145.683004 130.80525,143.913754 C130.17525,142.143754 129.03,140.419504 127.2735,139.751254 C125.51775,139.083754 124.18575,139.761004 123.042,141.009004 L114.64875,165.556504 L119.48925,184.414504 C124.3155,183.325504 130.36575,182.037004 134.877,180.003754 C139.38675,177.969754 142.40925,174.716254 142.6905,169.776004 C142.91175,165.893254 140.80575,162.274504 138.48075,159.156754" id="Fill-170" fill="#1A282B"></path>
                <path d="M62.1045,154.815754 C62.1045,154.815754 32.928,167.517004 29.28225,173.247004 C25.63575,178.976254 13.65675,219.828004 13.65675,219.828004 L44.373,228.866254 L43.86675,271.392754 L119.24325,271.392754 L118.6215,196.414504 L109.16475,154.967254 C109.16475,154.967254 92.52225,153.895504 90.98175,153.136504 C89.442,152.376754 62.1045,154.815754 62.1045,154.815754" id="Fill-171" fill="#5198D8"></path>
                <path d="M165.78375,50.855254 C166.0245,49.134754 164.82075,47.245504 165.68475,45.738004 C166.1625,44.905504 167.12625,44.503504 168.02175,44.158504 C168.48375,43.980004 168.96225,43.799254 169.45725,43.815004 C169.95225,43.831504 170.475,44.097004 170.637,44.565004 C170.82825,45.114004 170.475,45.702754 170.06325,46.112254 C169.65225,46.523254 169.1505,46.881004 168.93075,47.418754 C168.636,48.138754 168.906,50.394004 169.2045,51.111754 C169.71825,52.343254 171.52725,57.813004 171.6855,59.137504" id="Fill-172" fill="#BB826E"></path>
                <path d="M159.627,51.449254 C159.73425,48.845254 161.84475,38.589004 161.952,35.985754 C163.71225,36.528754 164.733,38.403754 165.06525,40.215754 C165.39675,42.027754 165.225,43.901254 165.5385,45.716254 C165.95925,48.153754 167.226,50.351254 168.504,52.469254 C169.78125,54.587254 171.11175,56.731504 171.6855,59.137504 C172.2585,61.543504 174.438,67.775254 172.743,69.576754" id="Fill-173" fill="#BB826E"></path>
                <path d="M159.13725,68.998504 L148.70925,118.560004 C148.34175,120.798754 109.16475,154.967254 109.16475,154.967254 L116.9025,185.876254 L167.9415,135.977254 C171.62175,132.041254 173.6235,126.826504 173.52375,121.439254 L172.65825,74.936254 L159.13725,68.998504" id="Fill-174" fill="#BB826E"></path>
                <path d="M157.35675,51.762004 L159.13725,68.998504 L172.65825,74.936254 C172.65825,74.936254 172.82325,73.711504 173.4045,67.740004 C174.04575,61.149754 166.962,58.321504 163.80675,53.459254 C162.45675,51.377254 162.81,47.551504 161.76675,42.812254 C161.64675,42.265504 160.893,38.954254 160.488,37.173754 C160.26375,36.189754 159.7065,35.301004 158.868,34.738504 C158.259,34.329004 157.56675,34.125004 157.05975,34.735504 C156.54375,35.358004 157.35675,51.762004 157.35675,51.762004" id="Fill-175" fill="#BB826E"></path>
                <path d="M165.7845,71.891254 C167.3205,70.593004 167.649,68.267254 167.0805,66.338254 C166.512,64.408504 165.21225,62.790004 163.8945,61.270504 C162.57675,59.751004 161.187,58.239754 160.37625,56.399254 C159.80475,55.103254 159.54,53.684254 158.91075,52.415254 C158.28075,51.147004 157.134,49.984504 155.7195,49.929004 C156.84975,57.060754 156.82275,61.164754 159.13725,68.998504" id="Fill-176" fill="#BB826E"></path>
                <path d="M157.0965,58.047754 C157.10025,58.074754 157.0425,57.852004 156.95775,57.476254 C156.8565,57.020254 156.7365,56.478754 156.5955,55.842754 C156.27975,54.351754 155.871,52.425004 155.406,50.232004 L155.36175,50.022004 L155.58,50.004754 C156.47025,49.935004 157.3965,50.328754 158.10075,50.948254 C159.28125,51.952504 159.81975,53.364004 160.212,54.558754 C160.60425,55.774504 160.941,56.856004 161.3985,57.688504 C161.81475,58.545754 162.38925,59.065504 162.71775,59.508004 C163.04475,59.941504 163.1865,60.205504 163.167,60.219004 C163.14225,60.237004 162.9585,60.001504 162.60075,59.605504 C162.25725,59.215504 161.622,58.694254 161.157,57.822004 C160.65375,56.980504 160.278,55.871254 159.8715,54.675004 C159.462,53.489254 158.937,52.170754 157.84575,51.243754 C157.1925,50.672254 156.378,50.329504 155.60325,50.382754 L155.77725,50.156254 C156.67125,54.673504 157.25925,58.054504 157.0965,58.047754" id="Fill-177" fill="#7C4B3D"></path>
                <path d="M163.15875,53.6625628 C163.05225,53.678254 162.495,50.527504 161.91375,46.625254 C161.33325,42.721504 160.94925,39.546004 161.05575,39.5301952 C161.16225,39.514504 161.7195,42.664504 162.30075,46.567504 C162.88125,50.469754 163.26525,53.646754 163.15875,53.6625628" id="Fill-178" fill="#7C4B3D"></path>
                <path d="M167.45925,54.240754 C167.4795,54.237754 167.5125,54.322504 167.55825,54.505504 L167.442,54.530254 C167.18925,53.909254 166.59975,51.966004 166.08075,49.626754 C165.75825,48.180004 165.522,46.858504 165.38175,45.897004 C165.2415,44.935504 165.1935,44.335504 165.246,44.326504 C165.35625,44.308504 165.8175,46.659754 166.4625,49.542004 C166.9785,51.870754 167.4555,53.835754 167.55675,54.498004 L167.4405,54.522754 C167.43225,54.334504 167.439,54.243754 167.45925,54.240754" id="Fill-179" fill="#7C4B3D"></path>
                <path d="M170.11875,63.744004 C170.06325,63.777754 169.791,63.355504 169.248,62.777254 C168.70725,62.197504 167.85825,61.488754 166.773,60.961504 C165.684,60.439504 164.601,60.216004 163.81125,60.153754 C163.02075,60.088504 162.52125,60.138754 162.51225,60.074254 C162.50475,60.032254 162.99675,59.883004 163.82325,59.877754 C164.64525,59.870254 165.7995,60.060754 166.9425,60.609754 C168.08325,61.163254 168.951,61.947754 169.4565,62.595754 C169.96725,63.246004 170.15625,63.724504 170.11875,63.744004" id="Fill-180" fill="#7C4B3D"></path>
                <path d="M160.3605,70.359004 C160.31475,70.377004 159.9525,69.606754 159.47325,68.319004 C158.9925,67.032004 158.41125,65.220754 157.92225,63.180004 C157.43475,61.138504 157.13325,59.259754 156.9795,57.894754 C156.82425,56.529004 156.79875,55.678504 156.84825,55.6739721 C156.906,55.668004 157.029,56.507254 157.25325,57.856504 C157.476,59.205004 157.818,61.062004 158.30175,63.089254 C158.78775,65.115004 159.3225,66.925504 159.73425,68.229754 C160.1445,69.533254 160.4145,70.338004 160.3605,70.359004" id="Fill-181" fill="#7C4B3D"></path>
                <path d="M100.01325,155.845504 C101.2695,153.755254 104.349,153.035254 106.401,154.352254 C111.90675,149.875504 117.53625,145.485754 123.042,141.009004 C121.24575,149.983504 120.0615,162.561754 124.06875,170.790754 C124.06875,170.790754 129.14475,180.230254 137.22975,178.785754 L130.0215,185.876254 L118.6215,196.414504" id="Fill-182" fill="#5198D8"></path>
                <path d="M98.22375,160.060504 C98.12775,160.066504 98.22975,158.392504 99.285,156.675754 C100.32375,154.948504 101.76225,154.087504 101.802,154.175254 C101.8785,154.269004 100.60575,155.231254 99.61875,156.879004 C98.61075,158.513254 98.34225,160.085254 98.22375,160.060504" id="Fill-183" fill="#1A282B"></path>
                <path d="M104.16975,165.575254 C104.13375,165.591754 103.806,164.995504 103.5435,163.935004 C103.27725,162.880504 103.13925,161.346004 103.42875,159.696004 C103.72425,158.046754 104.38125,156.653254 104.99325,155.753254 C105.60525,154.848004 106.1175,154.401004 106.14525,154.428754 C106.19625,154.473754 105.76275,154.982254 105.228,155.899504 C104.691,156.813754 104.09925,158.172004 103.8135,159.764254 C103.5345,161.357254 103.623,162.835504 103.8135,163.878754 C104.001,164.924254 104.2335,165.550504 104.16975,165.575254" id="Fill-184" fill="#1A282B"></path>
                <path d="M131.73,184.875004 C131.73,184.875004 131.15175,185.278504 129.9345,185.595754 C128.733,185.920504 126.8505,186.069754 124.68075,185.437504 C122.511,184.829254 120.17325,183.267754 118.36425,180.908254 C116.52525,178.561504 115.2795,175.458004 114.597,172.125754 C113.30625,165.426004 113.358,159.219754 113.69775,154.791004 C113.8725,152.571754 114.1215,150.786754 114.32475,149.559754 C114.42225,148.946254 114.51675,148.472254 114.582,148.151254 C114.64725,147.830254 114.6885,147.663754 114.702,147.665982 C114.71475,147.668254 114.7005,147.840004 114.66,148.164754 C114.61275,148.528504 114.55125,148.998754 114.4755,149.581504 C114.31875,150.813004 114.11175,152.597254 113.97375,154.809754 C113.7045,159.222754 113.70075,165.408004 114.97875,172.045504 C115.6545,175.341004 116.868,178.383004 118.64925,180.689254 C120.40425,183.008254 122.658,184.547254 124.761,185.172754 C126.867,185.823004 128.7075,185.722504 129.9,185.448004 C131.106,185.181754 131.712,184.830004 131.73,184.875004" id="Fill-185" fill="#FDFCFB"></path>
                <path d="M44.535,241.486504 C44.427,241.486504 44.34,230.826004 44.34,217.677004 C44.34,204.524254 44.427,193.865254 44.535,193.865254 C44.643,193.865254 44.73,204.524254 44.73,217.677004 C44.73,230.826004 44.643,241.486504 44.535,241.486504" id="Fill-186" fill="#1A282B"></path>
                <path d="M43.92975,185.640006 C43.84875,185.641504 43.872,184.573504 43.5045,182.915254 C43.32975,182.085004 43.0125,181.122754 42.5685,180.096004 C42.10125,179.079754 41.49225,178.006504 40.71525,176.973754 C39.924,175.952254 39.048,175.081504 38.1915,174.362254 C37.31775,173.664004 36.47325,173.104504 35.71875,172.716754 C34.21575,171.924754 33.1785,171.666004 33.2025,171.588754 C33.20925,171.562504 33.46875,171.618004 33.93525,171.741754 C34.17,171.798754 34.45425,171.881254 34.77075,172.014004 C35.08875,172.141504 35.463,172.263754 35.84325,172.470004 C36.62925,172.833754 37.50975,173.382004 38.41725,174.081754 C39.3075,174.802504 40.21425,175.689004 41.02575,176.736004 C41.82225,177.795754 42.438,178.903504 42.8985,179.952754 C43.335,181.012504 43.632,182.005504 43.77525,182.859754 C43.87425,183.281254 43.89375,183.673504 43.93275,184.014754 C43.977,184.355254 43.9815,184.650754 43.97475,184.892254 C43.97175,185.375254 43.95675,185.640006 43.92975,185.640006" id="Fill-187" fill="#1A282B"></path>
                <path d="M95.30325,154.492487 C95.31675,154.490254 95.35875,154.707004 95.42775,155.124004 C95.511,155.539504 95.5725,156.159004 95.622,156.960754 C95.706,158.561254 95.55975,160.923004 94.68525,163.674754 C93.78675,166.395754 92.10075,169.521754 89.25075,172.090504 C86.43525,174.681004 82.38675,176.453254 77.98875,176.796004 C73.587,177.113254 69.318,175.964254 66.14775,173.822254 C62.946,171.706504 60.813,168.866254 59.51925,166.309504 C58.2435,163.719004 57.74775,161.405254 57.5925,159.810754 C57.522,159.010504 57.48975,158.388754 57.51075,157.965754 C57.51675,157.543504 57.52575,157.323004 57.53925,157.323004 C57.55275,157.323754 57.57,157.545004 57.5895,157.964254 C57.594,158.385754 57.65025,159.002254 57.74325,159.793504 C57.9435,161.368504 58.476,163.645504 59.76525,166.184254 C61.0725,168.690754 63.19575,171.464254 66.345,173.520754 C69.4605,175.603504 73.64175,176.716504 77.9595,176.406754 C82.2735,176.069254 86.241,174.345004 89.01075,171.822004 C91.818,169.319254 93.504,166.260754 94.4235,163.587004 C95.319,160.884754 95.5065,158.553754 95.46975,156.966004 C95.44425,156.169504 95.40825,155.550754 95.34975,155.134504 C95.30625,154.716004 95.28975,154.494754 95.30325,154.492487" id="Fill-188" fill="#1A282B"></path>
                <path d="M43.8871447,219.558754 C43.85325,219.661504 37.659,217.706254 30.05325,215.193754 C22.4445,212.679754 16.3065,210.559504 16.3401115,210.456754 C16.37475,210.354754 22.5675,212.308504 30.17625,214.822504 C37.78125,217.335004 43.9215,219.456004 43.8871447,219.558754" id="Fill-189" fill="#FDFCFB"></path>
                <path d="M117.8925,209.151004 C117.8925,209.259004 101.352,209.416504 80.952,209.502004 C60.5445,209.587504 44.00625,209.569504 44.00625,209.461504 C44.0055,209.353504 60.543,209.196754 80.9505,209.110504 C101.34975,209.025004 117.89175,209.043754 117.8925,209.151004" id="Fill-190" fill="#FDFCFB"></path>
                <path d="M118.266,215.679754 C118.266,215.787754 101.6415,215.874754 81.13875,215.874754 C60.6285,215.874754 44.007,215.787754 44.007,215.679754 C44.007,215.571754 60.6285,215.484754 81.13875,215.484754 C101.6415,215.484754 118.266,215.571754 118.266,215.679754" id="Fill-191" fill="#FDFCFB"></path>
                <path d="M108.0825,223.616929 C108.09525,223.622254 108.0225,223.830004 107.8725,224.223004 C107.706,224.646754 107.48175,225.216754 107.19975,225.933754 C107.04975,226.308004 106.88475,226.719754 106.70475,227.167504 C106.512,227.613004 106.27725,228.086254 106.038,228.600754 C105.54525,229.622254 105.033,230.811004 104.3205,232.050754 C103.97775,232.678504 103.62,233.335504 103.2465,234.019504 C102.8685,234.702754 102.4185,235.378504 101.9835,236.097004 C101.1315,237.546754 100.077,239.002504 98.99775,240.553504 C96.74925,243.590254 94.07325,246.783004 90.972,249.853504 C87.83925,252.895504 84.59475,255.510004 81.51375,257.698504 C79.94175,258.747004 78.4665,259.773004 76.9995,260.595754 C76.27275,261.016504 75.58725,261.453754 74.898,261.819004 C74.2065,262.178254 73.54275,262.523254 72.90825,262.854004 C71.655,263.541754 70.45575,264.030004 69.42525,264.503254 C68.90625,264.732754 68.42925,264.957754 67.97925,265.141504 C67.52775,265.312504 67.113,265.470004 66.7365,265.612504 C66.0135,265.880254 65.43975,266.093254 65.013,266.251504 C64.61775,266.393254 64.40775,266.461504 64.4031758,266.449504 C64.39875,266.436754 64.599,266.343004 64.98525,266.177254 C65.4045,266.003254 65.96925,265.767754 66.6795,265.471504 C67.0515,265.320004 67.461,265.152004 67.9065,264.970504 C68.3505,264.777004 68.82225,264.542254 69.33525,264.304504 C70.3545,263.813254 71.541,263.309254 72.7815,262.608754 C73.41,262.272004 74.067,261.921004 74.75175,261.555004 C75.43425,261.185254 76.11225,260.743504 76.833,260.318254 C78.2865,259.486504 79.74825,258.455254 81.30675,257.403754 C84.3615,255.209254 87.582,252.601504 90.69825,249.575254 C93.78375,246.519004 96.45375,243.351754 98.7075,240.340504 C99.78975,238.802254 100.8495,237.361504 101.709,235.924504 C102.14775,235.212754 102.603,234.543754 102.98625,233.868004 C103.365,233.191504 103.7295,232.541254 104.0775,231.919504 C104.80275,230.693254 105.33075,229.516504 105.84075,228.507754 C106.089,227.999254 106.33275,227.532004 106.53525,227.091754 C106.72575,226.649254 106.9005,226.243504 107.06025,225.874504 C107.37,225.170254 107.61675,224.610004 107.79975,224.194504 C107.973,223.811254 108.06975,223.612504 108.0825,223.616929" id="Fill-192" fill="#1A282B"></path>
                <g id="Group-195" transform="translate(67.374000, 229.588504)">
                    <mask id="mask-2" fill="white">
                        <use xlink:href="#path-1"></use>
                    </mask>
                    <g id="Clip-194"></g>
                    <polygon id="Fill-193" fill="#488BC7" mask="url(#mask-2)" points="-0.1605 32.889 37.6605 32.889 37.6605 0.552 -0.1605 0.552"></polygon>
                </g>
                <path d="M74.493,261.693004 C74.5785,261.647254 74.66475,261.601504 74.75175,261.555004 C75.43425,261.185254 76.11225,260.743504 76.833,260.318254 C78.2865,259.486504 79.74825,258.455254 81.30675,257.403754 C84.3615,255.209254 87.582,252.601504 90.69825,249.575254 C93.78375,246.519004 96.45375,243.351754 98.7075,240.340504 C99.78975,238.802254 100.8495,237.361504 101.709,235.924504 C102.14775,235.212754 102.603,234.543754 102.98625,233.868004 C103.365,233.191504 103.7295,232.541254 104.0775,231.919504 C104.13075,231.830254 104.1825,231.741004 104.2335,231.651754 C102.357,235.134754 100.275,238.619254 97.94325,241.947004 C95.9265,244.557754 93.60225,247.249504 90.972,249.853504 C87.83925,252.895504 84.59475,255.510004 81.51375,257.698504 C79.94175,258.747004 78.4665,259.773004 76.9995,260.595754 C76.88475,260.662504 76.77075,260.729254 76.65825,260.796004 C75.9495,261.114004 75.2265,261.414754 74.493,261.693004" id="Fill-196" fill="#111819"></path>
                <path d="M52.59075,96.670504 C49.42575,99.155254 49.212,103.796254 49.37025,107.817004 C49.52775,111.837754 49.575,116.410504 46.66125,119.186254 C44.2605,121.473754 40.06125,122.323504 39.3705,125.567254 C39.048,127.080754 39.76875,128.760004 41.088,129.568504 C42.40725,130.377004 44.23125,130.257004 45.4335,129.283504 C44.41575,131.821504 44.87775,135.081754 47.04225,136.752754 C49.20675,138.423754 53.001,137.643004 53.82375,135.036004 C53.31675,136.764004 54.50325,138.795004 56.2575,139.202254 C58.01175,139.609504 59.9715,138.308254 60.2775,136.533754" id="Fill-197" fill="#1A282B"></path>
                <path d="M98.52075,125.781754 C99.18075,127.812754 101.673,129.030004 103.68075,128.301754 C105.68925,127.574254 106.8225,125.043754 106.0275,123.060754 C105.40425,121.505254 103.81125,120.327754 103.73475,118.653004 C103.64175,116.626504 105.76725,115.287754 107.6355,114.496504 C109.5045,113.705254 111.69525,112.665004 111.99075,110.657254 C112.275,108.719254 110.607,107.120254 109.20975,105.747004 C107.81325,104.373754 106.4745,102.290254 107.45775,100.596004 C107.961,99.729754 108.9435,99.264754 109.6005,98.507254 C111.05475,96.832504 110.472,94.024504 108.79275,92.574754 C107.11425,91.124254 104.7045,90.816754 102.50475,91.104004 C100.305,91.390504 98.21025,92.195254 96.05625,92.724754 C88.9515,94.470004 81.13125,93.059254 75.08475,88.941004" id="Fill-198" fill="#1A282B"></path>
                <path d="M54.73725,112.135504 L62.4585,156.866254 C63.81675,164.733754 71.3175,169.992754 79.17675,168.588004 C86.52,167.275504 91.644,160.566754 90.98175,153.136504 C90.62925,149.171254 90.3255,145.886254 90.3255,145.886254 C90.3255,145.886254 101.53125,143.008504 100.56225,131.619004 C100.09425,126.115504 98.208,114.857254 96.3825,104.692504 C94.42275,93.776254 84.396,86.202004 73.35675,87.278254 L72.2595,87.384754 C60.492,89.229754 52.5675,100.422754 54.73725,112.135504" id="Fill-199" fill="#BB826E"></path>
                <path d="M93.99075,112.071004 C94.1055,112.926004 93.47475,113.727004 92.5845,113.862754 C91.69575,113.997754 90.88125,113.416504 90.76725,112.561504 C90.65325,111.706504 91.28325,110.904004 92.172,110.768254 C93.06225,110.633254 93.8775,111.216004 93.99075,112.071004" id="Fill-200" fill="#1A282B"></path>
                <path d="M94.48275,110.514004 C94.30275,110.745004 92.98275,109.954504 91.23525,110.129254 C89.487,110.279254 88.2915,111.303754 88.0815,111.108004 C87.97875,111.022504 88.14675,110.619754 88.66575,110.158504 C89.17575,109.700254 90.07575,109.215004 91.16475,109.113004 C92.2545,109.013254 93.20925,109.324504 93.7755,109.683754 C94.35375,110.043754 94.57275,110.409004 94.48275,110.514004" id="Fill-201" fill="#1A282B"></path>
                <path d="M76.88775,114.067504 C77.00175,114.922504 76.37175,115.723504 75.4815,115.859254 C74.59275,115.994254 73.77825,115.413004 73.66425,114.558004 C73.55025,113.703004 74.18025,112.900504 75.069,112.765504 C75.95925,112.629754 76.77375,113.213254 76.88775,114.067504" id="Fill-202" fill="#1A282B"></path>
                <path d="M77.33175,112.515004 C77.151,112.746004 75.8295,111.955504 74.0835,112.130254 C72.33525,112.280254 71.13975,113.304754 70.929,113.109004 C70.827,113.023504 70.99275,112.621504 71.514,112.160254 C72.02475,111.701254 72.924,111.216004 74.013,111.114004 C75.10275,111.014254 76.0575,111.325504 76.6245,111.684754 C77.2005,112.044754 77.421,112.410004 77.33175,112.515004" id="Fill-203" fill="#1A282B"></path>
                <path d="M84.93975,124.860754 C84.92175,124.761754 85.9905,124.468504 87.729,124.071004 C88.17075,123.981754 88.58475,123.852004 88.6305,123.540004 C88.704,123.207004 88.47,122.744254 88.203,122.245504 C87.678,121.206754 87.129,120.117004 86.55225,118.975504 C84.24675,114.314254 82.53225,110.464504 82.7205,110.373754 C82.90875,110.282254 84.93,113.985754 87.2355,118.647004 C87.79275,119.797504 88.32525,120.893254 88.833,121.943254 C89.05125,122.433754 89.39775,122.981254 89.235,123.672754 C89.14725,124.017754 88.8435,124.292254 88.56525,124.396504 C88.28775,124.512004 88.0365,124.541254 87.8175,124.575754 C86.05425,124.844254 84.95625,124.959004 84.93975,124.860754" id="Fill-204" fill="#1A282B"></path>
                <path d="M77.11575,105.620254 C76.989,106.111504 75.222,106.056754 73.1955,106.503754 C71.15925,106.910254 69.564,107.672254 69.2505,107.272504 C69.1095,107.079754 69.35325,106.605004 69.978,106.080004 C70.596,105.555754 71.61075,105.015754 72.82875,104.758504 C74.04675,104.504254 75.1935,104.589754 75.96975,104.820754 C76.752,105.050254 77.1675,105.387004 77.11575,105.620254" id="Fill-205" fill="#1A282B"></path>
                <path d="M93.34725,105.517504 C93.07875,105.944254 91.8345,105.649504 90.384,105.771004 C88.92975,105.842254 87.73575,106.298254 87.41325,105.910504 C87.27,105.721504 87.42375,105.304504 87.92325,104.876254 C88.4145,104.451004 89.268,104.058754 90.2655,103.991254 C91.26375,103.926004 92.1615,104.202004 92.7045,104.559754 C93.2565,104.917504 93.46425,105.310504 93.34725,105.517504" id="Fill-206" fill="#1A282B"></path>
                <path d="M65.87175,98.457754 L65.81475,98.513254 C64.143,100.119754 63.147,102.306754 63.0525,104.623504 C63.04875,104.705254 63.04575,104.782504 63.04275,104.856754 C62.9145,108.144004 63.3165,111.437254 63.156,114.723754 C62.9955,118.010254 62.19375,121.416004 60.0165,123.882004 C59.12025,124.896004 57.43875,125.698504 56.52375,124.701004 C56.16975,124.315504 56.06475,123.769504 55.97325,123.253504 C54.60375,115.479004 51.786,108.736504 51.003,100.543504 C50.78925,98.313004 51.6345,96.117754 53.3205,94.642504 C54.91575,93.246754 56.886,91.767754 58.8795,92.484004 C60.879,93.202504 63.6915,96.528004 65.31675,97.896754" id="Fill-207" fill="#1A282B"></path>
                <path d="M59.07375,116.908504 C58.872,116.843254 51.03225,115.359004 52.03875,123.111004 C53.046,130.863754 60.62175,128.254504 60.6060245,128.030254 C60.591,127.806004 59.07375,116.908504 59.07375,116.908504" id="Fill-208" fill="#BB826E"></path>
                <path d="M57.8565,125.400754 C57.819,125.379754 57.7335,125.512504 57.519,125.646754 C57.30975,125.778004 56.93625,125.898004 56.5125,125.798254 C55.6545,125.604754 54.79575,124.393504 54.57675,123.001504 C54.465,122.298754 54.52575,121.607254 54.7035,121.018504 C54.867,120.420754 55.182,119.976754 55.58475,119.850004 C55.983,119.702254 56.307,119.910754 56.43,120.116254 C56.562,120.320254 56.53275,120.480754 56.5755,120.489004 C56.60025,120.505504 56.7255,120.337504 56.62125,120.025504 C56.56875,119.876254 56.45475,119.704504 56.25375,119.579254 C56.0475,119.452504 55.764,119.410504 55.4805,119.478754 C54.888,119.598004 54.4215,120.218254 54.22575,120.864004 C53.99775,121.517254 53.913,122.296504 54.03825,123.085504 C54.291,124.641754 55.28025,126.000004 56.44275,126.177754 C57.00675,126.249754 57.44025,126.026254 57.65175,125.812504 C57.867,125.589754 57.885,125.411254 57.8565,125.400754" id="Fill-209" fill="#7C4B3D"></path>
                <path d="M58.734,93.713254 C56.51625,90.789004 61.32675,85.809754 65.0475,84.225754 C68.76825,82.641754 74.00625,84.019504 77.94975,84.914254 C80.4375,85.478254 82.94775,86.359504 85.47525,86.007004 C87.1695,85.771504 88.7325,84.994504 90.28275,84.270754 C91.833,83.547004 93.4515,82.853254 95.16225,82.803754 C96.87225,82.753504 98.70975,83.487004 99.50775,85.000504 C100.30575,86.513254 99.5925,88.762504 97.929,89.161504 C99.966,87.768754 103.2315,89.019754 103.818,91.416754 C104.4045,93.813754 102.08775,96.430504 99.6375,96.140254 C100.662,95.193754 102.492,96.413254 102.4905,97.807504 C102.48825,99.201754 101.334,100.328254 100.1175,101.010004 C97.014,102.750754 93.18825,102.664504 89.721,101.862004 C86.25375,101.059504 82.9695,99.603004 79.52325,98.714254 C76.077,97.825504 70.29075,96.192004 67.06575,97.695004 C64.6905,98.802004 63.26775,101.931754 61.815,101.412754 C60.411,100.911754 59.42325,99.588754 59.013,98.156254 C58.602,96.722254 58.6665,95.202754 58.734,93.713254" id="Fill-210" fill="#1A282B"></path>
                <path d="M59.16975,118.237504 C59.39325,122.346754 59.6205,126.483004 60.57975,130.485004 C61.53825,134.487754 63.27975,138.391504 66.165,141.326254 C69.9465,145.172254 74.8365,148.858504 80.1585,149.733754 C85.97025,150.690754 93.081,149.481004 97.812,145.971754 C100.05525,144.307504 101.6895,140.712754 100.99425,138.007504 C102.9045,137.133004 104.256,135.149254 104.37075,133.051504 C104.48625,130.954504 103.209,128.330254 101.547,128.048254 C102.7965,127.843504 103.14975,125.864254 102.6825,124.743004 C102.195,123.573754 100.566,123.288754 99.32175,123.528754 C98.0775,123.767254 96.99225,124.502254 95.97075,125.252254 C94.94925,126.000754 93.9255,126.795754 92.721,127.188004 C90.44325,127.928254 88.1475,127.110754 85.81725,126.292504 C84.03525,125.667754 82.233,125.042254 80.40375,125.113504 C76.58475,125.262004 73.18725,128.431504 69.40275,127.899004 C67.28775,127.602004 65.469,126.139504 64.302,124.350004 C63.13575,122.561254 63.64425,115.937254 63.1845,113.851504 L59.16975,118.237504" id="Fill-211" fill="#1A282B"></path>
                <path d="M83.78175,137.184004 C83.778,137.184004 83.77425,137.182504 83.772,137.180254 C83.73675,137.155504 83.9205,136.811254 84.38325,136.392004 C84.8385,135.974254 85.605,135.507004 86.55525,135.334504 C86.82675,135.285754 87.09225,135.264004 87.3465,135.264004 C87.98325,135.264004 88.55025,135.397504 88.95975,135.563254 C89.54025,135.794254 89.8335,136.051504 89.8095,136.087504 C89.80575,136.093504 89.79825,136.096504 89.78625,136.096504 C89.69775,136.096504 89.379,135.945754 88.87875,135.808504 C88.50525,135.704254 88.02075,135.618754 87.4815,135.618754 C87.20625,135.618754 86.91675,135.640504 86.6205,135.694504 C85.74525,135.852754 85.0185,136.246504 84.54525,136.593004 C84.096,136.917754 83.847,137.184004 83.78175,137.184004" id="Fill-212" fill="#2B4045"></path>
                <path d="M81.59925,127.470754 C81.882,127.426504 82.07025,129.324004 83.826,130.512004 C85.57875,131.705254 87.58125,131.295754 87.62175,131.559004 C87.66,131.675254 87.207,131.971504 86.35575,132.078754 C85.521,132.188254 84.2715,132.038254 83.1975,131.311504 C82.1265,130.582504 81.59325,129.521254 81.45225,128.749504 C81.303,127.963504 81.46875,127.472254 81.59925,127.470754" id="Fill-213" fill="#FFFFFE"></path>
                <path d="M75.958334,148.463254 C75.9645,148.452004 76.134,148.515004 76.4475,148.644004 C76.767,148.763254 77.24025,148.932004 77.86425,149.103004 C79.107,149.453254 80.9535,149.827504 83.26125,149.950504 C84.41325,150.016504 85.6815,150.010504 87.03075,149.874754 C88.3815,149.763004 89.811,149.487754 91.26525,149.048254 C92.72625,148.624504 94.19175,147.959254 95.58675,147.078004 C96.9825,146.202754 98.3175,145.089754 99.32775,143.673004 C100.52175,141.997504 101.1315,139.903504 100.80975,138.051754 L100.782,137.892004 L100.9215,137.832004 C101.87925,137.422504 102.66225,136.692754 103.26525,135.900004 C103.5645,135.500254 103.8255,135.078754 104.01975,134.641504 C104.211,134.210254 104.31,133.743004 104.3565,133.285504 C104.53275,131.433754 103.707,129.716254 102.552,128.746504 L102.444,128.656504 L102.5325,128.547004 C103.29525,127.599754 103.34475,126.345754 102.993,125.461504 C102.645,124.548004 101.898,124.016254 101.26725,123.771004 C100.62225,123.517504 100.065,123.517504 99.7035,123.553504 C99.339,123.595504 99.15375,123.662254 99.14775,123.642754 C99.14775,123.642754 99.32175,123.542254 99.69225,123.472504 C100.05975,123.408754 100.638,123.380254 101.322,123.623254 C101.99025,123.855754 102.80475,124.398004 103.203,125.376754 C103.599,126.322504 103.5795,127.665754 102.75375,128.726254 L102.73425,128.527504 C103.974,129.540754 104.86725,131.339254 104.6985,133.317754 C104.652,133.806754 104.55225,134.305504 104.3445,134.783254 C104.139,135.254254 103.8675,135.696754 103.55625,136.119004 C102.92775,136.953004 102.11475,137.727754 101.067,138.182254 L101.178,137.961754 C101.53725,139.988254 100.887,142.140754 99.64725,143.897254 C98.5965,145.371004 97.21875,146.511754 95.79075,147.401254 C94.36275,148.298254 92.85975,148.971004 91.3695,149.391754 C89.88525,149.831254 88.43025,150.097504 87.06,150.197254 C85.69125,150.321004 84.408,150.310504 83.244,150.226504 C80.9145,150.066004 79.06125,149.646004 77.82,149.248504 C77.19825,149.053504 76.72875,148.860004 76.41675,148.716754 C76.10925,148.562254 75.9525,148.475254 75.958334,148.463254" id="Fill-214" fill="#365158"></path>
                <path d="M41.95875,128.673754 C41.95875,128.673754 41.8035,128.644504 41.5635,128.480254 C41.32425,128.319004 40.998,128.005504 40.776,127.488754 C40.56375,126.976504 40.44525,126.271504 40.62,125.490004 C40.7865,124.701754 41.34,123.917254 42.11175,123.297754 C42.88875,122.673004 43.88175,122.209504 44.95875,121.818004 C46.0305,121.418254 47.2035,121.064254 48.2745,120.408754 C49.3455,119.761504 50.2185,118.717504 50.77425,117.469504 C51.34275,116.225254 51.61575,114.801754 51.657,113.344504 C51.71925,110.409004 51.0405,107.630254 50.96625,105.039004 C50.8485,102.462004 51.34425,100.040254 52.52175,98.417254 C53.68275,96.791254 55.23,96.039754 56.3025,95.847754 C56.84475,95.735254 57.2775,95.7661145 57.56325,95.784004 C57.849,95.828254 57.99675,95.858254 57.9945253,95.871004 C57.993,95.923504 57.384,95.754004 56.33475,95.997004 C55.305,96.227254 53.83575,96.991504 52.74825,98.575504 C51.6495,100.149004 51.19125,102.492004 51.3255,105.024754 C51.4155,107.569504 52.1085,110.345254 52.047,113.355004 C52.005,114.854254 51.7215,116.329504 51.12225,117.628504 C50.53875,118.929754 49.60275,120.039754 48.46275,120.715504 C47.3295,121.395754 46.1355,121.737754 45.069,122.122504 C44.00025,122.496004 43.03425,122.931754 42.28275,123.515254 C41.53575,124.093504 41.00625,124.814254 40.83225,125.541754 C40.6485,126.269254 40.737,126.939754 40.91775,127.432504 C41.31825,128.441254 42.0075,128.632504 41.95875,128.673754" id="Fill-215" fill="#365158"></path>
                <path d="M98.18475,89.009254 C98.18025,88.999504 98.2965,88.945504 98.52675,88.848754 C98.64075,88.797004 98.78625,88.743004 98.9655,88.701004 C99.1425,88.646254 99.35025,88.598254 99.59175,88.573504 C100.5285,88.430254 102.09225,88.656754 103.41225,89.946004 L103.413,89.947504 L103.4175,89.952754 C104.30025,91.060504 104.8275,92.761504 104.577,94.600504 C104.36625,96.443254 103.26225,98.358754 101.50125,99.680254 C99.756,101.028004 97.43025,101.807254 94.98075,101.944504 C92.52375,102.094504 89.964,101.722504 87.408,101.112004 C83.23575,100.105504 79.491,98.307754 76.419,96.246004 C74.86875,95.244004 73.401,94.287004 71.91375,93.623254 C70.43625,92.943754 68.94225,92.605504 67.5645,92.513254 C64.79025,92.331004 62.57775,93.050254 61.18425,93.699004 C59.778,94.362754 59.10975,94.930504 59.08275,94.889254 C59.08275,94.889254 59.715,94.277254 61.11825,93.562504 C62.508,92.863504 64.7445,92.088004 67.58175,92.237254 C68.988,92.313004 70.53075,92.646754 72.04575,93.327754 C73.569,93.992254 75.06,94.950754 76.61325,95.943004 C79.67925,97.977004 83.37225,99.735004 87.50025,100.732504 C90.02775,101.336254 92.559,101.706004 94.9575,101.566504 C97.3515,101.439004 99.59925,100.693504 101.292,99.405754 C102.999,98.139004 104.064,96.326254 104.2875,94.561504 C104.54775,92.797504 104.0655,91.164754 103.2405,90.089254 L103.24575,90.096004 C102.0195,88.855504 100.5165,88.585504 99.60375,88.691254 C98.66475,88.794004 98.19825,89.052004 98.18475,89.009254" id="Fill-216" fill="#365158"></path>
                <path d="M94.2105,82.4016606 C94.2105,82.4016606 94.26225,83.047504 93.85725,84.118504 C93.44775,85.171504 92.439,86.600254 90.65175,87.618004 C89.77125,88.131004 88.71375,88.548754 87.5235,88.740754 C86.33775,88.938004 85.044,88.930504 83.7135,88.755754 C81.036,88.424254 78.26775,87.369004 75.3555,86.462254 C72.45375,85.555504 69.516,85.017004 66.93825,85.573504 C64.362,86.102254 62.3415,87.557254 61.02225,89.020504 C59.68425,90.497254 58.977,91.989754 58.62525,93.042754 C58.278,94.105504 58.21425,94.729504 58.167,94.7213348 C58.1535,94.719754 58.1685,94.564504 58.20975,94.270504 C58.23675,93.972754 58.33575,93.546004 58.47975,92.997004 C58.7925,91.914754 59.4735,90.372004 60.816,88.836004 C62.1405,87.315004 64.19775,85.790254 66.864,85.221004 C69.53325,84.625504 72.54825,85.176004 75.4695,86.088754 C78.405,87.003754 81.14025,88.056004 83.76075,88.399504 C85.06275,88.580254 86.32275,88.598254 87.47325,88.421254 C88.62225,88.249504 89.65275,87.860254 90.516,87.377254 C92.2665,86.420254 93.27525,85.066504 93.717,84.059254 C94.155,83.034754 94.161,82.392754 94.2105,82.4016606" id="Fill-217" fill="#365158"></path>
            </g>
        </g>
    </g>
</svg>