<?xml version="1.0" encoding="UTF-8"?>
<svg width="95px" height="95px" viewBox="0 0 95 95" version="1.1" xmlns="http://www.w3.org/2000/svg" xmlns:xlink="http://www.w3.org/1999/xlink">
    <!-- Generator: Sketch 63.1 (92452) - https://sketch.com -->
    <title>smile_sad</title>
    <desc>Created with Sketch.</desc>
    <defs>
        <filter x="-13.8%" y="-13.8%" width="127.6%" height="127.6%" filterUnits="objectBoundingBox" id="filter-1">
            <feOffset dx="0" dy="2" in="SourceAlpha" result="shadowOffsetOuter1"></feOffset>
            <feGaussianBlur stdDeviation="2" in="shadowOffsetOuter1" result="shadowBlurOuter1"></feGaussianBlur>
            <feColorMatrix values="0 0 0 0 0   0 0 0 0 0   0 0 0 0 0  0 0 0 0.21 0" type="matrix" in="shadowBlurOuter1" result="shadowMatrixOuter1"></feColorMatrix>
            <feMerge>
                <feMergeNode in="shadowMatrixOuter1"></feMergeNode>
                <feMergeNode in="SourceGraphic"></feMergeNode>
            </feMerge>
        </filter>
    </defs>
    <g id="Azzurro" stroke="none" stroke-width="1" fill="none" fill-rule="evenodd">
        <g id="Faccine" transform="translate(-282.000000, -403.000000)">
            <g id="smile_sad" filter="url(#filter-1)" transform="translate(286.000000, 405.000000)">
                <path d="M86.555,43.277 C86.555,67.18 67.181,86.555 43.277,86.555 C19.377,86.555 1.70530257e-13,67.18 1.70530257e-13,43.277 C1.70530257e-13,19.374 19.377,1.70530257e-13 43.277,1.70530257e-13 C67.181,1.70530257e-13 86.555,19.374 86.555,43.277" id="Fill-109" fill="#FFFFFF"></path>
                <path d="M58.424,68.191 C59.739,68.401 60.642,66.86 59.773,65.852 C55.932,61.412 49.978,58.557 43.277,58.557 C36.58,58.557 30.625,61.412 26.789,65.852 C25.917,66.86 26.816,68.401 28.135,68.191 C32.684,67.458 37.829,67.048 43.277,67.048 C48.73,67.048 53.878,67.458 58.424,68.191" id="Fill-110" fill="#45281C"></path>
                <path d="M59.211,45.651 C58.911,45.486 58.556,45.762 58.62,46.099 C59.139,48.696 61.702,50.67 64.796,50.67 C67.893,50.67 70.459,48.696 70.975,46.099 C71.04,45.762 70.681,45.486 70.387,45.651 C68.791,46.548 66.869,47.074 64.796,47.074 C62.724,47.074 60.803,46.548 59.211,45.651" id="Fill-111" fill="#45281C"></path>
                <path d="M16.174,45.651 C15.874,45.486 15.518,45.762 15.585,46.099 C16.101,48.696 18.666,50.67 21.762,50.67 C24.856,50.67 27.422,48.696 27.937,46.099 C28.004,45.762 27.646,45.486 27.349,45.651 C25.756,46.548 23.834,47.074 21.762,47.074 C19.689,47.074 17.765,46.548 16.174,45.651" id="Fill-112" fill="#45281C"></path>
                <path d="M13.554,38.688 C13.307,38.688 13.06,38.625 12.835,38.491 C12.165,38.094 11.944,37.228 12.34,36.558 C14.707,32.56 19.03,29.876 23.17,29.984 C23.95,29.997 24.571,30.639 24.558,31.417 C24.547,32.189 23.917,32.806 23.147,32.806 L23.014,32.805 C19.917,32.805 16.614,34.879 14.769,37.996 C14.506,38.441 14.034,38.688 13.554,38.688" id="Fill-113" fill="#45281C"></path>
                <path d="M73.006,38.688 C72.524,38.688 72.056,38.441 71.792,37.996 C69.944,34.879 66.64,32.805 63.542,32.805 L63.408,32.806 C62.64,32.806 62.01,32.189 61.998,31.417 C61.986,30.639 62.607,29.997 63.388,29.984 C67.454,29.896 71.849,32.56 74.22,36.558 C74.617,37.227 74.394,38.093 73.723,38.49 C73.5,38.625 73.252,38.688 73.006,38.688" id="Fill-114" fill="#45281C"></path>
            </g>
        </g>
    </g>
</svg>